<?xml version="1.0" standalone="no"?>
<!DOCTYPE svg PUBLIC "-//W3C//DTD SVG 20010904//EN"
 "http://www.w3.org/TR/2001/REC-SVG-20010904/DTD/svg10.dtd">
<svg version="1.0" xmlns="http://www.w3.org/2000/svg"
 width="256.000000pt" height="256.000000pt" viewBox="0 0 256.000000 256.000000"
 preserveAspectRatio="xMidYMid meet">
<metadata>
Created by potrace 1.11, written by Peter Selinger 2001-2013
</metadata>
<g transform="translate(0.000000,256.000000) scale(0.100000,-0.100000)"
fill="#000000" stroke="none">
<path d="M1165 2524 c-87 -15 -96 -17 -170 -43 -148 -52 -304 -176 -413 -329
-30 -43 -92 -172 -92 -193 0 -23 14 -32 115 -68 50 -18 105 -39 123 -47 63
-28 78 -21 114 54 34 70 163 212 193 212 8 0 15 3 15 8 0 9 103 50 140 56 14
3 25 5 25 6 0 7 156 5 184 -3 18 -5 42 -10 53 -12 77 -15 211 -104 256 -170
15 -22 29 -42 32 -45 13 -11 42 -84 56 -136 13 -53 13 -160 -1 -227 -21 -103
-119 -241 -207 -295 -16 -9 -28 -20 -28 -24 0 -4 -9 -8 -19 -8 -11 0 -21 -4
-23 -8 -4 -11 -85 -48 -133 -61 -22 -6 -51 -20 -64 -30 -24 -19 -25 -20 -23
-177 2 -88 5 -167 8 -177 5 -17 14 -18 82 -13 77 5 125 15 172 34 14 5 28 10
33 10 4 1 29 11 55 23 26 12 49 23 52 23 3 1 32 19 65 41 118 77 249 230 309
360 29 62 66 177 61 186 -3 4 -2 10 3 13 8 5 14 43 16 108 0 21 5 38 9 38 5 0
5 5 2 10 -4 6 -8 50 -10 98 -2 48 -7 98 -10 112 -3 14 -8 36 -11 49 -3 14 -8
29 -12 35 -3 6 -7 17 -9 25 -1 8 -8 18 -15 22 -7 5 -10 9 -5 9 13 0 -43 102
-95 173 -131 177 -359 326 -558 363 -63 11 -204 11 -275 -2z"/>
<path d="M1226 1844 c-63 -35 -91 -86 -84 -154 2 -22 1 -40 -2 -40 -4 0 -16
-9 -28 -20 -11 -11 -35 -28 -51 -37 -17 -10 -108 -70 -203 -134 -95 -64 -178
-119 -185 -123 -7 -4 -26 0 -43 9 -57 29 -115 23 -171 -18 -87 -64 -69 -219
32 -263 l25 -12 0 -362 c-1 -351 -2 -362 -21 -372 -31 -17 -75 -60 -75 -75 0
-7 -4 -13 -9 -13 -5 0 -8 -27 -6 -59 3 -72 30 -115 87 -141 102 -46 217 23
220 131 1 65 -23 113 -71 141 -26 14 -41 30 -41 43 -1 30 -2 634 -1 678 1 29
5 37 19 37 46 0 102 98 98 174 -1 26 11 37 144 126 80 54 151 103 158 109 6 7
12 8 12 4 0 -4 4 -3 8 2 4 6 27 24 52 40 25 17 51 35 58 42 22 21 51 24 76 8
49 -32 146 -16 187 31 64 73 51 188 -27 239 -38 24 -122 29 -158 9z"/>
</g>
</svg>
