<?xml version="1.0" encoding="UTF-8"?>
<svg width="57px" height="49px" viewBox="0 0 57 49" version="1.1" xmlns="http://www.w3.org/2000/svg" xmlns:xlink="http://www.w3.org/1999/xlink">
    <!-- Generator: Sketch 49.3 (51167) - http://www.bohemiancoding.com/sketch -->
    <title>iamrole</title>
    <desc>Created with Sketch.</desc>
    <defs></defs>
    <g id="Asset-Dashboard" stroke="none" stroke-width="1" fill="none" fill-rule="evenodd" opacity="0.8">
        <g id="Asset-Dashboard-AWS-Copy" transform="translate(-368.000000, -467.000000)" fill-rule="nonzero">
            <g id="iamrole" transform="translate(368.000000, 467.014648)">
                <path d="M55.2406944,25.78625 C55.0224721,25.5237424 54.8330974,25.2385395 54.6758333,24.9355556 C53.7970466,23.2121966 53.1865843,21.3647449 52.8655556,19.4570833 C51.5485023,13.0881928 47.5909087,7.57724365 41.9766667,4.29430556 C37.8933333,1.78305556 33.74875,0.149722222 28.8351389,0.782638889 C22.3358333,1.61972222 16.8301389,4.0425 13.04625,9.67069444 C10.9502634,12.8471726 9.26710875,16.277515 8.03736111,19.8790278 C6.87361111,23.1593056 7.01652778,26.7526389 5.53972222,29.9444444 C5.22446572,30.5804164 4.86279279,31.1923033 4.45763889,31.7751389 C3.43680556,33.3336111 2.13694444,34.7763889 1.40875,36.4573611 C-0.387916667,40.5883333 0.598888889,42.9770833 4.60055556,45.0323611 C5.00888889,45.2433333 5.43083333,45.4338889 5.85958333,45.6040278 C10.5281944,47.4959722 21.4306944,49.8370833 28.1954167,47.2305556 C29.7710113,46.747284 31.2904669,46.0970665 32.7279167,45.2909722 C38.1111111,42.3986111 43.4875,39.4722222 48.8366667,36.5594444 C51.2763153,35.3278864 53.4716611,33.6629288 55.3155556,31.6458333 C57.0509722,29.6381944 57.0033333,27.7666667 55.2406944,25.78625 Z" id="Shape" fill="#263555"></path>
                <path d="M36.2395833,3.10333333 C39.1191951,4.12092206 41.7762419,5.68280348 44.0659722,7.70388889 C45.7877778,9.065 50.3679167,13.78125 51.4227778,19.7020833 C51.5316667,20.58 51.5997222,21.4715278 51.7698611,22.3358333 C51.9087605,22.7123438 52.1037888,23.0656891 52.3483333,23.3838889 L52.8995833,24.745 C52.8995833,24.745 53.9068056,26.3443056 54.4580556,27.1201389 C55.1386111,28.0865278 55.4108333,29.0801389 54.6418056,30.0873611 C52.9336111,32.3127778 50.6809722,33.8576389 47.9179167,35.2936111 L48.1969444,32.3876389 L46.3866667,31.8704167 C45.7061111,33.4220833 46.12125,34.5926389 47.83625,35.4365278 C46.2165278,36.2940278 44.8009722,37.0358333 43.3922222,37.7844444 C39.0638889,40.0983333 34.7695833,42.4734722 30.4072222,44.7261111 C27.2349823,46.3931362 23.6855042,47.2113448 20.1036111,47.10125 C15.9692372,46.9542189 11.8826898,46.166755 7.98972222,44.7669444 C6.22027778,44.1340278 4.81152778,41.3641667 5.35597222,39.6151389 C5.60921257,38.7560733 6.46844134,38.2252869 7.35,38.3833333 C10.3852778,38.7031944 13.41375,39.0638889 16.4422222,39.4313889 C19.8109722,39.8397222 23.1729167,40.5679167 26.5416667,40.5951389 C30.3595833,40.5951389 34.0277778,39.4313889 37.5938889,37.9477778 C36.5118056,38.0226389 35.4297222,38.0838889 34.3476389,38.1655556 C31.3395833,38.3901389 28.3111111,38.4854167 25.3234722,38.8801389 C21.6144444,39.3701389 18.1027778,38.5602778 14.5775,37.6823611 C11.7753275,37.0583573 9.31828996,35.3854289 7.71069444,33.0069444 C7.07777778,32.0609722 6.68986111,30.9652778 7.17986111,29.9444444 C7.57458333,30.2983333 8.01013889,30.9584722 8.35041667,30.9176389 C8.69069444,30.8768056 9.27597222,30.2779167 9.45972222,29.8083333 C9.9225,28.60375 10.2355556,27.3379167 10.5894444,26.0925 C11.1106501,23.8309424 11.7489636,21.597981 12.5018056,19.4026389 C14.0806944,15.4554167 15.7480556,11.515 18.3818056,8.11902778 C19.3403509,6.82969092 20.4280784,5.64162797 21.6280556,4.57333333 C23.2069444,3.21222222 25.2554167,2.74944444 27.25625,2.53166667 C29.6313889,2.30708333 32.0201389,2.42277778 34.4429167,2.40236111 C34.5790278,2.40236111 34.7151389,2.51805556 34.85125,2.58611111 L36.2395833,3.10333333 Z" id="Shape" fill="#3C5079"></path>
                <path d="M51.4227778,19.7020833 C50.956214,18.665721 50.4266592,17.6588852 49.8370833,16.6872222 C48.3809699,14.6117647 46.0019294,13.3795596 43.4666338,13.3876986 C40.9313381,13.3958376 38.560258,14.6432919 37.1175,16.7280556 C35.1302778,19.5115278 34.2047222,22.6897222 33.6738889,26.0108333 C33.5105556,27.0044444 33.3948611,28.0116667 33.2179167,29.2843056 C32.2216143,27.567355 31.6892179,25.6207074 31.6730556,23.6356944 C31.4825,19.6272222 32.0541667,15.7548611 34.5586111,12.4133333 C36.3484722,10.0245833 38.465,8.07819444 41.5615278,7.64944444 C42.3948312,7.60112128 43.2307999,7.62845541 44.0591667,7.73111111 C45.0051389,8.54777778 46.1348611,9.22833333 46.8698611,10.2015278 C48.8311841,12.6197839 50.3098164,15.3922195 51.2254167,18.3681944 C51.3203738,18.8080168 51.3863031,19.253608 51.4227778,19.7020833 L51.4227778,19.7020833 Z" id="Shape" fill="#516A9C"></path>
                <path d="M36.2395833,3.10333333 C32.7891667,4.06291667 30.7951389,6.615 29.1481944,9.555 C26.7934722,13.7948611 25.0648611,18.2456944 25.1601389,23.1661111 C25.1761326,25.9795589 25.7715145,28.7595518 26.9091667,31.3327778 C27.0316667,31.605 27.1201389,31.8908333 27.2902778,32.34 C26.060113,32.4090639 24.8887114,31.8077444 24.2277778,30.7679167 C22.9712902,28.9499908 22.3493602,26.7684519 22.4583333,24.56125 C22.60125,18.2116667 23.8194444,12.1343056 27.9708333,7.02333333 C28.8808013,5.93282488 29.8752166,4.91565412 30.9448611,3.98125 C32.0143468,3.01720555 33.4280656,2.52633097 34.8648611,2.62013889 L36.2395833,3.10333333 Z" id="Shape" fill="#516A9C"></path>
                <path d="M52.8995833,24.7586111 C52.8995833,26.3238889 51.8175,27.1473611 50.7694444,27.9844444 C45.5155556,32.1834722 39.3973611,34.4088889 32.8708333,35.6134722 C29.9784722,36.1511111 27.0656944,36.6206944 24.1461111,36.9745833 C20.5868056,37.4033333 17.2588889,36.1647222 13.8969444,35.2868056 C12.5358333,34.9261111 11.1747222,34.48375 9.76597222,34.0822222 C9.76597222,33.9325 9.76597222,33.7895833 9.81361111,33.6398611 C10.4250454,33.5887622 11.0396769,33.5887622 11.6511111,33.6398611 C14.3733333,34.1094444 17.0479167,34.8104167 19.7769444,35.0758333 C22.2835305,35.3398397 24.8109139,35.3398397 27.3175,35.0758333 C32.0099032,34.5993308 36.6212666,33.5196862 41.0375,31.8636111 C43.5964581,30.8322976 46.0797947,29.622467 48.4691667,28.2430556 C50.3611111,27.1813889 52.1101389,25.8406944 52.3483333,23.3770833 L52.8995833,24.7586111 Z" id="Shape" fill="#516A9C"></path>
                <path d="M46.3798611,31.8772222 C47.6865278,31.0945833 48.9591667,30.2506944 50.3066667,29.5565278 C50.8945201,29.374372 51.5086451,29.2915686 52.12375,29.3115278 L52.2530556,29.6313889 L48.1697222,32.3944444 L46.3798611,31.8772222 Z" id="Shape" fill="#516A9C"></path>
            </g>
        </g>
    </g>
</svg>