<?xml version="1.0" encoding="UTF-8"?>
<svg width="27px" height="49px" viewBox="0 0 27 49" version="1.1" xmlns="http://www.w3.org/2000/svg" xmlns:xlink="http://www.w3.org/1999/xlink">
    <!-- Generator: Sketch 49.3 (51167) - http://www.bohemiancoding.com/sketch -->
    <title>iamuser</title>
    <desc>Created with Sketch.</desc>
    <defs></defs>
    <g id="Asset-Dashboard" stroke="none" stroke-width="1" fill="none" fill-rule="evenodd" opacity="0.8">
        <g id="Asset-Dashboard-AWS-Copy" transform="translate(-256.000000, -467.000000)" fill-rule="nonzero">
            <g id="Group-66" transform="translate(191.000000, -128.000000)">
                <g id="Group-48" transform="translate(20.000000, 0.000000)">
                    <g id="Group-11" transform="translate(0.000000, 578.000000)">
                        <g id="Page-1" transform="translate(0.000000, 0.500000)">
                            <g id="iamuser" transform="translate(45.353659, 16.514648)">
                                <polygon id="Shape" fill="#3C4929" points="4.81634146 17.1320732 1.8345122 14.3892683 0.346585366 17.257561 2.62926829 17.5264634"></polygon>
                                <polygon id="Shape" fill="#4AA493" points="2.34243902 20.6815854 13.1463415 21.3687805 23.9502439 20.6815854 13.1463415 14.7"></polygon>
                                <polygon id="Shape" fill="#4AA493" points="20.4485366 17.1320732 23.0778049 17.5981707 25.9460976 17.257561 23.382561 11.8556098"></polygon>
                                <polygon id="Shape" fill="#7690C6" points="9.60280488 36.6842683 15.7815854 35.2381707 21.7452439 36.6304878 15.5664634 42.5045122"></polygon>
                                <polygon id="Shape" fill="#516A9C" points="10.29 16.5882927 7.07512195 16.032561 3.76463415 11.9093902 7.07512195 5.25256098 10.29 6.2504878"></polygon>
                                <polygon id="Shape" fill="#263555" points="2.34243902 9.22036585 2.34243902 5.40195122 13.1463415 0 16.0026829 6.04134146 10.29 8.33 7.07512195 7.32609756 7.07512195 15.9130488 13.1463415 14.7 16.3791463 28.9219512 13.1463415 49 9.90756098 47.3806098 9.90756098 42.8032927 7.07512195 41.6739024 7.07512195 20.2035366 2.34243902 20.6815854 2.34243902 16.8631707 0.346585366 17.257561 0.346585366 10.0210976"></polygon>
                                <polygon id="Shape" fill="#3C5079" points="18.7395122 2.79658537 21.0162195 3.93195122 23.9502439 5.40195122 23.9502439 9.22036585 25.9460976 10.0210976 25.9460976 17.257561 23.9502439 16.8631707 23.9502439 20.6815854 21.4046341 20.4246341 19.217561 20.2035366 19.217561 24.4521951 19.217561 24.4760976 19.217561 24.5 23.9502439 24.5 23.9502439 28.4259756 21.7512195 28.6231707 21.7512195 32.585 16.3791463 33.6546341 16.3791463 38.2319512 21.7392683 36.6364634 21.7512195 40.6759756 16.3791463 42.8032927 16.3791463 47.3806098 13.1463415 49 13.1463415 34.3 13.1463415 29.4 13.1463415 24.470122 13.1463415 24.4462195 13.1463415 19.6 13.1463415 14.7 16.0026829 15.2676829 16.0026829 8.33 13.1463415 7.32609756 13.1463415 4.9 13.1463415 0"></polygon>
                                <polygon id="Shape" fill="#3C4929" points="16.3791463 6.19073171 13.1463415 4.9 7.07512195 7.32609756 10.29 8.33"></polygon>
                                <polygon id="Shape" fill="#516A9C" points="16.0026829 7.32609756 19.217561 7.32609756 19.217561 15.9130488 16.0026829 15.2676829"></polygon>
                                <polygon id="Shape" fill="#1D2126" points="7.07512195 7.32609756 13.1463415 4.9 14.425122 5.41390244 16.3791463 6.19073171 19.217561 7.32609756 16.0026829 8.33 13.1463415 7.32609756 10.29 8.33"></polygon>
                            </g>
                        </g>
                    </g>
                </g>
            </g>
        </g>
    </g>
</svg>