<svg id="Layer_1" data-name="Layer 1" xmlns="http://www.w3.org/2000/svg" xmlns:xlink="http://www.w3.org/1999/xlink" viewBox="0 0 624 480"><defs><style>.cls-1{fill:url(#linear-gradient);}</style><linearGradient id="linear-gradient" x1="32.84" y1="237.74" x2="586.9" y2="237.74" gradientUnits="userSpaceOnUse"><stop offset="0" stop-color="#733d64"/><stop offset="0.21" stop-color="#913169"/><stop offset="0.56" stop-color="#bc1f6f"/><stop offset="0.84" stop-color="#d61473"/><stop offset="1" stop-color="#e01075"/></linearGradient></defs><title>Artboard 1 copy 11</title><path class="cls-1" d="M298.88,134c-9.68-54.47-65-103.34-120.24-106.89a131,131,0,0,0-132,86.49,4.79,4.79,0,0,0,2.91,6.09l37.82,13.8c5.39,2,8.18.75,9-1.72C110.72,91.52,157,66.46,204.72,87.33c25.93,11.35,43.19,37.21,43.13,65.51-.12,56.6-51.86,76.1-71,81.38a9.57,9.57,0,0,0-7,9.25s0,28.54.52,45a4.79,4.79,0,0,0,4.92,4.66C258.45,290.43,312.57,211,298.88,134ZM182.65,173.43a23.81,23.81,0,0,1-29.1-1.91L79.24,221.65a23.81,23.81,0,0,1-9.12,27.69A45.65,45.65,0,0,1,62.6,253V398.38a23.81,23.81,0,1,1-11.9,0V253s-9.9-4.58-13.63-10.11A23.81,23.81,0,0,1,72.6,211.78l74.3-50.12a23.8,23.8,0,1,1,35.75,11.77Zm-8.88,274.76V378.81h29.42a19.74,19.74,0,0,1,8.84,2,23,23,0,0,1,7,5.28,25,25,0,0,1,4.59,7.42,22.32,22.32,0,0,1,1.66,8.36,24.14,24.14,0,0,1-1.56,8.55,23.88,23.88,0,0,1-4.4,7.38,21.7,21.7,0,0,1-6.84,5.17,19.68,19.68,0,0,1-8.79,2H187.26v23.26Zm13.49-35.09h15.63a7.71,7.71,0,0,0,6.21-3,12.55,12.55,0,0,0,2.49-8.21,13.54,13.54,0,0,0-.78-4.74,11.68,11.68,0,0,0-2.05-3.57,8.18,8.18,0,0,0-3-2.2,8.72,8.72,0,0,0-3.47-.73H187.26Zm71.51-34.29H270.7l26.38,69.38H283.2l-6.45-17.3H252.52l-6.35,17.3H232.29Zm15.54,42.6-9.57-27.26-10,27.26Zm31-8.5a35.78,35.78,0,0,1,2.3-12.56,33.62,33.62,0,0,1,17.44-19,33.16,33.16,0,0,1,14.46-3,31.55,31.55,0,0,1,16.56,4.2,26.84,26.84,0,0,1,10.41,10.94L356.1,400.6a17.74,17.74,0,0,0-3.32-4.94,16.59,16.59,0,0,0-4.2-3.17,18.75,18.75,0,0,0-4.69-1.71,22.2,22.2,0,0,0-4.79-.54,18.13,18.13,0,0,0-8.84,2.05,19.39,19.39,0,0,0-6.26,5.33,23.5,23.5,0,0,0-3.76,7.42A28,28,0,0,0,319,413.3a26.84,26.84,0,0,0,1.47,8.84,23.38,23.38,0,0,0,4.15,7.48A20.69,20.69,0,0,0,331,434.8a17.64,17.64,0,0,0,8.25,1.95,21.72,21.72,0,0,0,4.89-.58,18.32,18.32,0,0,0,9.09-5.13,15.36,15.36,0,0,0,3.13-4.84l11,6.35a20.92,20.92,0,0,1-4.74,6.89,30.49,30.49,0,0,1-6.94,5,35.5,35.5,0,0,1-8.26,3.13,36.48,36.48,0,0,1-8.6,1.07,29.59,29.59,0,0,1-13.58-3.12,35.53,35.53,0,0,1-10.6-8.16A37.78,37.78,0,0,1,307.78,426,35.65,35.65,0,0,1,305.29,412.91ZM442.2,430.3a16.28,16.28,0,0,1-1.76,7.72,16.08,16.08,0,0,1-4.84,5.57,22.57,22.57,0,0,1-7.13,3.42,31.06,31.06,0,0,1-8.65,1.18H386.31V378.81h37.13a13.74,13.74,0,0,1,6.55,1.56,16.37,16.37,0,0,1,5,4.05,18.54,18.54,0,0,1,3.17,5.67A19,19,0,0,1,436.73,406a15.51,15.51,0,0,1-7.43,6.6,17.82,17.82,0,0,1,9.43,6.3A18.22,18.22,0,0,1,442.2,430.3Zm-42.41-40v17.49h18a8,8,0,0,0,5.81-2.35A8.59,8.59,0,0,0,426,399a8.9,8.9,0,0,0-2.2-6.35,7.15,7.15,0,0,0-5.42-2.34Zm28.83,37.42a10,10,0,0,0-.64-3.56,9.68,9.68,0,0,0-1.71-3,8,8,0,0,0-2.54-2,7.09,7.09,0,0,0-3.22-.73H399.79v18.27h20a8.87,8.87,0,0,0,3.47-.68,8.35,8.35,0,0,0,2.79-1.91,9,9,0,0,0,1.85-2.88A9.09,9.09,0,0,0,428.62,427.76Zm59,20.91a31.43,31.43,0,0,1-13.82-3,33.75,33.75,0,0,1-10.65-7.91,36.77,36.77,0,0,1-9.34-24.28,35,35,0,0,1,2.59-13.29A36.72,36.72,0,0,1,463.56,389a34,34,0,0,1,10.8-7.77,32,32,0,0,1,13.58-2.88,30.39,30.39,0,0,1,13.73,3.08,34.19,34.19,0,0,1,10.6,8.06,37.17,37.17,0,0,1,6.84,11.33,35.68,35.68,0,0,1,2.44,12.9A34.93,34.93,0,0,1,519,426.93a36,36,0,0,1-7,11.14,33.75,33.75,0,0,1-10.75,7.72A32.1,32.1,0,0,1,487.64,448.67ZM467.52,413.5a28,28,0,0,0,1.36,8.69,23.14,23.14,0,0,0,4,7.43,19.65,19.65,0,0,0,6.35,5.18,19.71,19.71,0,0,0,17.2-.05,19.61,19.61,0,0,0,6.35-5.33,23.59,23.59,0,0,0,3.91-7.47A27.77,27.77,0,0,0,508,413.5a26.89,26.89,0,0,0-1.42-8.7,24,24,0,0,0-4-7.43,19.23,19.23,0,0,0-6.35-5.13,19.83,19.83,0,0,0-17.15.1,19.25,19.25,0,0,0-6.36,5.28,23.72,23.72,0,0,0-3.86,7.42A28.08,28.08,0,0,0,467.52,413.5ZM586.9,390.63H564.72v57.56H551.33V390.63H529.15V378.81H586.9Z"/></svg>