<?xml version="1.0" encoding="UTF-8"?>
<svg width="47px" height="50px" viewBox="0 0 47 50" version="1.1" xmlns="http://www.w3.org/2000/svg" xmlns:xlink="http://www.w3.org/1999/xlink">
    <!-- Generator: Sketch 49.3 (51167) - http://www.bohemiancoding.com/sketch -->
    <title>internetgateway</title>
    <desc>Created with Sketch.</desc>
    <defs></defs>
    <g id="Asset-Dashboard" stroke="none" stroke-width="1" fill="none" fill-rule="evenodd" opacity="0.8">
        <g id="internetgateway" transform="translate(-0.140625, 0.261719)" fill-rule="nonzero">
            <circle id="Oval" fill="#263555" cx="23.734375" cy="25.4570312" r="23.2979687"></circle>
            <rect id="Rectangle-path" fill="#9D5025" x="0.43640625" y="23.5429688" width="46.5959375" height="1.9140625"></rect>
            <circle id="Oval" fill="#3C5079" cx="23.734375" cy="23.5429688" r="23.2979687"></circle>
            <path d="M6.1709375,25.8551563 L6.1709375,25.265625 C6.34083688,22.5026255 7.98897181,20.0465239 10.4814062,18.8420312 C10.6877318,14.6741639 13.6081517,11.137202 17.6616721,10.1459095 C21.7151925,9.15461705 25.938326,10.9446158 28.0448437,14.546875 C29.4984157,13.9283537 31.1538592,14.001132 32.5475441,14.7448272 C33.9412289,15.4885224 34.9233131,16.8231762 35.21875,18.375 C38.7329688,19.0640625 41.2671875,22.4251562 41.2671875,25.265625 L41.2671875,25.8245312 C41.2671875,29.2698437 37.699375,32.2940625 33.6109375,32.2940625 L13.78125,32.2940625 C9.73875,32.3246875 6.1709375,29.3004688 6.1709375,25.8551563 Z" id="Shape" fill="#FFFFFF"></path>
            <path d="M28.5195312,17.0275 L27.0342188,18.0457813 L26.2685938,16.4073437 C25.1430251,13.896832 22.6574424,12.2726787 19.90625,12.25 C18.0428958,12.2499989 16.2559713,12.9907371 14.9390991,14.3090454 C13.6222269,15.6273536 12.8834367,17.4150844 12.8854687,19.2784375 L12.8854687,20.58 L11.7829687,20.9015625 C9.97181805,21.6307845 8.72731906,23.3197474 8.56734375,25.265625 L8.56734375,25.8245312 C8.56734375,27.715625 10.8642187,29.9129687 13.811875,29.9129687 L33.6875,29.9129687 C36.6351562,29.9129687 38.924375,27.715625 38.924375,25.8245312 L38.924375,25.265625 C38.924375,23.366875 36.8035938,20.8632812 34.330625,20.671875 L32.9984375,20.5646875 L32.921875,19.2478125 C32.8849715,18.2226135 32.2922882,17.2990076 31.375687,16.8383159 C30.4590857,16.3776241 29.3642669,16.4530767 28.5195313,17.0351563 L28.5195312,17.0275 Z" id="Shape" fill="#3C5079"></path>
        </g>
    </g>
</svg>