<?xml version="1.0" encoding="UTF-8"?>
<svg width="47px" height="50px" viewBox="0 0 47 50" version="1.1" xmlns="http://www.w3.org/2000/svg" xmlns:xlink="http://www.w3.org/1999/xlink">
    <!-- Generator: Sketch 49.3 (51167) - http://www.bohemiancoding.com/sketch -->
    <title>networkacl</title>
    <desc>Created with Sketch.</desc>
    <defs></defs>
    <g id="Asset-Dashboard" stroke="none" stroke-width="1" fill="none" fill-rule="evenodd" opacity="0.8">
        <g id="Asset-Dashboard-AWS-Copy" transform="translate(-756.000000, -210.000000)" fill-rule="nonzero">
            <g id="networkacl" transform="translate(755.765625, 210.692308)">
                <path d="M0.43640625,24.68375 C0.43640625,11.8135938 10.8642188,2.15140625 23.734375,2.15140625 C36.6045313,2.15140625 47.0323438,11.8135938 47.0323438,24.68375" id="Shape" fill="#9D5025"></path>
                <path d="M47.0323438,24.68375 C47.0323438,37.515625 36.6045313,48.7473437 23.734375,48.7473437 C10.8642188,48.7473437 0.43640625,37.515625 0.43640625,24.68375" id="Shape" fill="#263555"></path>
                <path d="M23.734375,0.25265625 C10.8642188,0.25265625 0.43640625,9.953125 0.43640625,22.785 C0.43640625,35.616875 10.8642188,46.8485937 23.734375,46.8485937 C36.6045313,46.8485937 47.0323438,35.6551562 47.0323438,22.785 C47.0323438,9.91484375 36.6045313,0.25265625 23.734375,0.25265625 Z" id="Shape" fill="#3C5079"></path>
                <path d="M27.5625,23.4817188 L27.5625,20.51875 C27.3334388,18.5930083 25.7004888,17.1427815 23.7611719,17.1427815 C21.821855,17.1427815 20.1889049,18.5930083 19.9598438,20.51875 L19.9598438,23.489375 L17.9921875,23.489375 L17.9921875,30.0660938 L29.4765625,30.0660938 L29.4765625,23.4817188 L27.5625,23.4817188 Z M25.7020312,23.4817187 L21.7896875,23.4817187 L21.7896875,20.5110937 C21.7905147,20.0077576 22.0003766,19.5273794 22.3691151,19.1847719 C22.7378536,18.8421645 23.2323347,18.6681137 23.734375,18.7042187 C24.7746051,18.6696454 25.6487847,19.4789445 25.694375,20.51875 L25.7020312,23.4817187 Z" id="Shape" fill="#FFFFFF"></path>
                <rect id="Rectangle-path" fill="#516A9C" x="11.1015625" y="10.1521875" width="3.828125" height="26.796875"></rect>
                <rect id="Rectangle-path" fill="#516A9C" x="32.5390625" y="10.1521875" width="3.828125" height="26.796875"></rect>
                <polyline id="Shape" fill="#FFFFFF" points="5.7421875 25.0129688 5.7421875 26.9959375 9.5703125 23.9334375 5.7421875 20.8709375 5.7421875 22.8615625"></polyline>
                <polyline id="Shape" fill="#FFFFFF" points="41.7265625 22.8615625 41.7265625 20.8709375 37.8984375 23.9334375 41.7265625 26.9959375 41.7265625 25.0129688"></polyline>
            </g>
        </g>
    </g>
</svg>