<?xml version="1.0" encoding="UTF-8"?>
<svg width="48px" height="50px" viewBox="0 0 48 50" version="1.1" xmlns="http://www.w3.org/2000/svg" xmlns:xlink="http://www.w3.org/1999/xlink">
    <!-- Generator: Sketch 49.3 (51167) - http://www.bohemiancoding.com/sketch -->
    <title>peeringconnection</title>
    <desc>Created with Sketch.</desc>
    <defs></defs>
    <g id="Asset-Dashboard" stroke="none" stroke-width="1" fill="none" fill-rule="evenodd" opacity="0.8">
        <g id="peeringconnection" transform="translate(0.000000, 0.261719)" fill-rule="nonzero">
            <circle id="Oval" fill="#263555" cx="23.734375" cy="25.4570312" r="23.2979687"></circle>
            <circle id="Oval" fill="#3C5079" cx="23.734375" cy="23.5429688" r="23.2979687"></circle>
            <polygon id="Shape" fill="#FFFFFF" points="45.9604688 23.6195313 37.6917188 18.8496875 37.6917188 21.7054688 25.6484375 21.7054688 25.6484375 9.6621875 28.5042188 9.6621875 23.734375 1.40109375 18.9645313 9.6621875 21.8203125 9.6621875 21.8203125 21.7054688 9.77703125 21.7054688 9.77703125 18.8496875 1.50828125 23.6195313 9.77703125 28.3970313 9.77703125 25.5335937 21.8203125 25.5335937 21.8203125 37.576875 18.9645313 37.576875 23.734375 45.845625 28.5042188 37.576875 25.6484375 37.576875 25.6484375 25.5335937 37.6917188 25.5335937 37.6917188 28.3970313"></polygon>
            <path d="M17.3567187,29.155 C14.9909375,29.155 13.2223438,27.3634375 13.2223438,25.7632812 L13.2223438,25.4034375 C13.3260247,23.8064314 14.3569882,22.4188265 15.8560937,21.8585937 L16.0015625,21.8203125 L16.0015625,21.5753125 C15.9974452,19.0875561 17.7295565,16.9340351 20.1603533,16.4047189 C22.5911502,15.8754027 25.0618534,17.1137434 26.0925,19.3779688 L26.1920312,19.6 L26.3910937,19.4621875 C27.1648422,18.9308123 28.1665885,18.8630432 29.0048554,19.285364 C29.8431223,19.7076847 30.3848297,20.5530494 30.4182812,21.4910938 L30.4182812,21.6595313 L30.594375,21.6595313 C32.5403991,21.8848964 34.0650323,23.438236 34.2540625,25.388125 L34.2540625,25.7479687 C34.2540625,27.348125 32.4854687,29.1396875 30.1196875,29.1396875 L17.3567187,29.155 Z" id="Shape" fill="#3C5079"></path>
            <path d="M21.2690625,17.0428125 C23.0425871,17.0422881 24.6529076,18.0779217 25.388125,19.691875 L25.8628125,20.7407812 L26.796875,20.09 C27.3403141,19.7145679 28.0453033,19.6655815 28.6354433,19.9622465 C29.2255833,20.2589115 29.6068209,20.853947 29.6296875,21.5140625 L29.6296875,22.3639062 L30.4871875,22.4328125 C32.0329462,22.6362772 33.2470263,23.856648 33.4425,25.4034375 L33.4425,25.7632813 C33.4425,26.980625 31.9725,28.389375 30.07375,28.389375 L17.3567187,28.389375 C15.4579688,28.389375 13.9879688,26.9729688 13.9879688,25.7632813 L13.9879688,25.4034375 C14.0955746,24.1480741 14.9055126,23.0622232 16.078125,22.60125 L16.7901562,22.3945312 L16.7901562,21.56 C16.7881234,20.362672 17.2623358,19.2136872 18.1082574,18.3663294 C18.954179,17.5189716 20.1023577,17.0428108 21.2996875,17.0428125 L21.2690625,17.0428125 Z M21.2996875,15.5115625 C18.071158,15.512292 15.4138718,18.0515516 15.2665625,21.2767188 C13.6597844,22.0498308 12.5966524,23.6313494 12.4873437,25.4110937 L12.4873437,25.7709375 C12.4873437,27.9835937 14.7842187,29.9282812 17.3873437,29.9282812 L30.1120313,29.9282812 C32.7228125,29.9282812 35.0120312,27.9835937 35.0120312,25.7709375 L35.0120312,25.4110937 C34.8387311,23.2373995 33.2561149,21.4367064 31.1226563,20.9857812 C30.9343408,19.9913654 30.3060154,19.1356364 29.4136135,18.6582013 C28.5212115,18.1807662 27.4606559,18.132944 26.5289063,18.528125 C25.443881,16.667665 23.4534241,15.5223509 21.2996875,15.5192188 L21.2996875,15.5115625 Z" id="Shape" fill="#FFFFFF"></path>
        </g>
    </g>
</svg>