<?xml version="1.0" encoding="UTF-8"?>
<svg width="54px" height="49px" viewBox="0 0 54 49" version="1.1" xmlns="http://www.w3.org/2000/svg" xmlns:xlink="http://www.w3.org/1999/xlink">
    <!-- Generator: Sketch 49.3 (51167) - http://www.bohemiancoding.com/sketch -->
    <title>routetable</title>
    <desc>Created with Sketch.</desc>
    <defs></defs>
    <g id="Asset-Dashboard" stroke="none" stroke-width="1" fill="none" fill-rule="evenodd" opacity="0.8">
        <g id="routetable" fill-rule="nonzero">
            <rect id="Rectangle-path" fill="#263555" x="0.418870968" y="1.69129032" width="52.9041935" height="12.9929032"></rect>
            <rect id="Rectangle-path" fill="#3C5079" x="0.418870968" y="0.0869354839" width="52.9041935" height="12.6451613"></rect>
            <rect id="Rectangle-path" fill="#263555" x="0.418870968" y="18.5567742" width="52.9041935" height="13.5619355"></rect>
            <rect id="Rectangle-path" fill="#3C5079" x="0.418870968" y="17.5214516" width="52.9041935" height="12.6451613"></rect>
            <rect id="Rectangle-path" fill="#263555" x="0.418870968" y="35.6751613" width="52.9041935" height="13.1351613"></rect>
            <rect id="Rectangle-path" fill="#3C5079" x="0.418870968" y="34.2051613" width="52.9041935" height="12.6451613"></rect>
            <path d="M6.93903226,10.1872581 L5.72983871,10.1872581 L5.72983871,4.59177419 L4.14919355,4.59177419 L4.14919355,3.80145161 L4.26774194,3.80145161 C4.99483871,3.80145161 5.8483871,3.62758065 6.04596774,2.64758065 L6.04596774,2.49741935 L6.93112903,2.49741935 L6.93903226,10.1872581 Z M13.7516129,3.61177419 C12.4068493,5.56214519 11.5900178,7.82749128 11.3806452,10.1872581 L10.1003226,10.1872581 C10.3422413,7.85826823 11.1986656,5.63538355 12.5819355,3.74612903 L9.2783871,3.74612903 L9.2783871,2.63177419 L13.7516129,2.63177419 L13.7516129,3.61177419 Z M19.1574194,10.1872581 L14.7474194,10.1872581 C14.7474194,6.83629032 17.9087097,6.91532258 17.9087097,4.52064516 C17.9087097,3.8883871 17.64,3.35887097 16.9682258,3.35887097 C16.0593548,3.35887097 15.9170968,4.14919355 15.9170968,4.93951613 L14.7632258,4.93951613 C14.7632258,3.40629032 15.3796774,2.45790323 16.9919355,2.45790323 C17.5626841,2.38652976 18.1351189,2.5769041 18.5494427,2.97588266 C18.9637666,3.37486122 19.1755991,3.93970715 19.1258065,4.51274194 C19.1258065,7.0733871 16.6679032,7.23145161 16.098871,9.12032258 L19.1574194,9.12032258 L19.1574194,10.1872581 Z M21.7101613,10.1872581 L20.5009677,10.1872581 L20.5009677,8.75677419 L21.7180645,8.75677419 L21.7101613,10.1872581 Z M26.1201613,10.1872581 L24.9109677,10.1872581 L24.9109677,4.59177419 L23.3303226,4.59177419 L23.3303226,3.80145161 L23.448871,3.80145161 C24.1759677,3.80145161 25.0295161,3.62758065 25.2270968,2.64758065 L25.2270968,2.49741935 L26.1122581,2.49741935 L26.1201613,10.1872581 Z M30.6724194,10.3374194 C28.7598387,10.3374194 28.4041935,8.85951613 28.4041935,6.6466129 C28.4041935,4.43370968 28.8230645,2.47370968 30.7751613,2.47370968 C32.1029032,2.47370968 32.8141935,3.08225806 32.8141935,4.34677419 L31.6129032,4.34677419 C31.6129032,3.90419355 31.4074194,3.34306452 30.8225806,3.34306452 C29.6845161,3.34306452 29.6212903,4.87629032 29.6212903,5.99854839 C29.9209365,5.4768019 30.490809,5.17041885 31.0912903,5.20822581 C32.1266129,5.20822581 32.9564516,5.99854839 32.9564516,7.50806452 C32.9880645,9.28629032 32.2767742,10.3453226 30.6724194,10.3453226 L30.6724194,10.3374194 Z M35.4617742,10.1872581 L34.2446774,10.1872581 L34.2446774,8.75677419 L35.4617742,8.75677419 L35.4617742,10.1872581 Z M39.0103226,10.3374194 C37.556129,10.3374194 36.75,9.40483871 36.75,6.38580645 C36.75,3.36677419 37.5403226,2.43419355 39.0103226,2.43419355 C40.4803226,2.43419355 41.2706452,3.37467742 41.2706452,6.38580645 C41.2706452,9.39693548 40.4566129,10.3453226 39.0103226,10.3453226 L39.0103226,10.3374194 Z M43.7522581,10.1872581 L42.558871,10.1872581 L42.558871,8.75677419 L43.7759677,8.75677419 L43.7522581,10.1872581 Z M47.3008065,10.3374194 C45.8466129,10.3374194 45.0404839,9.40483871 45.0404839,6.38580645 C45.0404839,3.36677419 45.8308065,2.43419355 47.3008065,2.43419355 C48.7708065,2.43419355 49.561129,3.37467742 49.561129,6.38580645 C49.561129,9.39693548 48.7708065,10.3453226 47.3245161,10.3453226 L47.3008065,10.3374194 Z" id="Shape" fill="#FFFFFF"></path>
            <path d="M47.3245161,19.9319355 C48.7708065,19.9319355 49.5848387,20.8645161 49.5848387,23.8835484 C49.5848387,26.9025806 48.7945161,27.8351613 47.3245161,27.8351613 C45.8545161,27.8351613 45.0483871,26.8709677 45.0483871,23.8598387 C45.0483871,20.8487097 45.8387097,19.9319355 47.3245161,19.9319355 Z M42.5825806,26.1991935 L43.7996774,26.1991935 L43.7996774,27.6612903 L42.558871,27.6612903 L42.5825806,26.1991935 Z M37.1135484,21.2359677 L37.2320968,21.2359677 C37.9591935,21.2359677 38.8127419,21.0620968 39.0103226,20.0820968 L39.0103226,19.9319355 L39.8954839,19.9319355 L39.8954839,27.6612903 L38.6546774,27.6612903 L38.6546774,22.0420968 L37.0740323,22.0420968 L37.1135484,21.2359677 Z M34.2683871,26.1991935 L35.4854839,26.1991935 L35.4854839,27.6612903 L34.2446774,27.6612903 L34.2683871,26.1991935 Z M30.8225806,19.9319355 C32.1503226,19.9319355 32.8616129,20.5404839 32.8616129,21.805 L31.6129032,21.805 C31.6129032,21.3624194 31.4074194,20.8012903 30.8225806,20.8012903 C29.6845161,20.8012903 29.6212903,22.3345161 29.6212903,23.4567742 C29.9209365,22.9350277 30.490809,22.6286447 31.0912903,22.6664516 C32.1266129,22.6664516 32.9564516,23.4567742 32.9564516,24.9662903 C32.9564516,26.7445161 32.2451613,27.7956452 30.6408065,27.7956452 C28.7282258,27.7956452 28.3725806,26.3177419 28.3725806,24.1048387 C28.3725806,21.8919355 28.8230645,19.9319355 30.8225806,19.9319355 Z M23.3540323,21.2359677 L23.4725806,21.2359677 C24.1996774,21.2359677 25.0532258,21.0620968 25.2508065,20.0820968 L25.2508065,19.9319355 L26.1359677,19.9319355 L26.1359677,27.6612903 L24.9109677,27.6612903 L24.9109677,22.0420968 L23.3303226,22.0420968 L23.3540323,21.2359677 Z M20.508871,26.1991935 L21.7259677,26.1991935 L21.7259677,27.6612903 L20.5009677,27.6612903 L20.508871,26.1991935 Z M16.9840323,20.8012903 C16.0751613,20.8012903 15.9329032,21.5916129 15.9329032,22.3819355 L14.7632258,22.3819355 C14.7632258,20.8487097 15.3796774,19.9003226 16.9919355,19.9003226 C17.5626841,19.8289491 18.1351189,20.0193235 18.5494427,20.418302 C18.9637666,20.8172806 19.1755991,21.3821265 19.1258065,21.9551613 C19.1258065,24.5158065 16.6679032,24.673871 16.098871,26.5548387 L19.1574194,26.5548387 L19.1574194,27.6612903 L14.7474194,27.6612903 C14.7474194,24.3103226 17.9087097,24.3893548 17.9087097,21.9867742 C17.9087097,21.3387097 17.64,20.8012903 16.9682258,20.8012903 L16.9840323,20.8012903 Z M9.28629032,20.0820968 L13.7516129,20.0820968 L13.7516129,21.0620968 C12.4074933,23.0127988 11.5907248,25.27797 11.3806452,27.6375806 L10.1003226,27.6375806 C10.3426127,25.30868 11.1990008,23.0858892 12.5819355,21.1964516 L9.2783871,21.1964516 L9.28629032,20.0820968 Z M4.17290323,21.2359677 L4.29145161,21.2359677 C5.01854839,21.2359677 5.87209677,21.0620968 6.06967742,20.0820968 L6.06967742,19.9319355 L6.95483871,19.9319355 L6.95483871,27.6612903 L5.72983871,27.6612903 L5.72983871,22.0420968 L4.14919355,22.0420968 L4.17290323,21.2359677 Z" id="Shape" fill="#FFFFFF"></path>
            <path d="M47.3245161,36.6314516 C48.7708065,36.6314516 49.5848387,37.5640323 49.5848387,40.5830645 C49.5848387,43.6020968 48.7945161,44.5346774 47.3245161,44.5346774 C45.8545161,44.5346774 45.0483871,43.5467742 45.0483871,40.5593548 C45.0483871,37.5719355 45.8387097,36.6314516 47.3245161,36.6314516 Z M42.5825806,42.8987097 L43.7996774,42.8987097 L43.7996774,44.3370968 L42.558871,44.3370968 L42.5825806,42.8987097 Z M39.0577419,37.5008065 C38.148871,37.5008065 38.0066129,38.291129 38.0066129,39.0814516 L36.821129,39.0814516 C36.821129,37.5482258 37.4375806,36.5998387 39.0498387,36.5998387 C39.6205873,36.5284652 40.1930221,36.7188396 40.607346,37.1178181 C41.0216699,37.5167967 41.2335023,38.0816426 41.1837097,38.6546774 C41.1837097,41.2074194 38.7337097,41.3733871 38.1567742,43.2543548 L41.2153226,43.2543548 L41.2153226,44.3370968 L36.8053226,44.3370968 C36.8053226,40.986129 39.9666129,41.0572581 39.9666129,38.6625806 C39.9666129,38.0303226 39.7058065,37.5008065 39.0340323,37.5008065 L39.0577419,37.5008065 Z M34.2762903,42.8987097 L35.4933871,42.8987097 L35.4933871,44.3370968 L34.2446774,44.3370968 L34.2762903,42.8987097 Z M30.8225806,36.6314516 C32.1503226,36.6314516 32.8616129,37.24 32.8616129,38.5045161 L31.6129032,38.5045161 C31.6129032,38.0540323 31.4074194,37.5008065 30.8225806,37.5008065 C29.6845161,37.5008065 29.6212903,39.0340323 29.6212903,40.1562903 C29.9209365,39.6345438 30.490809,39.3281608 31.0912903,39.3659677 C32.1266129,39.3659677 32.9564516,40.1562903 32.9564516,41.6658065 C32.9564516,43.4440323 32.2451613,44.4951613 30.6408065,44.4951613 C28.7282258,44.4951613 28.3725806,43.0172581 28.3725806,40.8043548 C28.3725806,38.5914516 28.8230645,36.6314516 30.8225806,36.6314516 Z M23.346129,37.9354839 L23.4646774,37.9354839 C24.1917742,37.9354839 25.0453226,37.7616129 25.2429032,36.7816129 L25.2429032,36.6314516 L26.1280645,36.6314516 L26.1280645,44.3370968 L24.9109677,44.3370968 L24.9109677,38.7258065 L23.3303226,38.7258065 L23.346129,37.9354839 Z M20.5009677,42.8987097 L21.7180645,42.8987097 L21.7180645,44.3370968 L20.5009677,44.3370968 L20.5009677,42.8987097 Z M16.976129,37.5008065 C16.0672581,37.5008065 15.925,38.291129 15.925,39.0814516 L14.7632258,39.0814516 C14.7632258,37.5482258 15.3796774,36.5998387 16.9919355,36.5998387 C17.5626841,36.5284652 18.1351189,36.7188396 18.5494427,37.1178181 C18.9637666,37.5167967 19.1755991,38.0816426 19.1258065,38.6546774 C19.1258065,41.2074194 16.6679032,41.3733871 16.098871,43.2543548 L19.1574194,43.2543548 L19.1574194,44.3370968 L14.7474194,44.3370968 C14.7474194,40.986129 17.9087097,41.0572581 17.9087097,38.6625806 C17.9087097,38.0303226 17.64,37.5008065 16.9682258,37.5008065 L16.976129,37.5008065 Z M9.2783871,36.7816129 L13.7516129,36.7816129 L13.7516129,37.7616129 C12.4071715,39.7121495 11.5903715,41.9774081 11.3806452,44.3370968 L10.1003226,44.3370968 C10.3426127,42.0081961 11.1990008,39.7854054 12.5819355,37.8959677 L9.2783871,37.8959677 L9.2783871,36.7816129 Z M4.15709677,37.9354839 L4.27564516,37.9354839 C5.00274194,37.9354839 5.85629032,37.7616129 6.05387097,36.7816129 L6.05387097,36.6314516 L6.93903226,36.6314516 L6.93903226,44.3370968 L5.72983871,44.3370968 L5.72983871,38.7258065 L4.14919355,38.7258065 L4.15709677,37.9354839 Z" id="Shape" fill="#FFFFFF"></path>
            <path d="M39.0103226,3.46951613 C38.1804839,3.46951613 37.9670968,4.25983871 37.9670968,6.52806452 C37.9670968,8.79629032 38.1804839,9.5866129 39.0103226,9.5866129 C39.8401613,9.5866129 40.0535484,8.79629032 40.0535484,6.52806452 C40.0535484,4.25983871 39.8401613,3.46951613 39.0103226,3.46951613 Z" id="Shape" fill="#3C5079"></path>
            <path d="M47.3245161,3.46951613 C46.4946774,3.46951613 46.2812903,4.25983871 46.2812903,6.52806452 C46.2812903,8.79629032 46.4946774,9.5866129 47.3245161,9.5866129 C48.1543548,9.5866129 48.3677419,8.79629032 48.3677419,6.52806452 C48.3677419,4.25983871 48.1543548,3.46951613 47.3245161,3.46951613 Z" id="Shape" fill="#3C5079"></path>
            <path d="M47.3245161,27.0290323 C48.1543548,27.0290323 48.3677419,26.2387097 48.3677419,23.9704839 C48.3677419,21.7022581 48.1543548,20.9119355 47.3245161,20.9119355 C46.4946774,20.9119355 46.2812903,21.7022581 46.2812903,23.9704839 C46.2812903,26.2387097 46.4867742,27.0290323 47.3245161,27.0290323 Z" id="Shape" fill="#3C5079"></path>
            <path d="M30.7751613,27.0290323 C31.5180645,27.0290323 31.778871,26.2387097 31.778871,25.3772581 C31.778871,24.3103226 31.4706452,23.7096774 30.7751613,23.7096774 C29.89,23.7096774 29.7319355,24.5 29.7319355,25.4325806 C29.7319355,26.3651613 30.0322581,27.0290323 30.7751613,27.0290323 Z" id="Shape" fill="#3C5079"></path>
            <path d="M47.3245161,43.7285484 C48.1543548,43.7285484 48.3677419,42.9382258 48.3677419,40.67 C48.3677419,38.4017742 48.1543548,37.6114516 47.3245161,37.6114516 C46.4946774,37.6114516 46.2812903,38.4017742 46.2812903,40.67 C46.2812903,42.9382258 46.4867742,43.7285484 47.3245161,43.7285484 Z" id="Shape" fill="#3C5079"></path>
            <path d="M30.7751613,43.7285484 C31.5180645,43.7285484 31.778871,42.9382258 31.778871,42.0767742 C31.778871,41.0098387 31.4706452,40.4091935 30.7751613,40.4091935 C29.89,40.4091935 29.7319355,41.1995161 29.7319355,42.1320968 C29.7319355,43.0646774 30.0322581,43.7285484 30.7751613,43.7285484 Z" id="Shape" fill="#3C5079"></path>
            <path d="M30.7751613,9.5866129 C31.5180645,9.5866129 31.778871,8.79629032 31.778871,7.93483871 C31.778871,6.86790323 31.4706452,6.26725806 30.7751613,6.26725806 C29.89,6.26725806 29.7319355,7.05758065 29.7319355,7.99016129 C29.7319355,8.92274194 30.0322581,9.5866129 30.7751613,9.5866129 Z" id="Shape" fill="#3C5079"></path>
        </g>
    </g>
</svg>