<?xml version="1.0" encoding="UTF-8"?>
<svg width="54px" height="43px" viewBox="0 0 54 43" version="1.1" xmlns="http://www.w3.org/2000/svg" xmlns:xlink="http://www.w3.org/1999/xlink">
    <!-- Generator: Sketch 49.3 (51167) - http://www.bohemiancoding.com/sketch -->
    <title>vpnconnection</title>
    <desc>Created with Sketch.</desc>
    <defs></defs>
    <g id="Asset-Dashboard" stroke="none" stroke-width="1" fill="none" fill-rule="evenodd" opacity="0.8">
        <g id="vpnconnection" transform="translate(0.000000, 0.332031)" fill-rule="nonzero">
            <path d="M53.11,15.85 L53.11,13.37 L44.26,13.09 L38.76,13.09 L38.76,12.55 C38.76,6.26 33.11,2.78 26.99,2.78 C20.87,2.78 15.84,6.72 15.14,13.09 L9.77,13.09 L0.89,13.37 L0.89,15.85 L9.77,21.94 L9.77,18.45 L15.15,18.45 L15.15,25 L11.25,25 L11.25,41.91 L42.68,41.91 L42.68,25 L38.76,25 L38.76,18.45 L44.25,18.45 L44.25,21.92 L53.11,15.85 Z M32.21,25 L20.91,25 L20.91,18.45 L32.21,18.45 L32.21,25 Z M20.88,13.09 C20.88,12.09 21.13,7.8 26.5,7.8 C27.9721034,7.67554328 29.4281758,8.17949418 30.508394,9.18731681 C31.5886122,10.1951394 32.1922003,11.6128118 32.17,13.09 L20.88,13.09 Z" id="Shape" fill="#1D2126"></path>
            <path d="M53.11,13.37 L44.26,7.29 L44.26,10.61 L38.76,10.61 L38.76,10.07 C38.76,3.78 33.11,0.3 26.99,0.3 C20.87,0.3 15.84,4.24 15.14,10.61 L9.77,10.61 L9.77,7.29 L0.89,13.37 L9.77,19.46 L9.77,16 L15.15,16 L15.15,22.55 L11.25,22.55 L11.25,39.43 L42.68,39.43 L42.68,22.52 L38.76,22.52 L38.76,16 L44.25,16 L44.25,19.47 L53.11,13.37 Z M32.21,22.52 L20.91,22.52 L20.91,16 L32.21,16 L32.21,22.52 Z M20.88,10.61 C20.88,9.61 21.13,5.32 26.5,5.32 C27.9721034,5.19554328 29.4281758,5.69949418 30.508394,6.70731681 C31.5886122,7.71513944 32.1922003,9.13281181 32.17,10.61 L20.88,10.61 Z" id="Shape" fill="#3C5079"></path>
        </g>
    </g>
</svg>