<?xml version="1.0" encoding="UTF-8"?>
<svg width="43px" height="49px" viewBox="0 0 43 49" version="1.1" xmlns="http://www.w3.org/2000/svg" xmlns:xlink="http://www.w3.org/1999/xlink">
    <!-- Generator: Sketch 49.3 (51167) - http://www.bohemiancoding.com/sketch -->
    <title>dynamodb</title>
    <desc>Created with Sketch.</desc>
    <defs></defs>
    <g id="Asset-Dashboard" stroke="none" stroke-width="1" fill="none" fill-rule="evenodd" opacity="0.8">
        <g id="Asset-Dashboard-AWS-Copy" transform="translate(-248.000000, -596.000000)" fill-rule="nonzero">
            <g id="dynamodb" transform="translate(247.979730, 596.259766)">
                <polygon id="Shape" fill="#7690C6" points="42.6564865 16.1832432 42.6564865 11.1243243 37.3327027 5.2972973 28.6186486 24.5 37.3327027 43.6960811 42.6564865 37.8624324 42.6564865 32.8035135 40.8818919 34.0086486 40.8818919 31.5785135 42.6564865 30.6581081 42.6564865 25.5660811 40.8818919 25.6124324 40.8818919 23.3345946 42.6564865 23.4206757 42.6564865 18.4610811 40.8818919 17.5340541 40.8818919 15.8256757"></polygon>
                <polygon id="Shape" fill="#516A9C" points="27.8439189 48.4504054 37.3327027 43.6960811 37.3327027 5.29067568 27.8439189 0.549594595 17.0837838 24.9039189"></polygon>
                <polygon id="Shape" fill="#3C5079" points="14.5344595 48.4504054 27.8439189 48.4504054 27.8439189 0.549594595 14.5344595 0.549594595 7.66121622 24.9039189"></polygon>
                <polygon id="Shape" fill="#263555" points="14.5344595 48.4504054 4.95959459 43.6960811 1.94675676 24.9039189 4.95959459 5.29067568 14.507973 0.549594595"></polygon>
                <polygon id="Shape" fill="#1D2126" points="40.8818919 31.5785135 37.3260811 33.3133784 27.8439189 35.3594595 21.367973 35.3594595 14.5344595 35.3594595 5.22445946 33.3133784 5.05891892 33.2802703 4.95297297 33.2537838 4.95297297 26.022973 14.5212162 26.7116216 21.367973 26.7116216 27.8439189 26.7116216 37.3327027 26.022973 42.6631081 25.5793243 40.8818919 25.5660811 40.8818919 23.4339189 42.6366216 23.4140541 37.3327027 23.0233784 27.8439189 22.7187838 21.367973 22.7187838 14.6072973 22.7187838 4.95297297 22.9505405 4.95297297 15.6667568 5.05891892 15.6468919 14.6072973 13.4021622 21.367973 13.4021622 27.8439189 13.4021622 37.3327027 15.6468919 40.8818919 17.5406757 40.8818919 16.3421622 42.6564865 16.1964865 37.3327027 12.4751351 27.8439189 9.40932432 21.367973 9.40932432 14.6072973 9.40932432 4.95297297 12.5810811 4.95297297 5.29067568 0.297972973 11.1243243 0.297972973 16.1898649 1.62891892 16.3421622 1.62891892 17.5605405 0.297972973 18.3551351 0.297972973 23.4206757 1.62891892 23.4339189 1.62891892 25.5660811 0.297972973 25.5859459 0.297972973 30.625 1.62891892 31.4195946 1.62891892 32.6578378 0.28472973 32.8101351 0.297972973 37.8558108 4.95297297 43.6894595 4.95297297 36.3990541 14.5278378 39.3522973 21.367973 39.3522973 27.8439189 39.3522973 37.3327027 36.4122973 42.6564865 32.8035135 40.8818919 32.6578378"></polygon>
            </g>
        </g>
    </g>
</svg>