<?xml version="1.0" encoding="UTF-8"?>
<svg width="35px" height="52px" viewBox="0 0 35 52" version="1.1" xmlns="http://www.w3.org/2000/svg" xmlns:xlink="http://www.w3.org/1999/xlink">
    <!-- Generator: Sketch 49.3 (51167) - http://www.bohemiancoding.com/sketch -->
    <title>Extra</title>
    <desc>Created with Sketch.</desc>
    <defs>
        <polygon id="path-1" points="0.000109473684 0.0678736842 34.6330947 0.0678736842 34.6330947 35.6646105 0.000109473684 35.6646105"></polygon>
    </defs>
    <g id="Asset-Dashboard" stroke="none" stroke-width="1" fill="none" fill-rule="evenodd" opacity="0.8">
        <g id="Extra">
            <g id="Group-3" transform="translate(0.000000, 0.479495)">
                <g id="Fill-1-Clipped">
                    <mask id="mask-2" fill="white">
                        <use xlink:href="#path-1"></use>
                    </mask>
                    <g id="path-1"></g>
                    <path d="M33.8854989,11.0861263 C33.3868463,9.52393684 32.6938779,8.13854737 31.8082358,6.93050526 C30.9220463,5.72355789 29.8749305,4.68793684 28.6668884,3.82309474 C27.4593937,2.9588 26.1517305,2.25050526 24.7449937,1.69602105 C23.3377095,1.14263158 21.8581726,0.732652632 20.3080253,0.466631579 C18.7562358,0.200610526 17.2049937,0.0676 15.6548463,0.0676 C13.7483621,0.0676 12.0372884,0.272315789 10.5194358,0.682842105 C9.00158316,1.09227368 7.66655158,1.64621053 6.51434105,2.34355789 C5.36213053,3.04254737 4.37084632,3.85155789 3.53994105,4.77058947 C2.70848842,5.69071579 2.03303579,6.66503158 1.51194105,7.69572632 C0.990846316,8.72587368 0.608783158,9.77791579 0.365751579,10.8534947 C0.121077895,11.9279789 0.000109473684,12.9641474 0.000109473684,13.9609053 C0.000109473684,15.0463368 0.187856842,16.1990947 0.564993684,17.4175368 C0.941035789,18.6365263 1.51194105,19.7608211 2.27661474,20.7904211 C3.04074105,21.8216632 3.99918316,22.6750105 5.15194105,23.3499158 C6.30305684,24.0264632 7.64465684,24.3641895 9.17400421,24.3641895 C10.4143411,24.3641895 11.4833516,24.1600211 12.3810358,23.7494947 C13.2781726,23.3400632 14.0143832,22.7910526 14.5913095,22.1041053 C15.1671411,21.4177053 15.5880674,20.6420842 15.8540884,19.7777895 C16.1201095,18.9134947 16.2525726,18.0158105 16.2525726,17.0852842 C16.2525726,16.1542105 16.1255832,15.2516 15.8705095,14.3763579 C15.6159832,13.5011158 15.24432,12.7194737 14.7577095,12.0330737 C14.6246989,12.4983368 14.4358568,12.8590526 14.1917305,13.1135789 C13.9481516,13.3686526 13.7045726,13.5514737 13.4609937,13.6614947 C13.1949726,13.7945053 12.9070568,13.8727789 12.5966989,13.8941263 C12.1757726,13.8941263 11.8320253,13.8393895 11.5670989,13.7282737 C11.3005305,13.6171579 11.0848674,13.4737474 10.9184674,13.2964 C10.7520674,13.1190526 10.6354779,12.9137895 10.5692463,12.6811579 C10.5024674,12.4485263 10.4696253,12.2104211 10.4696253,11.9662947 C10.4696253,11.5240211 10.6907621,11.0861263 11.1346779,10.6537053 C11.5774989,10.2218316 12.2195621,10.0050737 13.0619621,10.0050737 C13.3279832,10.0050737 13.6607832,10.0390105 14.0592674,10.1052421 C14.4582989,10.1720211 14.8786779,10.2995579 15.3225937,10.4873053 C15.7654147,10.6766947 16.2142568,10.9366947 16.6685726,11.2689474 C17.1223411,11.6012 17.53232,12.0390947 17.8985095,12.5809895 C18.2636042,13.1250737 18.5569937,13.7841053 18.7792253,14.5591789 C19.0003621,15.3348 19.1114779,16.2434316 19.1114779,17.2850737 C19.1114779,17.862 19.0797305,18.3940421 19.0321095,18.9030947 C20.7864253,19.2599789 23.4433516,19.4969895 25.6952253,18.4132 L26.4078989,19.8927368 C24.9146779,20.6114316 23.3097937,20.8506316 21.8368253,20.8506316 C20.6993937,20.8506316 19.64352,20.7077684 18.7759411,20.5342526 C18.7255832,20.7471789 18.6752253,20.9606526 18.6133726,21.1566105 C18.2805726,22.2097474 17.8596463,23.1457474 17.3500463,23.9651579 C16.8398989,24.7851158 16.2914358,25.5497895 15.7046568,26.2591789 C15.1173305,26.9680211 14.5688674,27.7326947 14.0592674,28.5515579 C13.5496674,29.3720632 13.1281937,30.3135368 12.7964884,31.3776211 C12.4636884,32.4411579 12.2983832,33.7373263 12.2983832,35.2661263 C12.9398989,35.1555579 13.5885305,35.0833053 14.2415411,35.0499158 C14.8956463,35.0170737 15.5431832,35.0001053 16.1863411,35.0001053 C17.2498779,35.0001053 18.3079411,35.0499158 19.3605305,35.1500842 C20.41312,35.2497053 21.4930779,35.4210316 22.6014989,35.6646105 C22.8226358,34.4680632 23.2709305,33.4105474 23.9474779,32.4904211 C24.6229305,31.5719368 25.4040253,30.7016211 26.2907621,29.8816632 C27.1769516,29.0622526 28.1129516,28.2362737 29.0993095,27.4053684 C30.08512,26.5744632 30.9882779,25.6439368 31.8082358,24.6137895 C32.6276463,23.5825474 33.3041937,22.4029684 33.8356884,21.0734105 C34.3671832,19.7444 34.6332042,18.1608632 34.6332042,16.3206105 C34.6332042,14.3933263 34.3841516,12.6483158 33.8854989,11.0861263" id="Fill-1" fill="#3C5079" fill-rule="nonzero" mask="url(#mask-2)"></path>
                </g>
            </g>
            <path d="M22.0529263,39.9667621 C21.4218105,39.3241516 20.6784842,38.8194779 19.8262316,38.4543832 C18.9728842,38.0887411 18.0587789,37.90592 17.0839158,37.90592 C16.1090526,37.90592 15.1944,38.0887411 14.3416,38.4543832 C13.4888,38.8194779 12.7465684,39.3241516 12.1149053,39.9667621 C11.4832421,40.60992 10.9845895,41.3576253 10.6189474,42.2109726 C10.2533053,43.0637726 10.0704842,43.9669305 10.0704842,44.9188042 C10.0704842,45.8942147 10.2533053,46.80832 10.6189474,47.66112 C10.9845895,48.5144674 11.4832421,49.2572463 12.1149053,49.8878147 C12.7465684,50.5194779 13.4888,51.0175832 14.3416,51.3837726 C15.1944,51.7494147 16.1090526,51.9316884 17.0839158,51.9316884 C18.0587789,51.9316884 18.9728842,51.7494147 19.8262316,51.3837726 C20.6784842,51.0175832 21.4218105,50.5194779 22.0529263,49.8878147 C22.6840421,49.2572463 23.1826947,48.5144674 23.5483368,47.66112 C23.9139789,46.80832 24.0968,45.8942147 24.0968,44.9188042 C24.0968,43.9669305 23.9139789,43.0637726 23.5483368,42.2109726 C23.1826947,41.3576253 22.6840421,40.60992 22.0529263,39.9667621" id="Fill-4" fill="#3C5079" fill-rule="nonzero"></path>
            <path d="M27.7644968,12.4123453 C27.7644968,13.4682189 26.8202863,14.3237558 25.6560337,14.3237558 C24.4917811,14.3237558 23.5481179,13.4682189 23.5481179,12.4123453 C23.5481179,11.3564716 24.4917811,10.5009347 25.6560337,10.5009347 C26.8202863,10.5009347 27.7644968,11.3564716 27.7644968,12.4123453" id="Fill-6" fill="#FFFFFF" fill-rule="nonzero"></path>
            <path d="M6.66623579,8.30117053 C6.52939368,8.30117053 6.39255158,8.25026526 6.28636211,8.14790737 C6.06850947,7.93771789 6.06248842,7.59123368 6.27213053,7.37392842 C6.32248842,7.32192842 11.3117516,2.24891789 16.2966358,5.78327579 C16.5429516,5.95843368 16.6009726,6.29999158 16.4263621,6.54630737 C16.2517516,6.79317053 15.9107411,6.85228632 15.6633305,6.67603368 C11.4398358,3.68138105 7.10358316,8.08879158 7.06034105,8.13367579 C6.95250947,8.24479158 6.80964632,8.30117053 6.66623579,8.30117053" id="Fill-8" fill="#FFFFFF" fill-rule="nonzero"></path>
            <path d="M28.4155916,9.37510737 L22.89976,9.37510737 C22.5976126,9.37510737 22.3523916,9.13043368 22.3523916,8.82773895 C22.3523916,8.52504421 22.5976126,8.28037053 22.89976,8.28037053 L28.4155916,8.28037053 C28.7177389,8.28037053 28.96296,8.52504421 28.96296,8.82773895 C28.96296,9.13043368 28.7177389,9.37510737 28.4155916,9.37510737" id="Fill-10" fill="#FFFFFF" fill-rule="nonzero"></path>
        </g>
    </g>
</svg>