<?xml version="1.0" encoding="UTF-8"?>
<svg width="51px" height="48px" viewBox="0 0 51 48" version="1.1" xmlns="http://www.w3.org/2000/svg" xmlns:xlink="http://www.w3.org/1999/xlink">
    <!-- Generator: Sketch 49.3 (51167) - http://www.bohemiancoding.com/sketch -->
    <title>asg</title>
    <desc>Created with Sketch.</desc>
    <defs></defs>
    <g id="Asset-Dashboard" stroke="none" stroke-width="1" fill="none" fill-rule="evenodd" opacity="0.8">
        <g id="Asset-Dashboard-AWS-Copy" transform="translate(-881.000000, -211.000000)" fill-rule="nonzero">
            <g id="asg" transform="translate(881.300000, 210.692308)">
                <polygon id="Shape" fill="#263555" points="31.521 38.206 31.521 30.877 28.399 27.762 26.341 25.697 28.399 23.639 31.521 20.517 31.521 13.188 31.521 13.013 35.182 13.013 35.182 10.619 25.2 3.766 15.218 10.619 15.218 13.013 18.879 13.013 18.879 13.188 18.879 20.517 22.001 23.639 24.059 25.697 22.001 27.762 18.879 30.877 18.879 38.206 15.218 35.987 15.218 38.381 25.2 48.363 35.182 38.381 35.182 35.987"></polygon>
                <polygon id="Shape" fill="#263555" points="19.397 25.697 19.397 23.303 9.415 20.489 0.315 20.489 0.315 30.905 9.415 30.905 9.415 35.679"></polygon>
                <polygon id="Shape" fill="#263555" points="50.085 20.489 40.992 20.489 31.003 23.303 31.003 25.697 40.992 35.679 40.992 30.905 50.085 30.905"></polygon>
                <polygon id="Shape" fill="#3C5079" points="31.521 35.812 31.521 28.483 28.399 25.361 26.341 23.303 28.399 21.238 31.521 18.123 31.521 10.794 31.521 10.619 35.182 10.619 25.2 0.637 15.218 10.619 18.879 10.619 18.879 10.794 18.879 18.123 22.001 21.238 24.059 23.303 22.001 25.361 18.879 28.483 18.879 35.812 18.879 35.987 15.218 35.987 25.2 45.969 35.182 35.987 31.521 35.987"></polygon>
                <polygon id="Shape" fill="#3C5079" points="19.397 23.303 9.415 13.314 9.415 18.095 0.315 18.095 0.315 28.511 9.415 28.511 9.415 33.285"></polygon>
                <polygon id="Shape" fill="#3C5079" points="50.085 18.095 40.992 18.095 40.992 13.314 31.003 23.303 40.992 33.285 40.992 28.511 50.085 28.511"></polygon>
            </g>
        </g>
    </g>
</svg>