<?xml version="1.0" encoding="UTF-8"?>
<svg width="47px" height="49px" viewBox="0 0 47 49" version="1.1" xmlns="http://www.w3.org/2000/svg" xmlns:xlink="http://www.w3.org/1999/xlink">
    <!-- Generator: Sketch 49.3 (51167) - http://www.bohemiancoding.com/sketch -->
    <title>S3</title>
    <desc>Created with Sketch.</desc>
    <defs></defs>
    <g id="Asset-Dashboard" stroke="none" stroke-width="1" fill="none" fill-rule="evenodd" opacity="0.8">
        <g id="Asset-Dashboard-AWS-Copy" transform="translate(-373.000000, -208.000000)" fill-rule="nonzero">
            <g id="S3" transform="translate(372.875000, 208.088792)">
                <path d="M23.625,2.6775 L46.8125,6.125 L46.8125,8.155 C46.8125,11.17375 36.42625,13.60625 23.61625,13.60625 C10.80625,13.60625 0.42875,11.17375 0.42875,8.155 L0.42875,5.95 L23.625,2.6775 Z" id="Shape" fill="#263555"></path>
                <path d="M23.625,17.325 C33.31125,17.325 41.60625,15.93375 45.08,13.95625 L46.2175,12.03125 L46.68125,10.28125 L46.68125,12.45125 L39.095,44.82625 C39.095,46.83875 32.17375,48.4575 23.63375,48.4575 C15.09375,48.4575 8.18125,46.83875 8.18125,44.82625 L0.595,12.45125 L0.595,10.325 L2.345,14.02625 C5.8275,15.96875 14.04375,17.325 23.625,17.325 Z" id="Shape" fill="#263555"></path>
                <path d="M23.625,0.5075 C36.435,0.5075 46.82125,2.94875 46.82125,5.95 C46.82125,8.95125 36.42625,11.375 23.625,11.375 C10.82375,11.375 0.4375,8.96875 0.4375,5.95 C0.4375,2.93125 10.815,0.5075 23.625,0.5075 Z" id="Shape" fill="#3C5079"></path>
                <path d="M23.625,15.155 C35.56875,15.155 45.395,13.04625 46.6725,10.31625 L39.08625,42.69125 C39.08625,44.70375 32.165,46.3225 23.625,46.3225 C15.085,46.3225 8.16375,44.7125 8.16375,42.7 L0.5775,10.325 C1.86375,13.04625 11.69,15.155 23.625,15.155 Z" id="Shape" fill="#3C5079"></path>
            </g>
        </g>
    </g>
</svg>