<svg xmlns="http://www.w3.org/2000/svg" width="92" height="80" viewBox="0 0 92 80">
    <g fill="none" fill-rule="nonzero">
        <path fill="#919191" d="M1.856 33.119l23.135 9.784 3.265-8.103-23.109-9.524zM28.434 76.362L4.11 65.422l.6-27.173 23.724 11.41zM74.92 47.07s11.011.373 15.411 15.633l-15.502-.26.091-15.373z"/>
        <path fill="#383C4D" d="M33.002 78.762c-.174 0-.346-.038-.503-.113L4.207 65.168a1.168 1.168 0 0 1-.67-1.082V38.881a1.178 1.178 0 0 1 2.351 0v24.487l25.946 12.356V38.427a1.178 1.178 0 0 1 2.351 0v39.168a1.173 1.173 0 0 1-1.178 1.173l-.005-.006zM61.293 56.703a1.178 1.178 0 0 1-1.178-1.173v-1.395a1.178 1.178 0 0 1 2.351 0v1.395c0-.67-.524 1.173-1.173 1.173zm0-6.092a1.184 1.184 0 0 1-1.178-1.179v-1.389a1.178 1.178 0 1 1 2.351 0v1.39c0 .648-.524 1.175-1.173 1.178zm0-6.097a1.178 1.178 0 0 1-1.178-1.173v-1.395a1.178 1.178 0 1 1 2.351 0v1.395a1.173 1.173 0 0 1-1.173 1.173z"/>
        <path fill="#383C4D" d="M28.796 50.557a1.238 1.238 0 0 1-.481-.103L.677 37.984a1.178 1.178 0 0 1-.643-1.406l3.551-11.973a1.178 1.178 0 0 1 2.254.67L2.596 36.26l25.497 11.503 3.784-12.384a1.178 1.178 0 0 1 2.249.698L29.92 49.73c-.099.321-.331.585-.637.724-.154.066-.32.101-.487.103zM32.504 37.076L60.996 24.94"/>
        <path fill="#383C4D" d="M32.688 36.903a1.178 1.178 0 0 1-.422-2.276l28.314-10.81a1.175 1.175 0 0 1 .838 2.194L33.104 36.82c-.133.051-.274.078-.416.082zM38.018 76.243a1.178 1.178 0 0 1-.481-2.248l1.27-.573a1.183 1.183 0 0 1 .962 2.162l-1.27.573a1.168 1.168 0 0 1-.481.086zm5.562-2.497a1.178 1.178 0 0 1-.481-2.249l1.27-.567a1.183 1.183 0 1 1 .962 2.162l-1.27.567a1.168 1.168 0 0 1-.481.087zm5.562-2.492a1.173 1.173 0 0 1-.481-2.249l1.27-.54a1.183 1.183 0 1 1 .962 2.162l-1.27.573c-.155.051-.319.07-.48.054zm5.562-2.492a1.173 1.173 0 0 1-.48-2.248l1.27-.573a1.183 1.183 0 0 1 .962 2.162l-1.27.546c-.151.071-.315.11-.482.113zM24.85 17.746l6.487-2.643v-2.54l-6.487 2.642zM41.337 15.373l-5.676-2.39v2.552l5.676 2.39z"/>
        <path fill="#383C4D" d="M65.677 36.578l-3.53-11.973a1.178 1.178 0 0 0-.67-.746l-15.951-6.718v2.55l14.503 6.12 3.102 10.448L37.64 47.762l-3.832-12.384a1.162 1.162 0 0 0-.681-.74L8.06 24.595l13.41-5.47v-2.541l-16.994 6.93a1.178 1.178 0 0 0 0 2.162L31.72 36.589l4.07 13.14c.1.322.332.586.639.725.151.066.315.101.48.103.168-.002.333-.037.487-.103l27.638-12.47c.535-.243.809-.842.643-1.406zM90.445 67.173H71.337a1.178 1.178 0 0 1-1.173-1.178V46.87a1.184 1.184 0 0 1 1.08-1.173c.303-.027 7.487-.616 13.341 4.325 4.146 3.502 6.52 8.848 7.06 15.88a1.184 1.184 0 0 1-1.2 1.27v.001zm-17.952-2.351h16.681c-.654-5.74-2.702-10.103-6.091-12.973-3.85-3.244-8.503-3.784-10.563-3.817l-.027 16.79z"/>
        <path fill="#383C4D" d="M82.872 65.86c-.36 6.738-6.053 11.946-12.797 11.705-6.744-.24-12.051-5.84-11.93-12.588.122-6.747 5.627-12.152 12.375-12.15.543 0 1.085.036 1.622.108v-2.367a14.232 14.232 0 0 0-1.622-.092c-8.046-.001-14.603 6.458-14.724 14.503-.12 8.046 6.24 14.698 14.283 14.939 8.043.24 14.79-6.02 15.15-14.059h-2.357zM25.774 25.605h-5.059a1.173 1.173 0 0 1-1.173-1.173V11.178c0-.648.524-1.175 1.173-1.178h5.06c.648.003 1.172.53 1.172 1.178v13.254c0 .648-.525 1.173-1.173 1.173zm-3.88-2.362h2.702V12.351h-2.703v10.892zM45.996 25.605h-5.06a1.173 1.173 0 0 1-1.172-1.173V11.178c0-.648.524-1.175 1.173-1.178h5.06c.648.003 1.172.53 1.172 1.178v13.254a1.173 1.173 0 0 1-1.173 1.173zm-3.881-2.362h2.703V12.351h-2.703v10.892zM35.883 25.605h-5.054a1.178 1.178 0 0 1-1.179-1.173V1.19A1.178 1.178 0 0 1 30.83 0h5.054c.648 0 1.175.524 1.178 1.173v23.243a1.178 1.178 0 0 1-1.178 1.19zm-3.881-2.362h2.702V2.351h-2.702v20.892z"/>
    </g>
</svg>
