<?xml version="1.0" encoding="UTF-8"?>
<svg width="98px" height="86px" viewBox="0 0 98 86" version="1.1" xmlns="http://www.w3.org/2000/svg" xmlns:xlink="http://www.w3.org/1999/xlink">
    <!-- Generator: Sketch 47.1 (45422) - http://www.bohemiancoding.com/sketch -->
    <title>Project Delta</title>
    <desc>Created with Sketch.</desc>
    <defs>
        <polygon id="path-1" points="4.1260487e-17 3.71531544 4.1260487e-17 0.463421922 3.30061074 0.463421922 3.30061074 3.71531544 0 3.71531544"></polygon>
    </defs>
    <g id="Prototype" stroke="none" stroke-width="1" fill="none" fill-rule="evenodd">
        <g id="12-Tools-(Updated)" transform="translate(-421.000000, -650.000000)">
            <g id="Project-Delta" transform="translate(421.714286, 650.000000)">
                <path d="M61.4932322,63.2815705 L60.7498228,63.2815705 C60.0566282,63.2815705 59.4944537,62.719396 59.4944537,62.0262013 C59.4944537,61.4859597 59.836145,61.0253691 60.3152054,60.8481745 C60.4918228,60.3691141 60.9524134,60.0268456 61.4932322,60.0268456 C62.1864268,60.0268456 62.7486013,60.5890201 62.7486013,61.2822148 L62.7486013,62.0262013 C62.7486013,62.719396 62.1864268,63.2815705 61.4932322,63.2815705" id="Fill-1" fill="#645EC5"></path>
                <path d="M8.73806174,63.2815705 L7.20853154,63.2815705 C6.51475973,63.2815705 5.95316242,62.719396 5.95316242,62.0262013 C5.95316242,61.3330067 6.51475973,60.7708322 7.20853154,60.7708322 L8.73806174,60.7708322 C9.43125638,60.7708322 9.99343087,61.3330067 9.99343087,62.0262013 C9.99343087,62.719396 9.43125638,63.2815705 8.73806174,63.2815705 M15.4304779,63.2815705 L13.9003705,63.2815705 C13.2071758,63.2815705 12.6455785,62.719396 12.6455785,62.0262013 C12.6455785,61.3330067 13.2071758,60.7708322 13.9003705,60.7708322 L15.4304779,60.7708322 C16.1236725,60.7708322 16.685847,61.3330067 16.685847,62.0262013 C16.685847,62.719396 16.1236725,63.2815705 15.4304779,63.2815705 M22.122894,63.2815705 L20.5933638,63.2815705 C19.9001691,63.2815705 19.3379946,62.719396 19.3379946,62.0262013 C19.3379946,61.3330067 19.9001691,60.7708322 20.5933638,60.7708322 L22.122894,60.7708322 C22.8166658,60.7708322 23.3782631,61.3330067 23.3782631,62.0262013 C23.3782631,62.719396 22.8166658,63.2815705 22.122894,63.2815705 M28.8158872,63.2815705 L27.286357,63.2815705 C26.5931624,63.2815705 26.0309879,62.719396 26.0309879,62.0262013 C26.0309879,61.3330067 26.5931624,60.7708322 27.286357,60.7708322 L28.8158872,60.7708322 C29.5090819,60.7708322 30.0712564,61.3330067 30.0712564,62.0262013 C30.0712564,62.719396 29.5090819,63.2815705 28.8158872,63.2815705 M35.5088805,63.2815705 L33.9787732,63.2815705 C33.2855785,63.2815705 32.7239812,62.719396 32.7239812,62.0262013 C32.7239812,61.3330067 33.2855785,60.7708322 33.9787732,60.7708322 L35.5088805,60.7708322 C36.2020752,60.7708322 36.7642497,61.3330067 36.7642497,62.0262013 C36.7642497,62.719396 36.2020752,63.2815705 35.5088805,63.2815705 M42.2012966,63.2815705 L40.6711893,63.2815705 C39.9779946,63.2815705 39.4158201,62.719396 39.4158201,62.0262013 C39.4158201,61.3330067 39.9779946,60.7708322 40.6711893,60.7708322 L42.2012966,60.7708322 C42.8944913,60.7708322 43.4560886,61.3330067 43.4560886,62.0262013 C43.4560886,62.719396 42.8944913,63.2815705 42.2012966,63.2815705 M48.8937128,63.2815705 L47.3641826,63.2815705 C46.6709879,63.2815705 46.1088134,62.719396 46.1088134,62.0262013 C46.1088134,61.3330067 46.6709879,60.7708322 47.3641826,60.7708322 L48.8937128,60.7708322 C49.5869074,60.7708322 50.1490819,61.3330067 50.1490819,62.0262013 C50.1490819,62.719396 49.5869074,63.2815705 48.8937128,63.2815705 M55.586706,63.2815705 L54.0571758,63.2815705 C53.363404,63.2815705 52.8018067,62.719396 52.8018067,62.0262013 C52.8018067,61.3330067 53.363404,60.7708322 54.0571758,60.7708322 L55.586706,60.7708322 C56.2799007,60.7708322 56.8420752,61.3330067 56.8420752,62.0262013 C56.8420752,62.719396 56.2799007,63.2815705 55.586706,63.2815705" id="Fill-3" fill="#645EC5"></path>
                <g id="Group-7" transform="translate(0.000000, 59.566255)">
                    <mask id="mask-2" fill="white">
                        <use xlink:href="#path-1"></use>
                    </mask>
                    <g id="Clip-6"></g>
                    <path d="M2.04524161,3.71531544 L1.30125503,3.71531544 C0.651926174,3.71531544 0.109375839,3.2189396 0.0510805369,2.57249664 C0.0510805369,2.57249664 0.026261745,2.29602685 0.00144295302,1.78002685 C-0.032033557,1.0874094 0.502436242,0.499838926 1.19447651,0.466362416 C1.75491946,0.427691275 2.23340268,0.774577181 2.42444966,1.26344966 C2.93236913,1.42390604 3.30061074,1.89950336 3.30061074,2.45994631 C3.30061074,3.15314094 2.73843624,3.71531544 2.04524161,3.71531544" id="Fill-5" fill="#645EC5" mask="url(#mask-2)"></path>
                </g>
                <path d="M54.3765302,3.87023087 C53.7629866,3.87023087 53.2262081,3.42002953 53.1361678,2.7943651 C53.0368926,2.10809664 53.5130671,1.47204295 54.1987584,1.37276779 C54.6807047,1.30292886 55.1666913,1.23655302 55.6572953,1.17248591 C56.3458725,1.08186846 56.9744228,1.56727785 57.0638859,2.25470067 C57.1539262,2.94270067 56.669094,3.57182819 55.9816711,3.66186846 C55.5026107,3.72420403 55.0281678,3.7894255 54.5571879,3.85753289 C54.4965839,3.8661906 54.436557,3.87023087 54.3765302,3.87023087 M48.1198859,4.98823087 C47.540396,4.98823087 47.0203557,4.58535839 46.893953,3.99663356 C46.7485034,3.31902282 47.1796577,2.65180134 47.8578456,2.50635168 C48.3340201,2.40361342 48.8148121,2.30433826 49.3002215,2.20794899 C49.9778322,2.07173423 50.6404362,2.51385503 50.7760738,3.19435168 C50.9111342,3.87427114 50.4695906,4.53456644 49.7896711,4.67020403 C49.3163826,4.76428456 48.8482886,4.86125101 48.3842349,4.96052617 C48.2959262,4.97957315 48.2076174,4.98823087 48.1198859,4.98823087 M41.963094,6.56162685 C41.4228523,6.56162685 40.9235906,6.20954631 40.7608255,5.66468725 C40.5622752,5.00092886 40.9403289,4.30138523 41.6046644,4.1028349 C42.0727584,3.96315705 42.546047,3.82694228 43.0245302,3.69361342 C43.6917517,3.50891544 44.3843691,3.89966711 44.5702215,4.56746577 C44.7554966,5.23526443 44.3641678,5.92672752 43.6963691,6.11315705 C43.2334698,6.24129128 42.7757651,6.37346577 42.3226779,6.50852617 C42.2032013,6.54431141 42.0819933,6.56162685 41.963094,6.56162685 M35.9609866,8.64294228 C35.4617248,8.64294228 34.9895906,8.34280805 34.7939262,7.85047248 C34.5376577,7.20633826 34.8522215,6.47678121 35.4963557,6.22051275 C35.9505973,6.03985503 36.4111879,5.86150604 36.8769732,5.6877745 C37.5239933,5.44535839 38.2495101,5.77492886 38.4919262,6.4248349 C38.7343423,7.07416376 38.4047718,7.79737181 37.7548658,8.03978792 C37.306396,8.20774765 36.8625436,8.37917047 36.4238859,8.55290201 C36.2720872,8.61408322 36.1145168,8.64294228 35.9609866,8.64294228 M30.1822483,11.2818148 C29.7285839,11.2818148 29.2910805,11.0353584 29.0671342,10.6053584 C28.747953,9.9906604 28.9874832,9.2322443 29.6021812,8.91248591 C30.0367987,8.68680805 30.4777651,8.46401611 30.9250805,8.24411007 C31.5478591,7.93935839 32.2999262,8.19562685 32.6046779,8.81782819 C32.9105839,9.43945235 32.6531611,10.1920966 32.0309597,10.4974255 C31.6015369,10.7086738 31.1778859,10.9233852 30.7600067,11.1404054 C30.5753087,11.2362174 30.3773356,11.2818148 30.1822483,11.2818148 M24.7169195,14.518647 C24.3128926,14.518647 23.9157919,14.3235597 23.673953,13.9628215 C23.2872416,13.3867946 23.4407718,12.6076 24.0162215,12.2214658 C24.4242886,11.9473047 24.8392819,11.6766067 25.2617785,11.4093718 C25.8470403,11.0388215 26.6227718,11.2119758 26.9938993,11.7972376 C27.3644497,12.3830765 27.1907181,13.1582309 26.6054564,13.5293584 C26.2025839,13.7850497 25.8054832,14.044204 25.4153087,14.3056671 C25.2005973,14.4499624 24.957604,14.518647 24.7169195,14.518647 M19.6613893,18.3667141 C19.3087315,18.3667141 18.9583826,18.2189557 18.7096174,17.9309423 C18.2571074,17.4062846 18.3154027,16.6138148 18.8412148,16.1607275 C19.2134966,15.8392376 19.5938591,15.5212107 19.9811477,15.2054926 C20.517349,14.7674121 21.3092416,14.8476403 21.7473221,15.384996 C22.1854027,15.9223517 22.1045973,16.7130899 21.5672416,17.1511705 C21.1984228,17.4518819 20.835953,17.7560564 20.4798322,18.0625396 C20.2431879,18.2662846 19.9511342,18.3667141 19.6613893,18.3667141 M15.1166644,22.8081235 C14.8176846,22.8081235 14.516396,22.701345 14.2762886,22.4843248 C13.7620201,22.0202711 13.7210403,21.2260698 14.1856711,20.7118013 C14.5152416,20.3464456 14.8523154,19.9828215 15.1968926,19.6209289 C15.675953,19.1199356 16.4701544,19.1008886 16.9717248,19.5776403 C17.4732953,20.0555463 17.4934966,20.8503248 17.0155906,21.3524725 C16.6865973,21.6976268 16.3645302,22.0439356 16.0493893,22.3937074 C15.8017785,22.6678685 15.4600872,22.8081235 15.1166644,22.8081235 M11.1675906,27.788043 C10.920557,27.788043 10.6706376,27.7153181 10.4518859,27.5640966 C9.88278523,27.1681503 9.74195302,26.386647 10.1378993,25.8163919 C10.4189866,25.4117879 10.7081544,25.0083383 11.0048255,24.606043 C11.4157785,24.0479087 12.2018993,23.9284322 12.7600336,24.3411168 C13.3181678,24.752647 13.4364899,25.5381906 13.0249597,26.0963248 C12.7427181,26.4795732 12.4674027,26.8639758 12.1995906,27.2495329 C11.955443,27.5998819 11.5646913,27.788043 11.1675906,27.788043 M7.86842282,33.2239356 C7.67102685,33.2239356 7.47132215,33.1777611 7.28489262,33.0796403 C6.67134899,32.756996 6.43585906,31.9974255 6.75850336,31.3844591 C6.98822148,30.9481101 7.22602013,30.5111839 7.47016779,30.0759893 C7.81012752,29.4722577 8.57489262,29.2581235 9.17977852,29.597506 C9.78408725,29.9374658 9.99822148,30.7028081 9.65826174,31.3071168 C9.42508054,31.7221101 9.19940268,32.1376805 8.98065101,32.553251 C8.75555034,32.9809423 8.31920134,33.2239356 7.86842282,33.2239356 M5.24167114,39.0182577 C5.09102685,39.0182577 4.93865101,38.990553 4.79031544,38.9334121 C4.1432953,38.6834926 3.82122819,37.9573987 4.07057047,37.3109557 C4.24718792,36.8515195 4.43246309,36.3909289 4.62524161,35.9286067 C4.89189933,35.2890899 5.62780537,34.9872242 6.26616779,35.2533047 C6.90626174,35.5199624 7.2087047,36.2547141 6.9414698,36.8948081 C6.75792617,37.3351973 6.58188591,37.7755866 6.41277181,38.2136671 C6.22057047,38.7117745 5.74497315,39.0182577 5.24167114,39.0182577 M3.2804094,45.071157 C3.17363087,45.071157 3.06569799,45.0573047 2.95718792,45.0290228 C2.28765772,44.851251 1.8888255,44.1638282 2.06659732,43.4931436 C2.19184564,43.0210094 2.32459732,42.5442577 2.46542953,42.0628886 C2.65936242,41.3973987 3.35602013,41.0141503 4.02151007,41.2086604 C4.687,41.4025933 5.06909396,42.099251 4.87516107,42.7653181 C4.74067785,43.2270631 4.61312081,43.6847678 4.49248993,44.1384322 C4.34357718,44.7000295 3.8362349,45.071157 3.2804094,45.071157 M1.96847651,51.3006738 C1.90325503,51.3006738 1.83745638,51.2954792 1.76992617,51.2845128 C1.08596644,51.1765799 0.618449664,50.5336 0.727536913,49.8484859 C0.803147651,49.3700027 0.885684564,48.8822846 0.975724832,48.3853315 C1.09924161,47.7036805 1.75203356,47.2482846 2.43541611,47.3746872 C3.11706711,47.4987812 3.57015436,48.1521503 3.4460604,48.8338013 C3.35890604,49.3117074 3.27983221,49.7815329 3.2065302,50.2421235 C3.10898658,50.8597074 2.57509396,51.3006738 1.96847651,51.3006738 M1.29490604,57.6363919 C1.27239597,57.6363919 1.24930872,57.6358148 1.22679866,57.6346604 C0.534758389,57.5977208 0.00317449664,57.0066872 0.040114094,56.3140698 C0.0655100671,55.8419356 0.0978322148,55.3461369 0.138812081,54.8278282 C0.193644295,54.1375195 0.788718121,53.6249826 1.48883893,53.6751973 C2.17972483,53.7300295 2.69630201,54.3343383 2.6414698,55.0252242 C2.60279866,55.5216 2.57163087,55.9966201 2.54738926,56.448553 C2.51160403,57.1180832 1.95751007,57.6363919 1.29490604,57.6363919" id="Fill-8" fill="#645EC5"></path>
                <g id="Group-12" transform="translate(59.449664, 0.116591)" fill="#645EC5">
                    <path d="M2.04356779,3.7164698 C1.52872215,3.7164698 1.08717852,3.40710067 0.893245638,2.9638255 C0.437272483,2.80625503 0.0938496644,2.39183893 0.0517154362,1.87987919 C-0.00600268456,1.18957047 0.508265772,0.58295302 1.19915168,0.526389262 L1.94660134,0.465785235 C2.29868188,0.432885906 2.63979597,0.557557047 2.89664161,0.795932886 C3.15291007,1.03373154 3.29893691,1.36791946 3.29893691,1.71711409 L3.29893691,2.46110067 C3.29893691,3.1542953 2.73676242,3.7164698 2.04356779,3.7164698" id="Fill-10"></path>
                </g>
                <path d="M61.4932322,10.5258805 C60.8000376,10.5258805 60.2378631,9.96370604 60.2378631,9.27051141 L60.2378631,7.74098121 C60.2378631,7.04778658 60.8000376,6.48561208 61.4932322,6.48561208 C62.1864268,6.48561208 62.7486013,7.04778658 62.7486013,7.74098121 L62.7486013,9.27051141 C62.7486013,9.96370604 62.1864268,10.5258805 61.4932322,10.5258805 M61.4932322,17.2188738 C60.8000376,17.2188738 60.2378631,16.6566993 60.2378631,15.9635047 L60.2378631,14.4339745 C60.2378631,13.7402027 60.8000376,13.1786054 61.4932322,13.1786054 C62.1864268,13.1786054 62.7486013,13.7402027 62.7486013,14.4339745 L62.7486013,15.9635047 C62.7486013,16.6566993 62.1864268,17.2188738 61.4932322,17.2188738 M61.4932322,23.9112899 C60.8000376,23.9112899 60.2378631,23.3496926 60.2378631,22.656498 L60.2378631,21.1263906 C60.2378631,20.433196 60.8000376,19.8710215 61.4932322,19.8710215 C62.1864268,19.8710215 62.7486013,20.433196 62.7486013,21.1263906 L62.7486013,22.656498 C62.7486013,23.3496926 62.1864268,23.9112899 61.4932322,23.9112899 M61.4932322,30.603706 C60.8000376,30.603706 60.2378631,30.0421087 60.2378631,29.3483369 L60.2378631,27.8188067 C60.2378631,27.1256121 60.8000376,26.5634376 61.4932322,26.5634376 C62.1864268,26.5634376 62.7486013,27.1256121 62.7486013,27.8188067 L62.7486013,29.3483369 C62.7486013,30.0421087 62.1864268,30.603706 61.4932322,30.603706 M61.4932322,37.2966993 C60.8000376,37.2966993 60.2378631,36.7345248 60.2378631,36.0413302 L60.2378631,34.5118 C60.2378631,33.8180282 60.8000376,33.2564309 61.4932322,33.2564309 C62.1864268,33.2564309 62.7486013,33.8180282 62.7486013,34.5118 L62.7486013,36.0413302 C62.7486013,36.7345248 62.1864268,37.2966993 61.4932322,37.2966993 M61.4932322,43.9896926 C60.8000376,43.9896926 60.2378631,43.4275181 60.2378631,42.7343235 L60.2378631,41.2042161 C60.2378631,40.5110215 60.8000376,39.9494242 61.4932322,39.9494242 C62.1864268,39.9494242 62.7486013,40.5110215 62.7486013,41.2042161 L62.7486013,42.7343235 C62.7486013,43.4275181 62.1864268,43.9896926 61.4932322,43.9896926 M61.4932322,50.6821087 C60.8000376,50.6821087 60.2378631,50.1205114 60.2378631,49.4267396 L60.2378631,47.8972094 C60.2378631,47.2040148 60.8000376,46.6418403 61.4932322,46.6418403 C62.1864268,46.6418403 62.7486013,47.2040148 62.7486013,47.8972094 L62.7486013,49.4267396 C62.7486013,50.1205114 62.1864268,50.6821087 61.4932322,50.6821087 M61.4932322,57.3745248 C60.8000376,57.3745248 60.2378631,56.8123503 60.2378631,56.1191557 L60.2378631,54.5896255 C60.2378631,53.8964309 60.8000376,53.3342564 61.4932322,53.3342564 C62.1864268,53.3342564 62.7486013,53.8964309 62.7486013,54.5896255 L62.7486013,56.1191557 C62.7486013,56.8123503 62.1864268,57.3745248 61.4932322,57.3745248" id="Fill-13" fill="#645EC5"></path>
                <path d="M45.5240711,39.4165128 C41.0947826,43.1497208 34.4543128,42.5829289 30.7211047,38.1536403 C26.9878966,33.7249289 27.5546886,27.0844591 31.9839772,23.351251 C36.4126886,19.6174658 43.0531584,20.1842577 46.7869436,24.6135463 C50.5195745,29.0422577 49.9533597,35.6833047 45.5240711,39.4165128" id="Fill-15" fill="#A4A0DA"></path>
                <path d="M41.0263866,41.2726121 L41.0321584,41.2726121 L41.0263866,41.2726121 Z M34.3322389,24.2232564 C32.2566953,24.2232564 30.1696081,24.9268403 28.4617289,26.3663302 C24.6165477,29.6066255 24.1253664,35.3715114 27.3662389,39.2166926 C30.6071114,43.062451 36.3725745,43.553055 40.2177557,40.3127597 C42.0762792,38.7457128 43.2144805,36.5443436 43.4216886,34.1138336 C43.6294738,31.6833235 42.8802926,29.3209208 41.3132456,27.4618201 C39.5118631,25.3245181 36.9301315,24.2232564 34.3322389,24.2232564 L34.3322389,24.2232564 Z M34.3628295,44.9659946 C34.0274872,44.9659946 33.6904134,44.9515651 33.3516081,44.922706 C30.2532993,44.658357 27.4458899,43.2073235 25.4465342,40.8345315 C23.4471785,38.462894 22.4919436,35.4500081 22.7562926,32.3516993 C23.0206416,29.2533906 24.4716752,26.4459812 26.8444671,24.4466255 C29.2161047,22.4472698 32.2330309,21.4879946 35.3272993,21.7563839 C38.4256081,22.0201557 41.2330174,23.4717664 43.2329503,25.8445584 C45.232306,28.216196 46.1875409,31.2290819 45.9231919,34.3273906 C45.658843,37.4256993 44.2072322,40.2331087 41.8350174,42.2324644 C39.721957,44.0130685 37.1004,44.9659946 34.3628295,44.9659946 L34.3628295,44.9659946 Z" id="Fill-17" fill="#645EC5"></path>
                <path d="M41.2180107,42.7527356 L47.0613933,49.6846819 L48.2948295,48.6446013 L42.4520242,41.7120779 L41.2180107,42.7527356 Z M46.910749,52.7085342 C46.5534738,52.7085342 46.1990846,52.5567356 45.9503195,52.2623732 L38.489098,43.4107221 C38.2749638,43.1561852 38.170494,42.8266148 38.1987758,42.4953128 C38.2264805,42.1634336 38.3857826,41.8563732 38.6403195,41.6416617 L41.7940376,38.9837423 C42.0485745,38.7690309 42.3810309,38.6651383 42.709447,38.692843 C43.0413262,38.7211248 43.3478094,38.8798497 43.5625208,39.1343866 L51.0231651,47.9866148 C51.4699034,48.5164671 51.4029503,49.3083597 50.8725208,49.7556752 L47.7193799,52.4130174 C47.4833128,52.6115678 47.1964537,52.7085342 46.910749,52.7085342 L46.910749,52.7085342 Z" id="Fill-19" fill="#645EC5"></path>
                <path d="M38.0294309,30.6905718 C37.6681154,30.6905718 37.3096859,30.5353101 37.061498,30.2351758 C36.3885047,29.4207732 34.7256456,28.318357 32.761498,29.3497799 C32.1468,29.6724242 31.3883839,29.4357799 31.066894,28.8228134 C30.7442497,28.2086926 30.9803168,27.4502765 31.5938604,27.1276322 C34.5426792,25.5796322 37.4984242,26.8240349 38.9962094,28.6352295 C39.437753,29.1696993 39.3632966,29.9610148 38.8288268,30.4025584 C38.5944913,30.5964913 38.3110953,30.6905718 38.0294309,30.6905718" id="Fill-21" fill="#645EC5"></path>
                <path d="M87.8637181,64.529494 L70.752604,64.529494 C70.0588322,64.529494 69.4972349,63.9673195 69.4972349,63.2741248 C69.4972349,62.5809302 70.0588322,62.0187557 70.752604,62.0187557 L87.8637181,62.0187557 C88.5569128,62.0187557 89.1190872,62.5809302 89.1190872,63.2741248 C89.1190872,63.9673195 88.5569128,64.529494 87.8637181,64.529494" id="Fill-23" fill="#645EC5"></path>
                <path d="M87.8637181,53.0879154 L70.752604,53.0879154 C70.0588322,53.0879154 69.4972349,52.5257409 69.4972349,51.8325463 C69.4972349,51.1393517 70.0588322,50.5771772 70.752604,50.5771772 L87.8637181,50.5771772 C88.5569128,50.5771772 89.1190872,51.1393517 89.1190872,51.8325463 C89.1190872,52.5257409 88.5569128,53.0879154 87.8637181,53.0879154" id="Fill-25" fill="#645EC5"></path>
                <path d="M87.8637181,75.9711302 L48.2731275,75.9711302 C47.5799329,75.9711302 47.0177584,75.4089557 47.0177584,74.7157611 C47.0177584,74.0225664 47.5799329,73.4603919 48.2731275,73.4603919 L87.8637181,73.4603919 C88.5569128,73.4603919 89.1190872,74.0225664 89.1190872,74.7157611 C89.1190872,75.4089557 88.5569128,75.9711302 87.8637181,75.9711302" id="Fill-27" fill="#645EC5"></path>
                <path d="M96.0214819,39.9717034 L65.4233745,39.9717034 L65.4233745,42.4824416 L94.7661128,42.4824416 L94.7661128,83.0288443 L40.4729852,83.0288443 L40.4729852,65.8138376 L37.962247,65.8138376 L37.962247,84.2836362 C37.962247,84.9774081 38.5244215,85.5390054 39.2176161,85.5390054 L96.0214819,85.5390054 C96.7146765,85.5390054 97.276851,84.9774081 97.276851,84.2836362 L97.276851,41.2270725 C97.276851,40.5338779 96.7146765,39.9717034 96.0214819,39.9717034" id="Fill-29" fill="#645EC5"></path>
            </g>
        </g>
    </g>
</svg>