<svg id="Layer_1" data-name="Layer 1" xmlns="http://www.w3.org/2000/svg" viewBox="0 0 52.5 50.67"><defs><style>.cls-1{fill:#e20074;}</style></defs><title>Artboard 12 copy 3</title><path class="cls-1" d="M35,46.12l2.25,2L35.55,50l-5.24-4.69,4.17-5.92,2,1.44-2,2.81A18.43,18.43,0,0,0,33.19,7.26V4.73A21,21,0,0,1,35,46.12Z"/><path class="cls-1" d="M31.37,28.74a8.84,8.84,0,1,0-13.58-1.39,8.9,8.9,0,0,0,7.38,3.94,8.63,8.63,0,0,0,4.17-1.07l5.11,6.09,1.92-1.61Zm-7.47-.08a6.33,6.33,0,0,1,1.25-12.54,6.7,6.7,0,0,1,1.25.12,6.36,6.36,0,0,1,5.09,6.21,6.71,6.71,0,0,1-.13,1.25,6.32,6.32,0,0,1-7.46,5Z"/><path class="cls-1" d="M20.8,20.58,29.89,23a4.83,4.83,0,0,0-5.38-5A4.33,4.33,0,0,0,20.8,20.58Z"/><path class="cls-1" d="M19.51,43.44V46a20.95,20.95,0,0,1-2-41.41l-2.25-2L16.95.67l5.24,4.68L18,11.28,16,9.84,18,7a18.45,18.45,0,0,0,1.55,36.43Z"/></svg>