<?xml version="1.0" encoding="UTF-8"?>
<svg width="1205px" height="700px" viewBox="0 0 1205 700" version="1.1" xmlns="http://www.w3.org/2000/svg" xmlns:xlink="http://www.w3.org/1999/xlink">
    <!-- Generator: Sketch 49 (51002) - http://www.bohemiancoding.com/sketch -->
    <title>BG_icons_text</title>
    <desc>Created with Sketch.</desc>
    <defs>
        <radialGradient cx="49.352631%" cy="50%" fx="49.352631%" fy="50%" r="120.860611%" gradientTransform="translate(0.493526,0.500000),scale(0.580913,1.000000),rotate(27.079817),translate(-0.493526,-0.500000)" id="radialGradient-1">
            <stop stop-color="#FFFFFF" offset="0%"></stop>
            <stop stop-color="#3F4A59" offset="100%"></stop>
        </radialGradient>
    </defs>
    <g id="OmniSearch" stroke="none" stroke-width="1" fill="none" fill-rule="evenodd">
        <g id="OmniSearch-1" transform="translate(-38.000000, -75.000000)">
            <g id="BG_icons_text" transform="translate(38.000000, 75.000000)">
                <g id="BG" fill="url(#radialGradient-1)">
                    <rect id="Rectangle-13" x="0" y="0" width="1205" height="700"></rect>
                </g>
                <g id="Group-10" transform="translate(138.000000, 90.000000)" opacity="0.8">
                    <g id="Group-12">
                        <path d="M184.5,30 L190.5,30 L190.5,24 L184.5,24 L184.5,30 Z M193.5,48 L199.5,48 L199.5,42 L193.5,42 L193.5,48 Z M184.5,48 L190.5,48 L190.5,42 L184.5,42 L184.5,48 Z M184.5,39 L190.5,39 L190.5,33 L184.5,33 L184.5,39 Z M193.5,39 L199.5,39 L199.5,33 L193.5,33 L193.5,39 Z M202.5,24 L202.5,30 L208.5,30 L208.5,24 L202.5,24 Z M193.5,30 L199.5,30 L199.5,24 L193.5,24 L193.5,30 Z M202.5,39 L208.5,39 L208.5,33 L202.5,33 L202.5,39 Z M202.5,48 L208.5,48 L208.5,42 L202.5,42 L202.5,48 Z" id="assets" fill="#3F4A59" fill-rule="nonzero" opacity="0.7"></path>
                        <path d="M598.889474,95.9098307 C597.417263,95.9098307 596.236842,97.0340413 596.236842,98.4361465 L596.236842,111.067725 C596.236842,112.462971 597.424466,113.594041 598.889474,113.594041 L609.5,113.594041 L609.5,119.909831 L613.478947,116.120357 L617.457895,119.909831 L617.457895,113.594041 L620.110526,113.594041 C621.575534,113.594041 622.763158,112.462971 622.763158,111.067725 L622.763158,102.22562 L622.763158,99.6993044 L622.763158,98.4361465 C622.763158,97.0409008 621.575534,95.9098307 620.110526,95.9098307 L614.805263,95.9098307 L598.889474,95.9098307 Z M609.5,98.4361465 L613.478947,100.962462 L617.457895,98.4361465 L617.457895,102.857199 L621.436842,104.751936 L617.457895,106.646673 L617.457895,111.067725 L613.478947,108.54141 L609.5,111.067725 L609.5,106.646673 L605.521053,104.751936 L609.5,102.857199 L609.5,98.4361465 Z M598.889474,98.4361465 L605.521053,98.4361465 L605.521053,100.962462 L598.889474,100.962462 L598.889474,98.4361465 Z M598.889474,103.488778 L602.868421,103.488778 L602.868421,106.015094 L598.889474,106.015094 L598.889474,103.488778 Z M598.889474,108.54141 L605.521053,108.54141 L605.521053,111.067725 L598.889474,111.067725 L598.889474,108.54141 Z" id="certificates" fill="#3F4A59" fill-rule="nonzero" opacity="0.7"></path>
                        <path d="M506.080548,28.944 L506.080548,20.9218874 L498.925533,20.9218874 L498.925533,15.1684512 L496.094714,15.1684512 C495.721305,13.7059219 495.026642,12.3418902 494.012828,11.1316603 L496.683008,8.60866606 C499.031913,9.66913102 501.862731,8.70919225 502.985168,6.43848729 C504.107498,4.21905968 503.091559,1.54428205 500.688386,0.483716176 C498.285213,-0.576849703 495.508663,0.383189992 494.386226,2.65389494 C493.797932,3.86412484 493.797932,5.27740532 494.386226,6.43838637 L491.716045,8.96138066 C487.710775,6.18608695 482.209669,6.18608695 478.204399,8.96138066 L475.534218,6.38711913 C476.656548,4.16769152 475.640609,1.49291389 473.291694,0.432348012 C470.942789,-0.628116947 468.111971,0.331821828 466.989534,2.55125954 C465.867204,4.77068715 466.883143,7.44546477 469.232058,8.50603065 C470.51289,9.06189676 472.008619,9.06189676 473.291587,8.50603065 L475.961767,11.0290249 C475.000075,12.2392548 474.253279,13.6032865 473.879881,15.0658158 L470.996941,15.0658158 L470.996941,20.8172336 L464,20.8211745 L464,28.8947562 L467.204216,28.8947562 L467.204216,23.9000349 L471.048849,23.9000349 L471.048849,31.1163032 L464.907434,31.1143352 L464.907434,39.1879169 L468.111651,39.1879169 L468.111651,34.1419284 L471.048849,34.1419284 C471.315867,36.4638905 472.277559,38.6320508 473.825409,40.4494141 L470.833953,40.4494141 L470.833953,46 L474.038169,46 L474.038169,43.4770057 L477.882802,43.4770057 C479.59129,44.2851712 481.514675,44.7385029 483.435709,44.7385029 L486.479288,44.7385029 C488.402672,44.7385029 490.32392,44.3344302 492.032195,43.4770057 L496.037465,43.4770057 L496.037465,46 L499.241682,46 L499.241682,40.4494141 L496.037465,40.4494141 C497.639574,38.6320508 498.601266,36.4638905 498.868284,34.1419284 L501.96612,34.1419284 L501.96612,39.1879169 L505.170337,39.1879169 L505.170337,31.1143352 L498.924785,31.1143352 L498.924785,23.949536 L502.930055,23.949536 L502.930055,28.9442574 L506.080548,28.944 Z" id="vulnerabilities" fill="#3F4A59" opacity="0.7"></path>
                        <path d="M277.972603,107.909831 L305.762076,107.909831 L291.86734,83.9098307 L277.972603,107.909831 Z M293.130497,104.120357 L290.604182,104.120357 L290.604182,101.594041 L293.130497,101.594041 L293.130497,104.120357 Z M293.130497,99.0677255 L290.604182,99.0677255 L290.604182,94.0150939 L293.130497,94.0150939 L293.130497,99.0677255 Z" id="violations" fill="#3F4A59" fill-rule="nonzero" opacity="0.7"></path>
                        <path d="M734.461119,46.5882353 C733.681423,46.5882353 733.049354,45.9561667 733.049354,45.1764706 C733.049354,44.3967745 733.681423,43.7647059 734.461119,43.7647059 C735.240815,43.7647059 735.872884,44.3967745 735.872884,45.1764706 C735.872884,45.9561667 735.240815,46.5882353 734.461119,46.5882353 Z M723.167001,26.8235294 L745.755237,26.8235294 L745.755237,42.3529412 L723.167001,42.3529412 L723.167001,26.8235294 Z M745.755237,45.1764706 C747.314629,45.1764706 748.578766,43.9123334 748.578766,42.3529412 L748.578766,26.8235294 C748.578766,25.2564706 747.308178,24 745.755237,24 L723.167001,24 C721.599942,24 720.343472,25.2564706 720.343472,26.8235294 L720.343472,42.3529412 C720.343472,43.9123334 721.607609,45.1764706 723.167001,45.1764706 L717.519942,45.1764706 C717.519942,46.7358628 718.78408,48 720.343472,48 L748.578766,48 C750.138158,48 751.402295,46.7358628 751.402295,45.1764706 L745.755237,45.1764706 Z" id="software" fill="#3F4A59" fill-rule="nonzero" opacity="0.7"></path>
                        <circle id="Oval" stroke="#3F4A59" stroke-width="2" opacity="0.7" cx="349" cy="37" r="5"></circle>
                        <path d="M609,473 C605.686292,473 603,470.313708 603,467 C603,463.686292 605.686292,461 609,461 C612.313708,461 615,463.686292 615,467 C615,470.313708 612.313708,473 609,473 Z M609,471 C611.209139,471 613,469.209139 613,467 C613,464.790861 611.209139,463 609,463 C606.790861,463 605,464.790861 605,467 C605,469.209139 606.790861,471 609,471 Z" id="Oval2" fill="#3F4A59" fill-rule="nonzero"></path>
                        <circle id="Oval" stroke="#3F4A59" stroke-width="2" opacity="0.7" cx="517.753425" cy="87.1598307" r="3.5"></circle>
                        <path d="M787.5,300 C785.014719,300 783,297.985281 783,295.5 C783,293.014719 785.014719,291 787.5,291 C789.985281,291 792,293.014719 792,295.5 C792,297.985281 789.985281,300 787.5,300 Z M787.5,298 C788.880712,298 790,296.880712 790,295.5 C790,294.119288 788.880712,293 787.5,293 C786.119288,293 785,294.119288 785,295.5 C785,296.880712 786.119288,298 787.5,298 Z" id="Oval" fill="#3F4A59" fill-rule="nonzero"></path>
                        <path d="M115.062258,122.179688 L115.062258,133.179688" id="Line" stroke="#727B85" stroke-width="2" stroke-linecap="round"></path>
                        <path d="M120.562258,127.679688 L109.562258,127.679688" id="Line" stroke="#727B85" stroke-width="2" stroke-linecap="round"></path>
                        <g id="Plus" transform="translate(528.000000, 390.000000)" fill="#727B85" fill-rule="nonzero">
                            <path d="M4.42620541,1.08161058 C4.42620541,0.529325827 4.87392066,0.0816105769 5.42620541,0.0816105769 C5.97849016,0.0816105769 6.42620541,0.529325827 6.42620541,1.08161058 L6.42620541,9.54314904 C6.42620541,10.0954338 5.97849016,10.543149 5.42620541,10.543149 C4.87392066,10.543149 4.42620541,10.0954338 4.42620541,9.54314904 L4.42620541,1.08161058 Z" id="Line"></path>
                            <path d="M9.65697464,4.31237981 C10.2092594,4.31237981 10.6569746,4.76009506 10.6569746,5.31237981 C10.6569746,5.86466456 10.2092594,6.31237981 9.65697464,6.31237981 L1.19543618,6.31237981 C0.643151433,6.31237981 0.195436183,5.86466456 0.195436183,5.31237981 C0.195436183,4.76009506 0.643151433,4.31237981 1.19543618,4.31237981 L9.65697464,4.31237981 Z" id="Line"></path>
                        </g>
                        <g id="RDS" transform="translate(306.000000, 512.000000)" fill-rule="nonzero">
                            <polygon id="Shape" fill="#737982" points="8.39655887 17.1383619 18.2993025 19.4945221 19.5446605 18.8704116 19.5446605 5.06554613 18.2993025 4.44143566 8.39655887 6.76324112"></polygon>
                            <polygon id="Shape" fill="#737982" points="8.39655887 4.88518393 8.39655887 19.0708141 14.9783477 21.1549995 16.80201 20.2417369 16.80201 3.69422083 14.9783477 2.78095827"></polygon>
                            <polygon id="Shape" fill="#DCE0E4" points="16.80201 20.2417369 14.9783477 21.1549995 14.9783477 2.78095827 16.80201 3.69422083"></polygon>
                            <polygon id="Shape" fill="#DCE0E4" points="19.5446605 18.8704116 18.2993025 19.4945221 18.2993025 4.44143566 19.5446605 5.06554613"></polygon>
                            <path d="M9.78219863,0.18431517 L0.0197367092,5.06554613 L0.0197367092,18.8732745 L9.78219863,23.7516426 L12.7023485,22.2915676 L12.7023485,1.64439012 L9.78219863,0.18431517 Z M6.86204873,16.7890891 L3.95907618,16.1048579 L3.95907618,7.83109986 L6.86204873,7.15545733 L6.86204873,16.7890891 Z" id="Shape" fill="#737982"></path>
                            <polygon id="Shape" fill="#CBD2D8" points="1.26795765 16.4856225 6.85918584 18.1632773 6.86204873 16.7805004 3.95907618 16.1048579"></polygon>
                            <polygon id="Shape" fill="#DCE0E4" points="3.95907618 16.1048579 1.26795765 16.4856225 1.26795765 7.45319811 3.95907618 7.83109986"></polygon>
                            <polygon id="Shape" fill="#5A5E6C" points="6.86204873 7.15545733 3.95907618 7.83109986 1.26795765 7.45319811 6.86204873 5.77268047"></polygon>
                            <polygon id="Shape" fill="#DCE0E4" points="12.7023485 22.2915676 9.78219863 23.7516426 9.78219863 0.18431517 12.7023485 1.64439012"></polygon>
                        </g>
                        <g id="API-Gateway" transform="translate(832.000000, 451.000000)" fill-rule="nonzero">
                            <polygon id="Shape" fill="#CBD2D8" points="26.1564519 18.4665923 19.8478805 18.2075446 15.7602614 18.4665923 22.5069281 27.6399256"></polygon>
                            <polygon id="Shape" fill="#5A5E6C" points="26.1564519 14.668497 19.8478805 14.9275446 15.7602614 14.668497 22.5069281 5.49516369"></polygon>
                            <polygon id="Shape" fill="#5A5E6C" points="0.175499537 14.6570685 6.48407097 14.9275446 10.57169 14.668497 3.82502335 5.54087798"></polygon>
                            <polygon id="Shape" fill="#CBD2D8" points="0.175499537 18.4665923 6.48407097 18.2075446 10.57169 18.4665923 3.82502335 27.6475446"></polygon>
                            <polygon id="Shape" fill="#DCE0E4" points="22.5069281 14.3027827 26.1564519 14.668497 26.1564519 7.3199256 22.5069281 5.49516369"></polygon>
                            <polygon id="Shape" fill="#737982" points="15.7602614 7.31611607 22.5069281 5.49516369 22.5069281 14.3027827 15.7602614 14.668497"></polygon>
                            <polygon id="Shape" fill="#DCE0E4" points="13.1659757 6.2494494 20.4726424 8.63802083 20.4726424 12.2723065 13.1659757 10.9846875"></polygon>
                            <polygon id="Shape" fill="#5A5E6C" points="9.87454716 11.5827827 13.2193091 10.9923065 20.4726424 12.2723065 17.2307376 12.6265923"></polygon>
                            <polygon id="Shape" fill="#737982" points="3.82502335 14.3027827 0.175499537 14.6570685 0.175499537 7.28563988 3.82502335 5.48754464"></polygon>
                            <polygon id="Shape" fill="#DCE0E4" points="10.57169 7.31611607 3.82502335 5.48754464 3.82502335 14.3027827 10.57169 14.668497"></polygon>
                            <polygon id="Shape" fill="#737982" points="13.1659757 6.2494494 5.85930906 8.63802083 5.85930906 12.2723065 13.1659757 10.9846875"></polygon>
                            <polygon id="Shape" fill="#5A5E6C" points="16.4574043 11.5827827 13.1126424 10.9923065 5.85930906 12.2723065 9.10121382 12.6265923"></polygon>
                            <polygon id="Shape" fill="#DCE0E4" points="22.5069281 18.8323065 26.1564519 18.4665923 26.1564519 25.8151637 22.5069281 27.6399256"></polygon>
                            <polygon id="Shape" fill="#737982" points="15.7602614 25.8189732 22.5069281 27.6399256 22.5069281 18.8323065 15.7602614 18.4665923"></polygon>
                            <polygon id="Shape" fill="#DCE0E4" points="13.1659757 26.8856399 20.4726424 24.4970685 20.4726424 20.8627827 13.1659757 22.1504018"></polygon>
                            <polygon id="Shape" fill="#CBD2D8" points="9.87454716 21.5523065 13.2193091 22.1389732 20.4726424 20.8627827 17.2307376 20.508497"></polygon>
                            <polygon id="Shape" fill="#737982" points="3.82502335 18.8323065 0.175499537 18.4665923 0.175499537 25.8151637 3.82502335 27.6475446"></polygon>
                            <polygon id="Shape" fill="#DCE0E4" points="10.57169 25.8189732 3.82502335 27.6475446 3.82502335 18.8323065 10.57169 18.4665923"></polygon>
                            <polygon id="Shape" fill="#737982" points="13.1659757 26.8856399 5.85930906 24.4970685 5.85930906 20.8627827 13.1659757 22.1504018"></polygon>
                            <polygon id="Shape" fill="#CBD2D8" points="16.4574043 21.5523065 13.1126424 22.1389732 5.85930906 20.8627827 9.10121382 20.508497"></polygon>
                            <polygon id="Shape" fill="#737982" points="9.28026144 30.2418304 13.1659757 32.1846875 15.3221662 31.1065923 17.05169 2.76754464 13.1659757 0.8246875 9.28026144 2.76754464"></polygon>
                            <polygon id="Shape" fill="#DCE0E4" points="17.05169 30.2418304 13.1659757 32.1846875 13.1659757 0.8246875 17.05169 2.76754464"></polygon>
                        </g>
                        <g id="lambda" transform="translate(396.000000, 363.000000)" fill-rule="nonzero">
                            <polygon id="Shape" fill="#737982" points="0.0794160058 24.1189732 1.62941601 24.8939732 4.36870172 15.5189732 1.62941601 6.11540179 0.0794160058 6.89040179"></polygon>
                            <polygon id="Shape" fill="#DCE0E4" points="4.62941601 6.8296875 1.62941601 6.12611607 1.62941601 24.8939732 4.62941601 24.1904018"></polygon>
                            <polygon id="Shape" fill="#737982" points="3.49370172 5.18325893 5.76870172 4.04397321 8.60798743 15.5189732 5.76870172 26.9654018 3.49370172 25.8261161"></polygon>
                            <polygon id="Shape" fill="#DCE0E4" points="10.429416 25.4368304 5.76870172 26.9225446 5.76870172 4.04397321 10.429416 5.53325893"></polygon>
                            <polygon id="Shape" fill="#737982" points="21.0115589 8.06540179 22.8758446 8.06540179 22.8758446 22.3332589 21.0115589 22.2296875"></polygon>
                            <polygon id="Shape" fill="#5A5E6C" points="13.779416 8.27254464 15.8722731 7.19397321 22.729416 8.06540179 22.9329874 9.89040179 21.054416 10.1546875"></polygon>
                            <polygon id="Shape" fill="#CBD2D8" points="13.8401303 22.7368304 15.929416 23.8154018 22.9901303 21.1154018 21.1151303 20.8546875"></polygon>
                            <polygon id="Shape" fill="#737982" points="14.3687017 19.7082589 18.1008446 20.2082589 18.1008446 10.8011161 14.3687017 11.2975446"></polygon>
                            <polygon id="Shape" fill="#737982" points="8.60798743 28.3832589 12.2508446 30.2046875 15.379416 15.4832589 12.2508446 0.8046875 8.60798743 2.62611607"></polygon>
                            <path d="M12.254416,0.8046875 L12.254416,30.2046875 L24.4329874,24.1154018 L24.4329874,6.89397321 L12.254416,0.8046875 Z M22.8758446,21.1368304 L15.8937017,23.2332589 L15.8937017,7.77611607 L22.8722731,9.86897321 L22.8758446,21.1368304 Z" id="Shape" fill="#DCE0E4"></path>
                            <polygon id="Shape" fill="#DCE0E4" points="18.1008446 10.8011161 18.1008446 20.2368304 21.9829874 15.5189732"></polygon>
                        </g>
                        <g id="ELB" transform="translate(691.000000, 363.000000)" fill-rule="nonzero">
                            <polygon id="Shape" fill="#737982" points="1.42974022 6.6646875 0.126883073 7.31611607 0.126883073 25.6932589 1.42974022 26.3446875 6.59164498 16.5046875"></polygon>
                            <polygon id="Shape" fill="#DCE0E4" points="4.46593069 25.6323065 1.42974022 26.3446875 1.42974022 6.6646875 4.46593069 7.35802083"></polygon>
                            <polygon id="Shape" fill="#737982" points="2.86593069 5.9446875 4.46593069 5.14849702 8.25259736 16.5046875 4.46593069 27.860878 2.86593069 27.0646875"></polygon>
                            <polygon id="Shape" fill="#DCE0E4" points="8.25259736 26.7904018 4.46593069 27.860878 4.46593069 5.14849702 8.25259736 6.22278274"></polygon>
                            <polygon id="Shape" fill="#737982" points="6.24878784 4.25325893 8.25259736 3.25135417 20.7630735 16.5046875 8.25259736 29.7542113 6.24878784 28.7561161"></polygon>
                            <polygon id="Shape" fill="#DCE0E4" points="21.7802164 24.748497 8.25259736 29.7542113 8.25259736 3.25135417 21.7802164 8.19611607"></polygon>
                            <polygon id="Shape" fill="#5A5E6C" points="20.0278355 14.0323065 17.5021212 14.1961161 10.519264 13.6056399 13.1097402 0.8246875"></polygon>
                            <polygon id="Shape" fill="#737982" points="13.1097402 13.3427827 13.1097402 0.8246875 10.519264 2.1199256 10.519264 13.6056399"></polygon>
                            <polygon id="Shape" fill="#DCE0E4" points="20.0278355 14.0323065 20.0278355 4.28373512 13.1097402 0.8246875 13.1097402 13.3427827"></polygon>
                            <polygon id="Shape" fill="#CBD2D8" points="20.0278355 18.8932589 17.6354545 18.740878 10.519264 19.3427827 13.1097402 32.1846875"></polygon>
                            <polygon id="Shape" fill="#737982" points="10.519264 19.3427827 10.519264 30.8932589 13.1097402 32.1846875 13.1097402 19.5789732"></polygon>
                            <polygon id="Shape" fill="#DCE0E4" points="13.1097402 19.5789732 13.1097402 32.1846875 20.0278355 28.7256399 20.0278355 18.8932589"></polygon>
                            <polygon id="Shape" fill="#CBD2D8" points="26.1002164 18.2913542 24.6145021 18.2304018 20.7630735 18.5694494 22.3935497 27.5446875"></polygon>
                            <polygon id="Shape" fill="#DCE0E4" points="22.3935497 18.6570685 22.3935497 27.5446875 26.1002164 25.6894494 26.1002164 18.2913542"></polygon>
                            <polygon id="Shape" fill="#5A5E6C" points="26.1002164 14.6418304 24.6145021 14.7027827 20.7630735 14.3599256 22.3935497 5.4646875"></polygon>
                            <polygon id="Shape" fill="#DCE0E4" points="26.1002164 14.6418304 26.1002164 7.3199256 22.3935497 5.4646875 22.3935497 14.268497"></polygon>
                            <polygon id="Shape" fill="#737982" points="20.7630735 27.1142113 22.3935497 27.5446875 22.3935497 18.6570685 20.7630735 18.5694494"></polygon>
                            <polygon id="Shape" fill="#737982" points="20.7630735 5.89516369 22.3935497 5.4646875 22.3935497 14.268497 20.7630735 14.3599256"></polygon>
                        </g>
                        <g id="NetworkingContentDelivery/AmazonVPC/AmazonVPC" transform="translate(0.743902, 276.500000)" fill-rule="nonzero">
                            <g id="Group">
                                <g id="VPC">
                                    <polygon id="Shape" fill="#CBD2D8" points="20.7656098 21.6553659 15.7746341 21.3495122 0.0370731707 22.3597561 4.47658537 32.3834146"></polygon>
                                    <polygon id="Shape" fill="#737982" points="4.41634146 5.65829268 0.0370731707 7.86878049 0.0370731707 19 4.41634146 19 10.6121951 13.3834146"></polygon>
                                    <polygon id="Shape" fill="#DCE0E4" points="20.7656098 21.6553659 4.47658537 23.0131707 4.47658537 32.3834146 20.7656098 27.9485366"></polygon>
                                    <polygon id="Shape" fill="#DCE0E4" points="12.3546341 19 4.41634146 19 4.41634146 5.65829268 12.3546341 7.80853659"></polygon>
                                    <polygon id="Shape" fill="#737982" points="23.7639024 18.9907317 29.4639024 19 29.4639024 8.05878049 23.7639024 9.00414634"></polygon>
                                    <polygon id="Shape" fill="#5A5E6C" points="12.604878 10.1070732 17.734878 4.95853659 29.4639024 11.7197561 23.7639024 12.5214634"></polygon>
                                    <polygon id="Shape" fill="#737982" points="7.35902439 19 15.737561 19 20.1307317 10.2136585 15.737561 0 7.35902439 4.18926829"></polygon>
                                    <polygon id="Shape" fill="#DCE0E4" points="15.737561 0 15.737561 19 20.4458537 19 20.4458537 9.01341463 29.4639024 11.7197561 29.4639024 19 31.475122 19 31.475122 7.86878049"></polygon>
                                    <polygon id="Shape" fill="#737982" points="0.0370731707 22.3597561 4.47658537 23.0131707 4.47658537 32.3834146 0.0370731707 30.1682927"></polygon>
                                    <polygon id="Shape" fill="#CBD2D8" points="31.475122 22.3180488 23.907561 21.85 7.35902439 23.4534146 15.737561 38"></polygon>
                                    <polygon id="Shape" fill="#DCE0E4" points="31.475122 22.3180488 15.737561 24.6768293 15.737561 38 31.475122 30.1312195"></polygon>
                                    <polygon id="Shape" fill="#737982" points="7.35902439 23.4534146 15.737561 24.6768293 15.737561 38 7.35902439 33.82"></polygon>
                                </g>
                            </g>
                        </g>
                        <g id="AWS" transform="translate(489.000000, 454.000000)" fill-rule="nonzero">
                            <polygon id="Shape" fill="#DCE0E4" points="21.2378049 27.8187805 4.94414634 32.3231707 4.94414634 5.65365854 21.2378049 10.0607317"></polygon>
                            <polygon id="Shape" fill="#737982" points="4.94414634 32.3231707 0.532439024 30.1080488 0.532439024 7.8595122 4.94414634 5.65365854"></polygon>
                            <polygon id="Shape" fill="#737982" points="7.88219512 15.264878 16.2514634 14.2082927 16.2514634 23.717561 7.88219512 22.6702439"></polygon>
                            <polygon id="Shape" fill="#5A5E6C" points="31.9797561 13.4390244 24.3473171 14.2268293 7.88219512 11.6085366 16.2514634 0"></polygon>
                            <polygon id="Shape" fill="#737982" points="7.88219512 4.18463415 16.2514634 0 16.2514634 9.52317073 7.88219512 11.6085366"></polygon>
                            <polygon id="Shape" fill="#CBD2D8" points="31.9797561 24.5470732 24.3473171 23.7546341 7.88219512 26.3868293 16.2514634 37.8934146"></polygon>
                            <polygon id="Shape" fill="#737982" points="7.88219512 33.7968293 16.2514634 38 16.2514634 28.4768293 7.88219512 26.3868293"></polygon>
                            <polygon id="Shape" fill="#DCE0E4" points="31.9797561 13.4390244 16.2514634 9.52317073 16.2514634 0 31.9797561 7.86414634"></polygon>
                            <polygon id="Shape" fill="#DCE0E4" points="31.9797561 21.7573171 16.2514634 23.717561 16.2514634 14.1943902 31.9797561 16.1778049"></polygon>
                            <polygon id="Shape" fill="#DCE0E4" points="31.9797561 30.1219512 16.2514634 38 16.2514634 28.4768293 31.9797561 24.5470732"></polygon>
                        </g>
                        <g id="Group-7" transform="translate(4.000000, 51.000000)" fill="#3C5079" font-family="Exo-MediumItalic, Exo" font-size="12" font-style="italic" font-weight="500">
                            <text id="lambda">
                                <tspan x="380.859375" y="361.516687">lambda</tspan>
                            </text>
                            <text id="software">
                                <tspan x="704" y="12.21">software</tspan>
                            </text>
                            <text id="certificates">
                                <tspan x="579" y="86.6396875">certificates</tspan>
                            </text>
                            <text id="vulnerabilities">
                                <tspan x="445.76293" y="12.21">vulnerabilities</tspan>
                            </text>
                            <text id="S3">
                                <tspan x="220.133424" y="361.516687">S3</tspan>
                            </text>
                            <text id="EC2">
                                <tspan x="63.1875" y="466.990958">EC2</tspan>
                            </text>
                            <text id="VPC">
                                <tspan x="0.5" y="283.537969">VPC</tspan>
                            </text>
                            <text id="AWS-code-deploy">
                                <tspan x="456.430976" y="462.709457">AWS code deploy</tspan>
                            </text>
                            <text id="RDS">
                                <tspan x="298" y="504.439926">RDS</tspan>
                            </text>
                            <text id="assets">
                                <tspan x="174" y="13.21">assets</tspan>
                            </text>
                            <text id="violations">
                                <tspan x="261.5" y="73.6396875">violations</tspan>
                            </text>
                            <text id="ELB">
                                <tspan x="690" y="361.516687">ELB</tspan>
                            </text>
                            <text id="API-Gateway">
                                <tspan x="806" y="446.709457">API Gateway</tspan>
                            </text>
                        </g>
                        <g id="EC2" transform="translate(56.187500, 446.488415)" fill-rule="nonzero">
                            <g id="Group">
                                <polygon id="Shape" fill="#737982" points="2.73202381 10.2025 0.574166667 11.2814286 0.574166667 41.7185714 2.73202381 42.7975 11.4644048 27.2886905"></polygon>
                                <polygon id="Shape" fill="#DCE0E4" points="7.76071429 41.617619 2.73202381 42.7975 2.73202381 10.2025 7.76071429 11.3508333"></polygon>
                                <polygon id="Shape" fill="#737982" points="5.11071429 9.01 7.76071429 7.69130952 20.3482143 27.8691667 7.76071429 45.3086905 5.11071429 43.99"></polygon>
                                <polygon id="Shape" fill="#DCE0E4" points="14.032381 43.5357143 7.76071429 45.3086905 7.76071429 7.69130952 14.032381 9.47059524"></polygon>
                                <polygon id="Shape" fill="#737982" points="10.7135714 6.20857143 14.032381 4.54916667 32.6013095 30.0775 14.032381 48.4508333 10.7135714 46.7914286"></polygon>
                                <polygon id="Shape" fill="#DCE0E4" points="22.0770238 45.5105952 14.032381 48.4508333 14.032381 4.54916667 22.0770238 7.49571429"></polygon>
                                <polygon id="Shape" fill="#737982" points="17.7865476 2.6752381 22.0770238 0.53 42.1665476 27.970119 22.0770238 52.47 17.7865476 50.3247619"></polygon>
                                <polygon id="Shape" fill="#DCE0E4" points="43.5925 41.7122619 22.0770238 52.47 22.0770238 0.53 43.5925 11.2877381"></polygon>
                            </g>
                        </g>
                        <g id="S3" transform="translate(214.134146, 349.504687)" fill-rule="nonzero">
                            <g id="Group" transform="translate(0.457031, 0.897949)">
                                <polygon id="Shape" fill="#8B9097" points="2.90512195 7.46207317 0.0419512195 8.89365854 0.0419512195 34.0486585 2.90512195 35.4802439 9.93195122 21.4685366"></polygon>
                                <polygon id="Shape" fill="#DFE3E6" points="17.8292683 31.8619512 2.90512195 35.475 2.90512195 7.46207317 17.8292683 11.075122 24.8823171 21.5104878"></polygon>
                                <polygon id="Shape" fill="#8B9097" points="17.8292683 31.8619512 32.7481707 35.475 35.3281707 21.825122 32.7481707 7.46207317 17.8292683 11.075122"></polygon>
                                <polygon id="Shape" fill="#DFE3E6" points="32.7481707 7.46207317 35.6165854 8.89365854 35.6165854 34.0486585 32.7481707 35.4802439"></polygon>
                                <polygon id="Shape" fill="#8B9097" points="11.3215854 26.1041463 17.8292683 26.9379268 22.9892683 21.5104878 17.8292683 16.0882927 11.3215854 16.9063415"></polygon>
                                <polygon id="Shape" fill="#767B86" points="24.3369512 12.4542683 17.8292683 13.6393902 11.3215854 12.4542683 17.8292683 0"></polygon>
                                <polygon id="Shape" fill="#D2D7DC" points="24.3369512 30.5457317 17.8292683 29.350122 11.3215854 30.5457317 17.8292683 43"></polygon>
                                <polygon id="Shape" fill="#DFE3E6" points="24.3369512 12.4542683 17.8292683 10.8443902 17.8292683 0 24.3369512 3.25121951"></polygon>
                                <polygon id="Shape" fill="#8B9097" points="11.3215854 12.4542683 17.8292683 10.8443902 17.8292683 0 11.3215854 3.25121951"></polygon>
                                <polygon id="Shape" fill="#DFE3E6" points="17.8292683 43 24.3369512 39.7487805 24.3369512 30.5457317 17.8292683 32.1556098"></polygon>
                                <polygon id="Shape" fill="#8B9097" points="17.8292683 43 11.3215854 39.7487805 11.3215854 30.5457317 17.8292683 32.1556098"></polygon>
                                <polygon id="Shape" fill="#DFE3E6" points="24.3369512 26.1041463 17.8292683 26.9379268 17.8292683 16.0882927 24.3369512 16.9063415"></polygon>
                            </g>
                        </g>
                    </g>
                </g>
            </g>
        </g>
    </g>
</svg>