<?xml version="1.0" encoding="UTF-8"?>
<svg width="104px" height="79px" viewBox="0 0 104 79" version="1.1" xmlns="http://www.w3.org/2000/svg" xmlns:xlink="http://www.w3.org/1999/xlink">
    <!-- Generator: Sketch 47.1 (45422) - http://www.bohemiancoding.com/sketch -->
    <title>PacBot</title>
    <desc>Created with Sketch.</desc>
    <defs>
        <rect id="path-1" x="0" y="0" width="53" height="75"></rect>
    </defs>
    <g id="Prototype" stroke="none" stroke-width="1" fill="none" fill-rule="evenodd">
        <g id="12-Tools-(Updated)" transform="translate(-409.000000, -663.000000)">
            <g id="PacBot" transform="translate(410.000000, 664.000000)">
                <g id="Group-16" transform="translate(25.000000, 5.000000)">
                    <g id="Group-15" transform="translate(13.000000, 13.000000)">
                        <path d="M27.2619802,26.8330729 L51.5884914,15.1399365 C47.1227905,6.20828796 37.8976568,0.0387441512 27.2619802,0.0387441512 C12.1607878,0.0387441512 0,12.2599935 0,27.3025752 C0,42.3451569 12.2212493,54.5664062 27.263831,54.5664062 C38.2511716,54.5664062 47.6523225,48.1025752 52,38.7618859 L27.2619802,26.8330729 Z" id="Shape" fill="#A4A0DA" fill-rule="nonzero"></path>
                        <path d="" id="Path-2" stroke="#979797"></path>
                    </g>
                    <g id="Oval-2">
                        <mask id="mask-2" fill="white">
                            <use xlink:href="#path-1"></use>
                        </mask>
                        <g id="Mask"></g>
                        <path d="M45.5,72.25 C27.4126744,72.25 12.75,57.5873256 12.75,39.5 C12.75,21.4126744 27.4126744,6.75 45.5,6.75 C63.5873256,6.75 78.25,21.4126744 78.25,39.5 C78.25,57.5873256 63.5873256,72.25 45.5,72.25 Z M45.5,69.75 C62.2066137,69.75 75.75,56.2066137 75.75,39.5 C75.75,22.7933863 62.2066137,9.25 45.5,9.25 C28.7933863,9.25 15.25,22.7933863 15.25,39.5 C15.25,56.2066137 28.7933863,69.75 45.5,69.75 Z" fill="#645EC5" fill-rule="nonzero" mask="url(#mask-2)"></path>
                    </g>
                    <path d="M42.862793,27.7255859 C40.1771466,27.7255859 38,25.5484394 38,22.862793 C38,20.1771466 40.1771466,18 42.862793,18 C45.5484394,18 47.7255859,20.1771466 47.7255859,22.862793 C47.7255859,25.5484394 45.5484394,27.7255859 42.862793,27.7255859 Z M42.862793,25.7255859 C44.4438699,25.7255859 45.7255859,24.4438699 45.7255859,22.862793 C45.7255859,21.2817161 44.4438699,20 42.862793,20 C41.2817161,20 40,21.2817161 40,22.862793 C40,24.4438699 41.2817161,25.7255859 42.862793,25.7255859 Z" id="Oval-7" fill="#645EC5" fill-rule="nonzero"></path>
                    <path d="M52.3557705,10.3790748 C53.0069903,10.5753215 53.635555,10.7703416 54.2414414,10.9641206 C55.0304949,11.2164814 55.8747281,10.7814059 56.1270888,9.99235231 C56.3794496,9.20329874 55.9443742,8.3590656 55.1553206,8.10670482 C54.5331142,7.90770633 53.8884744,7.70769869 53.2213779,7.50666743 C52.4281845,7.26763655 51.5914014,7.71687401 51.3523706,8.51006739 C51.1133397,9.30326077 51.5625771,10.1400439 52.3557705,10.3790748 Z M59.771622,12.9538392 C60.4055442,13.216292 60.9921506,13.4755977 61.5312127,13.7315166 C62.2795853,14.0868051 63.1742794,13.7681476 63.529568,13.019775 C63.8848566,12.2714024 63.5661991,11.3767083 62.8178265,11.0214197 C62.2313483,10.7429902 61.5985493,10.4632653 60.919201,10.1820054 C60.1537802,9.8651102 59.2763898,10.228712 58.9594946,10.9941328 C58.6425994,11.7595535 59.0062012,12.636944 59.771622,12.9538392 Z M66.2477407,16.7996099 C66.7539243,17.2155461 67.2363549,17.6346429 67.6947075,18.0558812 C68.3046684,18.6164516 69.2535716,18.5764127 69.814142,17.9664518 C70.3747124,17.3564909 70.3346735,16.4075878 69.7247126,15.8470173 C69.2253728,15.3881107 68.7011213,14.9326833 68.1523486,14.4817512 C67.5122896,13.9558083 66.5670583,14.0483176 66.0411154,14.6883766 C65.5151724,15.3284356 65.6076817,16.2736669 66.2477407,16.7996099 Z M71.4484114,22.2934381 C71.81655,22.8308583 72.1315657,23.3525989 72.3913782,23.8507146 C72.7744947,24.5852303 73.6805146,24.8700956 74.4150302,24.4869791 C75.1495459,24.1038626 75.4344112,23.1978427 75.0512947,22.4633271 C74.7348416,21.8566192 74.3579264,21.2323584 73.9234098,20.5980376 C73.4552379,19.9145857 72.5216623,19.7400668 71.8382104,20.2082387 C71.1547584,20.6764106 70.9802395,21.6099862 71.4484114,22.2934381 Z M72.3954761,26.8905309 C71.8127359,27.1794865 71.207125,27.4914085 70.5785482,27.8263124 C69.8474204,28.2158552 69.570511,29.1243383 69.9600538,29.8554661 C70.3495966,30.5865939 71.2580797,30.8635033 71.9892075,30.4739605 C72.5925767,30.1524871 73.1722727,29.8539126 73.7282003,29.5782523 C74.4703941,29.2102307 74.7737205,28.3102233 74.4056989,27.5680295 C74.0376773,26.8258357 73.1376699,26.5225093 72.3954761,26.8905309 Z M65.2969744,30.851157 C64.7368493,31.1907225 64.1635699,31.5433128 63.5771229,31.9089322 C62.8741283,32.3472131 62.6595355,33.2723997 63.0978164,33.9753943 C63.5360973,34.6783888 64.4612838,34.8929817 65.1642784,34.4547008 C65.7402632,34.0956039 66.3029082,33.7495542 66.8522003,33.416556 C67.5606157,32.9870923 67.7867506,32.064659 67.3572869,31.3562436 C66.9278231,30.6478282 66.0053898,30.4216932 65.2969744,30.851157 Z M58.499398,35.1815303 C57.9513707,35.545007 57.3941607,35.9175452 56.8277646,36.2991463 C56.1407212,36.7620318 55.9590054,37.6942333 56.4218908,38.3812766 C56.8847763,39.06832 57.8169778,39.2500358 58.5040211,38.7871504 C59.0644608,38.4095623 59.6156458,38.0410522 60.1575726,37.6816217 C60.8479538,37.2237294 61.0364233,36.2928699 60.578531,35.6024887 C60.1206387,34.9121075 59.1897792,34.723638 58.499398,35.1815303 Z M52.1897968,42.2721821 L53.9787647,43.1663824 C54.7197794,43.5367722 55.6207509,43.2363214 55.9911407,42.4953067 C56.3615306,41.7542919 56.0610798,40.8533205 55.320065,40.4829306 L53.5310972,39.5887304 C52.7900825,39.2183405 51.889111,39.5187913 51.5187211,40.2598061 C51.1483313,41.0008208 51.4487821,41.9017923 52.1897968,42.2721821 Z M59.3456682,45.8489831 L61.134636,46.7431833 C61.8756508,47.1135732 62.7766222,46.8131224 63.1470121,46.0721076 C63.517402,45.3310929 63.2169511,44.4301214 62.4759364,44.0597316 L60.6869686,43.1655313 C59.9459538,42.7951415 59.0449824,43.0955923 58.6745925,43.836607 C58.3042026,44.5776218 58.6046535,45.4785932 59.3456682,45.8489831 Z M66.5015396,49.425784 L68.2905074,50.3199843 C69.0315221,50.6903741 69.9324936,50.3899233 70.3028835,49.6489086 C70.6732733,48.9078938 70.3728225,48.0069224 69.6318078,47.6365325 L67.8428399,46.7423323 C67.1018252,46.3719424 66.2008537,46.6723932 65.8304639,47.413408 C65.460074,48.1544227 65.7605248,49.0553942 66.5015396,49.425784 Z M74.9828096,53.9524401 C75.6948446,54.3758757 76.6153253,54.1419196 77.0387608,53.4298845 C77.1069965,53.3149648 77.1069965,53.3149648 77.1751529,53.1994713 C77.6163591,52.4506841 77.330864,51.4848398 76.5534627,51.0962624 L74.9987113,50.3191332 C74.2576965,49.9487434 73.3567251,50.2491942 72.9863352,50.9902089 C72.6159453,51.7312237 72.9163962,52.6321951 73.6574109,53.002585 L74.4388369,53.3931741 C74.5632699,53.6170834 74.7467715,53.8120721 74.9828096,53.9524401 Z M71.2179733,56.7397564 C70.8183819,57.2637815 70.4169833,57.7639872 70.0138325,58.2403847 C69.4786814,58.872765 69.5575013,59.8192362 70.1898816,60.3543873 C70.8222619,60.8895383 71.7687331,60.8107184 72.3038841,60.1783381 C72.7403059,59.6626249 73.1735044,59.1227914 73.6035348,58.5588487 C74.1058632,57.9000941 73.9790548,56.9588503 73.3203002,56.4565218 C72.6615456,55.9541934 71.7203018,56.0810018 71.2179733,56.7397564 Z M65.9357939,62.2034927 C65.4402472,62.5841081 64.9428061,62.9304035 64.4435219,63.2425676 C64.415418,63.2601092 64.415418,63.2601092 64.4005189,63.2693888 C63.6972576,63.7072416 63.4821016,64.6322973 63.9199544,65.3355586 C64.3578072,66.0388199 65.2828629,66.2539759 65.9861242,65.8161231 C66.0030175,65.805601 66.0030175,65.805601 66.0331491,65.7867934 C66.6159139,65.4224356 67.1923188,65.0211692 67.7631931,64.5826968 C68.4201922,64.0780745 68.5437179,63.1363942 68.0390955,62.4793952 C67.5344732,61.8223961 66.5927929,61.6988704 65.9357939,62.2034927 Z M59.2702931,65.9685075 C58.6902326,66.228419 58.0930921,66.4834161 57.4788773,66.7334764 C56.7116007,67.0458515 56.3428302,67.9210821 56.6552053,68.6883586 C56.9675804,69.4556352 57.842811,69.8244057 58.6100875,69.5120306 C59.2560498,69.2490452 59.8850209,68.9804555 60.4970064,68.7062391 C61.2530101,68.3674916 61.5912631,67.4800204 61.2525156,66.7240167 C60.9137681,65.9680129 60.0262969,65.62976 59.2702931,65.9685075 Z M51.9423882,68.7097505 C51.4940497,68.8502809 51.0389357,68.9888036 50.5770479,69.1253156 C49.7825928,69.3601187 49.3289051,70.1944974 49.5637082,70.9889526 C49.7985113,71.7834077 50.63289,72.2370954 51.4273452,72.0022923 C51.9048437,71.8611665 52.3756222,71.7178759 52.8396826,71.5724176 C53.6301863,71.3246366 54.07015,70.4829405 53.8223689,69.6924368 C53.5745879,68.9019332 52.7328919,68.4619695 51.9423882,68.7097505 Z" id="Path-7" fill="#645EC5" fill-rule="nonzero"></path>
                </g>
                <g id="Group-13">
                    <polygon id="Rectangle-2-Copy" fill="#A4A0DA" points="0 10.532916 7 4.43945312 7 45.8274722 0 45.8274722"></polygon>
                    <path d="M1.53909464,44.5774722 L1.53909464,11.154699 L11.0713808,1.62241283 L39.6777344,1.62241283 L39.6777344,17.5517578 C39.6777344,18.2421137 40.2373784,18.8017578 40.9277344,18.8017578 C41.6180903,18.8017578 42.1777344,18.2421137 42.1777344,17.5517578 L42.1777344,0.372412832 C42.1777344,-0.317943105 41.6180903,-0.877587168 40.9277344,-0.877587168 L10.5536139,-0.877587168 C10.2220933,-0.877587168 9.90415087,-0.745891117 9.6697304,-0.511470644 L-0.594788837,9.75304859 C-0.82920931,9.98746906 -0.96090536,10.3054115 -0.96090536,10.6369321 L-0.96090536,45.8274722 C-0.96090536,46.5178282 -0.401261298,47.0774722 0.28909464,47.0774722 L32.6031706,47.0774722 C33.2935266,47.0774722 33.8531706,46.5178282 33.8531706,45.8274722 C33.8531706,45.1371163 33.2935266,44.5774722 32.6031706,44.5774722 L1.53909464,44.5774722 Z" id="Path-5" fill="#645EC5" fill-rule="nonzero"></path>
                    <path d="M15.9125066,24.2257762 C15.4406887,23.7218128 14.6496616,23.6957536 14.1456981,24.1675716 C13.6417346,24.6393895 13.6156755,25.4304166 14.0874934,25.93438 L21.1109309,33.4363332 C21.7276031,34.09502 22.8176975,33.90332 23.1726532,33.0737663 L31.5515594,13.491735 C31.8231372,12.8570407 31.5287731,12.1223621 30.8940788,11.8507843 C30.2593845,11.5792066 29.5247058,11.8735707 29.2531281,12.508265 L21.6274114,30.3300447 L15.9125066,24.2257762 Z" id="Path-3" fill="#645EC5" fill-rule="nonzero"></path>
                    <path d="M0.647448488,11.7897528 C-0.0429074489,11.7897528 -0.602551512,12.3493968 -0.602551512,13.0397528 C-0.602551512,13.7301087 -0.0429074489,14.2897528 0.647448488,14.2897528 L11.3525515,14.2897528 C12.0429074,14.2897528 12.6025515,13.7301087 12.6025515,13.0397528 L12.6025515,2 C12.6025515,1.30964406 12.0429074,0.75 11.3525515,0.75 C10.6621956,0.75 10.1025515,1.30964406 10.1025515,2 L10.1025515,11.7897528 L0.647448488,11.7897528 Z" id="Path-4" fill="#645EC5" fill-rule="nonzero"></path>
                </g>
            </g>
        </g>
    </g>
</svg>