<svg xmlns="http://www.w3.org/2000/svg" width="100" height="66" viewBox="0 0 100 66">
    <g fill="none" fill-rule="nonzero">
        <path fill="#7DDFCC" d="M37.521 38.218c.673-.832 1.3-1.7 1.879-2.599.577-.895 1.1-1.82 1.726-2.684.627-.863 1.427-1.731 2.116-2.617 2.058-2.63 3.498-5.815 6.11-7.886l-.304.179a17.383 17.383 0 0 0 3.664-.264c1.029-.161 1.852-1.208 2.496-2.026.644-.819 1.033-1.342 1.203-2.353.148-.917-.6-1.494-.447-2.411.05-.291-.555-1.459-.948-1.476-.394-.018.125-.206-.21 0-1.383.854-2.201 2.643-3.798 2.952a.966.966 0 0 1-.461.018 3.1 3.1 0 0 1-.568-.385 1.342 1.342 0 0 0-1.606.362c-.407.448-.407 3.132-.658 3.664-1.342 2.894-10.735 17.512-13.777 13.674-.12-.152-.403 3.704-.322 3.879.08.174 1.127 1.194 1.342 1.199 1.248.008 1.771-.246 2.563-1.226zM94.585 43.443a1.95 1.95 0 0 0-2.093-1.893l-.47.032A1.964 1.964 0 0 1 90.01 40.2l-.818-2.684a1.96 1.96 0 0 1 .447-1.906 1.96 1.96 0 0 0 0-2.684l-.622-.666a1.955 1.955 0 0 0-2.746-.126 1.964 1.964 0 0 1-1.937.403l-2.322-1.445c-.8-.268 0-.832 0-1.677v-.398c0-1.128-.559-2.42-1.682-2.362l-4.08.237c-1.077.053-1.26 1.48-1.211 2.558v.296a1.95 1.95 0 0 1-1.423 1.977l-3.055.863a1.941 1.941 0 0 1-1.919-.5l-1.002-1.003a1.955 1.955 0 0 0-2.876.116l-.622.73c-.689.814-1.24 2-.447 2.684l.894 1.02c.635.563 1.257 1.086.895 1.865l-1.36 3.26a1.955 1.955 0 0 1-1.79 1.173h-.952a1.96 1.96 0 0 0-1.964 1.959l.027 1.655c0 1.07-.894 2.831.197 2.827l2.8.054c.738 0 1.418-.546 1.754.116l.756 1.503a1.95 1.95 0 0 1-.42 2.322l.692 1.342c-.805.738-2.321 1.368-1.57 2.16l1.159 1.221a1.96 1.96 0 0 0 2.845 0l1.073-1.145a1.955 1.955 0 0 1 2.215-.447l2.527 1.114a1.96 1.96 0 0 1 1.163 1.941v.29a1.955 1.955 0 0 0 1.897 2.108l1.342.035a1.96 1.96 0 0 0 2.008-1.87l.031-.746a1.96 1.96 0 0 1 1.226-1.727l2.581-1.038a1.96 1.96 0 0 1 2.272.609l.591.755a1.96 1.96 0 0 0 2.805.291l.97-.845a1.96 1.96 0 0 0 .166-2.84l-.796-.842a1.964 1.964 0 0 1-.394-2.062l1.07-2.715a1.968 1.968 0 0 1 1.659-1.235l.756-.062a1.955 1.955 0 0 0 1.789-2.009l-.023-1.207zm-15.74 10.945a8.499 8.499 0 0 1-8.388-7.05 7.323 7.323 0 0 1 10.203-9.791 8.499 8.499 0 0 1-1.816 16.841z"/>
        <path fill="#1BA88C" d="M12.324 44.091a1.042 1.042 0 0 1-1.043-1.042V1.989c0-.575.467-1.042 1.043-1.042H27.98a1.047 1.047 0 1 1 0 2.09H13.37v40.012a1.042 1.042 0 0 1-1.046 1.042zM78.28 22.347a1.042 1.042 0 0 1-1.046-1.042v-.618a1.047 1.047 0 1 1 2.089 0v.618c0 .575-.467 1.042-1.042 1.042zM78.28 18.07a1.047 1.047 0 0 1-1.046-1.046V15.94a1.047 1.047 0 1 1 2.089 0v1.083a1.042 1.042 0 0 1-1.042 1.047zm0-4.75a1.042 1.042 0 0 1-1.046-1.042V11.19a1.047 1.047 0 0 1 2.089 0v1.087c0 .576-.467 1.042-1.042 1.042zm0-4.746a1.042 1.042 0 0 1-1.046-1.042V6.445a1.047 1.047 0 0 1 2.089 0v1.087c0 .575-.467 1.042-1.042 1.042zM78.28 3.828a1.038 1.038 0 0 1-.979-.684 1.042 1.042 0 0 1 .358-2.022h.622c.575 0 1.042.466 1.042 1.042v.622a1.042 1.042 0 0 1-1.042 1.042zM73.32 3.21h-1.302a1.047 1.047 0 1 1 0-2.088h1.284a1.047 1.047 0 0 1 0 2.089h.018zm-5.618 0h-1.284a1.047 1.047 0 1 1 0-2.088h1.284a1.047 1.047 0 0 1 0 2.089zm-5.619 0H60.8a1.047 1.047 0 0 1 0-2.088h1.283a1.047 1.047 0 1 1 0 2.089zm-5.618 0h-1.284a1.047 1.047 0 0 1 0-2.088h1.284a1.047 1.047 0 1 1 0 2.089zm-5.614 0h-1.284a1.047 1.047 0 1 1 0-2.088h1.284a1.047 1.047 0 0 1 0 2.089zm-5.618 0h-1.284a1.047 1.047 0 1 1 0-2.088h1.284a1.047 1.047 0 0 1 0 2.089zm-5.618 0H38.33a1.047 1.047 0 0 1 0-2.088h1.284a1.047 1.047 0 0 1 0 2.089zM33.996 3.21h-.617a1.047 1.047 0 0 1 0-2.088h.617a1.047 1.047 0 1 1 0 2.089zM81.86 65.97h-6.666a1.042 1.042 0 0 1-1.042-1.043V61.35a15.656 15.656 0 0 1-3.668-1.521l-2.993 2.988a1.07 1.07 0 0 1-1.476 0L61.31 58.11a1.038 1.038 0 0 1 0-1.476l2.989-2.993a15.656 15.656 0 0 1-1.521-3.668H58.83a1.042 1.042 0 0 1-1.042-1.042v-6.66c0-.576.467-1.043 1.042-1.043h3.955a16.488 16.488 0 0 1 1.516-3.663l-2.894-2.899a1.038 1.038 0 0 1 0-1.476l4.706-4.706a1.047 1.047 0 0 1 1.476 0l2.894 2.881a15.84 15.84 0 0 1 3.668-1.52V26.22a1.042 1.042 0 0 1 1.042-1.047h6.665a1.042 1.042 0 0 1 1.043 1.047v3.641c1.28.351 2.513.856 3.672 1.503l2.156-2.152a1.047 1.047 0 0 1 1.476 0l4.706 4.706c.407.41.407 1.071 0 1.48l-2.152 2.152a16.64 16.64 0 0 1 1.521 3.682l3.852.098a1.042 1.042 0 0 1 1.015 1.042v6.674c0 .282-.112.55-.313.747-.2.201-.474.308-.756.296l-3.802-.094a15.763 15.763 0 0 1-1.512 3.65l2.988 2.984a1.047 1.047 0 0 1 0 1.476l-4.71 4.71c-.415.39-1.062.39-1.476 0l-2.993-2.993a16.488 16.488 0 0 1-3.664 1.517v3.578a1.042 1.042 0 0 1-1.05 1.052zm-5.628-2.085h4.58v-3.341c.012-.483.352-.895.824-.998a14.538 14.538 0 0 0 4.549-1.883c.412-.259.95-.198 1.293.147l2.827 2.827 3.23-3.234-2.823-2.827a1.042 1.042 0 0 1-.143-1.301 13.71 13.71 0 0 0 1.878-4.527c.1-.494.54-.844 1.043-.832l3.578.09v-4.6l-3.623-.089a1.051 1.051 0 0 1-.993-.814 14.47 14.47 0 0 0-1.883-4.545c-.262-.413-.2-.953.147-1.297l1.986-1.986-3.238-3.234-1.99 1.99c-.346.343-.882.402-1.294.144a14.645 14.645 0 0 0-4.549-1.883 1.047 1.047 0 0 1-.814-1.02v-3.409h-4.576v3.409c0 .492-.343.917-.823 1.024a13.683 13.683 0 0 0-4.531 1.874 1.047 1.047 0 0 1-1.302-.138l-2.733-2.734-3.23 3.23 2.729 2.733c.345.344.406.88.147 1.293a14.538 14.538 0 0 0-1.883 4.55 1.047 1.047 0 0 1-1.02.813h-3.717v4.599h3.717c.492-.002.918.341 1.02.823a13.71 13.71 0 0 0 1.879 4.527c.265.413.205.955-.143 1.301l-2.832 2.818 3.23 3.23 2.831-2.827a1.042 1.042 0 0 1 1.302-.143 13.692 13.692 0 0 0 4.536 1.901c.48.103.823.528.823 1.02l-.009 3.319z"/>
        <path fill="#1BA88C" d="M78.531 55.346c-5.378 0-9.738-4.36-9.738-9.738 0-5.379 4.36-9.739 9.738-9.739 5.378 0 9.738 4.36 9.738 9.739a9.752 9.752 0 0 1-9.738 9.738zm0-17.388a7.65 7.65 0 1 0 7.65 7.65 7.658 7.658 0 0 0-7.65-7.65zM36.143 40.374a3.9 3.9 0 0 1-2.46-.957c-1.293-1.034-2.415-2.894-.447-5.891l.076-.112 9.742-14.373a7.502 7.502 0 0 1-.64-2.939 7.502 7.502 0 0 1 5.055-6.906c2.349-.765 3.86.13 4.026.237a1.042 1.042 0 0 1 .322 1.44l-1.847 2.908a1.342 1.342 0 0 0 .3 1.83l.532.34c.564.357 1.06.205 1.48-.448l2.045-3.001a1.047 1.047 0 0 1 1.516-.224c.139.112 1.342 1.154 1.65 3.538a7.493 7.493 0 0 1-4.11 7.497c-1.159.577-2.867.448-3.83.322L39.893 37.95c-.385.595-1.508 2.098-3.212 2.362a3.265 3.265 0 0 1-.537.063zm13.13-29.393c-.393.009-.782.077-1.155.201a5.453 5.453 0 0 0-3.614 4.974c.044.868.274 1.716.675 2.487.184.342.161.758-.058 1.078L34.994 34.697c-.971 1.463-.971 2.335 0 3.105.361.336.85.5 1.342.447.71-.116 1.395-.84 1.789-1.48L48.176 21.89a1.051 1.051 0 0 1 1.087-.448c.895.193 2.487.314 3.172-.026a5.462 5.462 0 0 0 2.96-5.368 4.96 4.96 0 0 0-.259-1.092L54 16.626c-1.01 1.597-2.804 2.044-4.343 1.069l-.532-.34a3.404 3.404 0 0 1-.944-4.71l1.091-1.664zM38.89 18.46a1.047 1.047 0 0 1-.975-.676c-1.092-2.92-.582-6.101 1.261-7.89a1.044 1.044 0 0 1 1.454 1.498c-1.221 1.181-1.539 3.579-.76 5.64a1.038 1.038 0 0 1-.98 1.41v.018zM60.58 22.079a1.042 1.042 0 0 1-.818-1.691c1.131-1.427 1.203-4.259.138-5.507a1.047 1.047 0 0 1 1.593-1.342c1.69 1.995 1.646 5.959-.094 8.16-.2.244-.502.384-.819.38zM45.582 22.495l-7 10.225"/>
        <path fill="#1BA88C" d="M38.581 33.767a1.056 1.056 0 0 1-.59-.165 1.042 1.042 0 0 1-.273-1.454l7.014-10.244a1.044 1.044 0 0 1 1.722 1.181L39.44 33.311a1.042 1.042 0 0 1-.859.456zM59.493 49.45v-2.044H3.337a1.248 1.248 0 0 1-1.248-1.248v-.286c0-.69.558-1.25 1.248-1.253h56.156v-2.071H3.337A3.341 3.341 0 0 0 0 45.872v.286a3.341 3.341 0 0 0 3.337 3.337l56.156-.045z"/>
    </g>
</svg>
