<svg id="Layer_1" data-name="Layer 1" xmlns="http://www.w3.org/2000/svg" viewBox="0 0 34.25 53.13"><defs><style>.cls-1{fill:#e20074;}</style></defs><title>Artboard 12 copy 2</title><path class="cls-1" d="M24.32,52.44H.56V38.05a8,8,0,0,1,8-8h7.7a8,8,0,0,1,8,8ZM3.06,49.94H21.82V38.05a5.54,5.54,0,0,0-5.53-5.53H8.59a5.54,5.54,0,0,0-5.53,5.53Z"/><path class="cls-1" d="M6.38,26.61H3.88V23.42a8.56,8.56,0,0,1,17.13,0v3.16H18.5V23.42a6.06,6.06,0,0,0-12.13,0Z"/><path class="cls-1" d="M16.07,39A3.4,3.4,0,0,1,14,42.1v4.2H11.34V42.11A3.4,3.4,0,1,1,16.07,39Z"/><path class="cls-1" d="M30.5,12.86l3.37-.21-.16-2.5-3.37.22a8.28,8.28,0,0,0-1.78-3.64L31,4,29.12,2.31,26.69,5.08a8.1,8.1,0,0,0-3.84-1.32L22.64.4,20.15.56l.21,3.37a8,8,0,0,0-3.64,1.78L13.95,3.27,12.3,5.14l2.77,2.44a8.2,8.2,0,0,0-1.16,2.76H16.5a5.92,5.92,0,0,1,5.26-4.1h.38a5.91,5.91,0,0,1,2.3,11.35v2.63a8.23,8.23,0,0,0,3.1-1.65L30.31,21,32,19.13l-2.77-2.44A8.32,8.32,0,0,0,30.5,12.86Z"/></svg>