<svg id="Layer_1" data-name="Layer 1" xmlns="http://www.w3.org/2000/svg" viewBox="0 0 26.5 61"><defs><style>.cls-1{fill:#e20074;}</style></defs><title>Artboard 12 copy</title><path class="cls-1" d="M25.79,49.88H.71v-22a12.54,12.54,0,1,1,25.08,0ZM3.21,47.38H23.29V27.9a10,10,0,1,0-20.08,0Z"/><path class="cls-1" d="M7.19,12.55H4.69V9.36a8.56,8.56,0,0,1,17.13,0v3.16h-2.5V9.36a6.06,6.06,0,0,0-12.13,0Z"/><path class="cls-1" d="M16.64,30.91A3.4,3.4,0,0,1,14.58,34v4.19H11.91V34a3.4,3.4,0,1,1,4.73-3.12Z"/><polygon class="cls-1" points="20.2 55.2 13.2 60.2 6.3 55.24 20.2 55.2"/></svg>