<svg xmlns="http://www.w3.org/2000/svg" width="99" height="80" viewBox="0 0 99 80">
    <g fill="none" fill-rule="nonzero">
        <path fill="#FFC752" d="M31.254 45.026l-.301-17.354a1.358 1.358 0 0 1 1.262-1.395h.467c-.263.225.204.681.204 1.476l.403 7.683-.043-2.684c0-.795 1.61-1.031 2.282-1.031h.445a1.332 1.332 0 0 1 1.192 1.439v2.486-1.955a1.332 1.332 0 0 1 1.187-1.455 1.332 1.332 0 0 1 1.192 1.44v3.29l-.172-3.592c0-.767.8.145 1.433.145h.113c.634 0 3.146.64 3.184 1.402.14 3.066 2.685 9.202-2.266 16.172-.225.316-2.008.204-2.346.182l-6.25-.44c-.38 0-2.147.961-2.384.574l-4.188-8.053c-.284-.537-2.362-1.445-2.212-1.745l.08-.108c.264-.36.409-.456.763-.408.51.07 2.427 1.858 3.286 2.357l2.669 1.574zM54.158 45.46l6.105-7.114L86.53 45.96c1.074.317.37.955 1.385.45 0 0-13.224-11.065-25.444-14.748a3.323 3.323 0 0 0-2.148.096c-1.868.736-5.568 2.744-8.086 7.673-.027 0-2.212 9.192 1.922 6.03z"/>
        <path fill="#F5AA11" d="M71.78 79.656c-10.379 0-18.792-8.413-18.792-18.792V46.626a1.17 1.17 0 0 1 2.335 0V60.87a16.451 16.451 0 1 0 32.897 0V47.522a1.17 1.17 0 0 1 2.336 0V60.87c-.003 10.37-8.406 18.777-18.776 18.786z"/>
        <path fill="#F5AA11" d="M91.812 47.302c-.456 0-.891.268-1.074-.183a1.16 1.16 0 0 1 .623-1.524 19.27 19.27 0 0 1 2.894-.795l.446-.102c-1.552-1.37-3.163-3.077-4.833-4.832-2.534-2.685-5.154-5.477-7.87-7.399-5.08-3.603-14.583-5.165-20.339-3.34a1.17 1.17 0 0 1-.703-2.228c6.443-2.045 16.708-.37 22.394 3.662 2.905 2.062 5.606 4.929 8.22 7.705 2.256 2.4 4.387 4.666 6.315 6.013.341.246.527.655.488 1.074a1.17 1.17 0 0 1-.709.95c-.714.301-1.804.44-2.894.79-4.58 1.481-1.98-.086-2.507.134a1.208 1.208 0 0 1-.45.075z"/>
        <path fill="#F5AA11" d="M52.617 48.413a1.122 1.122 0 0 1-.23 0c-.682-.102-1.541-.617-1.745-2.453-.741-6.545.537-11.743 3.833-15.447a11.275 11.275 0 0 1 14.41-1.987c13.606 8.451 24.538 16.94 24.634 17.026a1.17 1.17 0 0 1-.472 2.061c-7.302 1.574-15.071-1.863-22.583-5.186a100.462 100.462 0 0 0-10.2-4.08c-1.698 3.661-5.032 10.066-7.647 10.066zm.344-2.738v.129c1.074-.993 3.34-4.36 5.562-9.342a1.16 1.16 0 0 1 1.386-.65c3.828 1.074 7.71 2.814 11.463 4.478 6.443 2.862 12.639 5.573 18.405 5.37-5.25-3.013-12.3-9.043-22.142-15.174a9.02 9.02 0 0 0-11.426 1.552c-2.83 3.189-3.924 7.774-3.264 13.632l.016.005zM63.082 61.272a5.97 5.97 0 0 1-5.858-6.056V52.36a1.17 1.17 0 0 1 2.336 0v2.856a3.528 3.528 0 1 0 7.039 0V52.73a1.17 1.17 0 0 1 2.335 0v2.486a5.965 5.965 0 0 1-5.852 6.056zM80.413 61.364a5.965 5.965 0 0 1-5.852-6.062v-2.846a1.17 1.17 0 1 1 2.336 0v2.846a3.522 3.522 0 1 0 7.039 0v-2.48a1.17 1.17 0 0 1 2.335 0v2.48a5.965 5.965 0 0 1-5.858 6.062z"/>
        <path fill="#F5AA11" d="M71.678 54.368a2.583 2.583 0 0 1-2.244-1.278l-.178-.29H49.197a1.17 1.17 0 0 1 0-2.336h20.725c.413 0 .795.22 1.004.575l.537.859a.268.268 0 0 0 .467 0l.537-.86c.203-.34.565-.554.961-.568h20.725a1.17 1.17 0 0 1 0 2.335H74.094l-.172.29a2.593 2.593 0 0 1-2.244 1.273zM72.553 64.966h-1.557a3.066 3.066 0 0 1-3.066-3.065 1.17 1.17 0 0 1 2.336 0c0 .403.327.73.73.73h1.557a.73.73 0 0 0 .73-.73 1.17 1.17 0 0 1 2.336 0v.198c0 .104-.015.207-.043.306a3.066 3.066 0 0 1-3.023 2.561zM70.9 72.274a8.81 8.81 0 0 1-1.499-.124 1.167 1.167 0 0 1 .382-2.303c3.027.43 6.02-.98 7.618-3.587a1.167 1.167 0 1 1 2.014 1.182 9.981 9.981 0 0 1-8.516 4.832z"/>
        <circle cx="80.532" cy="55.522" r="1.262" fill="#F5AA11"/>
        <circle cx="63.211" cy="55.522" r="1.262" fill="#F5AA11"/>
        <path fill="#F5AA11" d="M42.824 32.52h-1.041a3.345 3.345 0 0 0-2.744-1.433h-1.557a3.345 3.345 0 0 0-2.223-.848h-1.074v-4.027a3.345 3.345 0 1 0-6.684 0v10.572a9.294 9.294 0 0 0-1.783-1.24 3.077 3.077 0 0 0-3.576.537l-.14.134a3.077 3.077 0 0 0-.085 4.327 76.634 76.634 0 0 1 6.636 9.955 4.832 4.832 0 0 0 4.242 2.496h7.436a4.295 4.295 0 0 0 3.984-2.727c1.74-4.5 1.943-11.99 1.949-12.35v-2.05a3.35 3.35 0 0 0-3.34-3.345zm1.004 5.37c0 .075-.198 7.404-1.793 11.522a1.917 1.917 0 0 1-1.804 1.235h-7.436c-.91 0-1.747-.49-2.191-1.283a78.518 78.518 0 0 0-6.867-10.33l-.113-.102a.725.725 0 0 1-.22-.537c0-.202.081-.396.226-.537l.144-.14a.757.757 0 0 1 .87-.123c.956.499 2.545 1.83 2.9 3.098a1.342 1.342 0 0 0 .155.333c.02.03.044.06.07.085.022.031.047.06.075.086.041.044.086.084.135.118.09.065.19.117.295.156h.048l.161.038c.063.005.126.005.188 0H28.966c.063-.018.124-.041.183-.07a.843.843 0 0 0 .166-.097c.103-.073.193-.162.269-.263a.94.94 0 0 0 .097-.156c.03-.062.058-.127.08-.193 0-.053.027-.107.038-.16a1.074 1.074 0 0 0 0-.189V26.212a1.01 1.01 0 1 1 2.013 0V36.51a1.17 1.17 0 1 0 2.336 0v-3.92h1.073a1.01 1.01 0 0 1 1.005 1.01v3.63a1.17 1.17 0 1 0 2.335 0v-3.646-.161h.446c.557 0 1.01.452 1.01 1.01v3.822a1.17 1.17 0 1 0 2.335 0v-3.399h.44a1.01 1.01 0 0 1 1.004 1.01l.032 2.024z"/>
        <g fill="#F5AA11">
            <path d="M30.223 20.59a1.17 1.17 0 0 1-1.17-1.164v-5.842a1.17 1.17 0 0 1 2.335 0v5.842c0 .643-.522 1.165-1.165 1.165zM35.055 23.205c-.267 0-.527-.09-.736-.257a1.17 1.17 0 0 1-.171-1.643l3.194-3.93a1.17 1.17 0 0 1 1.815 1.47l-3.221 3.93a1.165 1.165 0 0 1-.881.43zM24.532 23.205a1.165 1.165 0 0 1-.908-.43l-3.221-3.93a1.166 1.166 0 1 1 1.81-1.47l3.194 3.93a1.165 1.165 0 0 1-.167 1.643c-.201.16-.45.251-.708.257z"/>
        </g>
        <g fill="#F5AA11">
            <path d="M5.863 46.282c-.193-.397-.376-.8-.537-1.208a1.17 1.17 0 0 0-2.147.923c.193.44.386.875.595 1.3.198.411.618.67 1.074.66.175 0 .347-.039.505-.113a1.17 1.17 0 0 0 .51-1.562zM3.85 40.805c-.108-.43-.215-.859-.306-1.294A1.167 1.167 0 0 0 1.262 40c.102.472.21.94.333 1.396a1.165 1.165 0 1 0 2.255-.59zM11.812 54.642a1.165 1.165 0 1 0-1.61 1.659c.338.338.687.665 1.041.988.213.197.493.306.784.306a1.17 1.17 0 0 0 .784-2.035c-.337-.294-.67-.6-.999-.918zM1.836 36.322a1.165 1.165 0 0 0 1.074-1.24c0-.44-.043-.886-.054-1.332a1.17 1.17 0 0 0-1.165-1.143h-.01a1.17 1.17 0 0 0-1.144 1.219c0 .477.032.955.059 1.433a1.17 1.17 0 0 0 1.165 1.074l.075-.01zM10.98 12.494a1.176 1.176 0 0 0-1.713-1.61c-.327.354-.644.708-.956 1.073a1.167 1.167 0 1 0 1.778 1.514c.29-.317.585-.65.89-.977zM8.107 50.174a1.168 1.168 0 0 0-1.933 1.31c.274.398.537.784.838 1.171a1.16 1.16 0 0 0 1.632.23 1.165 1.165 0 0 0 .237-1.61 158.68 158.68 0 0 1-.774-1.1zM15.57 6.98a1.165 1.165 0 0 0-1.61-.252c-.387.279-.768.569-1.139.87a1.167 1.167 0 0 0 1.456 1.825c.349-.28.697-.537 1.073-.81a1.176 1.176 0 0 0 .22-1.633zM57.074 14.497a1.17 1.17 0 1 0 1.841-1.44 30.099 30.099 0 0 0-.907-1.105 1.167 1.167 0 1 0-1.777 1.514c.29.354.569.698.843 1.03zM60.199 19.42c.2.392.602.639 1.041.64a1.17 1.17 0 0 0 1.042-1.698 25.75 25.75 0 0 0-.677-1.261 1.165 1.165 0 1 0-2.008 1.154c.188.376.398.768.602 1.165zM61.928 23.565c.14.419.268.843.391 1.273.144.5.601.847 1.123.848.109 0 .217-.017.322-.048.618-.177.976-.821.8-1.44a31.132 31.132 0 0 0-.419-1.374 1.17 1.17 0 0 0-2.217.741zM52.048 9.434c.35.273.693.536 1.026.853.488.42 1.222.37 1.648-.113a1.17 1.17 0 0 0-.113-1.648c-.36-.317-.73-.623-1.073-.918a1.17 1.17 0 0 0-1.46 1.826h-.028zM2.92 24.333a1.165 1.165 0 0 0 1.477-.74c.14-.427.29-.846.451-1.257a1.17 1.17 0 0 0-2.163-.86c-.167.452-.328.903-.484 1.359a1.17 1.17 0 0 0 .72 1.498zM1.804 30.277h.15c.587-.001 1.082-.438 1.155-1.02.059-.44.123-.876.198-1.316a1.166 1.166 0 1 0-2.298-.397c-.086.472-.155.95-.214 1.45-.067.63.38 1.199 1.009 1.283zM5.165 18.711a1.154 1.154 0 0 0 1.59-.456c.22-.387.45-.768.681-1.149a1.167 1.167 0 0 0-1.981-1.235c-.252.408-.5.822-.73 1.235a1.176 1.176 0 0 0 .44 1.605zM44.532 3.758a1.176 1.176 0 0 0-.725-1.487 25.298 25.298 0 0 0-1.39-.44 1.167 1.167 0 1 0-.661 2.239c.424.123.848.263 1.267.402a1.176 1.176 0 0 0 1.509-.714zM45.434 60.848c-.403.178-.811.35-1.225.537a1.17 1.17 0 0 0 .425 2.255c.146 0 .292-.027.43-.08.445-.177.885-.36 1.32-.537a1.174 1.174 0 1 0-.95-2.148v-.027zM38.706 2.148A1.16 1.16 0 0 0 37.713.81a25.26 25.26 0 0 0-1.428-.167 1.168 1.168 0 1 0-.22 2.325c.445.038.885.091 1.32.15a.87.87 0 0 0 .167 0c.57.003 1.06-.408 1.154-.971zM39.92 62.68c-.435.096-.87.187-1.31.268a1.165 1.165 0 0 0 .209 2.314c.07.008.14.008.21 0 .472-.086.939-.177 1.406-.285a1.17 1.17 0 0 0-.537-2.276l.021-.022zM49.933 6.47a1.17 1.17 0 0 0-.424-1.61 32.258 32.258 0 0 0-1.262-.694 1.17 1.17 0 0 0-1.074 2.073c.392.204.784.419 1.165.639a1.165 1.165 0 0 0 1.611-.424l-.016.016zM50.502 57.987c-.358.257-.728.504-1.111.74a1.17 1.17 0 0 0 1.256 1.971c.403-.258.8-.537 1.192-.795a1.17 1.17 0 0 0-1.337-1.916zM32.677 1.643A1.17 1.17 0 0 0 31.452.537c-.483.027-.955.064-1.433.107a1.166 1.166 0 0 0 .113 2.33h.112c.44-.042.88-.075 1.326-.096a1.17 1.17 0 0 0 1.107-1.235zM34.148 63.415H32.816a1.17 1.17 0 1 0-.032 2.335h1.455a1.17 1.17 0 0 0-.07-2.335h-.021zM26.668 2.314a1.17 1.17 0 0 0-1.433-.854c-.467.119-.929.242-1.385.382a1.17 1.17 0 0 0 .333 2.287c.112 0 .224-.017.332-.048.425-.13.854-.247 1.284-.355a1.165 1.165 0 0 0 .87-1.412zM20.897 4.118a1.17 1.17 0 0 0-1.552-.537c-.435.204-.864.414-1.283.634a1.165 1.165 0 0 0 .537 2.201c.186 0 .37-.045.537-.129.392-.204.789-.402 1.192-.59a1.17 1.17 0 0 0 .569-1.579zM22.706 61.579a35.2 35.2 0 0 1-1.246-.49 1.165 1.165 0 0 0-.902 2.149c.44.182.886.36 1.337.536.131.049.269.074.408.076a1.17 1.17 0 0 0 .403-2.266v-.005zM17.46 59.06c-.38-.23-.757-.472-1.127-.72a1.165 1.165 0 1 0-1.3 1.934c.398.263.8.537 1.209.768.182.113.392.173.606.171a1.165 1.165 0 0 0 .607-2.147l.005-.006zM28.338 63.05c-.44-.07-.875-.15-1.31-.242a1.168 1.168 0 0 0-.472 2.287c.467.097.934.183 1.412.258.062.006.125.006.188 0a1.165 1.165 0 0 0 .182-2.32v.017z"/>
        </g>
    </g>
</svg>
