<svg xmlns="http://www.w3.org/2000/svg" width="85" height="72" viewBox="0 0 85 72">
    <g fill="none" fill-rule="nonzero">
        <path fill="#A0B0D1" d="M18.258 20.379v31.047H59.11V20.379h-40.85zm23.88 26.626a11.746 11.746 0 1 1 0-23.491 11.746 11.746 0 0 1 0 23.491z"/>
        <path fill="#566D9B" d="M38.495 71.12H1.665a1.27 1.27 0 0 1-1.269-1.268V1.269C.396.57.964 0 1.666 0H83.11c.7 0 1.269.568 1.269 1.27v12.703a1.275 1.275 0 0 1-2.544 0V2.538h-78.9v66.044h35.56a1.27 1.27 0 1 1 0 2.539z"/>
        <path fill="#566D9B" d="M66.434 57.444H18.4a1.27 1.27 0 0 1-1.269-1.286c0-.4.547-39.795.547-41.173a1.275 1.275 0 0 1 1.253-1.308h47.503a1.27 1.27 0 0 1 1.253 1.291v41.19a1.27 1.27 0 0 1-1.253 1.286zM19.686 54.9h45.48V16.237H20.188c-.07 6.193-.42 32.399-.503 38.646v.017z"/>
        <path fill="#566D9B" d="M42.417 49.15a13.59 13.59 0 1 1 13.585-13.59c-.012 7.499-6.086 13.575-13.585 13.59zm0-24.619a11.046 11.046 0 1 0 11.046 11.03c-.009-6.097-4.949-11.037-11.046-11.046v.016z"/>
        <path fill="#566D9B" d="M42.417 41.349a5.788 5.788 0 1 1-.01-11.577 5.788 5.788 0 0 1 .01 11.577zm0-9.033a3.244 3.244 0 1 0 0 6.489 3.244 3.244 0 0 0 0-6.489zM70.652 52.608H66.72a1.27 1.27 0 0 1-1.27-1.275V42.3c0-.701.569-1.27 1.27-1.27h3.933c.701 0 1.27.569 1.27 1.27v9.032a1.27 1.27 0 0 1-1.27 1.275zm-2.658-2.544h1.39V43.57h-1.39v6.494zM70.652 30.09H66.72a1.27 1.27 0 0 1-1.27-1.27v-9.032c0-.701.569-1.27 1.27-1.27h3.933c.701 0 1.27.569 1.27 1.27v9.032a1.27 1.27 0 0 1-1.27 1.27zm-2.658-2.539h1.39v-6.494h-1.39v6.494zM83.11 21.922a1.27 1.27 0 0 1-1.275-1.27v-.755a1.275 1.275 0 0 1 2.544 0v.755a1.27 1.27 0 0 1-1.27 1.27zM83.11 65.94a1.27 1.27 0 0 1-1.275-1.27v-1.433a1.275 1.275 0 1 1 2.544 0v1.434a1.27 1.27 0 0 1-1.27 1.269zm0-6.286a1.27 1.27 0 0 1-1.275-1.27v-1.438a1.275 1.275 0 0 1 2.544 0v1.439a1.27 1.27 0 0 1-1.27 1.247v.022zm0-6.291a1.27 1.27 0 0 1-1.275-1.27V50.66a1.275 1.275 0 1 1 2.544 0v1.433a1.27 1.27 0 0 1-1.27 1.27zm0-6.286a1.27 1.27 0 0 1-1.275-1.27v-1.439a1.275 1.275 0 0 1 2.544 0v1.44a1.27 1.27 0 0 1-1.27 1.269zm0-6.292a1.27 1.27 0 0 1-1.275-1.27v-1.438a1.275 1.275 0 0 1 2.544 0v1.439a1.27 1.27 0 0 1-1.27 1.27zm0-6.286a1.27 1.27 0 0 1-1.275-1.27v-1.438a1.275 1.275 0 0 1 2.544 0v1.439a1.27 1.27 0 0 1-1.27 1.27zm0-6.291a1.27 1.27 0 0 1-1.275-1.27V25.5a1.275 1.275 0 0 1 2.544 0v1.438a1.27 1.27 0 0 1-1.27 1.27zM83.11 71.548h-.755a1.27 1.27 0 0 1-.438-2.462 1.27 1.27 0 0 1 2.462.437v.755a1.27 1.27 0 0 1-1.27 1.27zM77.442 71.548h-1.455a1.275 1.275 0 0 1 0-2.544h1.455a1.275 1.275 0 0 1 0 2.544zm-6.368 0h-1.456a1.275 1.275 0 0 1 0-2.544h1.456a1.275 1.275 0 0 1 0 2.544zm-6.368 0H63.25a1.275 1.275 0 0 1 0-2.544h1.456a1.275 1.275 0 0 1 0 2.544zm-6.368 0h-1.456a1.275 1.275 0 0 1 0-2.544h1.456a1.275 1.275 0 0 1 0 2.544zm-6.368 0h-1.456a1.275 1.275 0 0 1 0-2.544h1.456a1.275 1.275 0 0 1 0 2.544zM45.602 71.548h-.755a1.275 1.275 0 0 1 0-2.544h.755a1.275 1.275 0 0 1 0 2.544z"/>
        <path fill="#566D9B" d="M38.692 36.923l-7.227 4.108a1.27 1.27 0 0 0 .629 2.375c.22-.001.437-.057.63-.165l7.658-4.376a4.136 4.136 0 0 1-1.69-1.942zM42.483 31.37c.462.002.921.081 1.357.235v-7.533a1.275 1.275 0 0 0-2.544 0v7.473a4.076 4.076 0 0 1 1.187-.175zM53.463 40.676l-7.156-3.896a4.06 4.06 0 0 1-1.597 2.03l7.533 4.098a1.272 1.272 0 1 0 1.22-2.232z"/>
    </g>
</svg>
