<?xml version="1.0" encoding="UTF-8" standalone="no"?>
<svg width="22px" height="22px" viewBox="0 0 22 22" version="1.1" xmlns="http://www.w3.org/2000/svg" xmlns:xlink="http://www.w3.org/1999/xlink">
    <!-- Generator: Sketch 50.2 (55047) - http://www.bohemiancoding.com/sketch -->
    <title>admin-active-magenta</title>
    <desc>Created with Sketch.</desc>
    <defs></defs>
    <g id="Page-1" stroke="none" stroke-width="1" fill="none" fill-rule="evenodd">
        <g id="admin-active-magenta" fill="#E20074" fill-rule="nonzero">
            <path d="M9.3,0.1 C10.4,0.1 11.6,0.1 12.7,0.1 C12.9,0.2 13.1,0.4 13.1,0.6 C13.2,1.4 13.3,2.2 13.5,3 C13.5,3.1 13.5,3.1 13.6,3.2 C14,3.3 14.3,3.5 14.7,3.6 C14.8,3.6 14.8,3.6 14.9,3.6 C15.5,3.1 16.2,2.7 16.8,2.2 C17,2 17.3,2 17.5,2.2 C18.3,2.9 19,3.6 19.7,4.4 C19.9,4.7 19.9,4.9 19.7,5.2 C19.3,5.8 18.8,6.4 18.3,7 C18.2,7.1 18.2,7.2 18.3,7.3 C18.5,7.7 18.6,8 18.8,8.4 C18.8,8.5 18.9,8.5 19,8.6 C19.7,8.7 20.5,8.8 21.2,8.9 C21.5,8.9 21.7,9 21.8,9.3 C21.8,10.4 21.8,11.6 21.8,12.7 C21.7,13 21.4,13.1 21.1,13.1 C20.4,13.2 19.6,13.3 18.9,13.4 C18.8,13.4 18.7,13.4 18.7,13.6 C18.6,13.9 18.4,14.3 18.3,14.6 C18.2,14.7 18.2,14.8 18.3,14.9 C18.8,15.5 19.2,16.1 19.7,16.6 C20,16.9 20,17.1 19.7,17.4 C19.1,18.2 18.3,18.9 17.5,19.6 C17.1,20 16.9,19.9 16.4,19.6 C15.8,19.2 15.3,18.7 14.7,18.3 C14.7,18.3 14.6,18.3 14.5,18.3 C14.2,18.4 13.8,18.6 13.5,18.7 C13.4,18.7 13.3,18.8 13.3,18.9 C13.2,19.7 13.1,20.4 13,21.2 C13,21.5 12.9,21.7 12.6,21.8 C11.5,21.8 10.3,21.8 9.2,21.8 C8.9,21.7 8.8,21.5 8.8,21.2 C8.7,20.4 8.6,19.7 8.5,18.9 C8.5,18.8 8.4,18.7 8.3,18.7 C7.9,18.6 7.6,18.4 7.3,18.3 C7.3,18.3 7.2,18.3 7.1,18.3 C6.5,18.8 5.8,19.2 5.2,19.7 C4.9,19.9 4.7,19.9 4.4,19.7 C3.6,19 2.9,18.3 2.2,17.5 C2,17.2 2,17 2.2,16.7 C2.6,16.1 3.1,15.5 3.5,15 C3.6,14.9 3.6,14.8 3.5,14.7 C3.3,14.3 3.2,14 3.1,13.6 C3.1,13.5 3,13.4 2.9,13.4 C2.2,13.3 1.4,13.2 0.7,13.1 C0.4,13.1 0.2,13 0.1,12.7 C0.1,11.6 0.1,10.4 0.1,9.3 C0.2,9 0.4,8.9 0.7,8.8 C1.4,8.7 2.2,8.6 2.9,8.5 C3,8.5 3.1,8.4 3.2,8.3 C3.3,8 3.5,7.6 3.6,7.3 C3.6,7.2 3.6,7.1 3.6,7.1 C3.1,6.5 2.7,5.9 2.2,5.3 C2,5 1.9,4.8 2.2,4.5 C2.5,4.1 2.8,3.8 3.2,3.4 C3.6,2.9 4.1,2.5 4.6,2.1 C4.8,2 5,2 5.2,2.1 C5.3,2.2 5.4,2.2 5.4,2.3 C6,2.7 6.5,3.2 7.1,3.6 C7.1,3.6 7.2,3.6 7.3,3.6 C7.6,3.5 8,3.3 8.3,3.2 C8.4,3.2 8.4,3.1 8.5,3 C8.6,2.2 8.7,1.5 8.8,0.7 C8.9,0.4 9,0.2 9.3,0.1 Z M14.6,11 C14.7,9 12.9,7.4 11,7.3 C9,7.3 7.4,9 7.4,10.9 C7.4,12.8 9.1,14.6 11,14.5 C13,14.6 14.6,13 14.6,11 Z" id="Shape"></path>
        </g>
    </g>
</svg>