<?xml version="1.0" encoding="utf-8"?>
<!-- Generator: Adobe Illustrator 22.0.1, SVG Export Plug-In . SVG Version: 6.00 Build 0)  -->
<svg version="1.1" id="Layer_1" xmlns="http://www.w3.org/2000/svg" xmlns:xlink="http://www.w3.org/1999/xlink" x="0px" y="0px"
	 viewBox="0 0 24 24" style="enable-background:new 0 0 24 24;" xml:space="preserve">
<style type="text/css">
	.st0{fill:#FFFFFF;}
</style>
<title>ic/build/grey600</title>
<desc>Created with Sketch.</desc>
<g>
	<path class="st0" d="M10.3,1.1c1.1,0,2.3,0,3.4,0c0.2,0.1,0.4,0.3,0.4,0.5c0.1,0.8,0.2,1.6,0.4,2.4c0,0.1,0,0.1,0.1,0.2
		c0.4,0.1,0.7,0.3,1.1,0.4c0.1,0,0.1,0,0.2,0c0.6-0.5,1.3-0.9,1.9-1.4C18,3,18.3,3,18.5,3.2c0.8,0.7,1.5,1.4,2.2,2.2
		c0.2,0.3,0.2,0.5,0,0.8c-0.4,0.6-0.9,1.2-1.4,1.8c-0.1,0.1-0.1,0.2,0,0.3c0.2,0.4,0.3,0.7,0.5,1.1c0,0.1,0.1,0.1,0.2,0.2
		c0.7,0.1,1.5,0.2,2.2,0.3c0.3,0,0.5,0.1,0.6,0.4c0,1.1,0,2.3,0,3.4c-0.1,0.3-0.4,0.4-0.7,0.4c-0.7,0.1-1.5,0.2-2.2,0.3
		c-0.1,0-0.2,0-0.2,0.2c-0.1,0.3-0.3,0.7-0.4,1c-0.1,0.1-0.1,0.2,0,0.3c0.5,0.6,0.9,1.2,1.4,1.7c0.3,0.3,0.3,0.5,0,0.8
		c-0.6,0.8-1.4,1.5-2.2,2.2c-0.4,0.4-0.6,0.3-1.1,0c-0.6-0.4-1.1-0.9-1.7-1.3c0,0-0.1,0-0.2,0c-0.3,0.1-0.7,0.3-1,0.4
		c-0.1,0-0.2,0.1-0.2,0.2c-0.1,0.8-0.2,1.5-0.3,2.3c0,0.3-0.1,0.5-0.4,0.6c-1.1,0-2.3,0-3.4,0c-0.3-0.1-0.4-0.3-0.4-0.6
		c-0.1-0.8-0.2-1.5-0.3-2.3c0-0.1-0.1-0.2-0.2-0.2c-0.4-0.1-0.7-0.3-1-0.4c0,0-0.1,0-0.2,0c-0.6,0.5-1.3,0.9-1.9,1.4
		c-0.3,0.2-0.5,0.2-0.8,0c-0.8-0.7-1.5-1.4-2.2-2.2c-0.2-0.3-0.2-0.5,0-0.8c0.4-0.6,0.9-1.2,1.3-1.7c0.1-0.1,0.1-0.2,0-0.3
		c-0.2-0.4-0.3-0.7-0.4-1.1c0-0.1-0.1-0.2-0.2-0.2c-0.7-0.1-1.5-0.2-2.2-0.3c-0.3,0-0.5-0.1-0.6-0.4c0-1.1,0-2.3,0-3.4
		C1.2,10,1.4,9.9,1.7,9.8c0.7-0.1,1.5-0.2,2.2-0.3c0.1,0,0.2-0.1,0.3-0.2c0.1-0.3,0.3-0.7,0.4-1c0-0.1,0-0.2,0-0.2
		C4.1,7.5,3.7,6.9,3.2,6.3C3,6,2.9,5.8,3.2,5.5c0.3-0.4,0.6-0.7,1-1.1c0.4-0.5,0.9-0.9,1.4-1.3C5.8,3,6,3,6.2,3.1
		c0.1,0.1,0.2,0.1,0.2,0.2C7,3.7,7.5,4.2,8.1,4.6c0,0,0.1,0,0.2,0c0.3-0.1,0.7-0.3,1-0.4c0.1,0,0.1-0.1,0.2-0.2
		c0.1-0.8,0.2-1.5,0.3-2.3C9.9,1.4,10,1.2,10.3,1.1z M15.6,12c0.1-2-1.7-3.6-3.6-3.7c-2,0-3.6,1.7-3.6,3.6c0,1.9,1.7,3.7,3.6,3.6
		C14,15.6,15.6,14,15.6,12z"/>
</g>
</svg>
