<svg id="Layer_1" data-name="Layer 1" xmlns="http://www.w3.org/2000/svg" viewBox="0 0 329 455"><defs><style>.cls-1{fill:#fff;}</style></defs><title>Artboard 1 copy 5</title><rect class="cls-1" x="59.2" y="264.02" width="11.9" height="113.09"/><circle class="cls-1" cx="65.15" cy="398.57" r="23.8"/><rect class="cls-1" x="75.75" y="196.83" width="91.25" height="11.9" transform="translate(-92.64 102.54) rotate(-34)"/><circle class="cls-1" cx="65.31" cy="240.6" r="23.8"/><circle class="cls-1" cx="177.84" cy="164.7" r="23.8"/><path class="cls-1" d="M187.14,38.09a131,131,0,0,0-132,86.49,4.79,4.79,0,0,0,2.91,6.09l37.82,13.8c5.39,2,8.18.75,9-1.72,14.28-40.23,60.58-65.29,108.28-44.42,25.93,11.35,43.19,37.21,43.13,65.51-.12,56.6-51.86,76.1-71,81.38a9.57,9.57,0,0,0-7,9.25s0,28.54.52,45a4.79,4.79,0,0,0,4.92,4.66C267,301.43,321.07,222,307.38,145,297.7,90.51,242.35,41.64,187.14,38.09Z"/></svg>