<?xml version="1.0" encoding="UTF-8"?>
<svg width="16px" height="13px" viewBox="0 0 16 13" version="1.1" xmlns="http://www.w3.org/2000/svg" xmlns:xlink="http://www.w3.org/1999/xlink">
    <!-- Generator: Sketch 50.2 (55047) - http://www.bohemiancoding.com/sketch -->
    <title>Assets-magenta</title>
    <desc>Created with Sketch.</desc>
    <defs></defs>
    <g id="Main-Navigation" stroke="none" stroke-width="1" fill="none" fill-rule="evenodd">
        <g id="OmniSearch-1" transform="translate(-603.000000, -26.000000)" fill="#E20074" fill-rule="nonzero">
            <g id="Group-55" transform="translate(514.000000, 24.000000)">
                <g id="Group-54">
                    <g id="Group-45" transform="translate(81.000000, 2.000000)">
                        <g id="Group-50">
                            <path d="M8,12.8 L24,12.8 L24,9.6 L8,9.6 L8,12.8 Z M9.6,10.4 L11.2,10.4 L11.2,12 L9.6,12 L9.6,10.4 Z M8,0 L8,3.2 L24,3.2 L24,0 L8,0 Z M11.2,2.4 L9.6,2.4 L9.6,0.8 L11.2,0.8 L11.2,2.4 Z M8,8 L24,8 L24,4.8 L8,4.8 L8,8 Z M9.6,5.6 L11.2,5.6 L11.2,7.2 L9.6,7.2 L9.6,5.6 Z" id="Assets-magenta"></path>
                        </g>
                    </g>
                </g>
            </g>
        </g>
    </g>
</svg>