<?xml version="1.0" encoding="UTF-8"?>
<svg width="18px" height="18px" viewBox="0 0 18 18" version="1.1" xmlns="http://www.w3.org/2000/svg" xmlns:xlink="http://www.w3.org/1999/xlink">
    <!-- Generator: Sketch 50.2 (55047) - http://www.bohemiancoding.com/sketch -->
    <title>Assets</title>
    <desc>Created with Sketch.</desc>
    <defs></defs>
    <g id="V2---Infographic" stroke="none" stroke-width="1" fill="none" fill-rule="evenodd">
        <g id="Vuln_1.2" transform="translate(-458.000000, -342.000000)" fill="#45BECE" fill-rule="nonzero">
            <g id="Group-80" transform="translate(104.000000, 317.000000)">
                <g id="Group-55" transform="translate(354.000000, 13.000000)">
                    <g id="Assets" transform="translate(0.000000, 12.000000)">
                        <path d="M16.9411765,13.8696279 C16.9927328,13.8696279 17.0473661,13.881074 17.0950752,13.9023314 C17.1427844,13.9235888 17.1881847,13.9554753 17.2243502,13.9939012 C17.2605157,14.032327 17.2843712,14.0805649 17.3043776,14.1312558 C17.3243839,14.1819467 17.3351573,14.233454 17.3351573,14.2882326 L17.3351573,17.3754419 C17.3351573,17.4302205 17.3243843,17.4882684 17.3043776,17.5389593 C17.2843708,17.5896502 17.2605157,17.6313474 17.2243502,17.6697733 C17.1881847,17.7081991 17.1427844,17.7400863 17.0950752,17.761343 C17.0473661,17.7825998 16.9927328,17.7940465 16.9411765,17.7940465 L0.393980848,17.7940465 C0.342424514,17.7940465 0.293947141,17.7826004 0.24623803,17.761343 C0.198528919,17.7400857 0.153128536,17.7081991 0.116963064,17.6697733 C0.0807975923,17.6313474 0.0507861012,17.5896502 0.0307797538,17.5389593 C0.0107734063,17.4882684 0,17.4302205 0,17.3754419 L0,14.2882326 C0,14.233454 0.0107730123,14.1819467 0.0307797538,14.1312558 C0.0507864952,14.0805649 0.0807975923,14.032327 0.116963064,13.9939012 C0.153128536,13.9554753 0.198528919,13.9235881 0.24623803,13.9023314 C0.293947141,13.8810747 0.342424514,13.8696279 0.393980848,13.8696279 L16.9411765,13.8696279 Z M14.4049248,15.0142605 C13.9978637,15.0142605 13.6600646,15.3731721 13.6600646,15.8056744 C13.6600646,16.2381767 13.9947907,16.5970884 14.4049248,16.5970884 C14.8150588,16.5970884 15.149785,16.2414419 15.149785,15.8056744 C15.149785,15.369907 14.8119858,15.0142605 14.4049248,15.0142605 Z" id="Shape"></path>
                        <path d="M16.9411765,7.04113953 C16.9927328,7.04113953 17.0473661,7.05258565 17.0950752,7.07384302 C17.1427844,7.0951004 17.1881847,7.12044628 17.2243502,7.15887209 C17.2605157,7.19729791 17.2843712,7.24553581 17.3043776,7.29622674 C17.3243839,7.34691767 17.3351573,7.40496558 17.3351573,7.45974419 L17.3351573,10.5404651 C17.3351573,10.5952437 17.3243843,10.6532916 17.3043776,10.7039826 C17.2843708,10.7546735 17.2605157,10.8029114 17.2243502,10.8413372 C17.1881847,10.879763 17.1427844,10.9051095 17.0950752,10.9263663 C17.0473661,10.947623 16.9927328,10.9590698 16.9411765,10.9590698 L0.393980848,10.9590698 C0.342424514,10.9590698 0.293947141,10.9476237 0.24623803,10.9263663 C0.198528919,10.9051089 0.153128536,10.879763 0.116963064,10.8413372 C0.0807975923,10.8029114 0.0507861012,10.7546735 0.0307797538,10.7039826 C0.0107734063,10.6532916 0,10.5952437 0,10.5404651 L0,7.45974419 C0,7.40496558 0.0107730123,7.34691767 0.0307797538,7.29622674 C0.0507864952,7.24553581 0.0807975923,7.19729791 0.116963064,7.15887209 C0.153128536,7.12044628 0.198528919,7.09509977 0.24623803,7.07384302 C0.293947141,7.05258628 0.342424514,7.04113953 0.393980848,7.04113953 L16.9411765,7.04113953 Z M14.4049248,8.17266977 C13.9947907,8.17266977 13.6600646,8.53813256 13.6600646,8.97063488 C13.6600646,9.40313721 13.9947907,9.7686 14.4049248,9.7686 C14.8150588,9.7686 15.149785,9.40640233 15.149785,8.97063488 C15.149785,8.53486744 14.8150588,8.17266977 14.4049248,8.17266977 Z" id="Shape"></path>
                        <path d="M16.9411765,0.206037209 C16.9927328,0.206037209 17.0473661,0.217483326 17.0950752,0.238740698 C17.1427844,0.25999807 17.1881847,0.291884651 17.2243502,0.330310465 C17.2605157,0.368736279 17.2843712,0.410433488 17.3043776,0.461124419 C17.3243839,0.511815349 17.3351573,0.569863256 17.3351573,0.62464186 L17.3351573,3.70536279 C17.3351573,3.7601414 17.3243843,3.8181893 17.3043776,3.86888023 C17.2843708,3.91957116 17.2605157,3.96126837 17.2243502,3.99969419 C17.1881847,4.03812 17.1427844,4.07000721 17.0950752,4.09126395 C17.0473661,4.1125207 16.9927328,4.12396744 16.9411765,4.12396744 L0.393980848,4.12396744 C0.342424514,4.12396744 0.293947141,4.11252133 0.24623803,4.09126395 C0.198528919,4.07000658 0.153128536,4.03812 0.116963064,3.99969419 C0.0807975923,3.96126837 0.0507861012,3.91957116 0.0307797538,3.86888023 C0.0107734063,3.8181893 0,3.7601414 0,3.70536279 L0,0.62464186 C0,0.569863256 0.0107730123,0.511815349 0.0307797538,0.461124419 C0.0507864952,0.410433488 0.0807975923,0.368736279 0.116963064,0.330310465 C0.153128536,0.291884651 0.198528919,0.259997442 0.24623803,0.238740698 C0.293947141,0.217483953 0.342424514,0.206037209 0.393980848,0.206037209 L16.9411765,0.206037209 Z M14.4049248,1.3441186 C13.9947907,1.3441186 13.6600646,1.70303023 13.6600646,2.13553256 C13.6600646,2.56803488 13.9978637,2.92694651 14.4049248,2.92694651 C14.8119858,2.92694651 15.149785,2.5713 15.149785,2.13553256 C15.149785,1.69976512 14.8150588,1.3441186 14.4049248,1.3441186 Z" id="Shape"></path>
                    </g>
                </g>
            </g>
        </g>
    </g>
</svg>