<?xml version="1.0" encoding="UTF-8"?>
<svg width="67px" height="60px" viewBox="0 0 67 60" version="1.1" xmlns="http://www.w3.org/2000/svg" xmlns:xlink="http://www.w3.org/1999/xlink">
    <!-- Generator: Sketch 51 (57462) - http://www.bohemiancoding.com/sketch -->
    <title>Assess</title>
    <desc>Created with Sketch.</desc>
    <defs></defs>
    <g id="Landing" stroke="none" stroke-width="1" fill="none" fill-rule="evenodd">
        <g id="Landing_Rev_v1" transform="translate(-265.000000, -521.000000)" fill="#566D9B" fill-rule="nonzero">
            <g id="Group-3" transform="translate(97.000000, 447.000000)">
                <g id="Group-2">
                    <g id="Group-4">
                        <g id="Group-10" transform="translate(0.500000, 0.000000)">
                            <g id="Group-9">
                                <g id="Group-42" transform="translate(66.000000, 74.000000)">
                                    <g id="np_chart_1740190_000000" transform="translate(102.000000, 0.000000)">
                                        <path d="M1.46341463,0 C0.654512195,0 0,0.654534146 0,1.46341463 L0,58.5365854 C0,59.3454878 0.654534146,60 1.46341463,60 L64.3902439,60 C65.1991463,60 65.8536585,59.3454659 65.8536585,58.5365854 C65.8536585,57.7277049 65.1991244,57.0731707 64.3902439,57.0731707 L2.92682927,57.0731707 L2.92682927,1.46341463 C2.92682927,0.654512195 2.27229512,0 1.46341463,0 Z M54.8780488,8.04878049 C52.0655122,8.04878049 49.7560976,10.3581951 49.7560976,13.1707317 C49.7560976,14.325439 50.1533927,15.3744146 50.8079268,16.2347561 L42.1189024,28.6510976 C41.7501878,28.5653488 41.3672195,28.5367683 40.9756098,28.5367683 C39.5465122,28.5367683 38.2488293,29.1141293 37.3170732,30.0688171 L31.1890244,26.5017439 C31.3633756,25.9872659 31.4634146,25.4499146 31.4634146,24.8782317 C31.4634146,22.0656951 29.154,19.7562805 26.3414634,19.7562805 C23.5289268,19.7562805 21.2195122,22.0656951 21.2195122,24.8782317 C21.2195122,26.032939 21.6168073,27.0819146 22.2713415,27.9422561 L13.5823171,40.3585976 C13.2136024,40.2728488 12.8306341,40.2442683 12.4390244,40.2442683 C9.6264878,40.2442683 7.31707317,42.5536829 7.31707317,45.3662195 C7.31707317,48.1787561 9.6264878,50.4881707 12.4390244,50.4881707 C15.251561,50.4881707 17.5609756,48.1787561 17.5609756,45.3662195 C17.5609756,43.9942683 17.0093341,42.7223415 16.1203902,41.7991463 L24.6038049,29.6806098 C25.1468707,29.8806878 25.7328293,30.0007317 26.3416098,30.0007317 C27.5306341,30.0007317 28.6253415,29.5691415 29.4970976,28.8803415 L35.9681707,32.6531707 C35.9024312,32.9790073 35.8538415,33.3162805 35.8538415,33.6592683 C35.8538415,36.4718049 38.1632561,38.7812195 40.9757927,38.7812195 C43.7883293,38.7812195 46.0977439,36.4718049 46.0977439,33.6592683 C46.0977439,32.2873171 45.5461024,31.0153902 44.6571585,30.0921951 L53.1405732,17.9736585 C53.683639,18.1737366 54.2695976,18.2937805 54.878378,18.2937805 C57.6909146,18.2937805 60.0003293,15.9843659 60.0003293,13.1718293 C60.0003293,10.3592927 57.6909146,8.04987805 54.878378,8.04987805 L54.8780488,8.04878049 Z M54.8780488,10.9756098 C56.1070976,10.9756098 57.0731707,11.9416829 57.0731707,13.1707317 C57.0731707,14.3997805 56.1070976,15.3658537 54.8780488,15.3658537 C53.649,15.3658537 52.6829268,14.3997805 52.6829268,13.1707317 C52.6829268,11.9416829 53.649,10.9756098 54.8780488,10.9756098 Z M26.3414634,22.6829268 C27.5705122,22.6829268 28.5365854,23.649 28.5365854,24.8780488 C28.5365854,26.1070976 27.5705122,27.0731707 26.3414634,27.0731707 C25.1124146,27.0731707 24.1463415,26.1070976 24.1463415,24.8780488 C24.1463415,23.649 25.1124146,22.6829268 26.3414634,22.6829268 Z M40.9756098,31.4634146 C42.2046585,31.4634146 43.1707317,32.4294878 43.1707317,33.6585366 C43.1707317,34.8875854 42.2046585,35.8536585 40.9756098,35.8536585 C39.746561,35.8536585 38.7804878,34.8875854 38.7804878,33.6585366 C38.7804878,32.4294878 39.746561,31.4634146 40.9756098,31.4634146 Z M12.4390244,43.1707317 C13.6680732,43.1707317 14.6341463,44.1368049 14.6341463,45.3658537 C14.6341463,46.5949024 13.6680732,47.5609756 12.4390244,47.5609756 C11.2099756,47.5609756 10.2439024,46.5949024 10.2439024,45.3658537 C10.2439024,44.1368049 11.2099756,43.1707317 12.4390244,43.1707317 Z" id="Assess"></path>
                                    </g>
                                </g>
                            </g>
                        </g>
                    </g>
                </g>
            </g>
        </g>
    </g>
</svg>