<?xml version="1.0" encoding="UTF-8"?>
<svg width="143px" height="85px" viewBox="0 0 143 85" version="1.1" xmlns="http://www.w3.org/2000/svg" xmlns:xlink="http://www.w3.org/1999/xlink">
    <!-- Generator: Sketch 55.1 (78136) - https://sketchapp.com -->
    <title>Amazon_Web_Services_Logo</title>
    <desc>Created with Sketch.</desc>
    <g id="Multi-Cloud" stroke="none" stroke-width="1" fill="none" fill-rule="evenodd">
        <g id="Amazon_Web_Services_Logo">
            <path d="M40.3411893,30.5659574 C40.3411893,32.2978723 40.531182,33.7021277 40.8636693,34.7319149 C41.2436548,35.7617021 41.7186367,36.8851064 42.3836113,38.1021277 C42.6211022,38.4765957 42.7160986,38.8510638 42.7160986,39.1787234 C42.7160986,39.6468085 42.4311095,40.1148936 41.8136331,40.5829787 L38.8212473,42.5489362 C38.3937636,42.8297872 37.9662799,42.9702128 37.5862944,42.9702128 C37.1113125,42.9702128 36.6363307,42.7361702 36.1613488,42.3148936 C35.4963742,41.612766 34.9263959,40.8638298 34.4514141,40.1148936 C33.9764322,39.3191489 33.5014503,38.4297872 32.9789703,37.3531915 C29.2741117,41.6595745 24.6192893,43.812766 19.0145033,43.812766 C15.0246555,43.812766 11.842277,42.6893617 9.51486584,40.4425532 C7.18745468,38.1957447 6,35.2 6,31.4553191 C6,27.4765957 7.42494561,24.2468085 10.322335,21.812766 C13.2197244,19.3787234 17.0670776,18.1617021 21.9593909,18.1617021 C23.5743292,18.1617021 25.2367658,18.3021277 26.9941987,18.5361702 C28.7516316,18.7702128 30.5565627,19.1446809 32.4564902,19.5659574 L32.4564902,16.1489362 C32.4564902,12.5914894 31.6965192,10.1106383 30.2240754,8.65957447 C28.7041334,7.20851064 26.1392313,6.50638298 22.4818709,6.50638298 C20.8194344,6.50638298 19.1094996,6.69361702 17.3520667,7.11489362 C15.5946338,7.53617021 13.8846991,8.05106383 12.2222625,8.70638298 C11.4622915,9.03404255 10.8923133,9.2212766 10.559826,9.31489362 C10.2273387,9.40851064 9.98984772,9.45531915 9.79985497,9.45531915 C9.13488035,9.45531915 8.80239304,8.98723404 8.80239304,8.00425532 L8.80239304,5.7106383 C8.80239304,4.96170213 8.89738941,4.4 9.13488035,4.07234043 C9.37237128,3.74468085 9.79985497,3.41702128 10.4648296,3.0893617 C12.1272661,2.24680851 14.12219,1.54468085 16.4496012,0.982978723 C18.7770123,0.374468085 21.2469181,0.0936170213 23.8593183,0.0936170213 C29.5116026,0.0936170213 33.6439449,1.35744681 36.3038434,3.88510638 C38.9162437,6.41276596 40.2461929,10.2510638 40.2461929,15.4 L40.2461929,30.5659574 L40.3411893,30.5659574 Z M21.0569253,37.6808511 C22.6243655,37.6808511 24.2393038,37.4 25.9492386,36.8382979 C27.6591733,36.2765957 29.1791153,35.2468085 30.4615664,33.8425532 C31.2215373,32.9531915 31.7915156,31.9702128 32.0765047,30.8468085 C32.3614938,29.7234043 32.5514866,28.3659574 32.5514866,26.7744681 L32.5514866,24.8085106 C31.1740392,24.4808511 29.7015954,24.2 28.1816534,24.012766 C26.6617114,23.8255319 25.1892676,23.7319149 23.7168238,23.7319149 C20.5344453,23.7319149 18.2070341,24.3404255 16.6395939,25.6042553 C15.0721537,26.8680851 14.3121827,28.6468085 14.3121827,30.987234 C14.3121827,33.187234 14.882161,34.8255319 16.0696157,35.9489362 C17.2095722,37.1191489 18.8720087,37.6808511 21.0569253,37.6808511 Z M59.1979695,42.7361702 C58.3430022,42.7361702 57.7730239,42.5957447 57.3930384,42.2680851 C57.0130529,41.987234 56.6805656,41.3319149 56.3955765,40.4425532 L45.2335025,4.25957447 C44.9485134,3.32340426 44.8060189,2.71489362 44.8060189,2.38723404 C44.8060189,1.63829787 45.1860044,1.21702128 45.9459753,1.21702128 L50.6007977,1.21702128 C51.5032632,1.21702128 52.1207397,1.35744681 52.453227,1.68510638 C52.8332125,1.96595745 53.1182016,2.6212766 53.4031907,3.5106383 L61.3828861,34.4978723 L68.7926033,3.5106383 C69.0300943,2.57446809 69.3150834,1.96595745 69.6950689,1.68510638 C70.0750544,1.40425532 70.740029,1.21702128 71.5949964,1.21702128 L75.3948513,1.21702128 C76.2973169,1.21702128 76.9147933,1.35744681 77.2947788,1.68510638 C77.6747643,1.96595745 78.0072516,2.6212766 78.1972444,3.5106383 L85.7019579,34.8723404 L93.9191443,3.5106383 C94.2041334,2.57446809 94.5366207,1.96595745 94.869108,1.68510638 C95.2490935,1.40425532 95.86657,1.21702128 96.7215373,1.21702128 L101.138869,1.21702128 C101.89884,1.21702128 102.326323,1.59148936 102.326323,2.38723404 C102.326323,2.6212766 102.278825,2.85531915 102.231327,3.13617021 C102.183829,3.41702128 102.088832,3.79148936 101.89884,4.30638298 L90.4517766,40.4893617 C90.1667875,41.4255319 89.8343002,42.0340426 89.4543147,42.3148936 C89.0743292,42.5957447 88.4568528,42.7829787 87.6493836,42.7829787 L83.5645395,42.7829787 C82.662074,42.7829787 82.0445975,42.6425532 81.664612,42.3148936 C81.2846265,41.987234 80.9521392,41.3787234 80.7621465,40.4425532 L73.3999275,10.2510638 L66.0852067,40.3957447 C65.8477157,41.3319149 65.5627266,41.9404255 65.1827411,42.2680851 C64.8027556,42.5957447 64.137781,42.7361702 63.2828136,42.7361702 L59.1979695,42.7361702 Z M120.23314,44 C117.763234,44 115.293328,43.7191489 112.918419,43.1574468 C110.54351,42.5957447 108.69108,41.987234 107.456128,41.2851064 C106.696157,40.8638298 106.173677,40.3957447 105.983684,39.9744681 C105.793691,39.5531915 105.698695,39.0851064 105.698695,38.6638298 L105.698695,36.2765957 C105.698695,35.293617 106.07868,34.8255319 106.791153,34.8255319 C107.076142,34.8255319 107.361131,34.8723404 107.64612,34.9659574 C107.931109,35.0595745 108.358593,35.2468085 108.833575,35.4340426 C110.448513,36.1361702 112.205946,36.6978723 114.058376,37.0723404 C115.958303,37.4468085 117.810732,37.6340426 119.71066,37.6340426 C122.703046,37.6340426 125.030457,37.1191489 126.645395,36.0893617 C128.260334,35.0595745 129.115301,33.5617021 129.115301,31.6425532 C129.115301,30.3319149 128.687817,29.2553191 127.83285,28.3659574 C126.977883,27.4765957 125.362944,26.6808511 123.035533,25.9319149 L116.148296,23.8255319 C112.680928,22.7489362 110.116026,21.1574468 108.548586,19.0510638 C106.981146,16.9914894 106.173677,14.6978723 106.173677,12.2638298 C106.173677,10.2978723 106.60116,8.56595745 107.456128,7.06808511 C108.311095,5.57021277 109.451051,4.25957447 110.875997,3.22978723 C112.300943,2.15319149 113.915881,1.35744681 115.815809,0.795744681 C117.715736,0.234042553 119.71066,0 121.80058,0 C122.84554,0 123.937999,0.0468085106 124.982959,0.187234043 C126.075417,0.327659574 127.072879,0.514893617 128.070341,0.70212766 C129.020305,0.936170213 129.92277,1.17021277 130.777737,1.45106383 C131.632705,1.73191489 132.297679,2.01276596 132.772661,2.29361702 C133.437636,2.66808511 133.912618,3.04255319 134.197607,3.46382979 C134.482596,3.83829787 134.625091,4.35319149 134.625091,5.00851064 L134.625091,7.20851064 C134.625091,8.19148936 134.245105,8.70638298 133.532632,8.70638298 C133.152647,8.70638298 132.53517,8.51914894 131.727701,8.14468085 C129.020305,6.92765957 125.980421,6.31914894 122.608049,6.31914894 C119.900653,6.31914894 117.763234,6.74042553 116.29079,7.62978723 C114.818347,8.51914894 114.058376,9.87659574 114.058376,11.7957447 C114.058376,13.106383 114.533358,14.2297872 115.483321,15.1191489 C116.433285,16.0085106 118.190718,16.8978723 120.708122,17.693617 L127.452864,19.8 C130.872734,20.8765957 133.34264,22.3744681 134.815083,24.293617 C136.287527,26.212766 137,28.412766 137,30.8468085 C137,32.8595745 136.572516,34.6851064 135.765047,36.2765957 C134.91008,37.8680851 133.770123,39.2723404 132.297679,40.3957447 C130.825236,41.5659574 129.067803,42.4085106 127.025381,43.0170213 C124.887962,43.6723404 122.655547,44 120.23314,44 Z" id="Shape" fill="#FFFFFF" fill-rule="nonzero"></path>
            <g id="Group" transform="translate(0.000000, 53.000000)" fill="#FF9900">
                <path d="M129.031457,14.4470588 C113.45298,25.8823529 90.8192053,31.9529412 71.357947,31.9529412 C44.0837748,31.9529412 19.5086093,21.9294118 0.947019868,5.27058824 C-0.520860927,3.95294118 0.804966887,2.16470588 2.55695364,3.2 C22.6337748,14.7764706 47.3983444,21.7882353 73.0152318,21.7882353 C90.2983444,21.7882353 109.286093,18.2117647 126.758609,10.8705882 C129.362914,9.69411765 131.588411,12.5647059 129.031457,14.4470588 Z" id="Path"></path>
                <path d="M135.518543,7.10588235 C133.529801,4.56470588 122.354967,5.88235294 117.288411,6.49411765 C115.773179,6.68235294 115.536424,5.36470588 116.909603,4.37647059 C125.811589,-1.83529412 140.443046,-0.0470588235 142.147682,2.02352941 C143.852318,4.14117647 141.674172,18.6823529 133.340397,25.6470588 C132.061921,26.7294118 130.830795,26.1647059 131.399007,24.7529412 C133.293046,20.0941176 137.507285,9.6 135.518543,7.10588235 Z" id="Path"></path>
            </g>
        </g>
    </g>
</svg>