<?xml version="1.0" encoding="UTF-8"?>
<svg width="66px" height="39px" viewBox="0 0 66 39" version="1.1" xmlns="http://www.w3.org/2000/svg" xmlns:xlink="http://www.w3.org/1999/xlink">
    <!-- Generator: Sketch 55.1 (78136) - https://sketchapp.com -->
    <title>Amazon_Web_Services_Logo</title>
    <desc>Created with Sketch.</desc>
    <g id="Multi-Cloud" stroke="none" stroke-width="1" fill="none" fill-rule="evenodd">
        <g id="Statistics" transform="translate(-232.000000, -578.000000)" fill="#FF9900">
            <g id="Group-5" transform="translate(232.000000, 482.000000)">
                <g id="Group-8-Copy-4">
                    <g id="Group-22">
                        <g id="Amazon_Web_Services_Logo" transform="translate(0.000000, 96.000000)">
                            <path d="M18.728789,13.893617 C18.728789,14.6808511 18.8158086,15.3191489 18.9680928,15.787234 C19.142132,16.2553191 19.3596809,16.7659574 19.6642495,17.3191489 C19.7730239,17.4893617 19.8165337,17.6595745 19.8165337,17.8085106 C19.8165337,18.0212766 19.6860044,18.2340426 19.4031907,18.4468085 L18.0326323,19.3404255 C17.8368383,19.4680851 17.6410442,19.5319149 17.4670051,19.5319149 C17.2494561,19.5319149 17.0319072,19.4255319 16.8143582,19.2340426 C16.5097897,18.9148936 16.248731,18.5744681 16.031182,18.2340426 C15.8136331,17.8723404 15.5960841,17.4680851 15.3567803,16.9787234 C13.6598985,18.9361702 11.5279188,19.9148936 8.96084119,19.9148936 C7.13343002,19.9148936 5.67585207,19.4042553 4.60986222,18.3829787 C3.54387237,17.3617021 3,16 3,14.2978723 C3,12.4893617 3.65264685,11.0212766 4.97969543,9.91489362 C6.30674402,8.80851064 8.0688905,8.25531915 10.3096447,8.25531915 C11.0493111,8.25531915 11.8107324,8.31914894 12.6156635,8.42553191 C13.4205946,8.53191489 14.2472806,8.70212766 15.1174764,8.89361702 L15.1174764,7.34042553 C15.1174764,5.72340426 14.7693981,4.59574468 14.0949964,3.93617021 C13.3988397,3.27659574 12.2240754,2.95744681 10.5489485,2.95744681 C9.78752719,2.95744681 9.00435098,3.04255319 8.19941987,3.23404255 C7.39448876,3.42553191 6.61131255,3.65957447 5.84989123,3.95744681 C5.50181291,4.10638298 5.24075417,4.19148936 5.08846991,4.23404255 C4.93618564,4.27659574 4.82741117,4.29787234 4.74039159,4.29787234 C4.43582306,4.29787234 4.2835388,4.08510638 4.2835388,3.63829787 L4.2835388,2.59574468 C4.2835388,2.25531915 4.32704859,2 4.43582306,1.85106383 C4.54459753,1.70212766 4.74039159,1.55319149 5.04496012,1.40425532 C5.80638144,1.0212766 6.72008702,0.70212766 7.78607687,0.446808511 C8.85206672,0.170212766 9.98332125,0.0425531915 11.1798405,0.0425531915 C13.768673,0.0425531915 15.6613488,0.617021277 16.8796229,1.76595745 C18.0761421,2.91489362 18.6852792,4.65957447 18.6852792,7 L18.6852792,13.893617 L18.728789,13.893617 Z M9.89630167,17.1276596 C10.6142132,17.1276596 11.3538796,17 12.1370558,16.7446809 C12.9202321,16.4893617 13.6163887,16.0212766 14.2037708,15.3829787 C14.5518492,14.9787234 14.8129079,14.5319149 14.9434373,14.0212766 C15.0739666,13.5106383 15.1609862,12.893617 15.1609862,12.1702128 L15.1609862,11.2765957 C14.5300943,11.1276596 13.8556925,11 13.1595359,10.9148936 C12.4633793,10.8297872 11.7889775,10.787234 11.1145758,10.787234 C9.65699782,10.787234 8.59100798,11.0638298 7.87309645,11.6382979 C7.15518492,12.212766 6.8071066,13.0212766 6.8071066,14.0851064 C6.8071066,15.0851064 7.06816534,15.8297872 7.61203771,16.3404255 C8.13415518,16.8723404 8.8955765,17.1276596 9.89630167,17.1276596 Z M27.3654822,19.4255319 C26.9738941,19.4255319 26.7128354,19.3617021 26.5387962,19.212766 C26.3647571,19.0851064 26.2124728,18.787234 26.0819434,18.3829787 L20.9695431,1.93617021 C20.8390138,1.5106383 20.7737491,1.23404255 20.7737491,1.08510638 C20.7737491,0.744680851 20.9477883,0.553191489 21.2958666,0.553191489 L23.4278463,0.553191489 C23.8411893,0.553191489 24.1240029,0.617021277 24.2762872,0.765957447 C24.4503263,0.893617021 24.5808557,1.19148936 24.7113851,1.59574468 L28.3662074,15.6808511 L31.759971,1.59574468 C31.8687455,1.17021277 31.9992748,0.893617021 32.173314,0.765957447 C32.3473532,0.638297872 32.6519217,0.553191489 33.0435098,0.553191489 L34.7839014,0.553191489 C35.1972444,0.553191489 35.480058,0.617021277 35.6540972,0.765957447 C35.8281363,0.893617021 35.9804206,1.19148936 36.0674402,1.59574468 L39.5047136,15.8510638 L43.2683104,1.59574468 C43.3988397,1.17021277 43.551124,0.893617021 43.7034083,0.765957447 C43.8774474,0.638297872 44.1602611,0.553191489 44.5518492,0.553191489 L46.5750544,0.553191489 C46.9231327,0.553191489 47.1189268,0.723404255 47.1189268,1.08510638 C47.1189268,1.19148936 47.0971719,1.29787234 47.075417,1.42553191 C47.0536621,1.55319149 47.0101523,1.72340426 46.9231327,1.95744681 L41.680203,18.4042553 C41.5496737,18.8297872 41.3973894,19.106383 41.2233503,19.2340426 C41.0493111,19.3617021 40.7664975,19.4468085 40.3966642,19.4468085 L38.5257433,19.4468085 C38.1124003,19.4468085 37.8295867,19.3829787 37.6555475,19.2340426 C37.4815083,19.0851064 37.3292241,18.8085106 37.2422045,18.3829787 L33.8701958,4.65957447 L30.519942,18.3617021 C30.4111675,18.787234 30.2806381,19.0638298 30.106599,19.212766 C29.9325598,19.3617021 29.6279913,19.4255319 29.2364032,19.4255319 L27.3654822,19.4255319 Z M55.3205221,20 C54.1892676,20 53.0580131,19.8723404 51.9702683,19.6170213 C50.8825236,19.3617021 50.0340827,19.0851064 49.4684554,18.7659574 C49.1203771,18.5744681 48.8810732,18.3617021 48.7940537,18.1702128 C48.7070341,17.9787234 48.6635243,17.7659574 48.6635243,17.5744681 L48.6635243,16.4893617 C48.6635243,16.0425532 48.8375635,15.8297872 49.1638869,15.8297872 C49.2944162,15.8297872 49.4249456,15.8510638 49.555475,15.893617 C49.6860044,15.9361702 49.8817984,16.0212766 50.0993474,16.106383 C50.8390138,16.4255319 51.6439449,16.6808511 52.4923858,16.8510638 C53.3625816,17.0212766 54.2110225,17.106383 55.0812183,17.106383 C56.4517766,17.106383 57.5177665,16.8723404 58.2574329,16.4042553 C58.9970993,15.9361702 59.3886875,15.2553191 59.3886875,14.3829787 C59.3886875,13.787234 59.1928934,13.2978723 58.8013053,12.893617 C58.4097172,12.4893617 57.6700508,12.1276596 56.6040609,11.787234 L53.4496012,10.8297872 C51.8614938,10.3404255 50.6867295,9.61702128 49.968818,8.65957447 C49.2509065,7.72340426 48.8810732,6.68085106 48.8810732,5.57446809 C48.8810732,4.68085106 49.0768673,3.89361702 49.4684554,3.21276596 C49.8600435,2.53191489 50.382161,1.93617021 51.0348078,1.46808511 C51.6874547,0.978723404 52.4271211,0.617021277 53.2973169,0.361702128 C54.1675127,0.106382979 55.0812183,0 56.0384336,0 C56.5170413,0 57.0174039,0.0212765957 57.4960116,0.085106383 C57.9963742,0.14893617 58.453227,0.234042553 58.9100798,0.319148936 C59.3451777,0.425531915 59.7585207,0.531914894 60.1501088,0.659574468 C60.5416969,0.787234043 60.8462654,0.914893617 61.0638144,1.04255319 C61.3683829,1.21276596 61.5859318,1.38297872 61.7164612,1.57446809 C61.8469906,1.74468085 61.9122553,1.9787234 61.9122553,2.27659574 L61.9122553,3.27659574 C61.9122553,3.72340426 61.7382161,3.95744681 61.4118927,3.95744681 C61.2378535,3.95744681 60.9550399,3.87234043 60.5852067,3.70212766 C59.3451777,3.14893617 57.9528644,2.87234043 56.4082669,2.87234043 C55.1682379,2.87234043 54.1892676,3.06382979 53.5148658,3.46808511 C52.8404641,3.87234043 52.4923858,4.4893617 52.4923858,5.36170213 C52.4923858,5.95744681 52.7099347,6.46808511 53.1450326,6.87234043 C53.5801305,7.27659574 54.3850616,7.68085106 55.5380711,8.04255319 L58.6272661,9 C60.1936186,9.4893617 61.3248731,10.1702128 61.9992748,11.0425532 C62.6736766,11.9148936 63,12.9148936 63,14.0212766 C63,14.9361702 62.8042059,15.7659574 62.4343727,16.4893617 C62.0427846,17.212766 61.5206672,17.8510638 60.8462654,18.3617021 C60.1718637,18.893617 59.3669326,19.2765957 58.4314721,19.5531915 C57.4525018,19.8510638 56.4300218,20 55.3205221,20 Z" id="Shape" fill-rule="nonzero"></path>
                            <g id="Group" transform="translate(0.000000, 24.000000)">
                                <path d="M59.5529801,6.77205882 C52.3629139,12.1323529 41.9165563,14.9779412 32.9344371,14.9779412 C20.3463576,14.9779412 9.00397351,10.2794118 0.437086093,2.47058824 C-0.240397351,1.85294118 0.371523179,1.01470588 1.18013245,1.5 C10.4463576,6.92647059 21.8761589,10.2132353 33.6993377,10.2132353 C41.6761589,10.2132353 50.4397351,8.53676471 58.5039735,5.09558824 C59.7059603,4.54411765 60.7331126,5.88970588 59.5529801,6.77205882 Z" id="Path"></path>
                                <path d="M62.5470199,3.33088235 C61.6291391,2.13970588 56.4715232,2.75735294 54.1331126,3.04411765 C53.4337748,3.13235294 53.3245033,2.51470588 53.9582781,2.05147059 C58.0668874,-0.860294118 64.8198675,-0.0220588235 65.6066225,0.948529412 C66.3933775,1.94117647 65.3880795,8.75735294 61.5417219,12.0220588 C60.9516556,12.5294118 60.3834437,12.2647059 60.6456954,11.6029412 C61.5198675,9.41911765 63.4649007,4.5 62.5470199,3.33088235 Z" id="Path"></path>
                            </g>
                        </g>
                    </g>
                </g>
            </g>
        </g>
    </g>
</svg>