<?xml version="1.0" encoding="UTF-8"?>
<svg width="27px" height="16px" viewBox="0 0 27 16" version="1.1" xmlns="http://www.w3.org/2000/svg" xmlns:xlink="http://www.w3.org/1999/xlink">
    <!-- Generator: Sketch 55.1 (78136) - https://sketchapp.com -->
    <title>Amazon_Web_Services_Logo</title>
    <desc>Created with Sketch.</desc>
    <g id="Multi-Cloud" stroke="none" stroke-width="1" fill="none" fill-rule="evenodd">
        <g id="Policy-Knowledgbase" transform="translate(-900.000000, -631.000000)" fill="#AAAAAA">
            <g id="Security-Copy-4-+-Security-Copy-5-Mask" transform="translate(213.000000, 156.000000)">
                <g transform="translate(0.000000, 129.000000)" id="Group">
                    <g transform="translate(35.000000, 71.000000)">
                        <g id="Security-Copy-4" transform="translate(633.000000, 160.000000)">
                            <g id="Amazon_Web_Services_Logo" transform="translate(19.000000, 115.000000)">
                                <path d="M7.55366207,5.55744681 C7.55366207,5.87234043 7.58992023,6.12765957 7.65337201,6.31489362 C7.72588832,6.50212766 7.81653372,6.70638298 7.94343727,6.92765957 C7.98875997,6.99574468 8.00688905,7.06382979 8.00688905,7.12340426 C8.00688905,7.20851064 7.95250181,7.29361702 7.8346628,7.3787234 L7.26359681,7.73617021 C7.18201595,7.78723404 7.1004351,7.81276596 7.02791878,7.81276596 C6.93727339,7.81276596 6.84662799,7.77021277 6.7559826,7.69361702 C6.62907904,7.56595745 6.52030457,7.42978723 6.42965917,7.29361702 C6.33901378,7.14893617 6.24836838,6.98723404 6.14865845,6.79148936 C5.44162437,7.57446809 4.55329949,7.96595745 3.48368383,7.96595745 C2.72226251,7.96595745 2.11493836,7.76170213 1.67077592,7.35319149 C1.22661349,6.94468085 1,6.4 1,5.71914894 C1,4.99574468 1.27193619,4.40851064 1.8248731,3.96595745 C2.37781001,3.52340426 3.11203771,3.30212766 4.04568528,3.30212766 C4.35387962,3.30212766 4.67113851,3.32765957 5.00652647,3.37021277 C5.34191443,3.41276596 5.68636693,3.48085106 6.04894851,3.55744681 L6.04894851,2.93617021 C6.04894851,2.2893617 5.90391588,1.83829787 5.62291516,1.57446809 C5.33284989,1.3106383 4.84336476,1.18297872 4.14539521,1.18297872 C3.82813633,1.18297872 3.50181291,1.21702128 3.16642495,1.29361702 C2.83103698,1.37021277 2.50471356,1.46382979 2.18745468,1.58297872 C2.04242204,1.64255319 1.93364757,1.67659574 1.87019579,1.69361702 C1.80674402,1.7106383 1.76142132,1.71914894 1.72516316,1.71914894 C1.59825961,1.71914894 1.53480783,1.63404255 1.53480783,1.45531915 L1.53480783,1.03829787 C1.53480783,0.90212766 1.55293691,0.8 1.59825961,0.740425532 C1.64358231,0.680851064 1.72516316,0.621276596 1.85206672,0.561702128 C2.1693256,0.408510638 2.55003626,0.280851064 2.99419869,0.178723404 C3.43836113,0.0680851064 3.90971719,0.0170212766 4.40826686,0.0170212766 C5.48694706,0.0170212766 6.275562,0.246808511 6.78317621,0.706382979 C7.28172589,1.16595745 7.53553299,1.86382979 7.53553299,2.8 L7.53553299,5.55744681 L7.55366207,5.55744681 Z M3.87345903,6.85106383 C4.17258883,6.85106383 4.48078318,6.8 4.8071066,6.69787234 C5.13343002,6.59574468 5.42349529,6.40851064 5.66823785,6.15319149 C5.81327049,5.99148936 5.92204496,5.81276596 5.9764322,5.60851064 C6.03081943,5.40425532 6.06707759,5.15744681 6.06707759,4.86808511 L6.06707759,4.5106383 C5.80420595,4.45106383 5.52320522,4.4 5.23313996,4.36595745 C4.94307469,4.33191489 4.66207397,4.31489362 4.38107324,4.31489362 C3.77374909,4.31489362 3.32958666,4.42553191 3.03045685,4.65531915 C2.73132705,4.88510638 2.58629442,5.20851064 2.58629442,5.63404255 C2.58629442,6.03404255 2.69506889,6.33191489 2.92168238,6.53617021 C3.13923133,6.74893617 3.45649021,6.85106383 3.87345903,6.85106383 Z M11.1522843,7.77021277 C10.9891226,7.77021277 10.8803481,7.74468085 10.8078318,7.68510638 C10.7353154,7.63404255 10.6718637,7.51489362 10.6174764,7.35319149 L8.48730964,0.774468085 C8.43292241,0.604255319 8.40572879,0.493617021 8.40572879,0.434042553 C8.40572879,0.29787234 8.47824511,0.221276596 8.62327774,0.221276596 L9.51160261,0.221276596 C9.68382886,0.221276596 9.80166788,0.246808511 9.86511965,0.306382979 C9.93763597,0.357446809 9.99202321,0.476595745 10.0464104,0.638297872 L11.5692531,6.27234043 L12.9833212,0.638297872 C13.0286439,0.468085106 13.0830312,0.357446809 13.1555475,0.306382979 C13.2280638,0.255319149 13.3549674,0.221276596 13.5181291,0.221276596 L14.2432922,0.221276596 C14.4155185,0.221276596 14.5333575,0.246808511 14.6058738,0.306382979 C14.6783901,0.357446809 14.7418419,0.476595745 14.7781001,0.638297872 L16.2102973,6.34042553 L17.7784627,0.638297872 C17.8328499,0.468085106 17.8963017,0.357446809 17.9597534,0.306382979 C18.0322698,0.255319149 18.1501088,0.221276596 18.3132705,0.221276596 L19.1562727,0.221276596 C19.3013053,0.221276596 19.3828861,0.289361702 19.3828861,0.434042553 C19.3828861,0.476595745 19.3738216,0.519148936 19.3647571,0.570212766 C19.3556925,0.621276596 19.3375635,0.689361702 19.3013053,0.782978723 L17.1167513,7.36170213 C17.062364,7.53191489 16.9989123,7.64255319 16.9263959,7.69361702 C16.8538796,7.74468085 16.7360406,7.7787234 16.5819434,7.7787234 L15.802393,7.7787234 C15.6301668,7.7787234 15.5123278,7.75319149 15.4398115,7.69361702 C15.3672951,7.63404255 15.3038434,7.52340426 15.2675852,7.35319149 L13.8625816,1.86382979 L12.4666425,7.34468085 C12.4213198,7.51489362 12.3669326,7.62553191 12.2944162,7.68510638 C12.2218999,7.74468085 12.0949964,7.77021277 11.9318347,7.77021277 L11.1522843,7.77021277 Z M22.8002175,8 C22.3288615,8 21.8575054,7.94893617 21.4042785,7.84680851 C20.9510515,7.74468085 20.5975344,7.63404255 20.3618564,7.50638298 C20.2168238,7.42978723 20.1171139,7.34468085 20.0808557,7.26808511 C20.0445975,7.19148936 20.0264685,7.10638298 20.0264685,7.02978723 L20.0264685,6.59574468 C20.0264685,6.41702128 20.0989848,6.33191489 20.2349529,6.33191489 C20.2893401,6.33191489 20.3437273,6.34042553 20.3981146,6.35744681 C20.4525018,6.37446809 20.5340827,6.40851064 20.6247281,6.44255319 C20.9329224,6.57021277 21.2683104,6.67234043 21.6218274,6.74042553 C21.984409,6.80851064 22.337926,6.84255319 22.7005076,6.84255319 C23.2715736,6.84255319 23.715736,6.74893617 24.0239304,6.56170213 C24.3321247,6.37446809 24.4952864,6.10212766 24.4952864,5.75319149 C24.4952864,5.51489362 24.4137056,5.31914894 24.2505439,5.15744681 C24.0873822,4.99574468 23.7791878,4.85106383 23.3350254,4.71489362 L22.0206672,4.33191489 C21.3589558,4.13617021 20.8694706,3.84680851 20.5703408,3.46382979 C20.271211,3.0893617 20.1171139,2.67234043 20.1171139,2.22978723 C20.1171139,1.87234043 20.1986947,1.55744681 20.3618564,1.28510638 C20.5250181,1.01276596 20.7425671,0.774468085 21.0145033,0.587234043 C21.2864394,0.391489362 21.5946338,0.246808511 21.9572154,0.144680851 C22.319797,0.0425531915 22.7005076,0 23.0993474,0 C23.2987672,0 23.5072516,0.0085106383 23.7066715,0.0340425532 C23.9151559,0.0595744681 24.1055112,0.0936170213 24.2958666,0.127659574 C24.4771574,0.170212766 24.6493836,0.212765957 24.8125453,0.263829787 C24.975707,0.314893617 25.1026106,0.365957447 25.193256,0.417021277 C25.3201595,0.485106383 25.4108049,0.553191489 25.4651922,0.629787234 C25.5195794,0.69787234 25.546773,0.791489362 25.546773,0.910638298 L25.546773,1.3106383 C25.546773,1.4893617 25.4742567,1.58297872 25.3382886,1.58297872 C25.2657723,1.58297872 25.1479333,1.54893617 24.9938361,1.48085106 C24.4771574,1.25957447 23.8970268,1.14893617 23.2534445,1.14893617 C22.7367658,1.14893617 22.3288615,1.22553191 22.0478608,1.38723404 C21.76686,1.54893617 21.6218274,1.79574468 21.6218274,2.14468085 C21.6218274,2.38297872 21.7124728,2.58723404 21.8937636,2.74893617 C22.0750544,2.9106383 22.4104423,3.07234043 22.8908629,3.21702128 L24.1780276,3.6 C24.8306744,3.79574468 25.3020305,4.06808511 25.5830312,4.41702128 C25.8640319,4.76595745 26,5.16595745 26,5.60851064 C26,5.97446809 25.9184191,6.30638298 25.764322,6.59574468 C25.6011603,6.88510638 25.3836113,7.14042553 25.1026106,7.34468085 C24.8216099,7.55744681 24.4862219,7.7106383 24.0964467,7.8212766 C23.6885424,7.94042553 23.2625091,8 22.8002175,8 Z" id="Shape" fill-rule="nonzero"></path>
                                <g id="Group" transform="translate(0.000000, 10.000000)">
                                    <path d="M24.3625828,2.70882353 C21.4211921,4.85294118 17.1476821,5.99117647 13.4731788,5.99117647 C8.32350993,5.99117647 3.68344371,4.11176471 0.178807947,0.988235294 C-0.0983443709,0.741176471 0.151986755,0.405882353 0.482781457,0.6 C4.27350993,2.77058824 8.94933775,4.08529412 13.7860927,4.08529412 C17.0493377,4.08529412 20.6344371,3.41470588 23.9334437,2.03823529 C24.4251656,1.81764706 24.8453642,2.35588235 24.3625828,2.70882353 Z" id="Path"></path>
                                    <path d="M25.5874172,1.33235294 C25.2119205,0.855882353 23.1019868,1.10294118 22.1453642,1.21764706 C21.8592715,1.25294118 21.8145695,1.00588235 22.0738411,0.820588235 C23.7546358,-0.344117647 26.5172185,-0.00882352941 26.8390728,0.379411765 C27.1609272,0.776470588 26.7496689,3.50294118 25.1761589,4.80882353 C24.9347682,5.01176471 24.7023179,4.90588235 24.8096026,4.64117647 C25.1672185,3.76764706 25.9629139,1.8 25.5874172,1.33235294 Z" id="Path"></path>
                                </g>
                            </g>
                        </g>
                    </g>
                </g>
            </g>
        </g>
    </g>
</svg>