<?xml version="1.0" encoding="UTF-8"?>
<svg width="24px" height="18px" viewBox="0 0 24 18" version="1.1" xmlns="http://www.w3.org/2000/svg" xmlns:xlink="http://www.w3.org/1999/xlink">
    <!-- Generator: Sketch 55.1 (78136) - https://sketchapp.com -->
    <title>Azure</title>
    <desc>Created with Sketch.</desc>
    <g id="Multi-Cloud" stroke="none" stroke-width="1" fill="none" fill-rule="evenodd">
        <g id="Policy-Knowledgbase" transform="translate(-900.000000, -470.000000)" fill="#FFFFFF" fill-rule="nonzero">
            <g id="Security-Copy-4-+-Security-Copy-5-Mask" transform="translate(213.000000, 156.000000)">
                <g transform="translate(0.000000, 129.000000)" id="Group">
                    <g transform="translate(35.000000, 71.000000)">
                        <g id="Security-Copy-15" transform="translate(633.000000, 0.000000)">
                            <path d="M29.8847306,131.038731 C32.9075584,130.511304 35.4042416,130.074858 35.4329164,130.068852 L35.485053,130.057931 L32.6312056,126.705083 C31.0615907,124.861016 29.7773596,123.345084 29.7773596,123.336345 C29.7773596,123.3198 32.7241981,115.304563 32.7407642,115.276028 C32.7463031,115.266514 34.7517162,118.686259 37.6020172,123.565735 C40.2705212,128.133989 42.4705734,131.90053 42.4910222,131.935825 L42.5282034,132 L33.4584409,131.998844 L24.38868,131.997694 L29.8847306,131.038735 L29.8847306,131.038731 Z M19,130.016274 C19,130.011553 20.3447191,127.705912 21.9882646,124.892624 L24.9765287,119.777555 L28.4590051,116.890967 C30.374367,115.303343 31.9466394,114.002438 31.9529429,114 C31.9592465,113.997693 31.9340503,114.060329 31.8969514,114.139258 C31.8598525,114.218186 30.1581868,117.823228 28.1154722,122.150463 L24.4014464,130.018161 L21.7007232,130.021506 C20.2153258,130.023347 19,130.020989 19,130.016272 L19,130.016274 Z" id="Azure"></path>
                        </g>
                    </g>
                </g>
            </g>
        </g>
    </g>
</svg>