<?xml version="1.0" encoding="UTF-8"?>
<svg width="51px" height="44px" viewBox="0 0 51 44" version="1.1" xmlns="http://www.w3.org/2000/svg" xmlns:xlink="http://www.w3.org/1999/xlink">
    <!-- Generator: Sketch 47.1 (45422) - http://www.bohemiancoding.com/sketch -->
    <title>Barcode</title>
    <desc>Created with Sketch.</desc>
    <defs>
        <path d="M1.91666667,5.75 L1.91666667,15.3333333 L5.75,15.3333333 L5.75,9.58333333 L11.5,9.58333333 L11.5,5.75 L5.75,5.75 L1.91666667,5.75 Z M40.25,5.75 L34.5,5.75 L34.5,9.58333333 L40.25,9.58333333 L40.25,15.3333333 L44.0833333,15.3333333 L44.0833333,5.75 L40.25,5.75 Z M40.25,36.4166667 L34.5,36.4166667 L34.5,40.25 L44.0833333,40.25 L44.0833333,30.6666667 L40.25,30.6666667 L40.25,36.4166667 Z M5.75,30.6666667 L1.91666667,30.6666667 L1.91666667,40.25 L11.5,40.25 L11.5,36.4166667 L5.75,36.4166667 L5.75,30.6666667 Z M13.4166667,11.5 L15.3333333,11.5 L15.3333333,34.5 L13.4166667,34.5 L13.4166667,11.5 Z M7.66666667,11.5 L11.5,11.5 L11.5,34.5 L7.66666667,34.5 L7.66666667,11.5 Z M19.1666667,11.5 L23,11.5 L23,34.5 L19.1666667,34.5 L19.1666667,11.5 Z M32.5833333,11.5 L34.5,11.5 L34.5,34.5 L32.5833333,34.5 L32.5833333,11.5 Z M36.4166667,11.5 L38.3333333,11.5 L38.3333333,34.5 L36.4166667,34.5 L36.4166667,11.5 Z M24.9166667,11.5 L30.6666667,11.5 L30.6666667,34.5 L24.9166667,34.5 L24.9166667,11.5 Z" id="path-1"></path>
        <filter x="-16.6%" y="-14.5%" width="133.2%" height="140.6%" filterUnits="objectBoundingBox" id="filter-2">
            <feOffset dx="0" dy="2" in="SourceAlpha" result="shadowOffsetOuter1"></feOffset>
            <feGaussianBlur stdDeviation="2" in="shadowOffsetOuter1" result="shadowBlurOuter1"></feGaussianBlur>
            <feColorMatrix values="0 0 0 0 0   0 0 0 0 0   0 0 0 0 0  0 0 0 0.221976902 0" type="matrix" in="shadowBlurOuter1"></feColorMatrix>
        </filter>
    </defs>
    <g id="Prototype" stroke="none" stroke-width="1" fill="none" fill-rule="evenodd">
        <g id="Statistics-Dashboard-v3.3" transform="translate(-634.000000, -505.000000)">
            <g id="Group-4" transform="translate(488.500000, 502.000000)">
                <g id="Group-8-Copy-5" transform="translate(133.000000, 0.000000)">
                    <g id="ic/barcode_scanner/grey600" transform="translate(15.395862, 0.000000)">
                        <g id="ic_barcode_scanner_24px">
                            <g id="Shape" fill-rule="nonzero">
                                <use fill="black" fill-opacity="1" filter="url(#filter-2)" xlink:href="#path-1"></use>
                                <use fill="#00ABE7" fill-rule="evenodd" xlink:href="#path-1"></use>
                            </g>
                            <polygon id="Shape" points="0 0 46 0 46 46 0 46"></polygon>
                        </g>
                    </g>
                </g>
            </g>
        </g>
    </g>
</svg>