<?xml version="1.0" encoding="UTF-8" standalone="no"?>
<svg width="23px" height="20px" viewBox="0 0 23 20" version="1.1" xmlns="http://www.w3.org/2000/svg" xmlns:xlink="http://www.w3.org/1999/xlink">
    <!-- Generator: Sketch 47 (45396) - http://www.bohemiancoding.com/sketch -->
    <title>Shape</title>
    <desc>Created with Sketch.</desc>
    <defs></defs>
    <g id="Prototype" stroke="none" stroke-width="1" fill="none" fill-rule="evenodd">
        <g id="8-Asset-Dashboard-1" transform="translate(-1020.000000, -955.000000)" fill-rule="nonzero" fill="#289CF7">
            <g id="Group-53" transform="translate(211.000000, 915.000000)">
                <g id="Group-5-Copy-3" transform="translate(508.000000, 6.000000)">
                    <g id="Group-24" transform="translate(254.000000, 0.000000)">
                        <path d="M49.2105263,34 C47.9836842,34 47,34.9368421 47,36.1052632 L47,46.6315789 C47,47.7942837 47.9896863,48.7368421 49.2105263,48.7368421 L58.0526316,48.7368421 L58.0526316,54 L61.3684211,50.8421053 L64.6842105,54 L64.6842105,48.7368421 L66.8947368,48.7368421 C68.1155768,48.7368421 69.1052632,47.7942837 69.1052632,46.6315789 L69.1052632,39.2631579 L69.1052632,37.1578947 L69.1052632,36.1052632 C69.1052632,34.9425584 68.1155768,34 66.8947368,34 L62.4736842,34 L62.4736842,34 L49.2105263,34 L49.2105263,34 Z M58.0526316,36.1052632 L61.3684211,38.2105263 L64.6842105,36.1052632 L64.6842105,39.7894737 L68,41.3684211 L64.6842105,42.9473684 L64.6842105,46.6315789 L61.3684211,44.5263158 L58.0526316,46.6315789 L58.0526316,42.9473684 L54.7368421,41.3684211 L58.0526316,39.7894737 L58.0526316,36.1052632 L58.0526316,36.1052632 Z M49.2105263,36.1052632 L54.7368421,36.1052632 L54.7368421,38.2105263 L49.2105263,38.2105263 L49.2105263,36.1052632 L49.2105263,36.1052632 Z M49.2105263,40.3157895 L52.5263158,40.3157895 L52.5263158,42.4210526 L49.2105263,42.4210526 L49.2105263,40.3157895 L49.2105263,40.3157895 Z M49.2105263,44.5263158 L54.7368421,44.5263158 L54.7368421,46.6315789 L49.2105263,46.6315789 L49.2105263,44.5263158 Z" id="Shape"></path>
                    </g>
                </g>
            </g>
        </g>
    </g>
</svg>