<?xml version="1.0" encoding="UTF-8"?>
<svg width="46px" height="45px" viewBox="0 0 46 45" version="1.1" xmlns="http://www.w3.org/2000/svg" xmlns:xlink="http://www.w3.org/1999/xlink">
    <!-- Generator: Sketch 47 (45396) - http://www.bohemiancoding.com/sketch -->
    <title>Certificates</title>
    <desc>Created with Sketch.</desc>
    <defs>
        <polygon id="path-1" points="5.96279311 2.14341001 8.04879784 0 9.91189622 0 41.5403336 0 44.2683881 2.14341001 44.2683881 3.3176288 37.4791042 3.3176288 36.4730044 40.9222486 35.0657838 42.1326752 30.6397512 43.4470822 2.59124632 43.4470822 0 40.9222486 0 40.1027966 6.64859717 40.1027966 6.64859717 12.3878765 5.96279311 10.3790672 5.96279311 4.56128708"></polygon>
        <path d="M6.53024583,4.26208972 L6.53024583,40.7449552 C6.53024583,42.7560203 8.29390521,44.391584 10.462472,44.391584 L41.3445077,44.391584 C43.5130744,44.391584 45.2744879,42.7560203 45.2744879,40.7449552 C45.2744879,40.4028242 44.9752964,40.1274723 44.6108912,40.1274723 L38.7420087,40.1295552 L38.7420087,12.723613 L38.7397051,3.62580786 C38.728458,1.62515699 36.9693079,0.00208818369 34.8097249,0.00208818369 L3.92999282,0 C1.76142604,0 1.26269538e-05,1.63556587 1.26269538e-05,3.64454811 C-0.00223909817,3.98667912 0.296958157,4.26203097 0.663609265,4.26203097 L6.53024583,4.26208972 Z M13.4046302,43.1567807 C13.8792892,42.6581854 14.2077071,42.04278 14.3337115,41.3626517 L43.8526185,41.3626517 C43.5579247,42.3932317 42.5433929,43.1567807 41.3420889,43.1567807 L13.4046302,43.1567807 Z M36.4223287,3.1393572 L34.964639,2.19433391 C34.7824221,2.0754196 34.5394719,2.0754196 34.3550032,2.19433391 L32.8950099,3.1393572 L31.1156288,3.17065325 C30.8929211,3.17482428 30.6949593,3.30625701 30.6229732,3.50235402 L30.0403465,5.06283072 L28.6208959,6.05794905 C28.4431824,6.18312258 28.3666928,6.39799721 28.4319353,6.59617706 L28.9493368,8.17539935 L28.4319353,9.75462165 C28.3666986,9.95280683 28.4431824,10.1655986 28.6208959,10.2928497 L30.0403465,11.287968 L30.6229732,12.8463618 C30.697211,13.0424642 30.8929211,13.1738916 31.1156288,13.1780626 L32.4518635,13.2030941 L32.4518635,18.9399916 C32.4518635,19.144436 32.5845886,19.3259371 32.7892998,19.3989541 C32.8522905,19.4219027 32.9197732,19.432333 32.9850098,19.432333 C33.1312338,19.432333 33.2707025,19.3760054 33.374184,19.2758687 L34.6587039,18.0012222 L35.9432238,19.2758687 C36.0916937,19.4219027 36.3234025,19.4719711 36.5280964,19.3989541 C36.7305559,19.3238542 36.8655327,19.1423532 36.8655327,18.9399916 L36.8655327,13.2009579 L37.4099261,13.1905276 L37.4099261,40.1275631 L13.7241966,40.1275631 C13.3552707,40.1275631 13.058354,40.4050245 13.058354,40.7429631 C13.058354,42.0718704 11.8931006,43.154575 10.4578706,43.154575 C9.02488659,43.154575 7.85738727,42.0718704 7.85738727,40.7429631 L7.85738727,3.64432381 C7.85738727,2.72012895 7.48395795,1.8773252 6.8698532,1.23271198 L34.8073696,1.23271198 C36.0626343,1.23480016 37.1131706,2.06093583 37.3561381,3.15619084 L36.4223287,3.1393572 Z M3.9295897,1.23465062 C5.13308206,1.23465062 6.14543695,1.99819953 6.44011923,3.02877959 L1.41906016,3.02877959 C1.71375397,1.99819953 2.72603974,1.23465062 3.9295897,1.23465062 Z" id="path-3"></path>
    </defs>
    <g id="Compliance-Dashboard" stroke="none" stroke-width="1" fill="none" fill-rule="evenodd">
        <g id="Compliance_v15" transform="translate(-1010.000000, -682.000000)">
            <g id="Certificates" transform="translate(1032.913043, 704.500000) scale(-1, 1) translate(-1032.913043, -704.500000) translate(1009.913043, 682.000000)">
                <g transform="translate(0.000000, 0.944502)">
                    <mask id="mask-2" fill="white">
                        <use xlink:href="#path-1"></use>
                    </mask>
                    <use id="Mask" fill="#289CF7" transform="translate(22.134194, 21.723541) scale(-1, 1) translate(-22.134194, -21.723541) " xlink:href="#path-1"></use>
                    <polygon id="Path-13" fill="#FFFFFF" opacity="0.1" mask="url(#mask-2)" transform="translate(30.659565, 18.249933) scale(-1, 1) translate(-30.659565, -18.249933) " points="85.942098 -10.0581828 -24.6229671 46.5580481 85.942098 46.5580481"></polygon>
                </g>
                <g id="Path-13">
                    <mask id="mask-4" fill="white">
                        <use xlink:href="#path-3"></use>
                    </mask>
                    <use id="Mask" fill="#289CF7" xlink:href="#path-3"></use>
                    <polygon fill="#FFFFFF" opacity="0.1" mask="url(#mask-4)" transform="translate(30.659565, 19.194434) scale(-1, 1) translate(-30.659565, -19.194434) " points="85.942098 -9.11368102 -24.6229671 47.5025499 85.942098 47.5025499"></polygon>
                </g>
            </g>
        </g>
    </g>
</svg>