<?xml version="1.0" encoding="UTF-8"?>
<svg width="14px" height="12px" viewBox="0 0 14 12" version="1.1" xmlns="http://www.w3.org/2000/svg" xmlns:xlink="http://www.w3.org/1999/xlink">
    <!-- Generator: Sketch 47.1 (45422) - http://www.bohemiancoding.com/sketch -->
    <title>ic/email/grey600</title>
    <desc>Created with Sketch.</desc>
    <defs></defs>
    <g id="Prototype" stroke="none" stroke-width="1" fill="none" fill-rule="evenodd">
        <g id="MainNav_v1" transform="translate(-46.000000, -711.000000)">
            <g id="Group-42" transform="translate(45.000000, 709.000000)">
                <g id="ic/email/grey600">
                    <g id="ic_email_24px">
                        <path d="M13.3333333,2.66666667 L2.66666667,2.66666667 C1.93333333,2.66666667 1.34,3.26666667 1.34,4 L1.33333333,12 C1.33333333,12.7333333 1.93333333,13.3333333 2.66666667,13.3333333 L13.3333333,13.3333333 C14.0666667,13.3333333 14.6666667,12.7333333 14.6666667,12 L14.6666667,4 C14.6666667,3.26666667 14.0666667,2.66666667 13.3333333,2.66666667 Z M13.3333333,5.33333333 L8,8.66666667 L2.66666667,5.33333333 L2.66666667,4 L8,7.33333333 L13.3333333,4 L13.3333333,5.33333333 Z" id="Shape" fill="#FFFFFF" fill-rule="nonzero"></path>
                        <polygon id="Shape" points="0 0 16 0 16 16 0 16"></polygon>
                    </g>
                </g>
            </g>
        </g>
    </g>
</svg>