<?xml version="1.0" encoding="UTF-8" standalone="no"?>
<svg width="23px" height="20px" viewBox="0 0 23 20" version="1.1" xmlns="http://www.w3.org/2000/svg" xmlns:xlink="http://www.w3.org/1999/xlink">
    <!-- Generator: Sketch 47 (45396) - http://www.bohemiancoding.com/sketch -->
    <title>Shape</title>
    <desc>Created with Sketch.</desc>
    <defs></defs>
    <g id="Prototype" stroke="none" stroke-width="1" fill="none" fill-rule="evenodd">
        <g id="8-Asset-Dashboard-1" transform="translate(-760.000000, -955.000000)" fill-rule="nonzero" fill="#26BA9D">
            <g id="Group-53" transform="translate(211.000000, 915.000000)">
                <g id="Group-5-Copy-3" transform="translate(508.000000, 6.000000)">
                    <g id="Group-26">
                        <path d="M52.1111111,38.4444444 L52.1111111,34 L41,34 L41,54 L63.2222222,54 L63.2222222,38.4444444 L52.1111111,38.4444444 Z M45.4444444,51.7777778 L43.2222222,51.7777778 L43.2222222,49.5555556 L45.4444444,49.5555556 L45.4444444,51.7777778 Z M45.4444444,47.3333333 L43.2222222,47.3333333 L43.2222222,45.1111111 L45.4444444,45.1111111 L45.4444444,47.3333333 Z M45.4444444,42.8888889 L43.2222222,42.8888889 L43.2222222,40.6666667 L45.4444444,40.6666667 L45.4444444,42.8888889 Z M45.4444444,38.4444444 L43.2222222,38.4444444 L43.2222222,36.2222222 L45.4444444,36.2222222 L45.4444444,38.4444444 Z M49.8888889,51.7777778 L47.6666667,51.7777778 L47.6666667,49.5555556 L49.8888889,49.5555556 L49.8888889,51.7777778 Z M49.8888889,47.3333333 L47.6666667,47.3333333 L47.6666667,45.1111111 L49.8888889,45.1111111 L49.8888889,47.3333333 Z M49.8888889,42.8888889 L47.6666667,42.8888889 L47.6666667,40.6666667 L49.8888889,40.6666667 L49.8888889,42.8888889 Z M49.8888889,38.4444444 L47.6666667,38.4444444 L47.6666667,36.2222222 L49.8888889,36.2222222 L49.8888889,38.4444444 Z M61,51.7777778 L52.1111111,51.7777778 L52.1111111,49.5555556 L54.3333333,49.5555556 L54.3333333,47.3333333 L52.1111111,47.3333333 L52.1111111,45.1111111 L54.3333333,45.1111111 L54.3333333,42.8888889 L52.1111111,42.8888889 L52.1111111,40.6666667 L61,40.6666667 L61,51.7777778 Z M58.7777778,42.8888889 L56.5555556,42.8888889 L56.5555556,45.1111111 L58.7777778,45.1111111 L58.7777778,42.8888889 Z M58.7777778,47.3333333 L56.5555556,47.3333333 L56.5555556,49.5555556 L58.7777778,49.5555556 L58.7777778,47.3333333 Z" id="Shape"></path>
                    </g>
                </g>
            </g>
        </g>
    </g>
</svg>