<?xml version="1.0" encoding="UTF-8"?>
<svg width="16px" height="12px" viewBox="0 0 16 12" version="1.1" xmlns="http://www.w3.org/2000/svg" xmlns:xlink="http://www.w3.org/1999/xlink">
    <!-- Generator: Sketch 47.1 (45422) - http://www.bohemiancoding.com/sketch -->
    <title>ic/email/grey600</title>
    <desc>Created with Sketch.</desc>
    <defs></defs>
    <g id="Issues" stroke="none" stroke-width="1" fill="none" fill-rule="evenodd">
        <g id="Issue-Details_Hover-States" transform="translate(-1022.000000, -337.000000)">
            <g id="Group-36" transform="translate(941.000000, 176.000000)">
                <g id="Group-19" transform="translate(29.000000, 136.000000)">
                    <g id="Group-16" transform="translate(51.000000, 21.000000)">
                        <g id="ic/email/grey600" transform="translate(0.000000, 1.000000)">
                            <g id="ic_email_24px">
                                <path d="M15,3 L3,3 C2.175,3 1.5075,3.675 1.5075,4.5 L1.5,13.5 C1.5,14.325 2.175,15 3,15 L15,15 C15.825,15 16.5,14.325 16.5,13.5 L16.5,4.5 C16.5,3.675 15.825,3 15,3 Z M15,6 L9,9.75 L3,6 L3,4.5 L9,8.25 L15,4.5 L15,6 Z" id="Shape" fill="#FFFFFF" fill-rule="nonzero"></path>
                                <polygon id="Shape" points="0 0 18 0 18 18 0 18"></polygon>
                            </g>
                        </g>
                    </g>
                </g>
            </g>
        </g>
    </g>
</svg>