<?xml version="1.0" encoding="UTF-8"?>
<svg width="12px" height="12px" viewBox="0 0 12 12" version="1.1" xmlns="http://www.w3.org/2000/svg" xmlns:xlink="http://www.w3.org/1999/xlink">
    <!-- Generator: Sketch 47.1 (45422) - http://www.bohemiancoding.com/sketch -->
    <title>Help</title>
    <desc>Created with Sketch.</desc>
    <defs></defs>
    <g id="Help/FAQ" stroke="none" stroke-width="1" fill="none" fill-rule="evenodd">
        <g id="Help-Text" transform="translate(-1221.000000, -83.000000)">
            <g id="Rectangle-24">
                <g id="ic/help_outline/grey600" transform="translate(1220.000000, 82.000000)">
                    <g id="ic_help_outline_24px">
                        <polygon id="Shape" points="0 0 14 0 14 14 0 14"></polygon>
                        <path d="M6.41666667,10.5 L7.58333333,10.5 L7.58333333,9.33333333 L6.41666667,9.33333333 L6.41666667,10.5 Z M7,1.16666667 C3.78,1.16666667 1.16666667,3.78 1.16666667,7 C1.16666667,10.22 3.78,12.8333333 7,12.8333333 C10.22,12.8333333 12.8333333,10.22 12.8333333,7 C12.8333333,3.78 10.22,1.16666667 7,1.16666667 Z M7,11.6666667 C4.4275,11.6666667 2.33333333,9.5725 2.33333333,7 C2.33333333,4.4275 4.4275,2.33333333 7,2.33333333 C9.5725,2.33333333 11.6666667,4.4275 11.6666667,7 C11.6666667,9.5725 9.5725,11.6666667 7,11.6666667 Z M7,3.5 C5.71083333,3.5 4.66666667,4.54416667 4.66666667,5.83333333 L5.83333333,5.83333333 C5.83333333,5.19166667 6.35833333,4.66666667 7,4.66666667 C7.64166667,4.66666667 8.16666667,5.19166667 8.16666667,5.83333333 C8.16666667,7 6.41666667,6.85416667 6.41666667,8.75 L7.58333333,8.75 C7.58333333,7.4375 9.33333333,7.29166667 9.33333333,5.83333333 C9.33333333,4.54416667 8.28916667,3.5 7,3.5 Z" id="Shape" fill="#E20074" fill-rule="nonzero"></path>
                    </g>
                </g>
            </g>
        </g>
    </g>
</svg>