<?xml version="1.0" encoding="UTF-8" standalone="no"?>
<svg width="452px" height="242px" viewBox="0 0 452 242" version="1.1" xmlns="http://www.w3.org/2000/svg" xmlns:xlink="http://www.w3.org/1999/xlink">
    <!-- Generator: Sketch 47 (45396) - http://www.bohemiancoding.com/sketch -->
    <title>Icon Img - Header@1x</title>
    <desc>Created with Sketch.</desc>
    <defs>
        <polygon id="path-1" points="2.0632721 0.820319323 2.49410475 0.0981884998 3.07142855 0.0981884998 12.8722258 0.0981884998 13.7175761 0.820319323 13.7175761 1.21592239 11.6137607 1.21592239 11.5175614 13.8851993 10.865938 14.5130223 9.49443017 14.7358346 0.802957148 14.7358346 0 13.8851993 0 13.6091198 2.06022044 13.6091198 2.06022044 4.27175651 1.8477083 3.59497368 1.8477083 1.63492015"></polygon>
        <path d="M1.80798276,1.21590862 L1.80798276,13.5072582 C1.80798276,14.184801 2.3544931,14.7358346 3.02647329,14.7358346 L12.5959809,14.7358346 C13.2679611,14.7358346 13.8137754,14.184801 13.8137754,13.5072582 C13.8137754,13.3919917 13.7210641,13.2992236 13.6081448,13.2992236 L11.7895368,13.2999253 L11.7895368,4.06665892 L11.788823,1.00154052 C11.7853378,0.327506316 11.2402248,-0.219317674 10.5710284,-0.219317674 L1.00223469,-0.220021198 C0.330254495,-0.220021198 -0.21555988,0.331013144 -0.21555988,1.00785425 C-0.216257629,1.12312074 -0.123544492,1.21588883 -0.00992923081,1.21588883 L1.80798276,1.21590862 Z M3.93816853,14.3198201 C4.08525253,14.1518397 4.18702034,13.944505 4.22606572,13.7153647 L13.3731766,13.7153647 C13.2818589,14.0625748 12.967483,14.3198201 12.5952314,14.3198201 L3.93816853,14.3198201 Z M11.0707307,0.837651661 L10.6190321,0.519266267 C10.562568,0.479203146 10.4872843,0.479203146 10.4301225,0.519266267 L9.97771006,0.837651661 L9.42632797,0.848195534 C9.35731687,0.849600784 9.29597388,0.893881454 9.27366733,0.959947997 L9.09312708,1.48568424 L8.65327772,1.82094703 C8.5982091,1.86311892 8.57450706,1.93551179 8.59472393,2.00228006 L8.75505266,2.53433183 L8.59472393,3.0663836 C8.57450885,3.13315367 8.5982091,3.20484481 8.65327772,3.24771663 L9.09312708,3.58297942 L9.27366733,4.10801394 C9.29667162,4.17408228 9.35731687,4.21836115 9.42632797,4.2197664 L9.84039097,4.2281997 L9.84039097,6.16100326 C9.84039097,6.2298821 9.88151888,6.29103117 9.94495334,6.31563115 C9.96447246,6.32336272 9.98538351,6.32687674 10.0055986,6.32687674 C10.0509094,6.32687674 10.094127,6.30789957 10.1261931,6.27416277 L10.5242311,5.84472484 L10.9222691,6.27416277 C10.9682759,6.32336272 11.0400762,6.34023112 11.1035053,6.31563115 C11.166242,6.29032945 11.2080677,6.22918038 11.2080677,6.16100326 L11.2080677,4.22747998 L11.3767605,4.22396596 L11.3767605,13.2992542 L4.03719353,13.2992542 C3.92287338,13.2992542 3.83086691,13.392733 3.83086691,13.506587 C3.83086691,13.9543058 3.46978642,14.319077 3.02504746,14.319077 C2.58100446,14.319077 2.219228,13.9543058 2.219228,13.506587 L2.219228,1.00777868 C2.219228,0.696410538 2.10351235,0.412463666 1.9132179,0.195288662 L10.5702986,0.195288662 C10.9592712,0.195992187 11.284804,0.474323456 11.360093,0.843323041 L11.0707307,0.837651661 Z M1.00210977,0.195941806 C1.3750395,0.195941806 1.6887409,0.453187128 1.78005497,0.800397241 L0.224164569,0.800397241 C0.315482209,0.453187128 0.629162191,0.195941806 1.00210977,0.195941806 Z" id="path-3"></path>
        <polygon id="path-5" points="0 0 15 0 15 15 0 15"></polygon>
        <polygon id="path-7" points="2.0632721 0.820319323 2.49410475 0.0981884998 3.07142855 0.0981884998 12.8722258 0.0981884998 13.7175761 0.820319323 13.7175761 1.21592239 11.6137607 1.21592239 11.5175614 13.8851993 10.865938 14.5130223 9.49443017 14.7358346 0.802957148 14.7358346 0 13.8851993 0 13.6091198 2.06022044 13.6091198 2.06022044 4.27175651 1.8477083 3.59497368 1.8477083 1.63492015"></polygon>
        <path d="M1.80798276,1.21590862 L1.80798276,13.5072582 C1.80798276,14.184801 2.3544931,14.7358346 3.02647329,14.7358346 L12.5959809,14.7358346 C13.2679611,14.7358346 13.8137754,14.184801 13.8137754,13.5072582 C13.8137754,13.3919917 13.7210641,13.2992236 13.6081448,13.2992236 L11.7895368,13.2999253 L11.7895368,4.06665892 L11.788823,1.00154052 C11.7853378,0.327506316 11.2402248,-0.219317674 10.5710284,-0.219317674 L1.00223469,-0.220021198 C0.330254495,-0.220021198 -0.21555988,0.331013144 -0.21555988,1.00785425 C-0.216257629,1.12312074 -0.123544492,1.21588883 -0.00992923081,1.21588883 L1.80798276,1.21590862 Z M3.93816853,14.3198201 C4.08525253,14.1518397 4.18702034,13.944505 4.22606572,13.7153647 L13.3731766,13.7153647 C13.2818589,14.0625748 12.967483,14.3198201 12.5952314,14.3198201 L3.93816853,14.3198201 Z M11.0707307,0.837651661 L10.6190321,0.519266267 C10.562568,0.479203146 10.4872843,0.479203146 10.4301225,0.519266267 L9.97771006,0.837651661 L9.42632797,0.848195534 C9.35731687,0.849600784 9.29597388,0.893881454 9.27366733,0.959947997 L9.09312708,1.48568424 L8.65327772,1.82094703 C8.5982091,1.86311892 8.57450706,1.93551179 8.59472393,2.00228006 L8.75505266,2.53433183 L8.59472393,3.0663836 C8.57450885,3.13315367 8.5982091,3.20484481 8.65327772,3.24771663 L9.09312708,3.58297942 L9.27366733,4.10801394 C9.29667162,4.17408228 9.35731687,4.21836115 9.42632797,4.2197664 L9.84039097,4.2281997 L9.84039097,6.16100326 C9.84039097,6.2298821 9.88151888,6.29103117 9.94495334,6.31563115 C9.96447246,6.32336272 9.98538351,6.32687674 10.0055986,6.32687674 C10.0509094,6.32687674 10.094127,6.30789957 10.1261931,6.27416277 L10.5242311,5.84472484 L10.9222691,6.27416277 C10.9682759,6.32336272 11.0400762,6.34023112 11.1035053,6.31563115 C11.166242,6.29032945 11.2080677,6.22918038 11.2080677,6.16100326 L11.2080677,4.22747998 L11.3767605,4.22396596 L11.3767605,13.2992542 L4.03719353,13.2992542 C3.92287338,13.2992542 3.83086691,13.392733 3.83086691,13.506587 C3.83086691,13.9543058 3.46978642,14.319077 3.02504746,14.319077 C2.58100446,14.319077 2.219228,13.9543058 2.219228,13.506587 L2.219228,1.00777868 C2.219228,0.696410538 2.10351235,0.412463666 1.9132179,0.195288662 L10.5702986,0.195288662 C10.9592712,0.195992187 11.284804,0.474323456 11.360093,0.843323041 L11.0707307,0.837651661 Z M1.00210977,0.195941806 C1.3750395,0.195941806 1.6887409,0.453187128 1.78005497,0.800397241 L0.224164569,0.800397241 C0.315482209,0.453187128 0.629162191,0.195941806 1.00210977,0.195941806 Z" id="path-9"></path>
        <polygon id="path-11" points="2.0632721 0.820319323 2.49410475 0.0981884998 3.07142855 0.0981884998 12.8722258 0.0981884998 13.7175761 0.820319323 13.7175761 1.21592239 11.6137607 1.21592239 11.5175614 13.8851993 10.865938 14.5130223 9.49443017 14.7358346 0.802957148 14.7358346 0 13.8851993 0 13.6091198 2.06022044 13.6091198 2.06022044 4.27175651 1.8477083 3.59497368 1.8477083 1.63492015"></polygon>
        <path d="M1.80798276,1.21590862 L1.80798276,13.5072582 C1.80798276,14.184801 2.3544931,14.7358346 3.02647329,14.7358346 L12.5959809,14.7358346 C13.2679611,14.7358346 13.8137754,14.184801 13.8137754,13.5072582 C13.8137754,13.3919917 13.7210641,13.2992236 13.6081448,13.2992236 L11.7895368,13.2999253 L11.7895368,4.06665892 L11.788823,1.00154052 C11.7853378,0.327506316 11.2402248,-0.219317674 10.5710284,-0.219317674 L1.00223469,-0.220021198 C0.330254495,-0.220021198 -0.21555988,0.331013144 -0.21555988,1.00785425 C-0.216257629,1.12312074 -0.123544492,1.21588883 -0.00992923081,1.21588883 L1.80798276,1.21590862 Z M3.93816853,14.3198201 C4.08525253,14.1518397 4.18702034,13.944505 4.22606572,13.7153647 L13.3731766,13.7153647 C13.2818589,14.0625748 12.967483,14.3198201 12.5952314,14.3198201 L3.93816853,14.3198201 Z M11.0707307,0.837651661 L10.6190321,0.519266267 C10.562568,0.479203146 10.4872843,0.479203146 10.4301225,0.519266267 L9.97771006,0.837651661 L9.42632797,0.848195534 C9.35731687,0.849600784 9.29597388,0.893881454 9.27366733,0.959947997 L9.09312708,1.48568424 L8.65327772,1.82094703 C8.5982091,1.86311892 8.57450706,1.93551179 8.59472393,2.00228006 L8.75505266,2.53433183 L8.59472393,3.0663836 C8.57450885,3.13315367 8.5982091,3.20484481 8.65327772,3.24771663 L9.09312708,3.58297942 L9.27366733,4.10801394 C9.29667162,4.17408228 9.35731687,4.21836115 9.42632797,4.2197664 L9.84039097,4.2281997 L9.84039097,6.16100326 C9.84039097,6.2298821 9.88151888,6.29103117 9.94495334,6.31563115 C9.96447246,6.32336272 9.98538351,6.32687674 10.0055986,6.32687674 C10.0509094,6.32687674 10.094127,6.30789957 10.1261931,6.27416277 L10.5242311,5.84472484 L10.9222691,6.27416277 C10.9682759,6.32336272 11.0400762,6.34023112 11.1035053,6.31563115 C11.166242,6.29032945 11.2080677,6.22918038 11.2080677,6.16100326 L11.2080677,4.22747998 L11.3767605,4.22396596 L11.3767605,13.2992542 L4.03719353,13.2992542 C3.92287338,13.2992542 3.83086691,13.392733 3.83086691,13.506587 C3.83086691,13.9543058 3.46978642,14.319077 3.02504746,14.319077 C2.58100446,14.319077 2.219228,13.9543058 2.219228,13.506587 L2.219228,1.00777868 C2.219228,0.696410538 2.10351235,0.412463666 1.9132179,0.195288662 L10.5702986,0.195288662 C10.9592712,0.195992187 11.284804,0.474323456 11.360093,0.843323041 L11.0707307,0.837651661 Z M1.00210977,0.195941806 C1.3750395,0.195941806 1.6887409,0.453187128 1.78005497,0.800397241 L0.224164569,0.800397241 C0.315482209,0.453187128 0.629162191,0.195941806 1.00210977,0.195941806 Z" id="path-13"></path>
        <polygon id="path-15" points="0 0 15 0 15 15 0 15"></polygon>
        <polygon id="path-17" points="0 0 15 0 15 15 0 15"></polygon>
        <polygon id="path-19" points="2.0632721 0.820319323 2.49410475 0.0981884998 3.07142855 0.0981884998 12.8722258 0.0981884998 13.7175761 0.820319323 13.7175761 1.21592239 11.6137607 1.21592239 11.5175614 13.8851993 10.865938 14.5130223 9.49443017 14.7358346 0.802957148 14.7358346 0 13.8851993 0 13.6091198 2.06022044 13.6091198 2.06022044 4.27175651 1.8477083 3.59497368 1.8477083 1.63492015"></polygon>
        <path d="M1.80798276,1.21590862 L1.80798276,13.5072582 C1.80798276,14.184801 2.3544931,14.7358346 3.02647329,14.7358346 L12.5959809,14.7358346 C13.2679611,14.7358346 13.8137754,14.184801 13.8137754,13.5072582 C13.8137754,13.3919917 13.7210641,13.2992236 13.6081448,13.2992236 L11.7895368,13.2999253 L11.7895368,4.06665892 L11.788823,1.00154052 C11.7853378,0.327506316 11.2402248,-0.219317674 10.5710284,-0.219317674 L1.00223469,-0.220021198 C0.330254495,-0.220021198 -0.21555988,0.331013144 -0.21555988,1.00785425 C-0.216257629,1.12312074 -0.123544492,1.21588883 -0.00992923081,1.21588883 L1.80798276,1.21590862 Z M3.93816853,14.3198201 C4.08525253,14.1518397 4.18702034,13.944505 4.22606572,13.7153647 L13.3731766,13.7153647 C13.2818589,14.0625748 12.967483,14.3198201 12.5952314,14.3198201 L3.93816853,14.3198201 Z M11.0707307,0.837651661 L10.6190321,0.519266267 C10.562568,0.479203146 10.4872843,0.479203146 10.4301225,0.519266267 L9.97771006,0.837651661 L9.42632797,0.848195534 C9.35731687,0.849600784 9.29597388,0.893881454 9.27366733,0.959947997 L9.09312708,1.48568424 L8.65327772,1.82094703 C8.5982091,1.86311892 8.57450706,1.93551179 8.59472393,2.00228006 L8.75505266,2.53433183 L8.59472393,3.0663836 C8.57450885,3.13315367 8.5982091,3.20484481 8.65327772,3.24771663 L9.09312708,3.58297942 L9.27366733,4.10801394 C9.29667162,4.17408228 9.35731687,4.21836115 9.42632797,4.2197664 L9.84039097,4.2281997 L9.84039097,6.16100326 C9.84039097,6.2298821 9.88151888,6.29103117 9.94495334,6.31563115 C9.96447246,6.32336272 9.98538351,6.32687674 10.0055986,6.32687674 C10.0509094,6.32687674 10.094127,6.30789957 10.1261931,6.27416277 L10.5242311,5.84472484 L10.9222691,6.27416277 C10.9682759,6.32336272 11.0400762,6.34023112 11.1035053,6.31563115 C11.166242,6.29032945 11.2080677,6.22918038 11.2080677,6.16100326 L11.2080677,4.22747998 L11.3767605,4.22396596 L11.3767605,13.2992542 L4.03719353,13.2992542 C3.92287338,13.2992542 3.83086691,13.392733 3.83086691,13.506587 C3.83086691,13.9543058 3.46978642,14.319077 3.02504746,14.319077 C2.58100446,14.319077 2.219228,13.9543058 2.219228,13.506587 L2.219228,1.00777868 C2.219228,0.696410538 2.10351235,0.412463666 1.9132179,0.195288662 L10.5702986,0.195288662 C10.9592712,0.195992187 11.284804,0.474323456 11.360093,0.843323041 L11.0707307,0.837651661 Z M1.00210977,0.195941806 C1.3750395,0.195941806 1.6887409,0.453187128 1.78005497,0.800397241 L0.224164569,0.800397241 C0.315482209,0.453187128 0.629162191,0.195941806 1.00210977,0.195941806 Z" id="path-21"></path>
        <polygon id="path-23" points="0 0 15 0 15 15 0 15"></polygon>
        <polygon id="path-25" points="2.0632721 0.820319323 2.49410475 0.0981884998 3.07142855 0.0981884998 12.8722258 0.0981884998 13.7175761 0.820319323 13.7175761 1.21592239 11.6137607 1.21592239 11.5175614 13.8851993 10.865938 14.5130223 9.49443017 14.7358346 0.802957148 14.7358346 0 13.8851993 0 13.6091198 2.06022044 13.6091198 2.06022044 4.27175651 1.8477083 3.59497368 1.8477083 1.63492015"></polygon>
        <path d="M1.80798276,1.21590862 L1.80798276,13.5072582 C1.80798276,14.184801 2.3544931,14.7358346 3.02647329,14.7358346 L12.5959809,14.7358346 C13.2679611,14.7358346 13.8137754,14.184801 13.8137754,13.5072582 C13.8137754,13.3919917 13.7210641,13.2992236 13.6081448,13.2992236 L11.7895368,13.2999253 L11.7895368,4.06665892 L11.788823,1.00154052 C11.7853378,0.327506316 11.2402248,-0.219317674 10.5710284,-0.219317674 L1.00223469,-0.220021198 C0.330254495,-0.220021198 -0.21555988,0.331013144 -0.21555988,1.00785425 C-0.216257629,1.12312074 -0.123544492,1.21588883 -0.00992923081,1.21588883 L1.80798276,1.21590862 Z M3.93816853,14.3198201 C4.08525253,14.1518397 4.18702034,13.944505 4.22606572,13.7153647 L13.3731766,13.7153647 C13.2818589,14.0625748 12.967483,14.3198201 12.5952314,14.3198201 L3.93816853,14.3198201 Z M11.0707307,0.837651661 L10.6190321,0.519266267 C10.562568,0.479203146 10.4872843,0.479203146 10.4301225,0.519266267 L9.97771006,0.837651661 L9.42632797,0.848195534 C9.35731687,0.849600784 9.29597388,0.893881454 9.27366733,0.959947997 L9.09312708,1.48568424 L8.65327772,1.82094703 C8.5982091,1.86311892 8.57450706,1.93551179 8.59472393,2.00228006 L8.75505266,2.53433183 L8.59472393,3.0663836 C8.57450885,3.13315367 8.5982091,3.20484481 8.65327772,3.24771663 L9.09312708,3.58297942 L9.27366733,4.10801394 C9.29667162,4.17408228 9.35731687,4.21836115 9.42632797,4.2197664 L9.84039097,4.2281997 L9.84039097,6.16100326 C9.84039097,6.2298821 9.88151888,6.29103117 9.94495334,6.31563115 C9.96447246,6.32336272 9.98538351,6.32687674 10.0055986,6.32687674 C10.0509094,6.32687674 10.094127,6.30789957 10.1261931,6.27416277 L10.5242311,5.84472484 L10.9222691,6.27416277 C10.9682759,6.32336272 11.0400762,6.34023112 11.1035053,6.31563115 C11.166242,6.29032945 11.2080677,6.22918038 11.2080677,6.16100326 L11.2080677,4.22747998 L11.3767605,4.22396596 L11.3767605,13.2992542 L4.03719353,13.2992542 C3.92287338,13.2992542 3.83086691,13.392733 3.83086691,13.506587 C3.83086691,13.9543058 3.46978642,14.319077 3.02504746,14.319077 C2.58100446,14.319077 2.219228,13.9543058 2.219228,13.506587 L2.219228,1.00777868 C2.219228,0.696410538 2.10351235,0.412463666 1.9132179,0.195288662 L10.5702986,0.195288662 C10.9592712,0.195992187 11.284804,0.474323456 11.360093,0.843323041 L11.0707307,0.837651661 Z M1.00210977,0.195941806 C1.3750395,0.195941806 1.6887409,0.453187128 1.78005497,0.800397241 L0.224164569,0.800397241 C0.315482209,0.453187128 0.629162191,0.195941806 1.00210977,0.195941806 Z" id="path-27"></path>
    </defs>
    <g id="Prototype" stroke="none" stroke-width="1" fill="none" fill-rule="evenodd" opacity="0.7">
        <g id="Artboard" transform="translate(-229.000000, -90.000000)">
            <g id="Icon-Img---Header" transform="translate(161.000000, -25.000000)">
                <g id="Group">
                    <g id="Group-3" transform="translate(0.415272, 0.377583)">
                        <g id="Group-2">
                            <path d="M304.899028,123.384618 C305.041814,123.090289 305.112539,122.721339 305.112539,122.352379 C305.112539,120.7315 303.831474,119.404942 302.266183,119.404942 C301.625651,119.404942 301.127915,119.626035 300.628812,119.920354 C299.917565,117.046143 297.42615,114.983078 294.436998,114.983078 C290.87803,114.983078 288.031674,117.930515 288.031674,121.615873 C288.031674,121.910203 288.031674,122.205927 288.102399,122.42702 C287.818164,122.353783 287.604663,122.353783 287.320403,122.353783 C285.328091,122.353783 283.761434,123.974661 283.761434,126.039141 C283.761434,128.102205 285.326725,129.724499 287.320403,129.724499 L306.180069,129.724499 C307.95887,129.724499 309.382731,128.250072 309.382731,126.408101 C309.382731,124.56475 307.95887,123.090324 306.180069,123.090324 C305.753071,123.090289 305.32605,123.163525 304.899028,123.384618 Z" id="Mask-Copy-3" fill="#FFFFFF"></path>
                            <path d="M297.0648,152.32801 C299.087235,153.818332 301.23613,154.88354 303.470124,155.662378 C303.470124,163.510956 300.093054,165.210256 297.0648,167.06943 C294.036546,165.210256 290.659476,163.510956 290.659476,155.662378 C292.89347,154.883628 295.042365,153.818297 297.0648,152.32801 Z" id="Mask-Copy-4" fill="#FFFFFF"></path>
                            <g id="ic/dashboard/grey600" transform="translate(325.149683, 150.362487)">
                                <g id="ic_dashboard_24px">
                                    <polygon id="Shape" points="0 0 19 0 19 20 0 20"></polygon>
                                    <path d="M2.375,10.8333333 L8.70833333,10.8333333 L8.70833333,2.5 L2.375,2.5 L2.375,10.8333333 Z M2.375,17.5 L8.70833333,17.5 L8.70833333,12.5 L2.375,12.5 L2.375,17.5 Z M10.2916667,17.5 L16.625,17.5 L16.625,9.16666667 L10.2916667,9.16666667 L10.2916667,17.5 Z M10.2916667,2.5 L10.2916667,7.5 L16.625,7.5 L16.625,2.5 L10.2916667,2.5 Z" id="Shape" fill="#FFFFFF" fill-rule="nonzero"></path>
                                </g>
                            </g>
                            <path d="M255.731298,165.595288 C255.731298,166.409434 255.044996,167.06943 254.1984,167.06943 C253.351804,167.06943 252.665502,166.409434 252.665502,165.595288 L255.731298,165.595288 L255.731298,165.595288 Z M254.1984,152.32801 C254.621698,152.32801 254.964849,152.658008 254.964849,153.065081 L254.964849,153.861117 C257.141564,154.214911 258.797094,156.035477 258.797094,158.224578 L258.797094,162.647004 L261.096441,164.858217 L247.300359,164.858217 L249.599706,162.647004 L249.599706,158.224578 C249.599706,156.035477 251.255236,154.214911 253.431951,153.861117 L253.431951,153.065081 C253.431951,152.658008 253.775102,152.32801 254.1984,152.32801 Z" id="Shape-Copy-2" fill="#FFFFFF" fill-rule="nonzero"></path>
                            <g id="Group-Copy-3" transform="translate(329.091421, 189.672941)">
                                <mask id="mask-2" fill="white">
                                    <use xlink:href="#path-1"></use>
                                </mask>
                                <use id="Mask" fill="#FFFFFF" xlink:href="#path-1"></use>
                                <mask id="mask-4" fill="white">
                                    <use xlink:href="#path-3"></use>
                                </mask>
                                <use id="Mask" fill="#FFFFFF" transform="translate(6.799106, 7.257907) scale(-1, 1) translate(-6.799106, -7.257907) " xlink:href="#path-3"></use>
                            </g>
                            <path d="M226.064269,198.074481 C226.207055,197.780151 226.27778,197.411202 226.27778,197.042241 C226.27778,195.421363 224.996715,194.094804 223.431425,194.094804 C222.790892,194.094804 222.293156,194.315897 221.794053,194.610217 C221.082806,191.736006 218.591391,189.672941 215.60224,189.672941 C212.043271,189.672941 209.196916,192.620378 209.196916,196.305736 C209.196916,196.600066 209.196916,196.895789 209.267641,197.116883 C208.983405,197.043646 208.769904,197.043646 208.485645,197.043646 C206.493333,197.043646 204.926676,198.664524 204.926676,200.729004 C204.926676,202.792068 206.491966,204.414361 208.485645,204.414361 L227.34531,204.414361 C229.124111,204.414361 230.547972,202.939935 230.547972,201.097964 C230.547972,199.254613 229.124111,197.780187 227.34531,197.780187 C226.918313,197.780151 226.491291,197.853388 226.064269,198.074481 Z" id="Mask-Copy-9" fill="#FFFFFF"></path>
                            <g id="ic/gavel/grey600" transform="translate(287.703172, 189.672941)">
                                <g id="ic_gavel_24px">
                                    <mask id="mask-6" fill="white">
                                        <use xlink:href="#path-5"></use>
                                    </mask>
                                    <g id="a"></g>
                                    <path d="M0.625,13.125 L8.125,13.125 L8.125,14.375 L0.625,14.375 L0.625,13.125 Z M3.278125,5.04375 L5.046875,3.276875 L13.884375,12.115625 L12.116875,13.883125 L3.278125,5.04375 Z M7.698125,0.625 L11.23375,4.16 L9.465,5.92875 L5.93125,2.39125 L7.698125,0.625 Z M2.390625,5.928125 L5.92625,9.46375 L4.15875,11.23125 L0.623125,7.695625 L2.390625,5.928125 Z" id="Shape" fill="#FFFFFF" fill-rule="nonzero" mask="url(#mask-6)"></path>
                                </g>
                            </g>
                            <g id="ic/build/grey600" transform="translate(248.285793, 189.672941)">
                                <g id="ic_build_24px">
                                    <polygon id="Shape" points="0 0 15 0 15 15 0 15"></polygon>
                                    <path d="M14.1875,11.875 L8.5,6.1875 C9.0625,4.75 8.75,3.0625 7.5625,1.875 C6.3125,0.625 4.4375,0.375 2.9375,1.0625 L5.625,3.75 L3.75,5.625 L1,2.9375 C0.25,4.4375 0.5625,6.3125 1.8125,7.5625 C3,8.75 4.6875,9.0625 6.125,8.5 L11.8125,14.1875 C12.0625,14.4375 12.4375,14.4375 12.6875,14.1875 L14.125,12.75 C14.4375,12.5 14.4375,12.0625 14.1875,11.875 Z" id="Shape" fill="#FFFFFF" fill-rule="nonzero"></path>
                                </g>
                            </g>
                        </g>
                        <g id="Group-2-Copy-2" transform="translate(65.000000, 224.968710)">
                            <path d="M52.7792916,122.544156 L45.6267969,115.411064 C45.3880753,115.12574 45.0072192,114.983078 44.6254477,114.983078 L39.857423,114.983078 C39.0465018,114.983078 38.4269241,115.600975 38.4269241,116.409697 L38.4269241,121.164787 C38.4269241,121.545523 38.569974,121.925346 38.8560738,122.16342 L46.0085685,129.296513 C46.2946683,129.581837 46.6764398,129.724499 47.0099177,129.724499 C47.3433957,129.724499 47.7251672,129.581837 48.011267,129.296513 L52.7792916,124.541422 C53.3514912,124.018024 53.3514912,123.067554 52.7792916,122.544156 Z M40.8259407,118.024959 C40.4489597,118.024959 40.1407,117.717535 40.1407,117.341577 C40.1407,116.965618 40.4489597,116.658195 40.8259407,116.658195 C41.2029218,116.658195 41.5111815,116.965618 41.5111815,117.341577 C41.5111815,117.717535 41.2029218,118.024959 40.8259407,118.024959 Z" id="Mask-Copy-2" fill="#FFFFFF"></path>
                            <g id="Group" transform="translate(144.853848, 2.948284)">
                                <mask id="mask-8" fill="white">
                                    <use xlink:href="#path-7"></use>
                                </mask>
                                <use id="Mask" fill="#FFFFFF" xlink:href="#path-7"></use>
                                <mask id="mask-10" fill="white">
                                    <use xlink:href="#path-9"></use>
                                </mask>
                                <use id="Mask" fill="#FFFFFF" transform="translate(6.799106, 7.257907) scale(-1, 1) translate(-6.799106, -7.257907) " xlink:href="#path-9"></use>
                            </g>
                            <g id="Group-Copy" transform="translate(144.853848, 114.983078)">
                                <mask id="mask-12" fill="white">
                                    <use xlink:href="#path-11"></use>
                                </mask>
                                <use id="Mask" fill="#FFFFFF" xlink:href="#path-11"></use>
                                <mask id="mask-14" fill="white">
                                    <use xlink:href="#path-13"></use>
                                </mask>
                                <use id="Mask" fill="#FFFFFF" transform="translate(6.799106, 7.257907) scale(-1, 1) translate(-6.799106, -7.257907) " xlink:href="#path-13"></use>
                            </g>
                            <path d="M239.899028,11.3498243 C240.041814,11.0554944 240.112539,10.6865448 240.112539,10.3175845 C240.112539,8.69670631 238.831474,7.37014733 237.266183,7.37014733 C236.625651,7.37014733 236.127915,7.59124049 235.628812,7.88555971 C234.917565,5.01134858 232.42615,2.94828406 229.436998,2.94828406 C225.87803,2.94828406 223.031674,5.89572124 223.031674,9.58107896 C223.031674,9.8754088 223.031674,10.1711324 223.102399,10.3922256 C222.818164,10.3189889 222.604663,10.3189889 222.320403,10.3189889 C220.328091,10.3189889 218.761434,11.9398671 218.761434,14.0043466 C218.761434,16.0674111 220.326725,17.6897043 222.320403,17.6897043 L241.180069,17.6897043 C242.95887,17.6897043 244.382731,16.2152783 244.382731,14.3733069 C244.382731,12.5299559 242.95887,11.0555298 241.180069,11.0555298 C240.753071,11.0554944 240.32605,11.1287311 239.899028,11.3498243 Z" id="Mask" fill="#FFFFFF"></path>
                            <path d="M239.899028,123.384618 C240.041814,123.090289 240.112539,122.721339 240.112539,122.352379 C240.112539,120.7315 238.831474,119.404942 237.266183,119.404942 C236.625651,119.404942 236.127915,119.626035 235.628812,119.920354 C234.917565,117.046143 232.42615,114.983078 229.436998,114.983078 C225.87803,114.983078 223.031674,117.930515 223.031674,121.615873 C223.031674,121.910203 223.031674,122.205927 223.102399,122.42702 C222.818164,122.353783 222.604663,122.353783 222.320403,122.353783 C220.328091,122.353783 218.761434,123.974661 218.761434,126.039141 C218.761434,128.102205 220.326725,129.724499 222.320403,129.724499 L241.180069,129.724499 C242.95887,129.724499 244.382731,128.250072 244.382731,126.408101 C244.382731,124.56475 242.95887,123.090324 241.180069,123.090324 C240.753071,123.090289 240.32605,123.163525 239.899028,123.384618 Z" id="Mask-Copy-3" fill="#FFFFFF"></path>
                            <g id="ic/gavel/grey600" transform="translate(110.363641, 2.948284)">
                                <g id="ic_gavel_24px">
                                    <mask id="mask-16" fill="white">
                                        <use xlink:href="#path-15"></use>
                                    </mask>
                                    <g id="a"></g>
                                    <path d="M0.625,13.125 L8.125,13.125 L8.125,14.375 L0.625,14.375 L0.625,13.125 Z M3.278125,5.04375 L5.046875,3.276875 L13.884375,12.115625 L12.116875,13.883125 L3.278125,5.04375 Z M7.698125,0.625 L11.23375,4.16 L9.465,5.92875 L5.93125,2.39125 L7.698125,0.625 Z M2.390625,5.928125 L5.92625,9.46375 L4.15875,11.23125 L0.623125,7.695625 L2.390625,5.928125 Z" id="Shape" fill="#FFFFFF" fill-rule="nonzero" mask="url(#mask-16)"></path>
                                </g>
                            </g>
                            <g id="ic/gavel/grey600" transform="translate(110.363641, 114.983078)">
                                <g id="ic_gavel_24px">
                                    <mask id="mask-18" fill="white">
                                        <use xlink:href="#path-17"></use>
                                    </mask>
                                    <g id="a"></g>
                                    <path d="M0.625,13.125 L8.125,13.125 L8.125,14.375 L0.625,14.375 L0.625,13.125 Z M3.278125,5.04375 L5.046875,3.276875 L13.884375,12.115625 L12.116875,13.883125 L3.278125,5.04375 Z M7.698125,0.625 L11.23375,4.16 L9.465,5.92875 L5.93125,2.39125 L7.698125,0.625 Z M2.390625,5.928125 L5.92625,9.46375 L4.15875,11.23125 L0.623125,7.695625 L2.390625,5.928125 Z" id="Shape" fill="#FFFFFF" fill-rule="nonzero" mask="url(#mask-18)"></path>
                                </g>
                            </g>
                            <g id="ic/storage/grey600" transform="translate(178.358621, 0.000000)">
                                <g id="ic_storage_24px">
                                    <polygon id="Shape" points="0 0 22 0 22 22 0 22"></polygon>
                                    <path d="M1.83333333,18.3333333 L20.1666667,18.3333333 L20.1666667,14.6666667 L1.83333333,14.6666667 L1.83333333,18.3333333 Z M3.66666667,15.5833333 L5.5,15.5833333 L5.5,17.4166667 L3.66666667,17.4166667 L3.66666667,15.5833333 Z M1.83333333,3.66666667 L1.83333333,7.33333333 L20.1666667,7.33333333 L20.1666667,3.66666667 L1.83333333,3.66666667 Z M5.5,6.41666667 L3.66666667,6.41666667 L3.66666667,4.58333333 L5.5,4.58333333 L5.5,6.41666667 Z M1.83333333,12.8333333 L20.1666667,12.8333333 L20.1666667,9.16666667 L1.83333333,9.16666667 L1.83333333,12.8333333 Z M3.66666667,10.0833333 L5.5,10.0833333 L5.5,11.9166667 L3.66666667,11.9166667 L3.66666667,10.0833333 Z" id="Shape" fill="#FFFFFF" fill-rule="nonzero"></path>
                                </g>
                            </g>
                            <g id="ic/storage/grey600" transform="translate(178.358621, 112.034794)">
                                <g id="ic_storage_24px">
                                    <polygon id="Shape" points="0 0 22 0 22 22 0 22"></polygon>
                                    <path d="M1.83333333,18.3333333 L20.1666667,18.3333333 L20.1666667,14.6666667 L1.83333333,14.6666667 L1.83333333,18.3333333 Z M3.66666667,15.5833333 L5.5,15.5833333 L5.5,17.4166667 L3.66666667,17.4166667 L3.66666667,15.5833333 Z M1.83333333,3.66666667 L1.83333333,7.33333333 L20.1666667,7.33333333 L20.1666667,3.66666667 L1.83333333,3.66666667 Z M5.5,6.41666667 L3.66666667,6.41666667 L3.66666667,4.58333333 L5.5,4.58333333 L5.5,6.41666667 Z M1.83333333,12.8333333 L20.1666667,12.8333333 L20.1666667,9.16666667 L1.83333333,9.16666667 L1.83333333,12.8333333 Z M3.66666667,10.0833333 L5.5,10.0833333 L5.5,11.9166667 L3.66666667,11.9166667 L3.66666667,10.0833333 Z" id="Shape" fill="#FFFFFF" fill-rule="nonzero"></path>
                                </g>
                            </g>
                            <g id="ic/build/grey600" transform="translate(264.091421, 2.948284)">
                                <g id="ic_build_24px">
                                    <polygon id="Shape" points="0 0 15 0 15 15 0 15"></polygon>
                                    <path d="M14.1875,11.875 L8.5,6.1875 C9.0625,4.75 8.75,3.0625 7.5625,1.875 C6.3125,0.625 4.4375,0.375 2.9375,1.0625 L5.625,3.75 L3.75,5.625 L1,2.9375 C0.25,4.4375 0.5625,6.3125 1.8125,7.5625 C3,8.75 4.6875,9.0625 6.125,8.5 L11.8125,14.1875 C12.0625,14.4375 12.4375,14.4375 12.6875,14.1875 L14.125,12.75 C14.4375,12.5 14.4375,12.0625 14.1875,11.875 Z" id="Shape" fill="#FFFFFF" fill-rule="nonzero"></path>
                                </g>
                            </g>
                            <g id="ic/build/grey600" transform="translate(264.091421, 114.983078)">
                                <g id="ic_build_24px">
                                    <polygon id="Shape" points="0 0 15 0 15 15 0 15"></polygon>
                                    <path d="M14.1875,11.875 L8.5,6.1875 C9.0625,4.75 8.75,3.0625 7.5625,1.875 C6.3125,0.625 4.4375,0.375 2.9375,1.0625 L5.625,3.75 L3.75,5.625 L1,2.9375 C0.25,4.4375 0.5625,6.3125 1.8125,7.5625 C3,8.75 4.6875,9.0625 6.125,8.5 L11.8125,14.1875 C12.0625,14.4375 12.4375,14.4375 12.6875,14.1875 L14.125,12.75 C14.4375,12.5 14.4375,12.0625 14.1875,11.875 Z" id="Shape" fill="#FFFFFF" fill-rule="nonzero"></path>
                                </g>
                            </g>
                            <g id="ic/dashboard/grey600" transform="translate(72.917131, 113.017556)">
                                <g id="ic_dashboard_24px">
                                    <polygon id="Shape" points="0 0 19 0 19 20 0 20"></polygon>
                                    <path d="M2.375,10.8333333 L8.70833333,10.8333333 L8.70833333,2.5 L2.375,2.5 L2.375,10.8333333 Z M2.375,17.5 L8.70833333,17.5 L8.70833333,12.5 L2.375,12.5 L2.375,17.5 Z M10.2916667,17.5 L16.625,17.5 L16.625,9.16666667 L10.2916667,9.16666667 L10.2916667,17.5 Z M10.2916667,2.5 L10.2916667,7.5 L16.625,7.5 L16.625,2.5 L10.2916667,2.5 Z" id="Shape" fill="#FFFFFF" fill-rule="nonzero"></path>
                                </g>
                            </g>
                            <g id="ic/layers/grey600" transform="translate(0.980414, 114.000317)">
                                <g id="ic_layers_24px">
                                    <polygon id="Shape" points="0 0 19 0 19 20 0 20"></polygon>
                                    <path d="M9.49208333,15.45 L3.6575,10.675 L2.375,11.725 L9.5,17.5583333 L16.625,11.725 L15.3345833,10.6666667 L9.49208333,15.45 Z M9.5,13.3333333 L15.3266667,8.55833333 L16.625,7.5 L9.5,1.66666667 L2.375,7.5 L3.66541667,8.55833333 L9.5,13.3333333 Z" id="Shape" fill="#FFFFFF" fill-rule="nonzero"></path>
                                </g>
                            </g>
                            <path d="M232.0648,41.2759768 C234.087235,42.7662993 236.23613,43.8315073 238.470124,44.6103457 C238.470124,52.4589235 235.093054,54.1582232 232.0648,56.0173971 C229.036546,54.1582232 225.659476,52.4589235 225.659476,44.6103457 C227.89347,43.831595 230.042365,42.7662642 232.0648,41.2759768 Z" id="Mask" fill="#FFFFFF"></path>
                            <path d="M124.716009,48.8370549 L117.563514,41.7039624 C117.324792,41.4186387 116.943936,41.2759768 116.562165,41.2759768 L111.79414,41.2759768 C110.983219,41.2759768 110.363641,41.8938738 110.363641,42.7025953 L110.363641,47.457686 C110.363641,47.838422 110.506691,48.2182449 110.792791,48.456319 L117.945286,55.5894115 C118.231385,55.8747352 118.613157,56.0173971 118.946635,56.0173971 C119.280113,56.0173971 119.661884,55.8747352 119.947984,55.5894115 L124.716009,50.8343208 C125.288208,50.310923 125.288208,49.3604527 124.716009,48.8370549 Z M112.762658,44.3178572 C112.385677,44.3178572 112.077417,44.0104337 112.077417,43.6344752 C112.077417,43.2585167 112.385677,42.9510932 112.762658,42.9510932 C113.139639,42.9510932 113.447899,43.2585167 113.447899,43.6344752 C113.447899,44.0104337 113.139639,44.3178572 112.762658,44.3178572 Z" id="Mask" fill="#FFFFFF"></path>
                            <path d="M91.0984211,49.677517 C91.2412069,49.3831872 91.3119319,49.0142375 91.3119319,48.6452773 C91.3119319,47.0243991 90.0308671,45.6978401 88.4655766,45.6978401 C87.8250442,45.6978401 87.3273078,45.9189332 86.828205,46.2132525 C86.1169578,43.3390413 83.6255429,41.2759768 80.6363917,41.2759768 C77.0774228,41.2759768 74.2310675,44.223414 74.2310675,47.9087717 C74.2310675,48.2031015 74.2310675,48.4988251 74.3017925,48.7199183 C74.0175567,48.6466816 73.8040562,48.6466816 73.5197964,48.6466816 C71.5274844,48.6466816 69.9608275,50.2675598 69.9608275,52.3320394 C69.9608275,54.3951039 71.5261179,56.0173971 73.5197964,56.0173971 L92.379462,56.0173971 C94.1582632,56.0173971 95.5821241,54.542971 95.5821241,52.7009996 C95.5821241,50.8576486 94.1582632,49.3832226 92.379462,49.3832226 C91.9524643,49.3831872 91.5254427,49.4564239 91.0984211,49.677517 Z" id="Mask" fill="#FFFFFF"></path>
                            <g id="ic/dashboard/grey600" transform="translate(260.149683, 39.310454)">
                                <g id="ic_dashboard_24px">
                                    <polygon id="Shape" points="0 0 19 0 19 20 0 20"></polygon>
                                    <path d="M2.375,10.8333333 L8.70833333,10.8333333 L8.70833333,2.5 L2.375,2.5 L2.375,10.8333333 Z M2.375,17.5 L8.70833333,17.5 L8.70833333,12.5 L2.375,12.5 L2.375,17.5 Z M10.2916667,17.5 L16.625,17.5 L16.625,9.16666667 L10.2916667,9.16666667 L10.2916667,17.5 Z M10.2916667,2.5 L10.2916667,7.5 L16.625,7.5 L16.625,2.5 L10.2916667,2.5 Z" id="Shape" fill="#FFFFFF" fill-rule="nonzero"></path>
                                </g>
                            </g>
                            <g id="ic/layers/grey600" transform="translate(142.882979, 39.310454)">
                                <g id="ic_layers_24px">
                                    <polygon id="Shape" points="0 0 19 0 19 20 0 20"></polygon>
                                    <path d="M9.49208333,15.45 L3.6575,10.675 L2.375,11.725 L9.5,17.5583333 L16.625,11.725 L15.3345833,10.6666667 L9.49208333,15.45 Z M9.5,13.3333333 L15.3266667,8.55833333 L16.625,7.5 L9.5,1.66666667 L2.375,7.5 L3.66541667,8.55833333 L9.5,13.3333333 Z" id="Shape" fill="#FFFFFF" fill-rule="nonzero"></path>
                                </g>
                            </g>
                            <path d="M190.731298,54.5432551 C190.731298,55.3574012 190.044996,56.0173971 189.1984,56.0173971 C188.351804,56.0173971 187.665502,55.3574012 187.665502,54.5432551 L190.731298,54.5432551 L190.731298,54.5432551 Z M189.1984,41.2759768 C189.621698,41.2759768 189.964849,41.6059747 189.964849,42.0130478 L189.964849,42.8090845 C192.141564,43.1628786 193.797094,44.983444 193.797094,47.1725449 L193.797094,51.594971 L196.096441,53.806184 L182.300359,53.806184 L184.599706,51.594971 L184.599706,47.1725449 C184.599706,44.983444 186.255236,43.1628786 188.431951,42.8090845 L188.431951,42.0130478 C188.431951,41.6059747 188.775102,41.2759768 189.1984,41.2759768 Z" id="Shape" fill="#FFFFFF" fill-rule="nonzero"></path>
                            <path d="M82.2787585,77.6381468 C84.3011939,79.1284693 86.4500886,80.1936773 88.6840827,80.9725157 C88.6840827,88.8210936 85.3070128,90.5203932 82.2787585,92.3795671 C79.2505043,90.5203932 75.8734344,88.8210936 75.8734344,80.9725157 C78.1074285,80.1937651 80.2563232,79.1284342 82.2787585,77.6381468 Z" id="Mask" fill="#FFFFFF"></path>
                            <g id="Group" transform="translate(264.091421, 77.638147)">
                                <mask id="mask-20" fill="white">
                                    <use xlink:href="#path-19"></use>
                                </mask>
                                <use id="Mask" fill="#FFFFFF" xlink:href="#path-19"></use>
                                <mask id="mask-22" fill="white">
                                    <use xlink:href="#path-21"></use>
                                </mask>
                                <use id="Mask" fill="#FFFFFF" transform="translate(6.799106, 7.257907) scale(-1, 1) translate(-6.799106, -7.257907) " xlink:href="#path-21"></use>
                            </g>
                            <path d="M161.064269,86.0396871 C161.207055,85.7453572 161.27778,85.3764076 161.27778,85.0074473 C161.27778,83.3865691 159.996715,82.0600101 158.431425,82.0600101 C157.790892,82.0600101 157.293156,82.2811033 156.794053,82.5754225 C156.082806,79.7012114 153.591391,77.6381468 150.60224,77.6381468 C147.043271,77.6381468 144.196916,80.585584 144.196916,84.2709417 C144.196916,84.5652716 144.196916,84.8609952 144.267641,85.0820883 C143.983405,85.0088517 143.769904,85.0088517 143.485645,85.0088517 C141.493333,85.0088517 139.926676,86.6297299 139.926676,88.6942094 C139.926676,90.7572739 141.491966,92.3795671 143.485645,92.3795671 L162.34531,92.3795671 C164.124111,92.3795671 165.547972,90.905141 165.547972,89.0631697 C165.547972,87.2198187 164.124111,85.7453926 162.34531,85.7453926 C161.918313,85.7453572 161.491291,85.8185939 161.064269,86.0396871 Z" id="Mask" fill="#FFFFFF"></path>
                            <g id="ic/gavel/grey600" transform="translate(222.703172, 77.638147)">
                                <g id="ic_gavel_24px">
                                    <mask id="mask-24" fill="white">
                                        <use xlink:href="#path-23"></use>
                                    </mask>
                                    <g id="a"></g>
                                    <path d="M0.625,13.125 L8.125,13.125 L8.125,14.375 L0.625,14.375 L0.625,13.125 Z M3.278125,5.04375 L5.046875,3.276875 L13.884375,12.115625 L12.116875,13.883125 L3.278125,5.04375 Z M7.698125,0.625 L11.23375,4.16 L9.465,5.92875 L5.93125,2.39125 L7.698125,0.625 Z M2.390625,5.928125 L5.92625,9.46375 L4.15875,11.23125 L0.623125,7.695625 L2.390625,5.928125 Z" id="Shape" fill="#FFFFFF" fill-rule="nonzero" mask="url(#mask-24)"></path>
                                </g>
                            </g>
                            <g id="ic/storage/grey600" transform="translate(33.499752, 74.689863)">
                                <g id="ic_storage_24px">
                                    <polygon id="Shape" points="0 0 22 0 22 22 0 22"></polygon>
                                    <path d="M1.83333333,18.3333333 L20.1666667,18.3333333 L20.1666667,14.6666667 L1.83333333,14.6666667 L1.83333333,18.3333333 Z M3.66666667,15.5833333 L5.5,15.5833333 L5.5,17.4166667 L3.66666667,17.4166667 L3.66666667,15.5833333 Z M1.83333333,3.66666667 L1.83333333,7.33333333 L20.1666667,7.33333333 L20.1666667,3.66666667 L1.83333333,3.66666667 Z M5.5,6.41666667 L3.66666667,6.41666667 L3.66666667,4.58333333 L5.5,4.58333333 L5.5,6.41666667 Z M1.83333333,12.8333333 L20.1666667,12.8333333 L20.1666667,9.16666667 L1.83333333,9.16666667 L1.83333333,12.8333333 Z M3.66666667,10.0833333 L5.5,10.0833333 L5.5,11.9166667 L3.66666667,11.9166667 L3.66666667,10.0833333 Z" id="Shape" fill="#FFFFFF" fill-rule="nonzero"></path>
                                </g>
                            </g>
                            <g id="ic/build/grey600" transform="translate(183.285793, 77.638147)">
                                <g id="ic_build_24px">
                                    <polygon id="Shape" points="0 0 15 0 15 15 0 15"></polygon>
                                    <path d="M14.1875,11.875 L8.5,6.1875 C9.0625,4.75 8.75,3.0625 7.5625,1.875 C6.3125,0.625 4.4375,0.375 2.9375,1.0625 L5.625,3.75 L3.75,5.625 L1,2.9375 C0.25,4.4375 0.5625,6.3125 1.8125,7.5625 C3,8.75 4.6875,9.0625 6.125,8.5 L11.8125,14.1875 C12.0625,14.4375 12.4375,14.4375 12.6875,14.1875 L14.125,12.75 C14.4375,12.5 14.4375,12.0625 14.1875,11.875 Z" id="Shape" fill="#FFFFFF" fill-rule="nonzero"></path>
                                </g>
                            </g>
                            <path d="M119.780015,90.9054251 C119.780015,91.7195713 119.093713,92.3795671 118.247117,92.3795671 C117.400521,92.3795671 116.714219,91.7195713 116.714219,90.9054251 L119.780015,90.9054251 L119.780015,90.9054251 Z M118.247117,77.6381468 C118.670415,77.6381468 119.013566,77.9681448 119.013566,78.3752179 L119.013566,79.1712545 C121.190281,79.5250486 122.845811,81.345614 122.845811,83.534715 L122.845811,87.957141 L125.145159,90.1683541 L111.349076,90.1683541 L113.648423,87.957141 L113.648423,83.534715 C113.648423,81.345614 115.303953,79.5250486 117.480668,79.1712545 L117.480668,78.3752179 C117.480668,77.9681448 117.823819,77.6381468 118.247117,77.6381468 Z" id="Shape" fill="#FFFFFF" fill-rule="nonzero"></path>
                        </g>
                        <g id="Group-2-Copy" transform="translate(363.604462, 0.000000)" fill="#FFFFFF">
                            <path d="M15.308671,197.234019 L8.15617629,190.100927 C7.91745462,189.815603 7.53659858,189.672941 7.15482703,189.672941 L2.38680239,189.672941 C1.57588115,189.672941 0.956303447,190.290838 0.956303447,191.09956 L0.956303447,195.85465 C0.956303447,196.235386 1.09935334,196.615209 1.38545313,196.853283 L8.53794784,203.986376 C8.82404763,204.271699 9.20581919,204.414361 9.5392971,204.414361 C9.87277502,204.414361 10.2545466,204.271699 10.5406464,203.986376 L15.308671,199.231285 C15.8808706,198.707887 15.8808706,197.757417 15.308671,197.234019 Z M3.35532011,192.714821 C2.97833904,192.714821 2.67007933,192.407398 2.67007933,192.031439 C2.67007933,191.655481 2.97833904,191.348057 3.35532011,191.348057 C3.73230118,191.348057 4.04056089,191.655481 4.04056089,192.031439 C4.04056089,192.407398 3.73230118,192.714821 3.35532011,192.714821 Z" id="Mask-Copy-8"></path>
                        </g>
                        <g id="Group-2-Copy-3" transform="translate(361.604462, 226.968710)">
                            <path d="M43.8518345,0.948284057 C45.8742698,2.43860655 48.0231645,3.50381456 50.2571586,4.28265293 C50.2571586,12.1312308 46.8800887,13.8305305 43.8518345,15.6897043 C40.8235802,13.8305305 37.4465103,12.1312308 37.4465103,4.28265293 C39.6805044,3.50390231 41.8293991,2.43857145 43.8518345,0.948284057 Z" id="Mask" fill="#FFFFFF"></path>
                            <path d="M43.8518345,112.983078 C45.8742698,114.473401 48.0231645,115.538609 50.2571586,116.317447 C50.2571586,124.166025 46.8800887,125.865325 43.8518345,127.724499 C40.8235802,125.865325 37.4465103,124.166025 37.4465103,116.317447 C39.6805044,115.538696 41.8293991,114.473366 43.8518345,112.983078 Z" id="Mask-Copy" fill="#FFFFFF"></path>
                            <path d="M120.779292,120.544156 L113.626797,113.411064 C113.388075,113.12574 113.007219,112.983078 112.625448,112.983078 L107.857423,112.983078 C107.046502,112.983078 106.426924,113.600975 106.426924,114.409697 L106.426924,119.164787 C106.426924,119.545523 106.569974,119.925346 106.856074,120.16342 L114.008568,127.296513 C114.294668,127.581837 114.67644,127.724499 115.009918,127.724499 C115.343396,127.724499 115.725167,127.581837 116.011267,127.296513 L120.779292,122.541422 C121.351491,122.018024 121.351491,121.067554 120.779292,120.544156 Z M108.825941,116.024959 C108.44896,116.024959 108.1407,115.717535 108.1407,115.341577 C108.1407,114.965618 108.44896,114.658195 108.825941,114.658195 C109.202922,114.658195 109.511182,114.965618 109.511182,115.341577 C109.511182,115.717535 109.202922,116.024959 108.825941,116.024959 Z" id="Mask-Copy-2" fill="#FFFFFF"></path>
                            <g id="ic/dashboard/grey600" transform="translate(140.917131, 111.017556)">
                                <g id="ic_dashboard_24px">
                                    <polygon id="Shape" points="0 0 19 0 19 20 0 20"></polygon>
                                    <path d="M2.375,10.8333333 L8.70833333,10.8333333 L8.70833333,2.5 L2.375,2.5 L2.375,10.8333333 Z M2.375,17.5 L8.70833333,17.5 L8.70833333,12.5 L2.375,12.5 L2.375,17.5 Z M10.2916667,17.5 L16.625,17.5 L16.625,9.16666667 L10.2916667,9.16666667 L10.2916667,17.5 Z M10.2916667,2.5 L10.2916667,7.5 L16.625,7.5 L16.625,2.5 L10.2916667,2.5 Z" id="Shape" fill="#FFFFFF" fill-rule="nonzero"></path>
                                </g>
                            </g>
                            <g id="ic/layers/grey600" transform="translate(68.980414, 112.000317)">
                                <g id="ic_layers_24px">
                                    <polygon id="Shape" points="0 0 19 0 19 20 0 20"></polygon>
                                    <path d="M9.49208333,15.45 L3.6575,10.675 L2.375,11.725 L9.5,17.5583333 L16.625,11.725 L15.3345833,10.6666667 L9.49208333,15.45 Z M9.5,13.3333333 L15.3266667,8.55833333 L16.625,7.5 L9.5,1.66666667 L2.375,7.5 L3.66541667,8.55833333 L9.5,13.3333333 Z" id="Shape" fill="#FFFFFF" fill-rule="nonzero"></path>
                                </g>
                            </g>
                            <path d="M12.3726774,14.2155623 C12.3726774,15.0297085 11.6863755,15.6897043 10.8397793,15.6897043 C9.99318307,15.6897043 9.30688122,15.0297085 9.30688122,14.2155623 L12.3726774,14.2155623 L12.3726774,14.2155623 Z M10.8397793,0.948284057 C11.2630774,0.948284057 11.6062283,1.27828199 11.6062283,1.68535507 L11.6062283,2.48139177 C13.7829436,2.83518585 15.4384736,4.65575126 15.4384736,6.84485217 L15.4384736,11.2672783 L17.7378207,13.4784913 L3.94173793,13.4784913 L6.24108505,11.2672783 L6.24108505,6.84485217 C6.24108505,4.65575126 7.89661498,2.83518585 10.0733303,2.48139177 L10.0733303,1.68535507 C10.0733303,1.27828199 10.4164812,0.948284057 10.8397793,0.948284057 Z" id="Shape" fill="#FFFFFF" fill-rule="nonzero"></path>
                            <path d="M12.3726774,126.250356 C12.3726774,127.064503 11.6863755,127.724499 10.8397793,127.724499 C9.99318307,127.724499 9.30688122,127.064503 9.30688122,126.250356 L12.3726774,126.250356 L12.3726774,126.250356 Z M10.8397793,112.983078 C11.2630774,112.983078 11.6062283,113.313076 11.6062283,113.720149 L11.6062283,114.516186 C13.7829436,114.86998 15.4384736,116.690545 15.4384736,118.879646 L15.4384736,123.302072 L17.7378207,125.513285 L3.94173793,125.513285 L6.24108505,123.302072 L6.24108505,118.879646 C6.24108505,116.690545 7.89661498,114.86998 10.0733303,114.516186 L10.0733303,113.720149 C10.0733303,113.313076 10.4164812,112.983078 10.8397793,112.983078 Z" id="Shape-Copy" fill="#FFFFFF" fill-rule="nonzero"></path>
                            <g id="Group" transform="translate(70.951283, 39.275977)">
                                <mask id="mask-26" fill="white">
                                    <use xlink:href="#path-25"></use>
                                </mask>
                                <use id="Mask" fill="#FFFFFF" xlink:href="#path-25"></use>
                                <mask id="mask-28" fill="white">
                                    <use xlink:href="#path-27"></use>
                                </mask>
                                <use id="Mask" fill="#FFFFFF" transform="translate(6.799106, 7.257907) scale(-1, 1) translate(-6.799106, -7.257907) " xlink:href="#path-27"></use>
                            </g>
                            <g id="ic/storage/grey600" transform="translate(0.000000, 35.344931)">
                                <g id="ic_storage_24px">
                                    <polygon id="Shape" points="0 0 22 0 22 22 0 22"></polygon>
                                    <path d="M1.83333333,18.3333333 L20.1666667,18.3333333 L20.1666667,14.6666667 L1.83333333,14.6666667 L1.83333333,18.3333333 Z M3.66666667,15.5833333 L5.5,15.5833333 L5.5,17.4166667 L3.66666667,17.4166667 L3.66666667,15.5833333 Z M1.83333333,3.66666667 L1.83333333,7.33333333 L20.1666667,7.33333333 L20.1666667,3.66666667 L1.83333333,3.66666667 Z M5.5,6.41666667 L3.66666667,6.41666667 L3.66666667,4.58333333 L5.5,4.58333333 L5.5,6.41666667 Z M1.83333333,12.8333333 L20.1666667,12.8333333 L20.1666667,9.16666667 L1.83333333,9.16666667 L1.83333333,12.8333333 Z M3.66666667,10.0833333 L5.5,10.0833333 L5.5,11.9166667 L3.66666667,11.9166667 L3.66666667,10.0833333 Z" id="Shape" fill="#FFFFFF" fill-rule="nonzero"></path>
                                </g>
                            </g>
                            <g id="ic/build/grey600" transform="translate(37.446510, 39.275977)">
                                <g id="ic_build_24px">
                                    <polygon id="Shape" points="0 0 15 0 15 15 0 15"></polygon>
                                    <path d="M14.1875,11.875 L8.5,6.1875 C9.0625,4.75 8.75,3.0625 7.5625,1.875 C6.3125,0.625 4.4375,0.375 2.9375,1.0625 L5.625,3.75 L3.75,5.625 L1,2.9375 C0.25,4.4375 0.5625,6.3125 1.8125,7.5625 C3,8.75 4.6875,9.0625 6.125,8.5 L11.8125,14.1875 C12.0625,14.4375 12.4375,14.4375 12.6875,14.1875 L14.125,12.75 C14.4375,12.5 14.4375,12.0625 14.1875,11.875 Z" id="Shape" fill="#FFFFFF" fill-rule="nonzero"></path>
                                </g>
                            </g>
                            <path d="M17.308671,83.199225 L10.1561763,76.0661324 C9.91745462,75.7808087 9.53659858,75.6381468 9.15482703,75.6381468 L4.38680239,75.6381468 C3.57588115,75.6381468 2.95630345,76.2560438 2.95630345,77.0647654 L2.95630345,81.819856 C2.95630345,82.200592 3.09935334,82.5804149 3.38545313,82.818489 L10.5379478,89.9515816 C10.8240476,90.2369053 11.2058192,90.3795671 11.5392971,90.3795671 C11.872775,90.3795671 12.2545466,90.2369053 12.5406464,89.9515816 L17.308671,85.1964909 C17.8808706,84.6730931 17.8808706,83.7226228 17.308671,83.199225 Z M5.35532011,78.6800272 C4.97833904,78.6800272 4.67007933,78.3726037 4.67007933,77.9966452 C4.67007933,77.6206868 4.97833904,77.3132633 5.35532011,77.3132633 C5.73230118,77.3132633 6.04056089,77.6206868 6.04056089,77.9966452 C6.04056089,78.3726037 5.73230118,78.6800272 5.35532011,78.6800272 Z" id="Mask" fill="#FFFFFF"></path>
                            <g id="ic/storage/grey600" transform="translate(101.499752, 72.689863)">
                                <g id="ic_storage_24px">
                                    <polygon id="Shape" points="0 0 22 0 22 22 0 22"></polygon>
                                    <path d="M1.83333333,18.3333333 L20.1666667,18.3333333 L20.1666667,14.6666667 L1.83333333,14.6666667 L1.83333333,18.3333333 Z M3.66666667,15.5833333 L5.5,15.5833333 L5.5,17.4166667 L3.66666667,17.4166667 L3.66666667,15.5833333 Z M1.83333333,3.66666667 L1.83333333,7.33333333 L20.1666667,7.33333333 L20.1666667,3.66666667 L1.83333333,3.66666667 Z M5.5,6.41666667 L3.66666667,6.41666667 L3.66666667,4.58333333 L5.5,4.58333333 L5.5,6.41666667 Z M1.83333333,12.8333333 L20.1666667,12.8333333 L20.1666667,9.16666667 L1.83333333,9.16666667 L1.83333333,12.8333333 Z M3.66666667,10.0833333 L5.5,10.0833333 L5.5,11.9166667 L3.66666667,11.9166667 L3.66666667,10.0833333 Z" id="Shape" fill="#FFFFFF" fill-rule="nonzero"></path>
                                </g>
                            </g>
                            <g id="ic/dashboard/grey600" transform="translate(35.475641, 73.672624)">
                                <g id="ic_dashboard_24px">
                                    <polygon id="Shape" points="0 0 19 0 19 20 0 20"></polygon>
                                    <path d="M2.375,10.8333333 L8.70833333,10.8333333 L8.70833333,2.5 L2.375,2.5 L2.375,10.8333333 Z M2.375,17.5 L8.70833333,17.5 L8.70833333,12.5 L2.375,12.5 L2.375,17.5 Z M10.2916667,17.5 L16.625,17.5 L16.625,9.16666667 L10.2916667,9.16666667 L10.2916667,17.5 Z M10.2916667,2.5 L10.2916667,7.5 L16.625,7.5 L16.625,2.5 L10.2916667,2.5 Z" id="Shape" fill="#FFFFFF" fill-rule="nonzero"></path>
                                </g>
                            </g>
                            <g id="ic/layers/grey600" transform="translate(68.980414, 74.655385)">
                                <g id="ic_layers_24px">
                                    <polygon id="Shape" points="0 0 19 0 19 20 0 20"></polygon>
                                    <path d="M9.49208333,15.45 L3.6575,10.675 L2.375,11.725 L9.5,17.5583333 L16.625,11.725 L15.3345833,10.6666667 L9.49208333,15.45 Z M9.5,13.3333333 L15.3266667,8.55833333 L16.625,7.5 L9.5,1.66666667 L2.375,7.5 L3.66541667,8.55833333 L9.5,13.3333333 Z" id="Shape" fill="#FFFFFF" fill-rule="nonzero"></path>
                                </g>
                            </g>
                        </g>
                    </g>
                </g>
            </g>
        </g>
    </g>
</svg>