<?xml version="1.0" encoding="UTF-8"?>
<svg width="20px" height="20px" viewBox="0 0 20 20" version="1.1" xmlns="http://www.w3.org/2000/svg" xmlns:xlink="http://www.w3.org/1999/xlink">
    <!-- Generator: Sketch 50.2 (55047) - http://www.bohemiancoding.com/sketch -->
    <title>Info</title>
    <desc>Created with Sketch.</desc>
    <defs></defs>
    <g id="V2---Infographic" stroke="none" stroke-width="1" fill="none" fill-rule="evenodd">
        <g id="Vuln_1" transform="translate(-1174.000000, -911.000000)" fill="#E20074" fill-rule="nonzero">
            <g id="VulnSummary" transform="translate(30.000000, 76.000000)">
                <g id="Group-66" transform="translate(44.000000, 771.000000)">
                    <g id="Group-18">
                        <g id="ic_info_outline_24px" transform="translate(1098.000000, 62.000000)">
                            <path d="M11,17 L13,17 L13,11 L11,11 L11,17 Z M12,2 C6.48,2 2,6.48 2,12 C2,17.52 6.48,22 12,22 C17.52,22 22,17.52 22,12 C22,6.48 17.52,2 12,2 Z M12,20 C7.59,20 4,16.41 4,12 C4,7.59 7.59,4 12,4 C16.41,4 20,7.59 20,12 C20,16.41 16.41,20 12,20 Z M11,9 L13,9 L13,7 L11,7 L11,9 Z" id="Info"></path>
                        </g>
                    </g>
                </g>
            </g>
        </g>
    </g>
</svg>