<?xml version="1.0" encoding="UTF-8"?>
<svg width="13px" height="16px" viewBox="0 0 13 16" version="1.1" xmlns="http://www.w3.org/2000/svg" xmlns:xlink="http://www.w3.org/1999/xlink">
    <!-- Generator: Sketch 47.1 (45422) - http://www.bohemiancoding.com/sketch -->
    <title>jira</title>
    <desc>Created with Sketch.</desc>
    <defs></defs>
    <g id="Issues" stroke="none" stroke-width="1" fill="none" fill-rule="evenodd">
        <g id="Issue-Details_Hover-States" transform="translate(-1008.000000, -458.000000)" fill-rule="nonzero" fill="#ffffff">
            <g id="jira" transform="translate(1008.283203, 458.000000)">
                <g id="Group" transform="translate(0.024251, 0.014974)">
                    <path d="M2.57058333,1.02341667 C1.99925,1.02341667 1.53666667,1.48541667 1.53666667,2.05816667 C1.53666667,2.6295 1.99925,3.09316667 2.57058333,3.09316667 C3.14225,3.09316667 3.60441667,2.6295 3.60441667,2.05816667 C3.60441667,1.48541667 3.14233333,1.02341667 2.57058333,1.02341667 M9.363,1.02341667 C8.79141667,1.02341667 8.32941667,1.48541667 8.32941667,2.05816667 C8.32941667,2.6295 8.79141667,3.09316667 9.363,3.09316667 C9.933,3.09316667 10.3966667,2.6295 10.3966667,2.05816667 C10.3966667,1.48541667 9.933,1.02416667 9.363,1.02341667 M5.96675,0.07925 C5.3955,0.07925 4.93291667,0.541166667 4.93291667,1.11408333 C4.93291667,1.68541667 5.39541667,2.14908333 5.96675,2.14908333 C6.53841667,2.14908333 7.0005,1.68541667 7.0005,1.11408333 C7.0005,0.541166667 6.53833333,0.07925 5.96666667,0.07925 M11.8071667,3.90683333 C11.7505884,3.86375697 11.6814436,3.84042573 11.6103333,3.84041667 C11.5714167,3.84041667 11.532,3.8475 11.4948333,3.86183333 C10.7948333,4.12958333 10.0838333,4.33283333 9.435,4.484 C9.30266667,4.51483333 9.19583333,4.61316667 9.1515,4.73116667 C8.67875,6.02608333 7.47158333,7.25916667 6.20508333,8.55066667 C6.15425,8.59891667 6.08308333,8.66258333 5.96716667,8.66258333 C5.8515,8.66258333 5.781,8.60091667 5.72925,8.55066667 C4.46291667,7.25916667 3.25575,6.03033333 2.78283333,4.73533333 C2.7385,4.61741667 2.63158333,4.51916667 2.4995,4.48816667 C1.85025,4.337 1.13758333,4.12741667 0.438333333,3.85983333 C0.401344043,3.84571635 0.362091604,3.83845888 0.3225,3.83841667 C0.252416667,3.83841667 0.1845,3.86041667 0.127166667,3.90425 C0.0389608058,3.97169109 -0.00848251219,4.07966554 0.0015,4.19025 C0.10875,5.26708333 0.53425,6.31983333 1.30216667,7.42291667 C2.024,8.46008333 2.9655,9.42008333 3.87575,10.3484167 C5.55291667,12.05925 7.13733333,13.6749167 7.27633333,15.5485 C7.28893931,15.7176664 7.42986456,15.8484892 7.5995,15.8485 L9.57,15.8485 C9.65868728,15.8484212 9.74347378,15.8120285 9.8046233,15.7477932 C9.86577281,15.6835579 9.89795067,15.5970838 9.89366667,15.5085 C9.83166667,14.2558333 9.36025,13.0013333 8.4525,11.6738333 C8.26225,11.3955 8.0585,11.1246667 7.84541667,10.8596667 C7.75883333,10.75175 7.79508333,10.6176667 7.86125,10.55 C7.92675,10.483 7.9925,10.4161667 8.05875,10.3484167 C8.969,9.42008333 9.91041667,8.46008333 10.6323333,7.42291667 C11.4001667,6.31966667 11.8255,5.27316667 11.9328333,4.1965 C11.9435,4.08833333 11.8944167,3.9735 11.8071667,3.90683333 M3.85266667,11.8058333 C3.806,11.7570833 3.73758333,11.7073333 3.62258333,11.7073333 C3.4755,11.7073333 3.38825,11.809 3.35525,11.8593333 C2.52641667,13.1205833 2.09833333,14.311 2.03916667,15.50725 C2.03510005,15.5961082 2.06727896,15.6828108 2.12833333,15.7475 C2.18997716,15.8117809 2.27510531,15.8482386 2.36416667,15.8485 L4.33125,15.8485 C4.50122716,15.8477611 4.64223286,15.7167935 4.6555,15.5473333 C4.69833333,14.97075 4.87783333,14.3928333 5.20466667,13.7855 C5.318,13.5754167 5.22991667,13.378 5.16475,13.2936667 C4.84058333,12.872 4.44341667,12.42225 3.85266667,11.8058333" id="Shape"></path>
                    <path d="M5.969,4.87216667 C6.5865,4.87216667 6.94466667,4.83508333 7.0705,4.83508333 C7.223,4.83508333 7.36858333,4.96 7.36858333,5.13483333 C7.36858333,5.18583333 7.3565,5.22233333 7.34458333,5.25458333 C7.26266667,5.4735 6.88941667,6.26125 6.1945,6.937 C6.1165,7.01283333 6.02816667,7.027 5.96733333,7.027 L5.96666667,7.027 C5.90591667,7.027 5.81766667,7.01283333 5.73975,6.937 C5.04475,6.26125 4.67141667,5.4735 4.58975,5.2545 C4.57766667,5.22233333 4.56558333,5.18583333 4.56558333,5.13483333 C4.56558333,4.96 4.71141667,4.83508333 4.86391667,4.83508333 C4.98975,4.83508333 5.34766667,4.87216667 5.965,4.87216667 L5.96908333,4.87216667" id="Shape"></path>
                </g>
            </g>
        </g>
    </g>
</svg>