<?xml version="1.0" encoding="UTF-8" standalone="no"?>
<svg width="7px" height="10px" viewBox="0 0 7 10" version="1.1" xmlns="http://www.w3.org/2000/svg" xmlns:xlink="http://www.w3.org/1999/xlink">
    <!-- Generator: Sketch 47 (45396) - http://www.bohemiancoding.com/sketch -->
    <title>lightbulb</title>
    <desc>Created with Sketch.</desc>
    <defs></defs>
    <g id="Prototype" stroke="none" stroke-width="1" fill="none" fill-rule="evenodd">
        <g id="8-Asset-Dashboard-1" transform="translate(-437.000000, -202.000000)">
            <g id="Group-48" transform="translate(213.000000, 190.000000)">
                <g id="Group-8-Copy-3" transform="translate(220.000000, 9.000000)">
                    <g id="Page-1" transform="translate(4.923077, 3.692308)">
                        <g id="lightbulb">
                            <polygon id="Fill-1" fill="#FFC755" points="1.23076923 8 4.30769231 8 4.30769231 8.61538462 1.23076923 8.61538462"></polygon>
                            <polygon id="Stroke-2" points="1.23076923 8 4.30769231 8 4.30769231 8.61538462 1.23076923 8.61538462"></polygon>
                            <polygon id="Fill-3" fill="#FFC755" points="1.23076923 6.76923077 4.30769231 6.76923077 4.30769231 7.38461538 1.23076923 7.38461538"></polygon>
                            <polygon id="Stroke-4" points="1.23076923 6.76923077 4.30769231 6.76923077 4.30769231 7.38461538 1.23076923 7.38461538"></polygon>
                            <path d="M2.76882646,9.23069385e-06 C1.23963582,9.23069385e-06 0,1.14779473 0,2.56409085 C0,2.91184186 0.0752897925,3.24317249 0.210719258,3.54525207 L1.37813252,6.15384615 L2.09251545,6.15384615 L2.89257957,4.4871931 L1.78442867,4.48759412 L3.20019003,1.53849 L4.0309709,1.53849 L2.92326308,3.84616346 L4.0309709,3.84616346 L2.92369509,6.15383692 L4.16034009,6.15383692 C4.16034009,6.15383692 5.32731027,3.54483259 5.32731027,3.54524284 C5.46274971,3.24316326 5.53846154,2.91183263 5.53846154,2.56408162 C5.53846154,1.1477855 4.29882572,0 2.76874892,0 L2.76882646,9.23069385e-06 Z" id="Fill-5" fill="#FFC755"></path>
                            <path d="M2.76882646,9.64094626e-06 C1.23963582,9.64094626e-06 0,1.14779506 0,2.56409109 C0,2.91184208 0.0752897925,3.24317268 0.210719258,3.54525225 L1.37813252,6.15384615 L2.09251545,6.15384615 L2.89257957,4.48719321 L1.78442867,4.48759423 L3.20019003,1.53849031 L4.0309709,1.53849031 L2.92326308,3.84616362 L4.0309709,3.84616362 L2.92369509,6.15383692 L4.16034009,6.15383692 C4.16034009,6.15383692 5.32731027,3.54483276 5.32731027,3.54524302 C5.46274971,3.24316345 5.53846154,2.91183285 5.53846154,2.56408186 C5.53846154,1.14778583 4.29882572,0 2.76874892,0 L2.76882646,9.64094626e-06 Z" id="Stroke-6"></path>
                        </g>
                    </g>
                </g>
            </g>
        </g>
    </g>
</svg>