<?xml version="1.0" encoding="UTF-8"?>
<svg width="30px" height="32px" viewBox="0 0 30 32" version="1.1" xmlns="http://www.w3.org/2000/svg" xmlns:xlink="http://www.w3.org/1999/xlink">
    <!-- Generator: Sketch 47.1 (45422) - http://www.bohemiancoding.com/sketch -->
    <title>Lock-Open</title>
    <desc>Created with Sketch.</desc>
    <defs></defs>
    <g id="Prototype" stroke="none" stroke-width="1" fill="none" fill-rule="evenodd">
        <g id="6.2-Issue-Details" transform="translate(-304.000000, -256.000000)" fill="#F2425F">
            <g id="Group-16" transform="translate(213.000000, 156.000000)">
                <g id="Group-33" transform="translate(91.000000, 75.000000)">
                    <g id="Group-30">
                        <path d="M14.5455011,41.4854691 L7.75824291,41.4854691 L7.75824291,35.6672873 C7.75824291,31.8854691 10.7636829,28.8800291 14.5455011,28.8800291 C18.3273193,28.8800291 21.3327593,31.8854691 21.3327593,35.6672873 L21.3327593,37.6073018 L25.2109265,37.6073018 L25.2109265,35.6672873 C25.2109265,29.7527564 20.460032,25 14.5436393,25 C8.62910836,25 3.876352,29.7508945 3.876352,35.6672873 L3.876352,41.4854691 L0,41.4854691 L0,57 L29.0909091,57 L29.0909091,41.4854691 L14.5455011,41.4854691 Z M15.5145775,48.9527564 L15.5145775,52.1527564 L13.5745629,52.1527564 L13.5745629,48.9527564 C12.9927447,48.6618473 12.6054865,47.98368 12.6054865,47.3036509 C12.6054865,46.2363636 13.4782138,45.3636364 14.5455011,45.3636364 C15.6127884,45.3636364 16.4855156,46.2363636 16.4855156,47.3036509 C16.4855156,47.9818182 16.0964236,48.6618473 15.514624,48.9527564 L15.5145775,48.9527564 Z" id="Lock-Open"></path>
                    </g>
                </g>
            </g>
        </g>
    </g>
</svg>