<?xml version="1.0" encoding="UTF-8"?>
<svg width="30px" height="30px" viewBox="0 0 30 30" version="1.1" xmlns="http://www.w3.org/2000/svg" xmlns:xlink="http://www.w3.org/1999/xlink">
    <!-- Generator: Sketch 47.1 (45422) - http://www.bohemiancoding.com/sketch -->
    <title>Lock-Closed</title>
    <desc>Created with Sketch.</desc>
    <defs></defs>
    <g id="Prototype" stroke="none" stroke-width="1" fill="none" fill-rule="evenodd">
        <g id="6.2-Issue-Details" transform="translate(-304.000000, -258.000000)" fill-rule="nonzero" fill="#D40325">
            <g id="Group-16" transform="translate(213.000000, 156.000000)">
                <g id="np_lock_888671_000000" transform="translate(91.000000, 102.000000)">
                    <path d="M25.2248611,14.00064 L25.2248611,11.00064 C25.2248611,4.90128 20.4888131,0 14.5909091,0 C8.69486109,0 3.95695709,4.89936 3.95695709,11.00064 L3.95695709,14.00064 L0.0909090909,14.00064 L0.0909090909,30 L29.0909091,30 L29.0909091,14.00064 L25.2248611,14.00064 Z M15.5569571,21.70128 L15.5569571,25.00128 L13.6230051,25.00128 L13.6230051,21.70128 C13.0430051,21.40128 12.6569571,20.70192 12.6569571,20.00064 C12.6569571,18.9 13.5269571,18 14.5909091,18 C15.6548611,18 16.5248611,18.9 16.5248611,20.00064 C16.5248611,20.7 16.1369849,21.40128 15.5570035,21.70128 L15.5569571,21.70128 Z M14.5909091,14.00064 L7.82486109,14.00064 L7.82486109,11.00064 C7.82486109,7.10064 10.8209091,4.00128 14.5909091,4.00128 C18.3609091,4.00128 21.3569571,7.10064 21.3569571,11.00064 L21.3569571,14.00064 L14.5909091,14.00064 Z" id="Lock-Closed"></path>
                </g>
            </g>
        </g>
    </g>
</svg>