<?xml version="1.0" encoding="UTF-8"?>
<svg width="36px" height="17px" viewBox="0 0 36 17" version="1.1" xmlns="http://www.w3.org/2000/svg" xmlns:xlink="http://www.w3.org/1999/xlink">
    <!-- Generator: Sketch 55.1 (78136) - https://sketchapp.com -->
    <title>Multicloud</title>
    <desc>Created with Sketch.</desc>
    <g id="Multi-Cloud" stroke="none" stroke-width="1" fill="none" fill-rule="evenodd">
        <g id="Asset-Selection" transform="translate(-536.000000, -250.000000)" fill="#FFFFFF" fill-rule="nonzero">
            <g id="Group-7" transform="translate(381.000000, 244.000000)">
                <g id="Multicloud" transform="translate(156.000000, 7.000000)">
                    <path d="M11.5862069,12.9548703 L20.1198407,12.9548703 C21.7287933,12.9548703 23.0166969,11.6856603 23.0166969,10.1000613 C23.0166969,8.51327468 21.7287933,7.24406463 20.1198407,7.24406463 C19.7336148,7.24403418 19.3473674,7.3070775 18.9611199,7.49739811 C19.0902717,7.24403418 19.1542436,6.9264363 19.1542436,6.60882927 C19.1542436,5.65957036 18.6179106,4.82757869 17.8291752,4.39266381 C18.7836486,3.71088482 19.9609362,3.31034483 21.2399801,3.31034483 C23.9437125,3.31034483 26.1972349,5.08626444 26.8405687,7.56043229 C27.2920148,7.3070775 27.7422249,7.1167569 28.3215961,7.1167569 C29.7374249,7.1167569 30.8961674,8.25868052 30.8961674,9.65395893 C30.8961674,9.97156595 30.8321955,10.2891638 30.7030436,10.5425278 C31.0892911,10.3522072 31.4755386,10.2891638 31.8617645,10.2891943 C33.470717,10.2891943 34.7586207,11.5584043 34.7586207,13.1451909 C34.7586207,14.73079 33.470717,16 31.8617645,16 L14.8029122,16 C13.0429102,16 11.6520027,14.6697775 11.5862069,12.9548703 Z" id="Combined-Shape"></path>
                    <path d="M20.2758837,6.97881901 C19.8896768,6.97881901 19.5034699,7.04186233 19.117263,7.23218294 C19.2464013,6.97881901 19.3103665,6.66122113 19.3103665,6.3436141 C19.3103665,4.94833569 18.1517458,3.80641207 16.7360658,3.80641207 C16.1567554,3.80641207 15.7065927,3.99673268 15.255194,4.25008746 C14.6119278,1.77591962 12.3586423,0 9.65519404,0 C6.43639128,0 3.86209059,2.53720203 3.86209059,5.70961811 C3.86209059,5.96298203 3.86209059,6.21754573 3.92605572,6.40786634 C3.66898714,6.34482302 3.47589297,6.34482302 3.21880276,6.34482302 C1.41691586,6.34482302 0,7.74010143 0,9.5172391 C0,11.2931587 1.41568,12.6896552 3.21880276,12.6896552 L20.2758621,12.6896552 C21.8846455,12.6896552 23.1724138,11.4204451 23.1724138,9.83484612 C23.1724138,8.24805951 21.8846455,6.97884946 20.2758621,6.97884946 L20.2758837,6.97881901 Z" id="Path" stroke="#FFFFFF" stroke-linejoin="round"></path>
                </g>
            </g>
        </g>
    </g>
</svg>