<?xml version="1.0" encoding="UTF-8"?>
<svg width="32px" height="33px" viewBox="0 0 32 33" version="1.1" xmlns="http://www.w3.org/2000/svg" xmlns:xlink="http://www.w3.org/1999/xlink">
    <!-- Generator: Sketch 50.2 (55047) - http://www.bohemiancoding.com/sketch -->
    <title>Occurrences</title>
    <desc>Created with Sketch.</desc>
    <defs></defs>
    <g id="V2---Infographic" stroke="none" stroke-width="1" fill="none" fill-rule="evenodd">
        <g id="Vuln_1.2" transform="translate(-815.000000, -336.000000)">
            <g id="Group-80" transform="translate(104.000000, 317.000000)">
                <g id="Group-59" transform="translate(709.000000, 13.000000)">
                    <g id="Occurrences" transform="translate(2.000000, 7.000000)">
                        <path d="M31.2857143,16.5506087 L31.2857143,14.4578837 L29.5368197,14.4578837 L29.5368197,12.9569873 L28.844885,12.9569873 C28.753613,12.5754579 28.583817,12.2196235 28.3360112,11.9039114 L28.9886813,11.245739 C29.562822,11.522382 30.2547567,11.2719632 30.5291131,10.6796054 C30.8034433,10.1006243 30.5551181,9.40285619 29.9677124,9.12618683 C29.3803068,8.84951747 28.701637,9.09996261 28.4272806,9.69232042 C28.2834843,10.0080326 28.2834843,10.3767144 28.4272806,10.6795791 L27.7746106,11.3377515 C26.7956055,10.6137618 25.4509747,10.6137618 24.4719696,11.3377515 L23.8192996,10.666205 C24.0936299,10.0872239 23.8453046,9.3894558 23.2711612,9.11278644 C22.6970204,8.83614341 22.0050857,9.08656222 21.7307294,9.66554597 C21.4563991,10.2445271 21.7047244,10.9422952 22.2788678,11.2189645 C22.5919405,11.3639731 22.9575402,11.3639731 23.2711351,11.2189645 L23.9238051,11.8771369 C23.6887395,12.1928491 23.5062007,12.5486834 23.4149313,12.9302128 L22.7102566,12.9302128 L22.7102566,14.4305827 L21,14.4316107 L21,16.5377625 L21.783204,16.5377625 L21.783204,15.2347917 L22.7229445,15.2347917 L22.7229445,17.1172965 L21.2218034,17.1167831 L21.2218034,19.2229349 L22.0050074,19.2229349 L22.0050074,17.90659 L22.7229445,17.90659 C22.7882115,18.5123193 23.0232771,19.0779263 23.4016169,19.5520211 L22.6704176,19.5520211 L22.6704176,21 L23.4536216,21 L23.4536216,20.3418276 L24.3933621,20.3418276 C24.8109665,20.5526534 25.2810977,20.6709138 25.7506547,20.6709138 L26.4945941,20.6709138 C26.9647254,20.6709138 27.4343345,20.5655035 27.8518867,20.3418276 L28.8308917,20.3418276 L28.8308917,21 L29.6140958,21 L29.6140958,19.5520211 L28.8308917,19.5520211 C29.2224938,19.0779263 29.4575594,18.5123193 29.5228264,17.90659 L30.2800281,17.90659 L30.2800281,19.2229349 L31.0632321,19.2229349 L31.0632321,17.1167831 L29.5366369,17.1167831 L29.5366369,15.2477051 L30.515642,15.2477051 L30.515642,16.5506758 L31.2857143,16.5506087 Z" id="Mask-Copy" fill="#F2425F"></path>
                        <path d="M16.9411765,19.8696279 C16.9927328,19.8696279 17.0473661,19.881074 17.0950752,19.9023314 C17.1427844,19.9235888 17.1881847,19.9554753 17.2243502,19.9939012 C17.2605157,20.032327 17.2843712,20.0805649 17.3043776,20.1312558 C17.3243839,20.1819467 17.3351573,20.233454 17.3351573,20.2882326 L17.3351573,23.3754419 C17.3351573,23.4302205 17.3243843,23.4882684 17.3043776,23.5389593 C17.2843708,23.5896502 17.2605157,23.6313474 17.2243502,23.6697733 C17.1881847,23.7081991 17.1427844,23.7400863 17.0950752,23.761343 C17.0473661,23.7825998 16.9927328,23.7940465 16.9411765,23.7940465 L0.393980848,23.7940465 C0.342424514,23.7940465 0.293947141,23.7826004 0.24623803,23.761343 C0.198528919,23.7400857 0.153128536,23.7081991 0.116963064,23.6697733 C0.0807975923,23.6313474 0.0507861012,23.5896502 0.0307797538,23.5389593 C0.0107734063,23.4882684 0,23.4302205 0,23.3754419 L0,20.2882326 C0,20.233454 0.0107730123,20.1819467 0.0307797538,20.1312558 C0.0507864952,20.0805649 0.0807975923,20.032327 0.116963064,19.9939012 C0.153128536,19.9554753 0.198528919,19.9235881 0.24623803,19.9023314 C0.293947141,19.8810747 0.342424514,19.8696279 0.393980848,19.8696279 L16.9411765,19.8696279 Z M14.4049248,21.0142605 C13.9978637,21.0142605 13.6600646,21.3731721 13.6600646,21.8056744 C13.6600646,22.2381767 13.9947907,22.5970884 14.4049248,22.5970884 C14.8150588,22.5970884 15.149785,22.2414419 15.149785,21.8056744 C15.149785,21.369907 14.8119858,21.0142605 14.4049248,21.0142605 Z" id="Shape" fill="#45BECE" fill-rule="nonzero"></path>
                        <path d="M16.9411765,13.0411395 C16.9927328,13.0411395 17.0473661,13.0525857 17.0950752,13.073843 C17.1427844,13.0951004 17.1881847,13.1204463 17.2243502,13.1588721 C17.2605157,13.1972979 17.2843712,13.2455358 17.3043776,13.2962267 C17.3243839,13.3469177 17.3351573,13.4049656 17.3351573,13.4597442 L17.3351573,16.5404651 C17.3351573,16.5952437 17.3243843,16.6532916 17.3043776,16.7039826 C17.2843708,16.7546735 17.2605157,16.8029114 17.2243502,16.8413372 C17.1881847,16.879763 17.1427844,16.9051095 17.0950752,16.9263663 C17.0473661,16.947623 16.9927328,16.9590698 16.9411765,16.9590698 L0.393980848,16.9590698 C0.342424514,16.9590698 0.293947141,16.9476237 0.24623803,16.9263663 C0.198528919,16.9051089 0.153128536,16.879763 0.116963064,16.8413372 C0.0807975923,16.8029114 0.0507861012,16.7546735 0.0307797538,16.7039826 C0.0107734063,16.6532916 0,16.5952437 0,16.5404651 L0,13.4597442 C0,13.4049656 0.0107730123,13.3469177 0.0307797538,13.2962267 C0.0507864952,13.2455358 0.0807975923,13.1972979 0.116963064,13.1588721 C0.153128536,13.1204463 0.198528919,13.0950998 0.24623803,13.073843 C0.293947141,13.0525863 0.342424514,13.0411395 0.393980848,13.0411395 L16.9411765,13.0411395 Z M14.4049248,14.1726698 C13.9947907,14.1726698 13.6600646,14.5381326 13.6600646,14.9706349 C13.6600646,15.4031372 13.9947907,15.7686 14.4049248,15.7686 C14.8150588,15.7686 15.149785,15.4064023 15.149785,14.9706349 C15.149785,14.5348674 14.8150588,14.1726698 14.4049248,14.1726698 Z" id="Shape" fill="#45BECE" fill-rule="nonzero"></path>
                        <path d="M16.9411765,6.20603721 C16.9927328,6.20603721 17.0473661,6.21748333 17.0950752,6.2387407 C17.1427844,6.25999807 17.1881847,6.29188465 17.2243502,6.33031047 C17.2605157,6.36873628 17.2843712,6.41043349 17.3043776,6.46112442 C17.3243839,6.51181535 17.3351573,6.56986326 17.3351573,6.62464186 L17.3351573,9.70536279 C17.3351573,9.7601414 17.3243843,9.8181893 17.3043776,9.86888023 C17.2843708,9.91957116 17.2605157,9.96126837 17.2243502,9.99969419 C17.1881847,10.03812 17.1427844,10.0700072 17.0950752,10.091264 C17.0473661,10.1125207 16.9927328,10.1239674 16.9411765,10.1239674 L0.393980848,10.1239674 C0.342424514,10.1239674 0.293947141,10.1125213 0.24623803,10.091264 C0.198528919,10.0700066 0.153128536,10.03812 0.116963064,9.99969419 C0.0807975923,9.96126837 0.0507861012,9.91957116 0.0307797538,9.86888023 C0.0107734063,9.8181893 0,9.7601414 0,9.70536279 L0,6.62464186 C0,6.56986326 0.0107730123,6.51181535 0.0307797538,6.46112442 C0.0507864952,6.41043349 0.0807975923,6.36873628 0.116963064,6.33031047 C0.153128536,6.29188465 0.198528919,6.25999744 0.24623803,6.2387407 C0.293947141,6.21748395 0.342424514,6.20603721 0.393980848,6.20603721 L16.9411765,6.20603721 Z M14.4049248,7.3441186 C13.9947907,7.3441186 13.6600646,7.70303023 13.6600646,8.13553256 C13.6600646,8.56803488 13.9978637,8.92694651 14.4049248,8.92694651 C14.8119858,8.92694651 15.149785,8.5713 15.149785,8.13553256 C15.149785,7.69976512 14.8150588,7.3441186 14.4049248,7.3441186 Z" id="Shape" fill="#45BECE" fill-rule="nonzero"></path>
                        <path d="M9.5,4 L8.5,4 C8.5,3.17143551 8.62116072,2.45118595 8.86824476,1.84032257 L9.79528137,2.2152934 C9.60001466,2.69804932 9.5,3.29259444 9.5,4 Z M10.8829359,0.954522382 L10.3924517,0.0830723018 C10.9843189,-0.250052357 11.702584,-0.43817356 12.5433435,-0.487072458 L12.6014057,0.511240506 C11.9040278,0.551800275 11.3325057,0.701487951 10.8829359,0.954522382 Z M14.6755425,0.5 L14.6755425,-0.5 L16.6756471,-0.5 L16.6756471,0.5 L14.6755425,0.5 Z M18.6753902,0.5 L18.6753902,-0.5 L20.6753749,-0.5 L20.6753749,0.5 L18.6753902,0.5 Z M22.6751848,0.5 L22.6751848,-0.5 L22.9997311,-0.5 C23.7266131,-0.5 24.3485717,-0.378124813 24.863251,-0.127221847 L24.4250533,0.771656767 C24.0583977,0.592914429 23.5842328,0.5 22.9997311,0.5 L22.6751848,0.5 Z M25.3873412,2.0115976 L26.3548044,1.75858594 C26.4479065,2.1145889 26.4957295,2.50860367 26.4997478,2.94490484 C26.499958,3.24961941 26.5,3.46602294 26.5,3.93218994 L25.5,3.93218994 C25.5,3.466167 25.499958,3.2500138 25.4997693,2.94987548 C25.4965009,2.59660582 25.4585404,2.28384862 25.3873412,2.0115976 Z M25.5,5.93206787 L26.5,5.93206787 L26.5,7.93200983 L25.5,7.93200983 L25.5,5.93206787 Z" id="Path-2" fill="#979797" fill-rule="nonzero"></path>
                        <path d="M9.50970966,25.9019419 L10.4902903,26.0980581 C10.3479016,26.8100017 10.2859062,27.4360771 10.3026744,27.9747393 L9.30315858,28.0058535 C9.28383594,27.3851312 9.35322958,26.6843423 9.50970966,25.9019419 Z M9.94533138,30.1970197 L10.7602392,29.6174292 C11.0602827,30.0392921 11.519768,30.3096903 12.1676948,30.4299606 L11.9851892,31.4131654 C11.0935627,31.2476588 10.4039436,30.8418313 9.94533138,30.1970197 Z M14.2208178,31.5 L14.2208178,30.5 L16.2209099,30.5 L16.2209099,31.5 L14.2208178,31.5 Z M18.2208578,31.5 L18.2208578,30.5 L20.2207484,30.5 L20.2207484,31.5 L18.2208578,31.5 Z M22.2208984,31.5 L22.2208984,30.5 L22.999976,30.5 C23.4185157,30.5 23.7834396,30.46079 24.0942489,30.3841111 L24.3337746,31.3550011 C23.9395932,31.4522485 23.4951746,31.5 22.999976,31.5 L22.2208984,31.5 Z M26.2344065,29.8793364 L25.3218784,29.4703224 C25.4334539,29.2213926 25.4940014,28.9172902 25.4995187,28.5622671 C25.4998968,28.2900237 25.4999962,28.0717158 25.4999998,27.7012191 L25.5,27.6335872 L26.5,27.6335872 L26.4999998,27.7012288 C26.4999962,28.0721483 26.4998966,28.2908502 26.4994589,28.5706617 C26.4918925,29.0619126 26.4048562,29.4990554 26.2344065,29.8793364 Z M26.5,25.6338578 L25.5,25.6338578 L25.5,23.6337779 L26.5,23.6337779 L26.5,25.6338578 Z" id="Path-3" fill="#979797" fill-rule="nonzero"></path>
                    </g>
                </g>
            </g>
        </g>
    </g>
</svg>