<?xml version="1.0" encoding="UTF-8"?>
<svg width="16px" height="16px" viewBox="0 0 16 16" version="1.1" xmlns="http://www.w3.org/2000/svg" xmlns:xlink="http://www.w3.org/1999/xlink">
    <!-- Generator: Sketch 50.2 (55047) - http://www.bohemiancoding.com/sketch -->
    <title>OmniSearch-magenta</title>
    <desc>Created with Sketch.</desc>
    <defs></defs>
    <g id="Main-Navigation" stroke="none" stroke-width="1" fill="none" fill-rule="evenodd">
        <g id="OmniSearch-1" transform="translate(-730.000000, -24.000000)" fill="#E20074" fill-rule="nonzero">
            <g id="Group-55" transform="translate(514.000000, 24.000000)">
                <g id="Group-54">
                    <g id="Group-47" transform="translate(195.000000, 0.000000)">
                        <g id="Group-52">
                            <path d="M32.4351058,10.0628931 L31.7124071,10.0628931 L31.4562607,9.8158948 C32.352773,8.77301315 32.89251,7.41909663 32.89251,5.946255 C32.89251,2.66209262 30.2304174,0 26.946255,0 C23.6620926,0 21,2.66209262 21,5.946255 C21,9.23041738 23.6620926,11.89251 26.946255,11.89251 C28.4190966,11.89251 29.7730132,11.352773 30.8158948,10.4562607 L31.0628931,10.7124071 L31.0628931,11.4351058 L35.6369354,16 L37,14.6369354 L32.4351058,10.0628931 Z M26.946255,10.0628931 C24.6683819,10.0628931 22.8296169,8.22412807 22.8296169,5.946255 C22.8296169,3.66838193 24.6683819,1.82961692 26.946255,1.82961692 C29.2241281,1.82961692 31.0628931,3.66838193 31.0628931,5.946255 C31.0628931,8.22412807 29.2241281,10.0628931 26.946255,10.0628931 Z" id="OmniSearch-magenta"></path>
                        </g>
                    </g>
                </g>
            </g>
        </g>
    </g>
</svg>