<svg id="svg" version="1.1" width="400" height="139.94169096209913" viewBox="0 0 400 139.94169096209913" xmlns="http://www.w3.org/2000/svg" xmlns:xlink="http://www.w3.org/1999/xlink" ><g id="svgg"><path id="path0" d="M68.417 23.333 C 68.360 23.425,67.868 23.500,67.323 23.500 C 66.779 23.500,66.333 23.565,66.333 23.645 C 66.333 23.725,65.733 23.843,65.000 23.907 C 64.267 23.971,63.667 24.093,63.667 24.178 C 63.667 24.263,63.404 24.333,63.083 24.333 C 62.762 24.333,62.500 24.408,62.500 24.500 C 62.500 24.592,62.313 24.667,62.083 24.667 C 61.854 24.667,61.667 24.733,61.667 24.814 C 61.667 24.896,61.329 25.013,60.917 25.075 C 60.504 25.136,60.167 25.257,60.167 25.344 C 60.167 25.430,59.979 25.500,59.750 25.500 C 59.521 25.500,59.333 25.575,59.333 25.667 C 59.333 25.758,59.221 25.833,59.083 25.833 C 58.946 25.833,58.833 25.900,58.833 25.981 C 58.833 26.063,58.571 26.179,58.250 26.239 C 57.929 26.299,57.667 26.420,57.667 26.508 C 57.667 26.595,57.517 26.667,57.333 26.667 C 57.150 26.667,57.000 26.742,57.000 26.833 C 57.000 26.925,56.887 27.000,56.750 27.000 C 56.612 27.000,56.500 27.068,56.500 27.150 C 56.500 27.233,56.274 27.380,55.998 27.476 C 55.722 27.572,55.451 27.767,55.397 27.909 C 55.342 28.051,55.156 28.167,54.982 28.167 C 54.809 28.167,54.667 28.237,54.667 28.322 C 54.667 28.408,54.499 28.531,54.295 28.595 C 54.091 28.660,53.723 28.928,53.478 29.190 C 53.233 29.452,52.954 29.667,52.857 29.667 C 52.761 29.667,52.499 29.863,52.276 30.102 C 52.053 30.341,51.795 30.612,51.704 30.704 C 51.612 30.795,51.350 31.058,51.120 31.287 C 50.891 31.516,50.639 31.769,50.560 31.848 C 50.481 31.927,49.948 32.446,49.375 33.001 C 48.802 33.556,48.333 34.090,48.333 34.188 C 48.333 34.286,48.119 34.567,47.857 34.811 C 47.595 35.056,47.327 35.424,47.262 35.628 C 47.197 35.833,47.074 36.000,46.989 36.000 C 46.903 36.000,46.833 36.078,46.833 36.174 C 46.833 36.269,46.690 36.502,46.514 36.690 C 46.338 36.879,46.146 37.227,46.086 37.465 C 46.026 37.703,45.848 38.014,45.689 38.157 C 45.419 38.399,45.222 38.772,44.648 40.125 C 44.522 40.423,44.362 40.667,44.293 40.667 C 44.223 40.667,44.167 40.848,44.167 41.069 C 44.167 41.291,44.083 41.500,43.980 41.534 C 43.877 41.569,43.755 42.133,43.708 42.796 C 43.608 44.200,43.746 44.455,44.688 44.606 C 45.043 44.663,45.333 44.775,45.333 44.855 C 45.333 44.935,45.515 45.000,45.736 45.000 C 45.958 45.000,46.164 45.056,46.194 45.125 C 46.266 45.286,47.826 45.835,48.208 45.834 C 48.369 45.834,48.500 45.908,48.500 46.000 C 48.500 46.092,48.725 46.167,49.000 46.167 C 49.275 46.167,49.500 46.227,49.500 46.300 C 49.500 46.475,50.974 47.002,51.458 47.001 C 51.665 47.000,51.833 47.075,51.833 47.167 C 51.833 47.258,52.021 47.333,52.250 47.333 C 52.479 47.333,52.667 47.408,52.667 47.500 C 52.667 47.592,52.850 47.667,53.073 47.667 C 53.297 47.667,53.527 47.742,53.583 47.833 C 53.640 47.925,53.832 48.000,54.010 48.000 C 54.188 48.000,54.333 47.925,54.333 47.833 C 54.333 47.742,54.521 47.667,54.750 47.667 C 55.056 47.667,55.167 47.578,55.167 47.333 C 55.167 47.150,55.242 47.000,55.333 47.000 C 55.425 47.000,55.500 46.813,55.500 46.583 C 55.500 46.354,55.557 46.167,55.627 46.167 C 55.761 46.167,56.333 44.950,56.333 44.666 C 56.333 44.574,56.408 44.500,56.500 44.500 C 56.592 44.500,56.667 44.367,56.667 44.203 C 56.667 44.040,56.817 43.799,57.000 43.667 C 57.183 43.535,57.333 43.334,57.333 43.221 C 57.333 43.108,57.521 42.828,57.750 42.598 C 57.979 42.369,58.167 42.138,58.167 42.084 C 58.167 41.951,58.501 41.552,58.981 41.113 C 59.199 40.914,59.461 40.659,59.564 40.547 C 60.029 40.041,60.167 39.903,60.402 39.708 C 60.540 39.594,60.703 39.500,60.765 39.500 C 60.827 39.500,60.999 39.363,61.147 39.196 C 61.295 39.030,61.660 38.751,61.958 38.577 C 62.256 38.404,62.500 38.203,62.500 38.131 C 62.500 38.059,62.650 38.000,62.833 38.000 C 63.017 38.000,63.167 37.925,63.167 37.833 C 63.167 37.742,63.241 37.667,63.332 37.667 C 63.617 37.667,64.833 37.095,64.833 36.961 C 64.833 36.891,64.983 36.833,65.167 36.833 C 65.350 36.833,65.500 36.762,65.500 36.675 C 65.500 36.588,65.950 36.466,66.500 36.403 C 67.050 36.341,67.500 36.225,67.500 36.145 C 67.500 36.065,67.796 36.000,68.157 36.000 C 68.518 36.000,68.860 35.925,68.917 35.833 C 68.978 35.734,70.057 35.667,71.593 35.667 C 73.198 35.667,74.167 35.729,74.167 35.833 C 74.167 35.925,74.425 36.000,74.740 36.000 C 75.056 36.000,75.355 36.068,75.407 36.150 C 75.458 36.233,75.950 36.353,76.500 36.417 C 77.050 36.480,77.500 36.600,77.500 36.683 C 77.500 36.766,77.688 36.833,77.917 36.833 C 78.146 36.833,78.333 36.908,78.333 37.000 C 78.333 37.092,78.406 37.167,78.495 37.167 C 78.743 37.167,80.576 38.052,80.639 38.202 C 80.669 38.274,80.792 38.333,80.910 38.333 C 81.029 38.333,81.219 38.446,81.333 38.583 C 81.447 38.721,81.677 38.833,81.843 38.833 C 82.008 38.833,82.186 38.965,82.238 39.125 C 82.289 39.285,82.557 39.567,82.832 39.750 C 83.107 39.933,83.333 40.140,83.333 40.208 C 83.333 40.277,83.414 40.333,83.512 40.333 C 83.703 40.333,84.167 40.743,84.167 40.912 C 84.167 41.137,85.295 42.333,85.508 42.333 C 85.595 42.333,85.667 42.478,85.667 42.655 C 85.667 42.832,85.779 43.089,85.917 43.226 C 86.054 43.364,86.167 43.557,86.167 43.655 C 86.167 43.753,86.224 43.833,86.294 43.833 C 86.428 43.833,87.000 45.050,87.000 45.334 C 87.000 45.426,87.075 45.500,87.167 45.500 C 87.258 45.500,87.333 45.650,87.333 45.833 C 87.333 46.017,87.408 46.167,87.500 46.167 C 87.592 46.167,87.667 46.354,87.667 46.583 C 87.667 46.813,87.737 47.000,87.823 47.000 C 87.909 47.000,88.032 47.525,88.095 48.167 C 88.158 48.808,88.275 49.333,88.355 49.333 C 88.435 49.333,88.500 50.383,88.500 51.667 C 88.500 52.950,88.435 54.000,88.355 54.000 C 88.275 54.000,88.157 54.600,88.093 55.333 C 88.029 56.067,87.907 56.667,87.822 56.667 C 87.737 56.667,87.667 56.854,87.667 57.083 C 87.667 57.313,87.592 57.500,87.500 57.500 C 87.408 57.500,87.333 57.650,87.333 57.833 C 87.333 58.017,87.262 58.167,87.174 58.167 C 87.087 58.167,86.966 58.429,86.906 58.750 C 86.845 59.071,86.730 59.333,86.648 59.333 C 86.567 59.333,86.500 59.446,86.500 59.583 C 86.500 59.721,86.425 59.833,86.333 59.833 C 86.242 59.833,86.167 59.983,86.167 60.167 C 86.167 60.350,86.097 60.500,86.011 60.500 C 85.926 60.500,85.803 60.667,85.738 60.872 C 85.673 61.076,85.405 61.444,85.143 61.689 C 84.881 61.933,84.667 62.213,84.667 62.309 C 84.667 62.406,84.471 62.667,84.231 62.891 C 83.689 63.396,83.563 63.523,83.057 64.065 C 82.834 64.304,82.577 64.500,82.487 64.500 C 82.396 64.500,82.060 64.762,81.739 65.083 C 81.418 65.404,81.062 65.667,80.948 65.667 C 80.834 65.667,80.632 65.817,80.500 66.000 C 80.368 66.183,80.164 66.333,80.047 66.333 C 79.929 66.333,79.833 66.408,79.833 66.500 C 79.833 66.592,79.689 66.667,79.512 66.667 C 79.335 66.667,79.078 66.779,78.940 66.917 C 78.803 67.054,78.610 67.167,78.512 67.167 C 78.414 67.167,78.333 67.233,78.333 67.315 C 78.333 67.396,78.071 67.512,77.750 67.572 C 77.429 67.633,77.167 67.753,77.167 67.841 C 77.167 67.928,76.979 68.000,76.750 68.000 C 76.521 68.000,76.333 68.075,76.333 68.167 C 76.333 68.258,76.183 68.333,76.000 68.333 C 75.817 68.333,75.667 68.408,75.667 68.500 C 75.667 68.592,75.498 68.667,75.292 68.668 C 75.085 68.668,74.702 68.781,74.439 68.918 C 74.177 69.055,73.787 69.167,73.574 69.167 C 73.361 69.167,73.140 69.242,73.083 69.333 C 73.027 69.425,72.829 69.500,72.644 69.500 C 72.209 69.500,71.333 70.376,71.333 70.811 C 71.333 70.996,71.258 71.193,71.167 71.250 C 71.069 71.310,71.000 72.280,71.000 73.593 C 71.000 74.976,71.064 75.833,71.167 75.833 C 71.272 75.833,71.333 77.111,71.333 79.333 C 71.333 82.333,71.369 82.833,71.583 82.833 C 71.721 82.833,71.833 82.908,71.833 83.000 C 71.833 83.101,72.528 83.167,73.583 83.167 C 74.546 83.167,75.333 83.102,75.333 83.024 C 75.333 82.945,76.027 82.829,76.875 82.766 C 77.723 82.702,78.442 82.579,78.472 82.492 C 78.503 82.405,78.784 82.333,79.097 82.333 C 79.410 82.333,79.667 82.258,79.667 82.167 C 79.667 82.075,79.892 82.000,80.167 82.000 C 80.442 82.000,80.667 81.934,80.667 81.852 C 80.667 81.771,81.002 81.654,81.413 81.593 C 81.823 81.531,82.203 81.410,82.256 81.324 C 82.309 81.237,82.499 81.167,82.677 81.167 C 82.854 81.167,83.000 81.092,83.000 81.000 C 83.000 80.908,83.188 80.833,83.417 80.833 C 83.646 80.833,83.834 80.777,83.834 80.708 C 83.834 80.640,84.191 80.439,84.626 80.262 C 85.061 80.085,85.529 79.816,85.667 79.663 C 85.804 79.511,86.106 79.340,86.337 79.283 C 86.568 79.226,86.921 79.027,87.121 78.840 C 87.322 78.653,87.564 78.500,87.660 78.500 C 87.755 78.500,87.833 78.434,87.833 78.354 C 87.833 78.273,88.053 78.116,88.321 78.005 C 88.590 77.894,88.945 77.622,89.111 77.401 C 89.277 77.181,89.506 77.000,89.621 77.000 C 89.920 77.000,94.000 72.906,94.000 72.606 C 94.000 72.468,94.153 72.307,94.340 72.248 C 94.541 72.184,94.720 71.943,94.777 71.658 C 94.830 71.393,95.007 71.134,95.170 71.082 C 95.440 70.996,96.000 70.077,96.000 69.720 C 96.000 69.639,96.150 69.465,96.333 69.333 C 96.517 69.201,96.667 68.997,96.667 68.880 C 96.667 68.763,96.742 68.667,96.833 68.667 C 96.925 68.667,97.000 68.522,97.000 68.345 C 97.000 68.168,97.112 67.911,97.250 67.774 C 97.388 67.636,97.500 67.443,97.500 67.345 C 97.500 67.247,97.575 67.167,97.667 67.167 C 97.758 67.167,97.833 67.017,97.833 66.833 C 97.833 66.650,97.899 66.500,97.979 66.500 C 98.059 66.500,98.172 66.200,98.231 65.833 C 98.289 65.467,98.411 65.167,98.502 65.167 C 98.593 65.167,98.667 65.017,98.667 64.833 C 98.667 64.650,98.742 64.500,98.833 64.500 C 98.925 64.500,99.000 64.313,99.000 64.083 C 99.000 63.854,99.070 63.667,99.155 63.667 C 99.240 63.667,99.361 63.254,99.424 62.750 C 99.487 62.246,99.605 61.833,99.686 61.833 C 99.767 61.833,99.833 61.571,99.833 61.250 C 99.833 60.929,99.908 60.667,100.000 60.667 C 100.092 60.667,100.167 60.410,100.167 60.097 C 100.167 59.784,100.243 59.502,100.337 59.471 C 100.432 59.439,100.554 58.548,100.613 57.457 C 100.670 56.381,100.781 55.500,100.859 55.500 C 100.936 55.500,101.000 54.262,101.000 52.750 C 101.000 51.237,100.936 50.000,100.858 50.000 C 100.780 50.000,100.663 49.119,100.599 48.042 C 100.535 46.965,100.412 46.058,100.325 46.028 C 100.238 45.997,100.167 45.753,100.167 45.486 C 100.167 45.219,100.092 45.000,100.000 45.000 C 99.908 45.000,99.833 44.737,99.833 44.417 C 99.833 44.096,99.758 43.833,99.667 43.833 C 99.575 43.833,99.500 43.676,99.500 43.484 C 99.500 43.291,99.395 42.897,99.267 42.609 C 99.139 42.320,98.933 41.840,98.809 41.542 C 98.686 41.244,98.537 41.000,98.478 41.000 C 98.419 41.000,98.321 40.737,98.261 40.417 C 98.201 40.096,98.080 39.833,97.992 39.833 C 97.905 39.833,97.833 39.735,97.833 39.615 C 97.833 39.495,97.693 39.245,97.520 39.060 C 97.348 38.876,97.150 38.543,97.080 38.321 C 97.010 38.098,96.813 37.795,96.643 37.647 C 96.473 37.499,96.333 37.255,96.333 37.105 C 96.333 36.956,96.263 36.833,96.178 36.833 C 96.092 36.833,95.978 36.692,95.923 36.519 C 95.868 36.347,95.600 35.972,95.328 35.688 C 95.056 35.403,94.833 35.106,94.833 35.028 C 94.833 34.951,94.552 34.613,94.208 34.279 C 93.865 33.944,93.419 33.501,93.217 33.294 C 93.016 33.086,92.753 32.825,92.634 32.713 C 92.514 32.601,92.331 32.424,92.227 32.319 C 91.385 31.478,91.136 31.228,90.987 31.083 C 90.894 30.992,90.577 30.682,90.283 30.394 C 89.990 30.107,89.585 29.822,89.384 29.761 C 89.182 29.700,88.971 29.503,88.914 29.325 C 88.857 29.146,88.700 29.000,88.565 29.000 C 88.430 29.000,88.117 28.813,87.869 28.583 C 87.622 28.354,87.342 28.167,87.247 28.167 C 87.152 28.167,86.966 28.017,86.834 27.834 C 86.702 27.651,86.348 27.455,86.047 27.399 C 85.746 27.342,85.500 27.230,85.500 27.148 C 85.500 27.067,85.422 27.000,85.326 27.000 C 85.231 27.000,84.989 26.847,84.788 26.660 C 84.587 26.473,84.234 26.274,84.003 26.218 C 83.772 26.161,83.546 26.071,83.500 26.016 C 83.314 25.794,82.650 25.500,82.336 25.500 C 82.151 25.500,82.000 25.426,82.000 25.335 C 82.000 25.245,81.700 25.123,81.333 25.064 C 80.967 25.005,80.667 24.892,80.667 24.812 C 80.667 24.732,80.442 24.667,80.167 24.667 C 79.892 24.667,79.667 24.592,79.667 24.500 C 79.667 24.408,79.479 24.333,79.250 24.333 C 79.021 24.333,78.833 24.266,78.833 24.184 C 78.833 24.101,78.308 23.981,77.667 23.917 C 77.025 23.852,76.500 23.732,76.500 23.650 C 76.500 23.567,76.050 23.500,75.500 23.500 C 74.944 23.500,74.500 23.426,74.500 23.333 C 74.500 23.228,73.392 23.167,71.510 23.167 C 69.696 23.167,68.479 23.232,68.417 23.333 M69.833 46.333 C 69.833 46.425,69.646 46.500,69.417 46.500 C 69.188 46.500,69.000 46.566,69.000 46.646 C 69.000 46.726,68.784 46.835,68.521 46.887 C 68.010 46.990,66.667 48.237,66.667 48.610 C 66.667 48.733,66.592 48.833,66.500 48.833 C 66.408 48.833,66.333 48.940,66.333 49.069 C 66.333 49.199,66.241 49.336,66.127 49.374 C 65.984 49.422,65.902 50.046,65.858 51.427 C 65.794 53.448,65.594 54.000,64.928 54.000 C 64.825 54.000,64.632 54.150,64.500 54.333 C 64.368 54.517,64.126 54.667,63.963 54.667 C 63.800 54.667,63.667 54.738,63.667 54.826 C 63.667 54.913,63.404 55.109,63.083 55.261 C 62.762 55.413,62.500 55.604,62.500 55.686 C 62.500 55.767,62.387 55.833,62.250 55.833 C 62.112 55.833,62.000 55.903,62.000 55.989 C 62.000 56.074,61.831 56.197,61.625 56.263 C 61.419 56.328,61.136 56.502,60.998 56.649 C 60.714 56.950,60.334 57.197,59.542 57.598 C 59.244 57.748,59.000 57.938,59.000 58.019 C 59.000 58.100,58.887 58.167,58.750 58.167 C 58.612 58.167,58.500 58.237,58.500 58.322 C 58.500 58.408,58.333 58.531,58.128 58.595 C 57.924 58.660,57.566 58.917,57.333 59.167 C 57.100 59.416,56.743 59.673,56.538 59.738 C 56.334 59.803,56.167 59.926,56.167 60.011 C 56.167 60.097,56.022 60.167,55.845 60.167 C 55.667 60.167,55.475 60.317,55.417 60.500 C 55.358 60.683,55.171 60.833,55.001 60.833 C 54.830 60.833,54.578 60.946,54.440 61.083 C 54.303 61.221,54.138 61.333,54.073 61.333 C 54.009 61.333,53.834 61.473,53.686 61.643 C 53.538 61.813,53.248 62.006,53.042 62.071 C 52.835 62.136,52.667 62.259,52.667 62.345 C 52.667 62.430,52.522 62.500,52.345 62.500 C 52.167 62.500,51.975 62.650,51.917 62.833 C 51.858 63.017,51.671 63.167,51.501 63.167 C 51.330 63.167,51.078 63.279,50.940 63.417 C 50.803 63.554,50.627 63.667,50.549 63.667 C 50.471 63.667,50.299 63.817,50.167 64.000 C 50.035 64.183,49.847 64.333,49.750 64.333 C 49.653 64.333,49.465 64.183,49.333 64.000 C 49.201 63.817,48.966 63.667,48.810 63.667 C 48.655 63.667,48.498 63.577,48.461 63.467 C 48.281 62.925,43.333 63.318,43.333 63.874 C 43.333 63.943,43.240 64.000,43.125 64.000 C 42.813 64.000,41.566 65.195,41.430 65.625 C 41.364 65.831,41.241 66.000,41.155 66.000 C 41.070 66.000,41.000 66.188,41.000 66.417 C 41.000 66.646,40.925 66.833,40.833 66.833 C 40.732 66.833,40.667 67.583,40.667 68.750 C 40.667 69.917,40.732 70.667,40.833 70.667 C 40.925 70.667,41.000 70.779,41.000 70.917 C 41.000 71.054,41.066 71.167,41.146 71.167 C 41.226 71.167,41.338 71.400,41.395 71.685 C 41.501 72.214,42.474 73.250,43.031 73.427 C 43.197 73.479,43.333 73.592,43.333 73.678 C 43.333 73.763,43.489 73.833,43.679 73.833 C 44.536 73.833,44.500 73.115,44.500 90.238 C 44.500 106.056,44.498 106.167,44.167 106.167 C 43.983 106.167,43.833 106.242,43.833 106.333 C 43.833 106.425,43.721 106.500,43.583 106.500 C 43.446 106.500,43.333 106.575,43.333 106.667 C 43.333 106.758,43.210 106.833,43.058 106.833 C 42.732 106.833,41.333 108.266,41.333 108.601 C 41.333 108.729,41.258 108.833,41.167 108.833 C 41.075 108.833,41.000 108.983,41.000 109.167 C 41.000 109.350,40.925 109.500,40.833 109.500 C 40.731 109.500,40.667 110.278,40.667 111.500 C 40.667 112.722,40.731 113.500,40.833 113.500 C 40.925 113.500,41.000 113.688,41.000 113.917 C 41.000 114.146,41.070 114.333,41.155 114.333 C 41.241 114.333,41.364 114.502,41.430 114.708 C 41.565 115.135,42.578 116.116,43.031 116.260 C 43.197 116.313,43.333 116.426,43.333 116.511 C 43.333 116.597,43.521 116.667,43.750 116.667 C 43.979 116.667,44.167 116.742,44.167 116.833 C 44.167 116.925,44.504 117.000,44.917 117.000 C 45.329 117.000,45.667 117.075,45.667 117.167 C 45.667 117.258,45.887 117.333,46.157 117.333 C 46.426 117.333,46.693 117.258,46.750 117.167 C 46.807 117.075,47.096 117.000,47.393 117.000 C 47.960 117.000,48.830 116.672,48.832 116.458 C 48.833 116.390,48.955 116.333,49.103 116.333 C 49.431 116.333,50.833 114.905,50.833 114.571 C 50.833 114.440,50.908 114.333,51.000 114.333 C 51.092 114.333,51.167 114.227,51.167 114.097 C 51.167 113.967,51.260 113.830,51.375 113.792 C 51.528 113.741,51.583 113.130,51.583 111.500 C 51.583 109.871,51.528 109.259,51.375 109.208 C 51.260 109.170,51.167 109.012,51.167 108.856 C 51.167 108.701,51.017 108.465,50.833 108.333 C 50.650 108.201,50.500 108.001,50.500 107.888 C 50.500 107.776,50.219 107.474,49.875 107.217 C 49.531 106.960,49.225 106.694,49.194 106.625 C 49.164 106.556,48.995 106.500,48.819 106.500 C 48.644 106.500,48.500 106.425,48.500 106.333 C 48.500 106.242,48.313 106.167,48.083 106.167 L 47.667 106.167 47.667 90.198 L 47.667 74.229 48.250 74.000 C 48.571 73.874,48.833 73.710,48.833 73.636 C 48.833 73.561,48.986 73.500,49.172 73.500 C 49.358 73.500,49.554 73.387,49.606 73.250 C 49.659 73.112,49.809 73.000,49.939 73.000 C 50.069 73.000,50.241 72.831,50.321 72.625 C 50.402 72.419,50.625 72.140,50.817 72.005 C 51.009 71.870,51.167 71.633,51.167 71.477 C 51.167 71.322,51.257 71.164,51.366 71.128 C 51.502 71.083,51.589 70.387,51.637 68.947 C 51.701 67.015,51.734 66.833,52.020 66.833 C 52.192 66.833,52.333 66.775,52.333 66.705 C 52.333 66.634,52.596 66.434,52.917 66.262 C 53.237 66.089,53.500 65.884,53.500 65.807 C 53.500 65.730,53.612 65.667,53.750 65.667 C 53.887 65.667,54.000 65.599,54.000 65.516 C 54.000 65.434,54.226 65.287,54.502 65.191 C 54.778 65.095,55.049 64.900,55.103 64.758 C 55.158 64.616,55.344 64.500,55.518 64.500 C 55.691 64.500,55.833 64.442,55.833 64.371 C 55.833 64.300,56.096 64.101,56.417 63.928 C 56.737 63.756,57.000 63.551,57.000 63.474 C 57.000 63.397,57.080 63.333,57.179 63.333 C 57.277 63.333,57.462 63.240,57.589 63.125 C 58.121 62.648,58.327 62.500,58.456 62.500 C 58.531 62.500,58.701 62.350,58.833 62.167 C 58.965 61.983,59.209 61.833,59.375 61.833 C 59.541 61.833,59.720 61.721,59.773 61.583 C 59.826 61.446,59.983 61.333,60.123 61.333 C 60.263 61.333,60.499 61.194,60.647 61.024 C 60.795 60.854,61.085 60.661,61.292 60.596 C 61.498 60.531,61.667 60.408,61.667 60.322 C 61.667 60.237,61.763 60.167,61.880 60.167 C 61.997 60.167,62.201 60.017,62.333 59.833 C 62.465 59.650,62.709 59.500,62.875 59.500 C 63.041 59.500,63.220 59.387,63.273 59.250 C 63.326 59.112,63.483 59.000,63.623 59.000 C 63.763 59.000,63.999 58.861,64.147 58.691 C 64.295 58.520,64.585 58.328,64.792 58.263 C 64.998 58.197,65.167 58.074,65.167 57.989 C 65.167 57.903,65.263 57.833,65.380 57.833 C 65.497 57.833,65.701 57.683,65.833 57.500 C 65.965 57.317,66.209 57.167,66.375 57.167 C 66.541 57.167,66.720 57.054,66.773 56.917 C 66.826 56.779,67.011 56.667,67.184 56.667 C 67.358 56.667,67.500 56.592,67.500 56.500 C 67.500 56.408,67.650 56.333,67.833 56.333 C 68.017 56.333,68.167 56.408,68.167 56.500 C 68.167 56.592,68.273 56.667,68.403 56.667 C 68.533 56.667,68.666 56.749,68.700 56.850 C 68.733 56.950,69.265 57.073,69.880 57.122 C 70.496 57.172,71.000 57.277,71.000 57.356 C 71.000 57.435,71.188 57.500,71.417 57.500 C 71.646 57.500,71.833 57.434,71.833 57.354 C 71.833 57.274,72.261 57.172,72.783 57.129 C 73.306 57.086,73.762 56.964,73.797 56.859 C 73.832 56.753,73.977 56.667,74.119 56.667 C 74.261 56.667,74.499 56.530,74.647 56.363 C 74.795 56.197,75.050 56.011,75.212 55.951 C 75.375 55.890,75.558 55.708,75.619 55.545 C 75.681 55.383,75.829 55.151,75.949 55.030 C 76.069 54.909,76.167 54.702,76.167 54.571 C 76.167 54.440,76.242 54.333,76.333 54.333 C 76.425 54.333,76.500 54.183,76.500 54.000 C 76.500 53.817,76.575 53.667,76.667 53.667 C 76.768 53.667,76.833 52.944,76.833 51.833 C 76.833 50.722,76.768 50.000,76.667 50.000 C 76.575 50.000,76.500 49.813,76.500 49.583 C 76.500 49.354,76.430 49.167,76.345 49.167 C 76.259 49.167,76.138 48.998,76.076 48.792 C 75.924 48.291,74.590 47.029,74.076 46.900 C 73.851 46.843,73.667 46.730,73.667 46.649 C 73.667 46.567,73.442 46.500,73.167 46.500 C 72.892 46.500,72.667 46.425,72.667 46.333 C 72.667 46.235,72.083 46.167,71.250 46.167 C 70.417 46.167,69.833 46.235,69.833 46.333 M126.410 51.875 C 126.367 51.990,126.350 63.071,126.374 76.500 L 126.417 100.917 131.500 100.917 L 136.583 100.917 136.627 92.792 L 136.670 84.667 143.242 84.667 C 147.443 84.667,149.851 84.607,149.917 84.500 C 149.973 84.408,150.353 84.333,150.760 84.333 C 151.167 84.333,151.500 84.268,151.500 84.188 C 151.500 84.109,151.854 84.003,152.286 83.955 C 152.719 83.906,153.100 83.784,153.133 83.683 C 153.167 83.582,153.376 83.500,153.597 83.500 C 153.819 83.500,154.000 83.425,154.000 83.333 C 154.000 83.242,154.150 83.167,154.333 83.167 C 154.517 83.167,154.667 83.100,154.667 83.018 C 154.667 82.936,154.854 82.822,155.083 82.765 C 155.313 82.707,155.500 82.587,155.500 82.497 C 155.500 82.407,155.645 82.333,155.822 82.333 C 155.999 82.333,156.192 82.183,156.250 82.000 C 156.308 81.817,156.485 81.667,156.643 81.667 C 156.801 81.667,157.204 81.385,157.538 81.042 C 157.872 80.698,158.233 80.331,158.341 80.226 C 159.068 79.518,159.667 78.820,159.667 78.680 C 159.667 78.589,159.854 78.328,160.083 78.098 C 160.313 77.869,160.500 77.603,160.500 77.508 C 160.500 77.412,160.572 77.333,160.659 77.333 C 160.747 77.333,160.867 77.071,160.928 76.750 C 160.988 76.429,161.104 76.167,161.185 76.167 C 161.267 76.167,161.333 76.054,161.333 75.917 C 161.333 75.779,161.408 75.667,161.500 75.667 C 161.592 75.667,161.667 75.517,161.667 75.333 C 161.667 75.150,161.737 75.000,161.823 75.000 C 161.909 75.000,162.030 74.662,162.092 74.250 C 162.154 73.837,162.271 73.500,162.352 73.500 C 162.434 73.500,162.500 73.237,162.500 72.917 C 162.500 72.596,162.575 72.333,162.667 72.333 C 162.758 72.333,162.833 72.033,162.833 71.667 C 162.833 71.300,162.908 71.000,163.000 71.000 C 163.104 71.000,163.167 70.000,163.167 68.333 C 163.167 66.667,163.104 65.667,163.000 65.667 C 162.908 65.667,162.833 65.367,162.833 65.000 C 162.833 64.633,162.758 64.333,162.667 64.333 C 162.575 64.333,162.500 64.071,162.500 63.750 C 162.500 63.429,162.435 63.167,162.355 63.167 C 162.276 63.167,162.168 62.850,162.116 62.462 C 162.064 62.074,161.942 61.731,161.844 61.698 C 161.747 61.666,161.667 61.495,161.667 61.319 C 161.667 61.144,161.592 61.000,161.500 61.000 C 161.408 61.000,161.333 60.887,161.333 60.750 C 161.333 60.612,161.267 60.500,161.185 60.500 C 161.104 60.500,160.991 60.254,160.934 59.953 C 160.878 59.652,160.682 59.298,160.499 59.166 C 160.316 59.034,160.167 58.830,160.167 58.713 C 160.167 58.596,160.097 58.500,160.011 58.500 C 159.926 58.500,159.805 58.331,159.742 58.125 C 159.679 57.919,159.393 57.510,159.106 57.217 C 158.818 56.923,158.498 56.596,158.394 56.490 C 158.289 56.383,158.027 56.121,157.810 55.906 C 157.594 55.692,157.320 55.400,157.202 55.258 C 157.084 55.116,156.845 55.000,156.671 55.000 C 156.498 55.000,156.310 54.857,156.255 54.683 C 156.160 54.384,155.250 53.833,154.850 53.833 C 154.749 53.833,154.667 53.758,154.667 53.667 C 154.667 53.575,154.517 53.500,154.333 53.500 C 154.150 53.500,154.000 53.425,154.000 53.333 C 154.000 53.242,153.887 53.167,153.750 53.167 C 153.612 53.167,153.500 53.096,153.500 53.010 C 153.500 52.924,153.162 52.803,152.750 52.741 C 152.337 52.679,152.000 52.562,152.000 52.481 C 152.000 52.400,151.813 52.333,151.583 52.333 C 151.354 52.333,151.167 52.258,151.167 52.167 C 151.167 52.075,150.834 52.000,150.427 52.000 C 150.019 52.000,149.640 51.925,149.583 51.833 C 149.418 51.566,126.512 51.607,126.410 51.875 M255.000 76.333 L 255.000 101.000 267.917 101.000 C 276.417 101.000,280.833 100.943,280.833 100.833 C 280.833 100.739,281.306 100.667,281.917 100.667 C 282.528 100.667,283.000 100.594,283.000 100.500 C 283.000 100.408,283.300 100.333,283.667 100.333 C 284.033 100.333,284.333 100.267,284.333 100.186 C 284.333 100.105,284.746 99.987,285.250 99.924 C 285.754 99.861,286.167 99.740,286.167 99.655 C 286.167 99.570,286.354 99.500,286.583 99.500 C 286.813 99.500,287.000 99.425,287.000 99.333 C 287.000 99.242,287.150 99.167,287.333 99.167 C 287.517 99.167,287.667 99.098,287.667 99.013 C 287.667 98.929,287.895 98.810,288.175 98.748 C 288.454 98.687,288.772 98.493,288.881 98.318 C 288.991 98.143,289.212 98.000,289.373 98.000 C 289.535 98.000,289.667 97.930,289.667 97.845 C 289.667 97.759,289.815 97.642,289.997 97.584 C 290.426 97.448,292.282 95.592,292.418 95.164 C 292.475 94.982,292.592 94.833,292.678 94.833 C 292.763 94.833,292.833 94.701,292.833 94.540 C 292.833 94.379,292.982 94.154,293.165 94.040 C 293.364 93.916,293.539 93.567,293.603 93.166 C 293.661 92.800,293.775 92.500,293.855 92.500 C 293.935 92.500,294.000 92.313,294.000 92.083 C 294.000 91.854,294.075 91.667,294.167 91.667 C 294.258 91.667,294.333 91.329,294.333 90.917 C 294.333 90.504,294.408 90.167,294.500 90.167 C 294.603 90.167,294.667 89.333,294.667 88.000 C 294.667 86.667,294.603 85.833,294.500 85.833 C 294.408 85.833,294.333 85.463,294.333 85.010 C 294.333 84.557,294.258 84.140,294.167 84.083 C 294.075 84.027,294.000 83.797,294.000 83.573 C 294.000 83.350,293.925 83.167,293.833 83.167 C 293.742 83.167,293.667 83.009,293.667 82.817 C 293.667 82.474,293.203 81.331,292.997 81.167 C 292.939 81.121,292.839 80.971,292.773 80.833 C 292.360 79.970,292.137 79.688,290.916 78.500 C 290.681 78.271,290.328 77.915,290.131 77.708 C 289.934 77.502,289.674 77.333,289.553 77.333 C 289.432 77.333,289.333 77.260,289.333 77.170 C 289.333 77.080,289.146 76.959,288.917 76.902 C 288.688 76.844,288.500 76.730,288.500 76.649 C 288.500 76.567,288.350 76.500,288.167 76.500 C 287.983 76.500,287.833 76.444,287.832 76.375 C 287.830 76.225,287.023 75.833,286.717 75.833 C 286.598 75.833,286.500 75.775,286.500 75.704 C 286.500 75.526,287.130 75.000,287.343 75.000 C 287.438 75.000,287.690 74.813,287.902 74.583 C 288.114 74.354,288.360 74.167,288.447 74.167 C 288.607 74.167,289.333 73.408,289.333 73.241 C 289.333 73.192,289.521 72.964,289.750 72.735 C 289.979 72.506,290.167 72.226,290.167 72.113 C 290.167 71.999,290.317 71.799,290.500 71.667 C 290.683 71.535,290.833 71.330,290.833 71.213 C 290.833 71.096,290.900 71.000,290.981 71.000 C 291.063 71.000,291.179 70.737,291.239 70.417 C 291.299 70.096,291.420 69.833,291.508 69.833 C 291.595 69.833,291.667 69.608,291.667 69.333 C 291.667 69.058,291.742 68.833,291.833 68.833 C 291.925 68.833,292.000 68.661,292.000 68.450 C 292.000 68.239,292.094 67.973,292.208 67.858 C 292.361 67.706,292.417 66.774,292.417 64.381 C 292.417 61.913,292.366 61.094,292.208 61.042 C 292.094 61.003,292.000 60.716,292.000 60.403 C 292.000 60.090,291.925 59.833,291.833 59.833 C 291.742 59.833,291.667 59.646,291.667 59.417 C 291.667 59.188,291.595 59.000,291.508 59.000 C 291.420 59.000,291.299 58.737,291.239 58.417 C 291.179 58.096,291.063 57.833,290.981 57.833 C 290.900 57.833,290.833 57.737,290.833 57.620 C 290.833 57.503,290.683 57.299,290.500 57.167 C 290.317 57.035,290.167 56.803,290.167 56.653 C 290.167 56.503,289.979 56.239,289.750 56.067 C 289.521 55.895,289.331 55.678,289.328 55.585 C 289.322 55.348,288.375 54.333,288.161 54.333 C 288.064 54.333,287.810 54.146,287.598 53.917 C 287.386 53.688,287.107 53.500,286.979 53.500 C 286.851 53.500,286.657 53.357,286.548 53.182 C 286.439 53.007,286.122 52.813,285.843 52.752 C 285.565 52.691,285.294 52.572,285.242 52.487 C 285.190 52.403,284.964 52.333,284.740 52.333 C 284.516 52.333,284.333 52.258,284.333 52.167 C 284.333 52.075,284.033 52.000,283.667 52.000 C 283.300 52.000,283.000 51.925,283.000 51.833 C 283.000 51.724,278.222 51.667,269.000 51.667 L 255.000 51.667 255.000 76.333 M348.833 58.667 L 348.833 64.500 346.500 64.500 L 344.167 64.500 344.167 68.333 L 344.167 72.167 346.500 72.167 L 348.833 72.167 348.833 82.500 C 348.833 89.278,348.891 92.833,349.000 92.833 C 349.096 92.833,349.167 93.361,349.167 94.083 C 349.167 94.771,349.232 95.333,349.311 95.333 C 349.391 95.333,349.499 95.650,349.551 96.038 C 349.603 96.426,349.725 96.769,349.823 96.802 C 349.920 96.834,350.000 97.005,350.000 97.181 C 350.000 97.356,350.075 97.500,350.167 97.500 C 350.258 97.500,350.333 97.612,350.333 97.750 C 350.333 97.888,350.403 98.000,350.489 98.000 C 350.574 98.000,350.696 98.162,350.759 98.361 C 350.872 98.718,351.556 99.500,351.754 99.500 C 351.811 99.500,351.970 99.612,352.107 99.750 C 352.245 99.888,352.502 100.000,352.679 100.000 C 352.855 100.000,353.000 100.075,353.000 100.167 C 353.000 100.258,353.113 100.333,353.250 100.333 C 353.387 100.333,353.500 100.408,353.500 100.500 C 353.500 100.592,353.644 100.667,353.819 100.667 C 353.995 100.667,354.164 100.743,354.195 100.836 C 354.226 100.929,354.758 101.052,355.376 101.110 C 355.994 101.168,356.500 101.279,356.500 101.357 C 356.500 101.436,357.512 101.500,358.750 101.500 C 359.988 101.500,361.000 101.436,361.000 101.358 C 361.000 101.280,361.656 101.166,362.458 101.104 C 363.260 101.043,363.942 100.919,363.972 100.830 C 364.003 100.740,364.209 100.667,364.431 100.667 C 364.652 100.667,364.833 100.592,364.833 100.500 C 364.833 100.408,365.096 100.333,365.417 100.333 C 365.738 100.333,366.000 100.263,366.000 100.177 C 366.000 100.091,366.337 99.970,366.750 99.908 C 367.162 99.846,367.500 99.729,367.500 99.648 C 367.500 99.566,367.688 99.500,367.917 99.500 C 368.146 99.500,368.333 99.425,368.333 99.333 C 368.333 99.242,368.483 99.167,368.667 99.167 C 368.944 99.167,369.000 99.056,369.000 98.500 C 369.000 98.133,368.925 97.833,368.833 97.833 C 368.742 97.833,368.667 97.571,368.667 97.250 C 368.667 96.929,368.592 96.667,368.500 96.667 C 368.408 96.667,368.333 96.404,368.333 96.083 C 368.333 95.763,368.266 95.500,368.184 95.500 C 368.101 95.500,367.981 94.975,367.917 94.333 C 367.852 93.692,367.732 93.167,367.650 93.167 C 367.567 93.167,367.500 92.904,367.500 92.583 C 367.500 92.263,367.425 92.000,367.333 92.000 C 367.242 92.000,367.167 91.850,367.167 91.667 C 367.167 91.389,367.056 91.333,366.500 91.333 C 366.133 91.333,365.833 91.408,365.833 91.500 C 365.833 91.592,365.683 91.667,365.500 91.667 C 365.317 91.667,365.167 91.738,365.167 91.825 C 365.167 91.912,364.717 92.034,364.167 92.097 C 363.617 92.159,363.167 92.275,363.167 92.355 C 363.167 92.435,362.679 92.500,362.083 92.500 C 361.472 92.500,361.000 92.427,361.000 92.333 C 361.000 92.242,360.818 92.167,360.595 92.167 C 360.373 92.167,360.078 92.054,359.940 91.917 C 359.803 91.779,359.610 91.667,359.512 91.667 C 359.414 91.667,359.333 91.517,359.333 91.333 C 359.333 91.150,359.258 91.000,359.167 91.000 C 359.075 91.000,359.000 90.888,359.000 90.750 C 359.000 90.612,358.925 90.500,358.833 90.500 C 358.724 90.500,358.667 87.333,358.667 81.333 L 358.667 72.167 362.500 72.167 L 366.333 72.167 366.333 68.333 L 366.333 64.500 362.500 64.500 L 358.667 64.500 358.667 58.667 L 358.667 52.833 353.750 52.833 L 348.833 52.833 348.833 58.667 M148.293 60.795 C 148.330 60.908,148.542 61.000,148.764 61.000 C 148.985 61.000,149.167 61.075,149.167 61.167 C 149.167 61.258,149.245 61.333,149.340 61.333 C 149.546 61.333,149.718 61.474,150.903 62.613 C 151.445 63.133,151.846 63.679,151.914 63.988 C 151.976 64.270,152.096 64.500,152.180 64.500 C 152.264 64.500,152.333 64.650,152.333 64.833 C 152.333 65.017,152.408 65.167,152.500 65.167 C 152.592 65.167,152.667 65.429,152.667 65.750 C 152.667 66.071,152.742 66.333,152.833 66.333 C 152.935 66.333,153.000 67.111,153.000 68.333 C 153.000 69.556,152.935 70.333,152.833 70.333 C 152.742 70.333,152.667 70.558,152.667 70.833 C 152.667 71.108,152.592 71.333,152.500 71.333 C 152.408 71.333,152.333 71.521,152.333 71.750 C 152.333 71.979,152.262 72.167,152.174 72.167 C 152.087 72.167,151.966 72.429,151.906 72.750 C 151.845 73.071,151.733 73.333,151.656 73.333 C 151.531 73.333,151.348 73.504,150.550 74.367 C 150.191 74.754,149.851 75.000,149.674 75.000 C 149.578 75.000,149.500 75.075,149.500 75.167 C 149.500 75.258,149.350 75.333,149.167 75.333 C 148.983 75.333,148.833 75.408,148.833 75.500 C 148.833 75.608,146.694 75.667,142.750 75.667 L 136.667 75.667 136.667 68.064 L 136.667 60.462 142.445 60.526 C 146.831 60.574,148.241 60.639,148.293 60.795 M279.458 60.792 C 279.497 60.906,279.634 61.000,279.764 61.000 C 279.894 61.000,280.000 61.075,280.000 61.167 C 280.000 61.258,280.118 61.333,280.263 61.333 C 280.598 61.333,281.500 62.227,281.500 62.559 C 281.500 62.698,281.643 62.856,281.818 62.912 C 282.064 62.990,282.161 63.236,282.251 64.007 C 282.314 64.553,282.434 65.042,282.516 65.093 C 282.713 65.215,282.712 67.500,282.516 67.500 C 282.433 67.500,282.315 67.862,282.254 68.305 C 282.184 68.815,282.025 69.195,281.822 69.342 C 281.645 69.469,281.499 69.651,281.497 69.745 C 281.493 70.042,280.552 71.000,280.264 71.000 C 280.113 71.000,279.946 71.112,279.894 71.250 C 279.841 71.387,279.656 71.500,279.482 71.500 C 279.309 71.500,279.167 71.575,279.167 71.667 C 279.167 71.758,278.904 71.833,278.583 71.833 C 278.262 71.833,278.000 71.908,278.000 72.000 C 278.000 72.108,275.694 72.167,271.417 72.167 L 264.833 72.167 264.833 66.327 L 264.833 60.487 272.111 60.535 C 277.751 60.572,279.405 60.630,279.458 60.792 M181.500 64.143 C 181.500 64.221,180.881 64.337,180.125 64.399 C 179.369 64.462,178.725 64.585,178.694 64.673 C 178.664 64.761,178.383 64.833,178.069 64.833 C 177.756 64.833,177.500 64.908,177.500 65.000 C 177.500 65.092,177.275 65.167,177.000 65.167 C 176.725 65.167,176.500 65.232,176.500 65.312 C 176.500 65.392,176.200 65.505,175.833 65.564 C 175.467 65.623,175.167 65.745,175.167 65.835 C 175.167 65.926,175.016 66.000,174.831 66.000 C 174.516 66.000,173.853 66.294,173.667 66.516 C 173.621 66.571,173.359 66.670,173.085 66.738 C 172.811 66.805,172.548 66.910,172.502 66.972 C 172.390 67.118,171.890 67.421,171.167 67.781 C 170.289 68.217,169.706 69.167,170.315 69.167 C 170.396 69.167,170.512 69.429,170.572 69.750 C 170.633 70.071,170.753 70.333,170.841 70.333 C 170.928 70.333,171.000 70.483,171.000 70.667 C 171.000 70.850,171.075 71.000,171.167 71.000 C 171.258 71.000,171.333 71.112,171.333 71.250 C 171.333 71.387,171.408 71.500,171.500 71.500 C 171.592 71.500,171.667 71.649,171.667 71.832 C 171.667 72.243,172.199 73.500,172.373 73.500 C 172.443 73.500,172.500 73.650,172.500 73.833 C 172.500 74.017,172.575 74.167,172.667 74.167 C 172.758 74.167,172.833 74.279,172.833 74.417 C 172.833 74.582,172.999 74.667,173.321 74.667 C 173.590 74.667,173.922 74.554,174.060 74.417 C 174.197 74.279,174.427 74.167,174.571 74.167 C 174.715 74.167,174.833 74.092,174.833 74.000 C 174.833 73.908,174.946 73.833,175.083 73.833 C 175.221 73.833,175.333 73.760,175.333 73.670 C 175.333 73.580,175.521 73.459,175.750 73.402 C 175.979 73.344,176.167 73.230,176.167 73.149 C 176.167 73.067,176.317 73.000,176.500 73.000 C 176.683 73.000,176.833 72.925,176.833 72.833 C 176.833 72.742,176.946 72.667,177.083 72.667 C 177.221 72.667,177.333 72.598,177.333 72.515 C 177.333 72.431,177.633 72.312,177.999 72.250 C 178.365 72.188,178.707 72.069,178.759 71.985 C 178.811 71.902,178.999 71.833,179.177 71.833 C 179.354 71.833,179.500 71.758,179.500 71.667 C 179.500 71.575,179.710 71.500,179.967 71.500 C 180.223 71.500,180.511 71.423,180.605 71.328 C 180.700 71.234,181.559 71.110,182.514 71.053 C 183.471 70.996,184.306 70.868,184.375 70.767 C 184.466 70.633,184.534 70.633,184.625 70.767 C 184.694 70.868,185.461 70.995,186.331 71.050 C 187.200 71.105,187.937 71.229,187.969 71.325 C 188.002 71.421,188.192 71.500,188.394 71.500 C 188.595 71.500,188.868 71.650,189.000 71.833 C 189.132 72.017,189.330 72.167,189.440 72.167 C 189.721 72.167,191.167 73.643,191.167 73.930 C 191.167 74.060,191.241 74.167,191.331 74.167 C 191.422 74.167,191.544 74.467,191.603 74.833 C 191.661 75.200,191.775 75.500,191.855 75.500 C 191.935 75.500,192.000 75.837,192.000 76.250 C 192.000 76.662,192.075 77.000,192.167 77.000 C 192.262 77.000,192.333 77.505,192.333 78.181 L 192.333 79.363 191.625 79.245 C 191.235 79.180,190.892 79.061,190.861 78.980 C 190.831 78.899,190.549 78.833,190.236 78.833 C 189.923 78.833,189.667 78.758,189.667 78.667 C 189.667 78.575,189.260 78.500,188.764 78.500 C 188.248 78.500,187.835 78.420,187.799 78.314 C 187.710 78.047,179.958 78.042,179.869 78.308 C 179.834 78.414,179.476 78.500,179.069 78.500 C 178.665 78.500,178.333 78.575,178.333 78.667 C 178.333 78.758,178.071 78.833,177.750 78.833 C 177.429 78.833,177.167 78.900,177.167 78.981 C 177.167 79.062,176.829 79.179,176.417 79.241 C 176.004 79.303,175.667 79.424,175.667 79.510 C 175.667 79.596,175.479 79.667,175.250 79.667 C 175.021 79.667,174.833 79.742,174.833 79.833 C 174.833 79.925,174.730 80.000,174.604 80.000 C 174.477 80.000,174.281 80.112,174.167 80.250 C 174.053 80.387,173.818 80.500,173.646 80.500 C 173.474 80.500,173.333 80.575,173.333 80.667 C 173.333 80.758,173.255 80.833,173.159 80.833 C 173.063 80.833,172.804 81.002,172.584 81.208 C 171.985 81.768,171.692 82.000,171.583 82.000 C 171.418 82.000,170.667 82.807,170.667 82.985 C 170.667 83.077,170.479 83.339,170.250 83.568 C 170.021 83.797,169.833 84.063,169.833 84.159 C 169.833 84.255,169.773 84.333,169.699 84.333 C 169.531 84.333,169.000 85.515,169.000 85.889 C 169.000 86.042,168.925 86.167,168.833 86.167 C 168.742 86.167,168.667 86.348,168.667 86.569 C 168.667 86.791,168.573 87.003,168.458 87.042 C 168.162 87.140,168.167 92.861,168.463 92.960 C 168.575 92.997,168.667 93.247,168.667 93.514 C 168.667 93.781,168.742 94.000,168.833 94.000 C 168.925 94.000,169.000 94.188,169.000 94.417 C 169.000 94.646,169.069 94.833,169.153 94.833 C 169.238 94.833,169.354 95.048,169.412 95.311 C 169.469 95.573,169.663 95.945,169.842 96.137 C 170.020 96.329,170.167 96.530,170.167 96.583 C 170.167 96.693,170.474 97.082,170.800 97.383 C 171.078 97.641,171.693 98.256,171.950 98.534 C 172.266 98.874,172.642 99.167,172.765 99.167 C 172.827 99.167,172.999 99.307,173.147 99.478 C 173.296 99.649,173.661 99.842,173.958 99.908 C 174.256 99.973,174.500 100.096,174.500 100.180 C 174.500 100.264,174.650 100.333,174.833 100.333 C 175.017 100.333,175.167 100.408,175.167 100.500 C 175.167 100.592,175.354 100.667,175.583 100.667 C 175.813 100.667,176.000 100.738,176.000 100.825 C 176.000 100.912,176.450 101.034,177.000 101.097 C 177.550 101.159,178.000 101.275,178.000 101.355 C 178.000 101.435,179.237 101.500,180.750 101.500 C 182.262 101.500,183.500 101.435,183.500 101.355 C 183.500 101.275,184.100 101.157,184.833 101.093 C 185.567 101.029,186.167 100.907,186.167 100.822 C 186.167 100.737,186.354 100.667,186.583 100.667 C 186.813 100.667,187.000 100.592,187.000 100.500 C 187.000 100.408,187.150 100.333,187.333 100.333 C 187.517 100.333,187.667 100.262,187.667 100.174 C 187.667 100.087,187.929 99.966,188.250 99.906 C 188.571 99.845,188.833 99.730,188.833 99.648 C 188.833 99.567,188.946 99.500,189.083 99.500 C 189.221 99.500,189.333 99.425,189.333 99.333 C 189.333 99.242,189.475 99.167,189.649 99.167 C 189.822 99.167,190.008 99.054,190.060 98.917 C 190.113 98.779,190.281 98.667,190.434 98.667 C 190.711 98.667,191.333 98.073,191.333 97.808 C 191.333 97.730,191.465 97.666,191.625 97.664 C 191.988 97.661,193.400 96.230,193.596 95.667 C 193.708 95.347,193.766 95.596,193.848 96.742 C 193.910 97.622,194.032 98.261,194.144 98.298 C 194.248 98.333,194.333 98.467,194.333 98.597 C 194.333 98.727,194.408 98.833,194.500 98.833 C 194.592 98.833,194.667 98.971,194.667 99.139 C 194.667 99.408,195.511 100.333,195.756 100.333 C 195.806 100.333,195.999 100.474,196.183 100.646 C 196.721 101.147,200.656 101.375,203.292 101.059 L 204.167 100.954 204.167 96.727 L 204.167 92.500 203.750 92.500 C 203.521 92.500,203.333 92.425,203.333 92.333 C 203.333 92.242,203.232 92.167,203.109 92.167 C 202.741 92.167,202.167 91.571,202.167 91.189 C 202.167 90.993,202.097 90.833,202.012 90.833 C 201.921 90.833,201.836 87.479,201.804 82.555 C 201.762 76.120,201.704 74.262,201.542 74.208 C 201.427 74.170,201.333 73.883,201.333 73.569 C 201.333 73.256,201.258 73.000,201.167 73.000 C 201.075 73.000,201.000 72.850,201.000 72.667 C 201.000 72.483,200.935 72.333,200.855 72.333 C 200.775 72.333,200.661 72.033,200.603 71.667 C 200.544 71.300,200.422 71.000,200.331 71.000 C 200.241 71.000,200.167 70.902,200.167 70.781 C 200.167 70.661,200.017 70.402,199.833 70.205 C 199.650 70.008,199.500 69.773,199.500 69.681 C 199.500 69.590,199.294 69.322,199.042 69.086 C 198.473 68.555,198.394 68.475,197.891 67.935 C 197.667 67.696,197.418 67.500,197.337 67.500 C 197.256 67.500,197.142 67.350,197.083 67.167 C 197.025 66.983,196.838 66.833,196.667 66.833 C 196.497 66.833,196.245 66.721,196.107 66.583 C 195.970 66.446,195.804 66.333,195.740 66.333 C 195.675 66.333,195.487 66.177,195.321 65.985 C 195.147 65.785,194.732 65.599,194.343 65.547 C 193.971 65.497,193.667 65.391,193.667 65.311 C 193.667 65.232,193.554 65.167,193.417 65.167 C 193.279 65.167,193.167 65.092,193.167 65.000 C 193.167 64.908,192.994 64.833,192.783 64.833 C 192.572 64.833,192.324 64.757,192.230 64.664 C 192.137 64.571,191.447 64.447,190.697 64.389 C 189.947 64.331,189.333 64.220,189.333 64.142 C 189.333 64.064,187.571 64.000,185.417 64.000 C 183.262 64.000,181.500 64.064,181.500 64.143 M225.833 64.145 C 225.833 64.225,225.233 64.343,224.500 64.407 C 223.767 64.471,223.167 64.593,223.167 64.678 C 223.167 64.763,222.979 64.833,222.750 64.833 C 222.521 64.833,222.333 64.908,222.333 65.000 C 222.333 65.092,222.183 65.167,222.000 65.167 C 221.817 65.167,221.667 65.232,221.667 65.312 C 221.667 65.392,221.367 65.505,221.000 65.564 C 220.633 65.623,220.333 65.745,220.333 65.835 C 220.333 65.926,220.235 66.000,220.115 66.000 C 219.995 66.000,219.745 66.141,219.560 66.313 C 219.376 66.485,219.043 66.683,218.821 66.753 C 218.598 66.824,218.295 67.020,218.147 67.191 C 217.999 67.361,217.780 67.500,217.662 67.500 C 217.239 67.500,213.627 71.342,213.392 72.042 C 213.339 72.202,213.228 72.333,213.147 72.333 C 213.066 72.333,213.000 72.483,213.000 72.667 C 213.000 72.850,212.941 73.000,212.869 73.000 C 212.663 73.000,212.167 73.931,212.167 74.317 C 212.167 74.509,212.092 74.667,212.000 74.667 C 211.908 74.667,211.833 74.817,211.833 75.000 C 211.833 75.183,211.758 75.333,211.667 75.333 C 211.575 75.333,211.500 75.516,211.500 75.740 C 211.500 75.964,211.429 76.191,211.343 76.244 C 211.257 76.297,211.140 76.696,211.084 77.129 C 211.029 77.562,210.912 78.047,210.825 78.206 C 210.738 78.365,210.667 78.909,210.667 79.414 C 210.667 79.920,210.592 80.333,210.500 80.333 C 210.397 80.333,210.333 81.250,210.333 82.750 C 210.333 84.250,210.397 85.167,210.500 85.167 C 210.592 85.167,210.667 85.579,210.667 86.083 C 210.667 86.587,210.732 87.000,210.812 87.000 C 210.892 87.000,211.008 87.450,211.070 88.000 C 211.132 88.550,211.254 89.000,211.342 89.000 C 211.429 89.000,211.500 89.188,211.500 89.417 C 211.500 89.646,211.575 89.833,211.667 89.833 C 211.758 89.833,211.833 90.021,211.833 90.250 C 211.833 90.479,211.900 90.667,211.981 90.667 C 212.063 90.667,212.179 90.929,212.239 91.250 C 212.299 91.571,212.420 91.833,212.508 91.833 C 212.595 91.833,212.667 91.932,212.667 92.052 C 212.667 92.172,212.807 92.422,212.980 92.606 C 213.152 92.791,213.344 93.105,213.408 93.304 C 213.471 93.504,213.592 93.667,213.678 93.667 C 213.763 93.667,213.833 93.745,213.833 93.841 C 213.833 93.937,214.021 94.203,214.250 94.432 C 214.479 94.661,214.667 94.912,214.667 94.989 C 214.667 95.155,216.581 97.167,216.739 97.167 C 216.858 97.167,217.138 97.386,217.750 97.958 C 217.971 98.165,218.230 98.333,218.326 98.333 C 218.422 98.333,218.500 98.408,218.500 98.500 C 218.500 98.592,218.641 98.667,218.813 98.667 C 218.985 98.667,219.219 98.779,219.333 98.917 C 219.447 99.054,219.644 99.167,219.770 99.167 C 219.897 99.167,220.000 99.223,220.000 99.293 C 220.000 99.362,220.244 99.521,220.542 99.647 C 220.840 99.772,221.301 99.978,221.567 100.104 C 221.833 100.230,222.190 100.333,222.359 100.333 C 222.528 100.333,222.667 100.408,222.667 100.500 C 222.667 100.592,222.839 100.667,223.050 100.667 C 223.261 100.667,223.508 100.741,223.599 100.833 C 223.690 100.924,224.346 101.048,225.055 101.108 C 225.764 101.167,226.384 101.280,226.432 101.358 C 226.547 101.544,232.833 101.543,232.833 101.357 C 232.833 101.279,233.452 101.163,234.208 101.101 C 234.965 101.038,235.608 100.915,235.639 100.827 C 235.669 100.739,235.951 100.667,236.264 100.667 C 236.577 100.667,236.833 100.592,236.833 100.500 C 236.833 100.408,236.983 100.333,237.167 100.333 C 237.350 100.333,237.500 100.258,237.500 100.167 C 237.500 100.075,237.657 100.000,237.850 100.000 C 238.177 100.000,239.315 99.546,239.500 99.342 C 239.617 99.213,240.155 98.890,240.786 98.572 C 241.080 98.423,241.366 98.158,241.422 97.984 C 241.477 97.809,241.644 97.667,241.792 97.667 C 242.038 97.667,244.500 95.314,244.500 95.078 C 244.500 95.022,244.594 94.872,244.708 94.744 C 245.203 94.192,245.333 94.004,245.333 93.840 C 245.333 93.745,245.408 93.667,245.500 93.667 C 245.592 93.667,245.667 93.523,245.667 93.347 C 245.667 93.172,245.743 93.002,245.837 92.971 C 246.713 92.679,245.930 91.333,244.883 91.333 C 244.673 91.333,244.500 91.264,244.500 91.179 C 244.500 91.094,244.088 90.972,243.583 90.909 C 243.079 90.846,242.667 90.729,242.667 90.647 C 242.667 90.566,242.479 90.500,242.250 90.500 C 242.021 90.500,241.833 90.425,241.833 90.333 C 241.833 90.242,241.571 90.167,241.250 90.167 C 240.929 90.167,240.667 90.099,240.667 90.016 C 240.667 89.933,240.292 89.813,239.834 89.750 C 239.375 89.687,238.958 89.567,238.907 89.484 C 238.856 89.401,238.631 89.333,238.407 89.333 C 238.183 89.333,238.000 89.258,238.000 89.167 C 238.000 88.911,236.841 88.969,236.571 89.238 C 236.440 89.369,236.333 89.518,236.333 89.570 C 236.333 89.680,235.681 90.464,235.367 90.732 C 235.248 90.834,234.970 91.085,234.750 91.292 C 234.529 91.498,234.270 91.667,234.174 91.667 C 234.078 91.667,234.000 91.740,234.000 91.830 C 234.000 91.920,233.813 92.041,233.583 92.098 C 233.354 92.156,233.167 92.270,233.167 92.351 C 233.167 92.433,232.979 92.500,232.750 92.500 C 232.521 92.500,232.333 92.575,232.333 92.667 C 232.333 92.758,232.108 92.833,231.833 92.833 C 231.558 92.833,231.333 92.908,231.333 93.000 C 231.333 93.101,230.583 93.167,229.417 93.167 C 228.250 93.167,227.500 93.101,227.500 93.000 C 227.500 92.908,227.313 92.833,227.083 92.833 C 226.854 92.833,226.667 92.776,226.667 92.706 C 226.667 92.595,225.471 92.000,225.247 92.000 C 225.201 92.000,224.928 91.775,224.640 91.500 C 224.353 91.225,224.065 91.000,224.001 91.000 C 223.820 91.000,223.167 90.396,223.167 90.229 C 223.167 90.147,222.979 89.878,222.750 89.631 C 222.521 89.383,222.333 89.107,222.333 89.017 C 222.333 88.926,222.200 88.754,222.036 88.634 C 221.873 88.515,221.592 87.948,221.411 87.375 C 221.231 86.802,221.027 86.333,220.958 86.333 C 220.890 86.333,220.833 86.077,220.833 85.764 C 220.833 85.451,220.756 85.169,220.660 85.137 C 220.427 85.059,220.429 80.107,220.663 80.029 C 220.756 79.998,220.833 79.753,220.833 79.486 C 220.833 79.219,220.908 79.000,221.000 79.000 C 221.092 79.000,221.167 78.813,221.167 78.583 C 221.167 78.354,221.238 78.167,221.326 78.167 C 221.413 78.167,221.534 77.904,221.594 77.583 C 221.655 77.262,221.770 77.000,221.852 77.000 C 221.933 77.000,222.000 76.887,222.000 76.750 C 222.000 76.612,222.075 76.500,222.167 76.500 C 222.258 76.500,222.333 76.390,222.333 76.256 C 222.333 75.984,224.405 73.833,224.667 73.833 C 224.759 73.833,224.833 73.770,224.833 73.692 C 224.833 73.614,225.171 73.411,225.583 73.241 C 225.996 73.071,226.333 72.872,226.333 72.799 C 226.333 72.726,226.552 72.667,226.819 72.667 C 227.087 72.667,227.334 72.582,227.368 72.479 C 227.453 72.223,231.548 72.227,231.633 72.484 C 231.667 72.584,231.876 72.667,232.097 72.667 C 232.319 72.667,232.500 72.742,232.500 72.833 C 232.500 72.925,232.650 73.000,232.833 73.000 C 233.017 73.000,233.167 73.072,233.167 73.159 C 233.167 73.247,233.427 73.367,233.744 73.427 C 234.062 73.486,234.362 73.658,234.410 73.809 C 234.458 73.960,234.724 74.233,235.000 74.417 C 235.276 74.600,235.544 74.881,235.596 75.042 C 235.647 75.202,235.759 75.333,235.845 75.333 C 235.930 75.333,236.000 75.414,236.000 75.512 C 236.000 75.900,236.504 76.167,237.238 76.167 C 237.657 76.167,238.000 76.100,238.000 76.019 C 238.000 75.938,238.411 75.820,238.914 75.758 C 239.417 75.695,239.871 75.574,239.924 75.488 C 239.977 75.403,240.240 75.333,240.510 75.333 C 240.779 75.333,241.000 75.258,241.000 75.167 C 241.000 75.075,241.188 75.000,241.417 75.000 C 241.646 75.000,241.833 74.930,241.833 74.845 C 241.833 74.760,242.247 74.639,242.752 74.576 C 243.258 74.513,243.712 74.395,243.762 74.314 C 243.812 74.233,244.032 74.167,244.250 74.167 C 244.468 74.167,244.693 74.092,244.750 74.000 C 244.807 73.908,245.036 73.833,245.260 73.833 C 245.484 73.833,245.667 73.758,245.667 73.667 C 245.667 73.575,245.787 73.500,245.935 73.500 C 246.390 73.500,245.681 71.761,245.131 71.528 C 245.059 71.497,245.000 71.369,245.000 71.244 C 245.000 71.118,244.813 70.828,244.583 70.598 C 244.354 70.369,244.167 70.127,244.167 70.060 C 244.167 69.914,242.056 67.887,241.414 67.417 C 240.595 66.817,240.088 66.498,239.792 66.395 C 239.631 66.340,239.500 66.247,239.500 66.188 C 239.500 66.129,239.256 65.979,238.958 65.853 C 238.660 65.728,238.199 65.522,237.933 65.396 C 237.667 65.270,237.310 65.167,237.141 65.167 C 236.972 65.167,236.833 65.092,236.833 65.000 C 236.833 64.908,236.646 64.833,236.417 64.833 C 236.188 64.833,236.000 64.763,236.000 64.678 C 236.000 64.593,235.400 64.471,234.667 64.407 C 233.933 64.343,233.333 64.225,233.333 64.145 C 233.333 64.065,231.646 64.000,229.583 64.000 C 227.521 64.000,225.833 64.065,225.833 64.145 M316.500 64.142 C 316.500 64.220,315.919 64.333,315.208 64.393 C 314.498 64.453,313.892 64.577,313.861 64.668 C 313.831 64.759,313.624 64.833,313.403 64.833 C 313.181 64.833,313.000 64.908,313.000 65.000 C 313.000 65.092,312.813 65.167,312.583 65.167 C 312.354 65.167,312.167 65.233,312.167 65.315 C 312.167 65.396,311.904 65.512,311.583 65.572 C 311.262 65.633,311.000 65.753,311.000 65.841 C 311.000 65.928,310.850 66.000,310.667 66.000 C 310.483 66.000,310.333 66.075,310.333 66.167 C 310.333 66.258,310.221 66.333,310.083 66.333 C 309.946 66.333,309.833 66.408,309.833 66.500 C 309.833 66.592,309.693 66.667,309.520 66.667 C 309.348 66.667,309.114 66.779,309.000 66.917 C 308.886 67.054,308.716 67.167,308.621 67.167 C 308.527 67.167,308.195 67.429,307.884 67.750 C 307.572 68.071,307.257 68.333,307.184 68.333 C 306.934 68.333,304.388 71.207,304.119 71.792 C 304.024 71.998,303.884 72.167,303.807 72.167 C 303.730 72.167,303.667 72.279,303.667 72.417 C 303.667 72.554,303.592 72.667,303.500 72.667 C 303.408 72.667,303.333 72.817,303.333 73.000 C 303.333 73.183,303.262 73.333,303.174 73.333 C 303.087 73.333,302.966 73.596,302.906 73.917 C 302.845 74.237,302.748 74.500,302.689 74.500 C 302.630 74.500,302.483 74.744,302.363 75.042 C 302.243 75.340,302.076 75.712,301.991 75.869 C 301.907 76.027,301.789 76.570,301.729 77.078 C 301.670 77.585,301.556 78.000,301.477 78.000 C 301.398 78.000,301.333 78.296,301.333 78.657 C 301.333 79.018,301.258 79.360,301.167 79.417 C 301.065 79.480,301.000 80.780,301.000 82.760 C 301.000 84.809,301.061 86.000,301.167 86.000 C 301.258 86.000,301.333 86.337,301.333 86.750 C 301.333 87.162,301.398 87.500,301.477 87.500 C 301.556 87.500,301.666 87.888,301.722 88.362 C 301.779 88.836,301.901 89.301,301.996 89.396 C 302.090 89.490,302.167 89.702,302.167 89.867 C 302.167 90.032,302.242 90.167,302.333 90.167 C 302.425 90.167,302.500 90.354,302.500 90.583 C 302.500 90.813,302.575 91.000,302.667 91.000 C 302.758 91.000,302.833 91.110,302.833 91.245 C 302.833 91.613,303.517 92.850,303.774 92.949 C 303.898 92.997,304.000 93.168,304.000 93.331 C 304.000 93.493,304.112 93.719,304.250 93.833 C 304.387 93.947,304.500 94.109,304.500 94.193 C 304.500 94.447,308.131 98.000,308.390 98.000 C 308.523 98.000,308.676 98.116,308.730 98.258 C 308.784 98.400,309.055 98.595,309.331 98.691 C 309.607 98.787,309.833 98.934,309.833 99.016 C 309.833 99.099,309.946 99.167,310.083 99.167 C 310.221 99.167,310.333 99.242,310.333 99.333 C 310.333 99.425,310.483 99.500,310.667 99.500 C 310.850 99.500,311.000 99.574,311.000 99.665 C 311.000 99.755,311.300 99.877,311.667 99.936 C 312.033 99.995,312.333 100.108,312.333 100.188 C 312.333 100.268,312.483 100.333,312.667 100.333 C 312.850 100.333,313.000 100.408,313.000 100.500 C 313.000 100.592,313.256 100.667,313.569 100.667 C 313.883 100.667,314.165 100.746,314.198 100.843 C 314.230 100.940,314.836 101.064,315.545 101.117 C 316.254 101.171,316.833 101.279,316.833 101.357 C 316.833 101.436,318.258 101.500,320.000 101.500 C 321.742 101.500,323.167 101.436,323.167 101.358 C 323.167 101.280,323.780 101.169,324.530 101.111 C 325.281 101.053,325.971 100.929,326.064 100.836 C 326.157 100.743,326.406 100.667,326.617 100.667 C 326.828 100.667,327.000 100.592,327.000 100.500 C 327.000 100.408,327.188 100.333,327.417 100.333 C 327.646 100.333,327.833 100.267,327.833 100.185 C 327.833 100.104,328.096 99.988,328.417 99.928 C 328.737 99.867,329.000 99.747,329.000 99.659 C 329.000 99.572,329.150 99.500,329.333 99.500 C 329.517 99.500,329.667 99.425,329.667 99.333 C 329.667 99.242,329.779 99.167,329.917 99.167 C 330.054 99.167,330.167 99.092,330.167 99.000 C 330.167 98.908,330.319 98.833,330.505 98.833 C 330.691 98.833,330.887 98.721,330.940 98.583 C 330.992 98.446,331.161 98.333,331.314 98.333 C 331.468 98.333,331.701 98.183,331.833 98.000 C 331.965 97.817,332.157 97.667,332.260 97.667 C 332.363 97.667,332.717 97.385,333.049 97.042 C 333.380 96.698,333.748 96.329,333.867 96.223 C 334.467 95.684,335.167 94.859,335.167 94.691 C 335.167 94.586,335.237 94.500,335.322 94.500 C 335.408 94.500,335.531 94.331,335.596 94.125 C 335.661 93.919,335.854 93.629,336.024 93.480 C 336.194 93.332,336.333 93.135,336.333 93.043 C 336.333 92.950,336.446 92.781,336.583 92.667 C 336.721 92.553,336.833 92.318,336.833 92.146 C 336.833 91.974,336.890 91.833,336.958 91.832 C 337.108 91.830,337.500 91.023,337.500 90.717 C 337.500 90.598,337.570 90.500,337.656 90.500 C 337.743 90.500,337.864 90.162,337.925 89.750 C 337.987 89.337,338.104 89.000,338.186 89.000 C 338.267 89.000,338.333 88.737,338.333 88.417 C 338.333 88.096,338.408 87.833,338.500 87.833 C 338.592 87.833,338.667 87.586,338.667 87.283 C 338.667 86.981,338.759 86.641,338.871 86.529 C 339.160 86.240,339.155 78.968,338.866 78.872 C 338.757 78.836,338.667 78.516,338.667 78.163 C 338.667 77.809,338.592 77.473,338.500 77.417 C 338.408 77.360,338.333 77.131,338.333 76.907 C 338.333 76.683,338.267 76.500,338.186 76.500 C 338.104 76.500,337.987 76.164,337.926 75.754 C 337.864 75.344,337.743 74.964,337.657 74.911 C 337.571 74.857,337.500 74.674,337.500 74.504 C 337.500 74.334,337.444 74.169,337.375 74.139 C 337.306 74.108,337.035 73.652,336.772 73.125 C 336.509 72.598,336.228 72.167,336.147 72.167 C 336.066 72.167,336.000 72.065,336.000 71.941 C 336.000 71.817,335.813 71.513,335.583 71.266 C 335.354 71.018,335.167 70.760,335.167 70.691 C 335.167 70.513,332.534 67.833,332.360 67.833 C 332.281 67.833,331.983 67.611,331.698 67.338 C 331.413 67.066,330.971 66.791,330.715 66.728 C 330.459 66.665,330.129 66.475,329.980 66.307 C 329.832 66.138,329.626 66.000,329.522 66.000 C 329.418 66.000,329.333 65.932,329.333 65.848 C 329.333 65.764,329.015 65.643,328.625 65.578 C 328.235 65.512,327.879 65.412,327.833 65.355 C 327.656 65.132,326.989 64.833,326.669 64.833 C 326.484 64.833,326.333 64.765,326.333 64.681 C 326.333 64.597,325.771 64.476,325.083 64.411 C 324.396 64.347,323.833 64.228,323.833 64.147 C 323.833 64.066,322.183 64.000,320.167 64.000 C 318.150 64.000,316.500 64.064,316.500 64.142 M322.306 72.525 C 322.336 72.603,322.542 72.667,322.764 72.667 C 322.985 72.667,323.167 72.742,323.167 72.833 C 323.167 72.925,323.317 73.000,323.500 73.000 C 323.683 73.000,323.833 73.067,323.833 73.149 C 323.833 73.230,324.021 73.344,324.250 73.402 C 324.479 73.459,324.667 73.580,324.667 73.670 C 324.667 73.760,324.745 73.833,324.841 73.833 C 325.160 73.833,327.000 75.674,327.000 75.992 C 327.000 76.088,327.074 76.167,327.163 76.167 C 327.253 76.167,327.374 76.354,327.432 76.583 C 327.489 76.813,327.603 77.000,327.685 77.000 C 327.766 77.000,327.833 77.150,327.833 77.333 C 327.833 77.517,327.908 77.667,328.000 77.667 C 328.092 77.667,328.167 77.779,328.167 77.917 C 328.167 78.054,328.233 78.167,328.314 78.167 C 328.395 78.167,328.513 78.578,328.576 79.081 C 328.639 79.583,328.760 80.038,328.845 80.091 C 329.044 80.214,329.049 85.117,328.850 85.240 C 328.767 85.291,328.647 85.783,328.583 86.333 C 328.520 86.883,328.400 87.333,328.317 87.333 C 328.234 87.333,328.167 87.446,328.167 87.583 C 328.167 87.721,328.092 87.833,328.000 87.833 C 327.908 87.833,327.833 87.983,327.833 88.167 C 327.833 88.350,327.758 88.500,327.667 88.500 C 327.575 88.500,327.500 88.609,327.500 88.742 C 327.500 88.876,327.313 89.172,327.083 89.402 C 326.854 89.631,326.667 89.862,326.667 89.916 C 326.667 90.025,326.363 90.410,326.036 90.716 C 325.495 91.223,325.348 91.333,325.215 91.333 C 325.137 91.333,324.965 91.483,324.833 91.667 C 324.701 91.850,324.516 92.000,324.422 92.001 C 324.327 92.001,323.881 92.189,323.430 92.417 C 322.979 92.646,322.473 92.833,322.305 92.833 C 322.137 92.833,322.000 92.908,322.000 93.000 C 322.000 93.101,321.250 93.167,320.083 93.167 C 318.917 93.167,318.167 93.101,318.167 93.000 C 318.167 92.908,317.979 92.833,317.750 92.833 C 317.521 92.833,317.333 92.758,317.333 92.667 C 317.333 92.575,317.146 92.500,316.917 92.500 C 316.688 92.500,316.500 92.425,316.500 92.333 C 316.500 92.242,316.359 92.167,316.187 92.167 C 316.015 92.167,315.781 92.054,315.667 91.917 C 315.553 91.779,315.394 91.667,315.313 91.667 C 315.087 91.667,313.000 89.515,313.000 89.281 C 313.000 89.167,312.853 88.967,312.673 88.838 C 312.493 88.708,312.300 88.392,312.243 88.136 C 312.187 87.880,312.072 87.628,311.987 87.575 C 311.903 87.523,311.833 87.297,311.833 87.073 C 311.833 86.850,311.758 86.667,311.667 86.667 C 311.575 86.667,311.500 86.485,311.500 86.264 C 311.500 86.042,311.410 85.831,311.299 85.794 C 311.007 85.697,311.001 79.805,311.293 79.708 C 311.407 79.670,311.500 79.458,311.500 79.236 C 311.500 79.015,311.575 78.833,311.667 78.833 C 311.758 78.833,311.833 78.650,311.833 78.427 C 311.833 78.203,311.903 77.977,311.987 77.925 C 312.072 77.872,312.187 77.620,312.243 77.364 C 312.300 77.108,312.493 76.792,312.673 76.662 C 312.853 76.533,313.000 76.333,313.000 76.219 C 313.000 76.018,315.072 73.833,315.262 73.833 C 315.314 73.833,315.470 73.721,315.607 73.583 C 315.745 73.446,316.002 73.333,316.179 73.333 C 316.355 73.333,316.500 73.258,316.500 73.167 C 316.500 73.075,316.612 73.000,316.750 73.000 C 316.887 73.000,317.000 72.925,317.000 72.833 C 317.000 72.742,317.225 72.667,317.500 72.667 C 317.775 72.667,318.000 72.596,318.000 72.509 C 318.000 72.189,322.180 72.205,322.306 72.525 M279.500 80.145 C 279.500 80.225,279.854 80.330,280.286 80.379 C 280.719 80.427,281.100 80.550,281.133 80.650 C 281.167 80.751,281.300 80.833,281.428 80.833 C 281.737 80.833,283.267 82.363,283.410 82.814 C 283.472 83.008,283.592 83.167,283.678 83.167 C 283.763 83.167,283.833 83.354,283.833 83.583 C 283.833 83.813,283.908 84.000,284.000 84.000 C 284.092 84.000,284.167 84.183,284.167 84.407 C 284.167 84.631,284.242 84.860,284.333 84.917 C 284.425 84.973,284.500 85.653,284.500 86.427 C 284.500 87.253,284.431 87.833,284.333 87.833 C 284.242 87.833,284.167 87.983,284.167 88.167 C 284.167 88.350,284.109 88.500,284.039 88.500 C 283.926 88.500,283.333 89.697,283.333 89.925 C 283.333 90.093,282.586 90.764,282.042 91.085 C 281.744 91.261,281.500 91.464,281.500 91.536 C 281.500 91.608,281.394 91.667,281.264 91.667 C 281.134 91.667,280.997 91.760,280.958 91.875 C 280.905 92.037,279.099 92.095,272.861 92.134 L 264.833 92.184 264.833 86.092 L 264.833 80.000 272.167 80.000 C 276.214 80.000,279.500 80.065,279.500 80.145 M188.805 84.166 C 188.836 84.258,189.117 84.333,189.431 84.333 C 189.744 84.333,190.000 84.408,190.000 84.500 C 190.000 84.592,190.262 84.667,190.583 84.667 C 190.904 84.667,191.167 84.742,191.167 84.833 C 191.167 84.925,191.311 85.000,191.486 85.000 C 192.304 85.000,192.333 85.078,192.333 87.268 C 192.333 88.404,192.274 89.333,192.201 89.333 C 192.128 89.333,191.929 89.671,191.759 90.083 C 191.589 90.496,191.389 90.833,191.316 90.833 C 191.137 90.833,190.333 91.644,190.333 91.825 C 190.333 91.903,190.107 92.046,189.831 92.142 C 189.555 92.239,189.284 92.434,189.230 92.575 C 189.176 92.717,188.989 92.833,188.816 92.833 C 188.642 92.833,188.500 92.905,188.500 92.992 C 188.500 93.080,188.237 93.201,187.917 93.261 C 187.596 93.321,187.333 93.437,187.333 93.519 C 187.333 93.600,187.146 93.667,186.917 93.667 C 186.688 93.667,186.500 93.742,186.500 93.833 C 186.500 93.925,186.162 94.000,185.750 94.000 C 185.338 94.000,185.000 94.075,185.000 94.167 C 185.000 94.265,184.389 94.333,183.500 94.333 C 182.611 94.333,182.000 94.265,182.000 94.167 C 182.000 94.075,181.737 94.000,181.417 94.000 C 181.096 94.000,180.833 93.925,180.833 93.833 C 180.833 93.742,180.721 93.667,180.583 93.667 C 180.446 93.667,180.333 93.592,180.333 93.500 C 180.333 93.408,180.215 93.333,180.070 93.333 C 179.754 93.333,178.512 92.101,178.180 91.458 C 178.050 91.206,177.881 91.000,177.805 91.000 C 177.729 91.000,177.667 90.779,177.667 90.510 C 177.667 90.240,177.592 89.973,177.500 89.917 C 177.408 89.860,177.333 89.481,177.333 89.073 C 177.333 88.666,177.408 88.333,177.500 88.333 C 177.592 88.333,177.667 88.146,177.667 87.917 C 177.667 87.688,177.742 87.500,177.833 87.500 C 177.925 87.500,178.000 87.422,178.000 87.326 C 178.000 87.122,178.169 86.912,179.138 85.912 C 179.535 85.502,179.957 85.167,180.076 85.167 C 180.195 85.167,180.386 85.054,180.500 84.917 C 180.614 84.779,180.844 84.667,181.011 84.667 C 181.177 84.667,181.360 84.592,181.417 84.500 C 181.473 84.408,181.703 84.333,181.927 84.333 C 182.150 84.333,182.333 84.263,182.333 84.177 C 182.333 83.822,188.687 83.811,188.805 84.166 " stroke="none" fill="#fff" fill-rule="evenodd"></path><path id="path1" d="" stroke="none" fill="#fff" fill-rule="evenodd"></path><path id="path2" d="" stroke="none" fill="#281c24" fill-rule="evenodd"></path><path id="path3" d="" stroke="none" fill="#ffffff" fill-rule="evenodd"></path><path id="path4" d="" stroke="none" fill="#281c24" fill-rule="evenodd"></path></g></svg>