<svg id="Layer_1" data-name="Layer 1" xmlns="http://www.w3.org/2000/svg" viewBox="0 0 624 480"><defs><style>.cls-1{fill:#fff;}</style></defs><title>Artboard 1 copy 8</title><rect class="cls-1" x="50.7" y="253.02" width="11.9" height="150.98"/><circle class="cls-1" cx="56.65" cy="421.43" r="23.8"/><rect class="cls-1" x="67.25" y="185.83" width="91.25" height="11.9" transform="translate(-87.95 95.91) rotate(-34)"/><circle class="cls-1" cx="56.81" cy="229.6" r="23.8"/><circle class="cls-1" cx="169.34" cy="153.7" r="23.8"/><path class="cls-1" d="M178.64,27.09a131,131,0,0,0-132,86.49,4.79,4.79,0,0,0,2.91,6.09l37.82,13.8c5.39,2,8.18.75,9-1.72C110.72,91.52,157,66.46,204.72,87.33c25.93,11.35,43.19,37.21,43.13,65.51-.12,56.6-51.86,76.1-71,81.38a9.57,9.57,0,0,0-7,9.25s0,28.54.52,45a4.79,4.79,0,0,0,4.92,4.66C258.45,290.43,312.57,211,298.88,134,289.2,79.51,233.85,30.64,178.64,27.09Z"/><path class="cls-1" d="M171.13,447V364.61h34.92a23.46,23.46,0,0,1,10.5,2.38,27.28,27.28,0,0,1,8.3,6.27,29.43,29.43,0,0,1,5.45,8.82,26.38,26.38,0,0,1,2,9.92,28.75,28.75,0,0,1-1.85,10.15,28.23,28.23,0,0,1-5.22,8.76,25.75,25.75,0,0,1-8.13,6.15,23.44,23.44,0,0,1-10.44,2.32H187.14V447Zm16-41.65H205.7a9.17,9.17,0,0,0,7.37-3.6q3-3.58,3-9.74a16,16,0,0,0-.93-5.63,13.85,13.85,0,0,0-2.43-4.24,9.77,9.77,0,0,0-3.54-2.61,10.41,10.41,0,0,0-4.12-.87H187.14Z"/><path class="cls-1" d="M264.88,448.15a23,23,0,0,1-8.24-1.45,19.79,19.79,0,0,1-6.62-4.06,19.08,19.08,0,0,1-4.35-6.09,18.5,18.5,0,0,1-1.56-7.66,17,17,0,0,1,1.91-7.95,18.31,18.31,0,0,1,5.34-6.2,26.57,26.57,0,0,1,8.18-4A35.89,35.89,0,0,1,270,409.28a45.38,45.38,0,0,1,7.95.7,32.16,32.16,0,0,1,6.9,2v-3.48q0-6-3.42-9.28t-10.15-3.25a27,27,0,0,0-9.52,1.74,44,44,0,0,0-9.51,5.11l-4.76-9.87a44.92,44.92,0,0,1,25.3-7.77q13.11,0,20.36,6.44t7.25,18.62v18.91a5.44,5.44,0,0,0,.87,3.48,3.81,3.81,0,0,0,2.84,1.17V447a34.69,34.69,0,0,1-6.84.81c-2.94,0-5.21-.65-6.79-2a8.45,8.45,0,0,1-3-5.22l-.35-3.36a26.93,26.93,0,0,1-9.86,8.12A28.39,28.39,0,0,1,264.88,448.15Zm4.41-11.37a20.24,20.24,0,0,0,7.48-1.39,13.59,13.59,0,0,0,5.51-3.71,5.6,5.6,0,0,0,2.55-4.41v-7a38.08,38.08,0,0,0-6-1.69,33,33,0,0,0-6.27-.63,16.66,16.66,0,0,0-9.86,2.72,8.2,8.2,0,0,0-3.83,6.91,8.3,8.3,0,0,0,3,6.55A10.94,10.94,0,0,0,269.29,436.78Z"/><path class="cls-1" d="M318,416.59a33.06,33.06,0,0,1,2.21-12.06,29.45,29.45,0,0,1,6.38-10,31,31,0,0,1,10.1-6.85A33.37,33.37,0,0,1,350,385.15q10,0,17,4.29a27.55,27.55,0,0,1,10.5,11.26l-15.2,4.64a13.75,13.75,0,0,0-5.22-5.16,15.34,15.34,0,0,0-13.46-.47,15.42,15.42,0,0,0-5.05,3.71,17.36,17.36,0,0,0-3.37,5.75,21.71,21.71,0,0,0-1.21,7.42A20.8,20.8,0,0,0,335.3,424a18.52,18.52,0,0,0,3.43,5.8,15.1,15.1,0,0,0,5,3.77,14.58,14.58,0,0,0,6.15,1.34,14.94,14.94,0,0,0,7.72-2.09,11.8,11.8,0,0,0,4.93-5.11l15.2,4.64a25.55,25.55,0,0,1-10.33,11.37q-7.2,4.41-17.29,4.41a33.41,33.41,0,0,1-13.34-2.55,30.2,30.2,0,0,1-16.53-17A32.44,32.44,0,0,1,318,416.59Z"/><path class="cls-1" d="M462.12,425.76a18.68,18.68,0,0,1-7.83,15.78,26.94,26.94,0,0,1-8.47,4.06A36.78,36.78,0,0,1,435.55,447h-39.8V364.61h44.09a16.29,16.29,0,0,1,7.78,1.86,19.39,19.39,0,0,1,5.91,4.81A22.09,22.09,0,0,1,457.3,378a22.53,22.53,0,0,1-1.68,18.92,18.35,18.35,0,0,1-8.82,7.83,21.22,21.22,0,0,1,11.2,7.48Q462.13,417.64,462.12,425.76ZM411.76,378.3v20.77h21.35a9.5,9.5,0,0,0,6.91-2.78,10.26,10.26,0,0,0,2.84-7.66,10.59,10.59,0,0,0-2.61-7.54,8.47,8.47,0,0,0-6.44-2.79ZM446,422.74a12.19,12.19,0,0,0-2.78-7.77,9.51,9.51,0,0,0-3-2.38,8.45,8.45,0,0,0-3.83-.87h-24.6v21.7h23.79a10.31,10.31,0,0,0,4.12-.82,9.75,9.75,0,0,0,3.3-2.26,10.66,10.66,0,0,0,2.21-3.42A10.92,10.92,0,0,0,446,422.74Z"/><path class="cls-1" d="M508.18,448.15a33.37,33.37,0,0,1-13.34-2.55,30,30,0,0,1-10-6.9,30.58,30.58,0,0,1-6.32-10,32.75,32.75,0,0,1-2.21-12,33.11,33.11,0,0,1,2.21-12.07,30.53,30.53,0,0,1,6.32-10,30,30,0,0,1,10-6.91,33.37,33.37,0,0,1,13.34-2.55,33,33,0,0,1,13.29,2.55,30.23,30.23,0,0,1,10,6.91,30.53,30.53,0,0,1,6.32,10,33.11,33.11,0,0,1,2.2,12.07,32.74,32.74,0,0,1-2.2,12,31,31,0,0,1-6.27,10,29.3,29.3,0,0,1-10,6.9A33.37,33.37,0,0,1,508.18,448.15Zm-15.89-31.44a21.26,21.26,0,0,0,1.21,7.37,18.16,18.16,0,0,0,3.37,5.74,15,15,0,0,0,5.05,3.77,15.32,15.32,0,0,0,12.53,0,15.1,15.1,0,0,0,5-3.77,17.84,17.84,0,0,0,3.37-5.8,21.73,21.73,0,0,0,1.22-7.43,21.4,21.4,0,0,0-1.22-7.31,18,18,0,0,0-3.37-5.8,15.1,15.1,0,0,0-5-3.77,14.85,14.85,0,0,0-6.27-1.33,14.24,14.24,0,0,0-6.26,1.39,15.63,15.63,0,0,0-5.05,3.83,18,18,0,0,0-3.37,5.8A21.36,21.36,0,0,0,492.29,416.71Z"/><path class="cls-1" d="M593,443.86a67.39,67.39,0,0,1-7.66,2.78,32.15,32.15,0,0,1-9.52,1.4,22.18,22.18,0,0,1-6.09-.82,13.39,13.39,0,0,1-5-2.61,12.63,12.63,0,0,1-3.42-4.64,16.77,16.77,0,0,1-1.28-6.9V398.15h-8v-12h8V366.47h15.55v19.72h12.77v12H575.59v29.7q0,3.24,1.68,4.58a6.45,6.45,0,0,0,4.12,1.34,14.1,14.1,0,0,0,4.76-.82c1.55-.54,2.79-1,3.71-1.39Z"/></svg>