<?xml version="1.0" encoding="UTF-8"?>
<svg width="86px" height="65px" viewBox="0 0 86 65" version="1.1" xmlns="http://www.w3.org/2000/svg" xmlns:xlink="http://www.w3.org/1999/xlink">
    <!-- Generator: Sketch 50.2 (55047) - http://www.bohemiancoding.com/sketch -->
    <title>logo</title>
    <desc>Created with Sketch.</desc>
    <defs></defs>
    <g id="V2---Infographic" stroke="none" stroke-width="1" fill="none" fill-rule="evenodd">
        <g id="Vuln_1.2" transform="translate(-74.000000, -96.000000)" fill="#60727F" fill-rule="nonzero">
            <g id="logo" transform="translate(74.000000, 96.000000)">
                <path d="M40.5973873,16.5177746 C39.1202406,8.12332353 30.6785304,0.591896639 22.2490279,0.0448009677 C13.3408274,-0.553282091 5.11988444,4.88673489 2.10611841,13.3739009 C1.97368817,13.7568255 2.17198244,14.1759288 2.550178,14.3124396 L8.32142677,16.4391777 C9.14392891,16.7474007 9.56967677,16.5547613 9.69480697,16.174106 C11.8845854,9.9711199 18.9468115,6.10908679 26.2287785,9.3253929 C30.1856395,11.0745579 32.8194775,15.0598802 32.8103216,19.4212344 C32.7920099,28.1439429 24.8965997,31.1491163 21.9758779,31.9628248 C21.3427353,32.1410846 20.905528,32.7245536 20.9076933,33.3883558 C20.9076933,33.3883558 20.9076933,37.7866967 20.9870441,40.3233713 C20.9922346,40.5191766 21.0742685,40.7048708 21.2150832,40.839567 C21.3558979,40.9742633 21.5439471,41.0469169 21.7378253,41.0415307 C34.4278583,40.6254298 42.6864512,28.3843568 40.5973873,16.5177746 Z M28.0843678,56.5867533 C27.9208345,56.1711538 27.6863461,55.7877649 27.3915738,55.4540341 C27.0942482,55.1206659 26.7362778,54.8480863 26.337123,54.6511135 C25.9223511,54.4449869 25.4656754,54.3394478 25.0034182,54.3428905 L20.5643482,54.3428089 L20.5643482,64.908772 L22.5984769,64.908772 L22.5984769,61.3642085 L25.0751392,61.3642085 C25.5343537,61.3687225 25.9884938,61.2669771 26.40274,61.0667734 C26.795075,60.8755638 27.1457551,60.6073254 27.4343011,60.2777227 C27.7215069,59.9466336 27.9464603,59.5653811 28.0981016,59.1527091 C28.2541187,58.7366509 28.3337532,58.2953613 28.3331022,57.8504673 C28.3312488,57.41337 28.2462899,56.9806996 28.0828418,56.5759655 L28.0843678,56.5867533 Z M25.8930634,59.0987701 C25.6706829,59.3929747 25.324119,59.5642642 24.9576389,59.5611045 L22.5984769,59.5611045 L22.5984769,56.1367479 L24.8691321,56.1367479 C25.0492535,56.1374504 25.2273451,56.1752048 25.3925426,56.2477081 C25.5663366,56.3229734 25.7204416,56.4379839 25.8427061,56.5836711 C25.9751902,56.7449933 26.0785006,56.9286232 26.1479017,57.1261434 C26.2289905,57.3581818 26.2687709,57.6028841 26.265402,57.8489262 C26.2905073,58.2967767 26.1586887,58.7392574 25.8930634,59.0987701 Z M34.6872745,54.335185 L32.8881465,54.335185 L28.8931361,64.908772 L30.9867779,64.908772 L31.9450921,62.2734661 L35.6074393,62.2734661 L36.5794873,64.908772 L38.6731291,64.908772 L34.6872745,54.335185 Z M32.2838592,60.8263595 L33.7869475,56.6730558 L35.2320487,60.8263595 L32.2838592,60.8263595 Z M47.4185089,61.5707179 C47.3092089,61.8447119 47.1485889,62.0948343 46.9454558,62.3073706 C46.5729481,62.6978694 46.0956073,62.9699743 45.5720756,63.0902568 C45.3304357,63.1475647 45.0832327,63.1775439 44.8350282,63.1796415 C44.4020252,63.1840785 43.9745255,63.0814344 43.5898302,62.8806652 C43.2158356,62.6868047 42.8846401,62.4183813 42.6162562,62.0916146 C42.340251,61.7537382 42.1277014,61.3677717 41.9890792,60.9527309 C41.8418435,60.5192592 41.7670664,60.0640628 41.7678124,59.6057968 C41.7692751,59.1787571 41.8340856,58.7543489 41.9600857,58.3467062 C42.0810836,57.9385102 42.2733257,57.5554315 42.5277495,57.2155281 C42.7810439,56.8802817 43.1026384,56.603847 43.4708039,56.4049018 C43.8822594,56.1894956 44.3412417,56.0834235 44.8045086,56.0966789 C45.0478125,56.0976888 45.2903061,56.1250721 45.5278222,56.178358 C45.7741826,56.2332515 46.0122671,56.3208278 46.235876,56.4388064 C46.4711126,56.5650639 46.6848938,56.7284209 46.8691569,56.9227163 C47.0768912,57.143352 47.2465855,57.3975534 47.3712036,57.6747802 L48.9338051,56.596 C48.5785872,55.8998984 48.0337851,55.3208185 47.3635737,54.926973 C46.6063236,54.4826349 45.7426812,54.2571187 44.8670737,54.2750815 C44.1145123,54.2614259 43.3686016,54.4194629 42.6849252,54.7374159 C42.070448,55.0257857 41.5194073,55.4355673 41.0643366,55.9425675 C40.6230905,56.4370004 40.2801283,57.01253 40.0541391,57.6377935 C39.5825451,58.8962683 39.592884,60.2871717 40.0831327,61.5383545 C40.3265653,62.1771847 40.6810779,62.7669411 41.1299536,63.2798139 C41.5799133,63.7932583 42.1226788,64.2153542 42.7291786,64.5234934 C43.3650239,64.8447475 44.0676392,65.0080101 44.778567,64.9996978 C45.6677616,64.9936766 46.542613,64.7727942 47.3300022,64.3555119 C47.7129735,64.1494712 48.0653621,63.8900805 48.3768231,63.5849546 C48.6827161,63.2875077 48.9256698,62.9304722 49.0909808,62.5354556 L47.4185089,61.5707179 Z M59.9605221,54.335185 L56.8353191,60.3455318 L53.7391098,54.335185 L51.5569613,54.335185 L51.5569613,64.908772 L53.586512,64.908772 L53.586512,57.9121119 L56.2829151,63.1226202 L57.401457,63.1226202 L60.0993861,57.9121119 L60.0993861,64.908772 L62.1319888,64.908772 L62.1319888,54.335185 L59.9605221,54.335185 Z M70.3783738,54.335185 L68.5792458,54.335185 L64.5842354,64.908772 L66.6778772,64.908772 L67.6361914,62.2734661 L71.2985386,62.2734661 L72.2644826,64.908772 L74.3581244,64.908772 L70.3783738,54.335185 Z M67.9749585,60.8263595 L69.4780468,56.6730558 L70.923148,60.8263595 L67.9749585,60.8263595 Z M83.4499013,54.3536783 L83.4499013,61.276365 L77.99453,54.3413494 L76.4181947,54.3413494 L76.4181947,64.908772 L78.4599533,64.908772 L78.4599533,58.1278679 L83.8405517,64.908772 L85.4794521,64.908772 L85.4794521,54.3505961 L83.4499013,54.3536783 Z M22.8609451,22.5943893 C21.4874395,23.530308 19.6609403,23.4092352 18.4203491,22.3000364 L7.08080667,30.0256438 C7.63419371,31.6021747 7.06185348,33.3571421 5.68911474,34.29299 C5.32449836,34.5160713 4.94037492,34.7048795 4.54157928,34.8570379 L4.54157928,57.2617615 C6.31324002,57.7235329 7.46849503,59.4437521 7.23804187,61.2768982 C7.0075887,63.1100444 5.4633345,64.48413 3.63362238,64.48413 C1.80391026,64.48413 0.259656055,63.1100444 0.0292028906,61.2768982 C-0.201250274,59.4437521 0.954004738,57.7235329 2.72566547,57.2617615 L2.72566547,34.8570379 C2.72566547,34.8570379 1.21494726,34.1512075 0.645757468,33.2989711 C-0.370690068,31.7668144 -0.103155792,29.7107859 1.27074636,28.4958671 C2.64464852,27.2809483 4.69798314,27.284671 6.06755728,28.5045637 L17.4055738,20.7804975 C16.7748493,18.9842273 17.6114148,16.9994035 19.3305588,16.2133042 C21.0497028,15.4272049 23.0785435,16.1017873 23.9990373,17.765557 C24.9195312,19.4293266 24.4249358,21.5278543 22.8609451,22.5943893 Z" id="Shape"></path>
            </g>
        </g>
    </g>
</svg>