<svg id="Layer_1" data-name="Layer 1" xmlns="http://www.w3.org/2000/svg" viewBox="0 0 624 480"><defs><style>.cls-1{fill:#fff;}</style></defs><title>Artboard 1 copy 8</title><rect class="cls-1" x="50.7" y="253.02" width="11.9" height="150.98"/><circle class="cls-1" cx="56.65" cy="421.43" r="23.8"/><rect class="cls-1" x="67.25" y="185.83" width="91.25" height="11.9" transform="translate(-87.95 95.91) rotate(-34)"/><circle class="cls-1" cx="56.81" cy="229.6" r="23.8"/><circle class="cls-1" cx="169.34" cy="153.7" r="23.8"/><path class="cls-1" d="M178.64,27.09a131,131,0,0,0-132,86.49,4.79,4.79,0,0,0,2.91,6.09l37.82,13.8c5.39,2,8.18.75,9-1.72C110.72,91.52,157,66.46,204.72,87.33c25.93,11.35,43.19,37.21,43.13,65.51-.12,56.6-51.86,76.1-71,81.38a9.57,9.57,0,0,0-7,9.25s0,28.54.52,45a4.79,4.79,0,0,0,4.92,4.66C258.45,290.43,312.57,211,298.88,134,289.2,79.51,233.85,30.64,178.64,27.09Z"/><path class="cls-1" d="M167.6,448V379.39h29.08a19.47,19.47,0,0,1,8.74,2,22.73,22.73,0,0,1,6.91,5.21,24.8,24.8,0,0,1,4.54,7.35,22.15,22.15,0,0,1,1.64,8.26,23.76,23.76,0,0,1-1.54,8.45,23.47,23.47,0,0,1-4.35,7.3,21.49,21.49,0,0,1-6.76,5.12,19.71,19.71,0,0,1-8.7,1.93H180.93v23Zm13.33-34.68h15.46a7.63,7.63,0,0,0,6.13-3,12.39,12.39,0,0,0,2.47-8.11,13.53,13.53,0,0,0-.77-4.69,11.58,11.58,0,0,0-2-3.52,8,8,0,0,0-2.95-2.18,8.69,8.69,0,0,0-3.43-.72H180.93Z"/><path class="cls-1" d="M248.36,379.39h11.79L286.23,448H272.51l-6.37-17.1h-24L235.9,448H222.18Zm15.36,42.12-9.47-26.95-9.85,26.95Z"/><path class="cls-1" d="M293.05,413.2a35.38,35.38,0,0,1,2.27-12.41,33.68,33.68,0,0,1,6.62-11A33.24,33.24,0,0,1,312.56,382a32.78,32.78,0,0,1,14.3-3,31.3,31.3,0,0,1,16.38,4.15A26.66,26.66,0,0,1,353.53,394l-10.24,7a17.7,17.7,0,0,0-3.29-4.88,16.41,16.41,0,0,0-4.15-3.14,18.74,18.74,0,0,0-4.64-1.69,22.28,22.28,0,0,0-4.74-.53,17.89,17.89,0,0,0-8.74,2,19.12,19.12,0,0,0-6.18,5.26,23.21,23.21,0,0,0-3.72,7.34,27.74,27.74,0,0,0-1.26,8.17,26.8,26.8,0,0,0,1.45,8.74,23.33,23.33,0,0,0,4.11,7.39,20.38,20.38,0,0,0,6.38,5.12,17.39,17.39,0,0,0,8.16,1.94,21.93,21.93,0,0,0,4.83-.58,18.06,18.06,0,0,0,9-5.08,14.9,14.9,0,0,0,3.1-4.78l10.91,6.28a20.57,20.57,0,0,1-4.68,6.81,30.34,30.34,0,0,1-6.86,5,36.51,36.51,0,0,1-16.67,4.15,29.26,29.26,0,0,1-13.43-3.09,35,35,0,0,1-10.48-8.07,37.28,37.28,0,0,1-6.86-11.3A35.34,35.34,0,0,1,293.05,413.2Z"/><path class="cls-1" d="M426.64,448v-45.4L409,436.39h-7.25L384,402.58V448H370.7V379.39H385l20.29,39,20.48-39H440V448Z"/><path class="cls-1" d="M482.25,379.39H494L520.12,448H506.4L500,430.88h-24L469.79,448H456.07Zm15.36,42.12-9.47-26.95-9.85,26.95Z"/><path class="cls-1" d="M547,404v44H533.62V379.39H544l35.75,45V379.49H593V448H582.21Z"/></svg>