<?xml version="1.0" encoding="UTF-8"?>
<svg width="11px" height="11px" viewBox="0 0 11 11" version="1.1" xmlns="http://www.w3.org/2000/svg" xmlns:xlink="http://www.w3.org/1999/xlink">
    <!-- Generator: Sketch 54 (76480) - https://sketchapp.com -->
    <title>Question</title>
    <desc>Created with Sketch.</desc>
    <g id="CIS/TIS-Scores" stroke="none" stroke-width="1" fill="none" fill-rule="evenodd">
        <g id="CIS-Score" transform="translate(-1161.000000, -230.000000)" fill="#555555" fill-rule="nonzero">
            <g id="Group-6" transform="translate(1161.000000, 230.000000)">
                <path d="M5.5,11 C2.46243388,11 0,8.53756612 0,5.5 C0,2.46243388 2.46243388,0 5.5,0 C8.53756612,0 11,2.46243388 11,5.5 C11,8.53756612 8.53756612,11 5.5,11 Z M5.5,10.2325581 C8.11371969,10.2325581 10.2325581,8.11371969 10.2325581,5.5 C10.2325581,2.88628031 8.11371969,0.76744186 5.5,0.76744186 C2.88628031,0.76744186 0.76744186,2.88628031 0.76744186,5.5 C0.76744186,8.11371969 2.88628031,10.2325581 5.5,10.2325581 Z M4.93417874,5.89673913 L5.37379227,5.89673913 C5.76107279,5.89673913 6.03975358,5.83655455 6.209843,5.71618357 C6.37993241,5.5958126 6.46497585,5.3838582 6.46497585,5.08031401 L6.46497585,4.67995169 C6.46497585,4.33453934 6.38385749,4.08595084 6.22161836,3.93417874 C6.05937922,3.78240665 5.80294056,3.70652174 5.45229469,3.70652174 C5.20631922,3.70652174 4.96950597,3.73007223 4.74184783,3.77717391 C4.51418968,3.8242756 4.26690955,3.89754379 4,3.99698068 L4,3.42391304 C4.48671741,3.14130293 5.04931243,3 5.68780193,3 C6.22685455,3 6.62197942,3.13737785 6.87318841,3.41213768 C7.12439739,3.68689751 7.25,4.07024714 7.25,4.56219807 L7.25,5.09601449 C7.25,5.57226486 7.11262215,5.92683056 6.83786232,6.15972222 C6.56310249,6.39261389 6.13003516,6.50905797 5.53864734,6.50905797 L5.53864734,7.23128019 L4.93417874,7.23128019 L4.93417874,5.89673913 Z M5.01268116,8.80917874 C4.97604652,8.80917874 4.94464586,8.79609514 4.91847826,8.76992754 C4.89231066,8.74375993 4.87922705,8.71235928 4.87922705,8.67572464 L4.87922705,7.99275362 C4.87922705,7.89855025 4.92371131,7.85144928 5.01268116,7.85144928 L5.46014493,7.85144928 C5.5543483,7.85144928 5.60144928,7.89855025 5.60144928,7.99275362 L5.60144928,8.67572464 C5.60144928,8.76469449 5.5543483,8.80917874 5.46014493,8.80917874 L5.01268116,8.80917874 Z" id="Question"></path>
            </g>
        </g>
    </g>
</svg>