<?xml version="1.0" encoding="UTF-8"?>
<svg width="95px" height="110px" viewBox="0 0 95 110" version="1.1" xmlns="http://www.w3.org/2000/svg" xmlns:xlink="http://www.w3.org/1999/xlink">
    <!-- Generator: Sketch 50.2 (55047) - http://www.bohemiancoding.com/sketch -->
    <title>Policies Star Badge</title>
    <desc>Created with Sketch.</desc>
    <defs>
        <filter x="-8.0%" y="-4.9%" width="116.1%" height="113.7%" filterUnits="objectBoundingBox" id="filter-1">
            <feOffset dx="0" dy="2" in="SourceAlpha" result="shadowOffsetOuter1"></feOffset>
            <feGaussianBlur stdDeviation="2" in="shadowOffsetOuter1" result="shadowBlurOuter1"></feGaussianBlur>
            <feColorMatrix values="0 0 0 0 0.186383929   0 0 0 0 0.186383929   0 0 0 0 0.186383929  0 0 0 0.5 0" type="matrix" in="shadowBlurOuter1" result="shadowMatrixOuter1"></feColorMatrix>
            <feMerge>
                <feMergeNode in="shadowMatrixOuter1"></feMergeNode>
                <feMergeNode in="SourceGraphic"></feMergeNode>
            </feMerge>
        </filter>
    </defs>
    <g id="Statistics-Dashboard" stroke="none" stroke-width="1" fill="none" fill-rule="evenodd">
        <g id="Statistics-Dashboard-v5" transform="translate(-733.000000, -196.000000)" fill="#27B5A4" fill-rule="nonzero">
            <g id="Group-29" transform="translate(699.000000, 122.000000)">
                <g id="Policies-Star-Badge" filter="url(#filter-1)" transform="translate(38.000000, 76.000000)">
                    <path d="M43.5044686,102 C43.3617228,102 43.214905,101.988047 43.0680768,101.956172 C25.6978079,98.5017479 0,82.6160086 0,59.4987966 L0,14.8739278 C0,14.2882251 0.248782093,13.7264311 0.681091617,13.3319983 C1.1215658,12.9295789 1.73330999,12.7104427 2.30431438,12.7542618 C23.3288444,13.9774422 32.8476724,9.08461859 42.0031625,0.585697578 C42.8433188,-0.195232526 44.1606382,-0.195232526 44.9967331,0.585697578 C54.1486733,9.08829058 63.7086379,13.9731582 84.6997575,12.7542618 C85.2952037,12.7024653 85.8784133,12.9295789 86.3189084,13.3319983 C86.7553002,13.7264515 87,14.2962117 87,14.8739278 L87,59.4987966 C87,82.6160086 61.2980159,98.5014419 43.9319232,101.956172 C43.7891773,101.984063 43.6423596,102 43.4955314,102 L43.5044686,102 Z M60.8842164,77.9203256 L60.8878468,77.9325843 C61.3310469,77.9325843 61.7701936,77.795172 62.1529244,77.508243 C62.9183923,76.9626082 63.2286117,75.9724994 62.9345064,75.0793716 L57.2619752,58.0295776 L72.115756,48.1566295 C72.9094318,47.6150296 73.2599365,46.6451363 72.9900065,45.7277581 C72.7120525,44.830554 71.882089,44.2001048 70.9312902,44.2001048 L52.423368,44.2001048 L46.7024656,26.5440499 C46.1263427,24.7699609 43.1934274,24.7699609 42.6173149,26.5440499 L36.8964124,44.2001048 L18.3926156,44.2001048 C17.4417963,44.2001048 16.6078517,44.8184599 16.3338994,45.7277581 C16.0558834,46.6370459 16.4104476,47.6230889 17.1960622,48.1484564 L32.049843,58.0698225 L26.3853565,74.6675073 C26.0872598,75.5646907 26.3893892,76.5346357 27.1387408,77.0963788 C27.8880306,77.6500326 28.9113759,77.6621578 29.6728152,77.1165851 L44.6317957,66.3342457 L59.5990271,77.4838591 C59.9858009,77.7788785 60.4329924,77.9203256 60.8842164,77.9203256 Z"></path>
                </g>
            </g>
        </g>
    </g>
</svg>