<svg xmlns="http://www.w3.org/2000/svg" width="55" height="52" viewBox="0 0 55 52">
    <path fill="#289CF7" fill-rule="nonzero" d="M.89 26.736a8.01 8.01 0 0 1-.012-.003.351.351 0 0 1-.095.014.567.567 0 0 1-.566-.569C.217 11.79 12.507.088 27.609.088s27.392 11.703 27.392 26.093a.567.567 0 0 1-.566.568.362.362 0 0 1-.097-.014l-.012.003a.344.344 0 0 1-.083.011.56.56 0 0 1-.389-.154c-4.76-4.49-12.222-4.49-16.98-.003a.225.225 0 0 1-.063.045l-.005.002-.019.013-.01.007-.007.004-.005.004a.262.262 0 0 1-.081.042.391.391 0 0 1-.078.018H36.6l-.007.003a.328.328 0 0 1-.095.017l-.013.002-.013-.002a.347.347 0 0 1-.06-.007l-.036-.008-.015-.003a.384.384 0 0 1-.081-.02l-.056-.035c.037.026.047.033.054.035h.002l-.027-.01a.324.324 0 0 1-.056-.037l-.004-.003-.013-.01-.074-.044V26.6a12.306 12.306 0 0 0-7.808-3.341V46.3c0 2.839-2.301 5.149-5.128 5.149-2.828 0-5.128-2.309-5.128-5.148v-1.647c0-.314.254-.568.566-.568.313 0 .566.254.566.568V46.3c0 2.211 1.793 4.01 3.996 4.01 2.203 0 3.995-1.799 3.995-4.01V23.245a12.321 12.321 0 0 0-8.044 3.347.301.301 0 0 1-.083.058l-.016.008c.002 0 .002 0-.007.006l-.004.003a.281.281 0 0 1-.057.034l-.062.013.021-.002a.189.189 0 0 0 .027-.005h-.004a.323.323 0 0 1-.08.02l-.027.004-.01.003-.013.003a.277.277 0 0 1-.064.01l-.013.002a.232.232 0 0 1-.069-.01l-.005-.002-.015-.002a.621.621 0 0 1-.083-.015.203.203 0 0 1-.074-.032.317.317 0 0 1-.071-.048l-.006-.003h-.001a.242.242 0 0 1-.063-.044c-4.759-4.49-12.22-4.49-16.982 0a.568.568 0 0 1-.388.154.344.344 0 0 1-.083-.011zm34.867-1.839c-.163-12.941-3.898-23.826-8.302-23.826-4.405 0-8.14 10.885-8.304 23.826 4.795-3.832 11.747-3.832 16.606 0zm-34.297.22a12.998 12.998 0 0 1 16.758-.136c.132-11.523 2.847-20.892 6.612-23.79C11.98 2.366 1.847 12.59 1.46 25.116zm35.348-.077c4.902-4.047 12.034-3.998 16.89.139-.39-12.56-10.6-22.809-23.554-23.989 3.794 2.903 6.53 12.296 6.664 23.85z"/>
</svg>
