<svg xmlns="http://www.w3.org/2000/svg" width="54" height="42" viewBox="0 0 54 42">
    <path fill="#27B5A4" fill-rule="nonzero" d="M42.368 4.517c1.294 0 2.353 1.046 2.353 2.324 0 1.279-1.059 2.325-2.353 2.325-.323 0-.63-.057-.912-.175l-5.882 8.31c.417.42.676.995.676 1.627 0 1.279-1.058 2.325-2.353 2.325-1.137 0-2.093-.796-2.308-1.86h-6.677c-.215 1.064-1.17 1.86-2.309 1.86-.323 0-.63-.057-.912-.175l-5.882 8.31c.417.42.677.995.677 1.627 0 1.279-1.06 2.325-2.353 2.325-1.294 0-2.353-1.046-2.353-2.325 0-1.278 1.059-2.324 2.353-2.324.318 0 .62.074.897.189l5.897-8.325a2.304 2.304 0 0 1-.677-1.627c0-1.278 1.059-2.324 2.353-2.324 1.132 0 2.088.803 2.309 1.86h6.677a2.361 2.361 0 0 1 2.308-1.86c.318 0 .62.074.897.189l5.897-8.324a2.304 2.304 0 0 1-.676-1.628c0-1.278 1.059-2.324 2.353-2.324zm0 .93c-.785 0-1.412.619-1.412 1.394 0 .776.627 1.395 1.412 1.395.785 0 1.412-.62 1.412-1.395s-.627-1.394-1.412-1.394zM22.603 17.534c-.785 0-1.412.619-1.412 1.394 0 .776.627 1.395 1.412 1.395.785 0 1.412-.62 1.412-1.395s-.627-1.394-1.412-1.394zm11.294 0c-.785 0-1.412.619-1.412 1.394 0 .776.627 1.395 1.412 1.395.785 0 1.412-.62 1.412-1.395s-.627-1.394-1.412-1.394zM14.133 29.62c-.785 0-1.412.62-1.412 1.395s.627 1.394 1.412 1.394c.785 0 1.411-.62 1.411-1.394 0-.776-.626-1.395-1.411-1.395zM1.943 40.162h51.318c.295 0 .534.24.534.537a.535.535 0 0 1-.534.536H.876V.837c0-.296.239-.536.533-.536.295 0 .534.24.534.536v39.325z"/>
</svg>
