<svg xmlns="http://www.w3.org/2000/svg" width="49" height="36" viewBox="0 0 49 36">
    <path fill="#645EC5" fill-rule="nonzero" d="M46.482 22.01H40.3a.73.73 0 1 1 0-1.459h5.984a21.892 21.892 0 0 0-4.296-9.736l-2.9 2.892a.726.726 0 0 1-.515.213.726.726 0 0 1-.518-1.244l2.997-2.988a22.229 22.229 0 0 0-4.982-4.18l-3.202 3.193a.732.732 0 0 1-.515.213.726.726 0 0 1-.518-1.244l2.918-2.91a21.98 21.98 0 0 0-9.502-2.499v2.938a.732.732 0 0 1-1.464 0V2.261a21.981 21.981 0 0 0-9.011 2.25l1.859 3.32a.73.73 0 0 1-.641 1.083.727.727 0 0 1-.638-.372L13.485 5.2a22.224 22.224 0 0 0-5.741 4.763l2.72 2.713a.726.726 0 0 1-.515 1.244.739.739 0 0 1-.518-.213l-2.607-2.599a21.883 21.883 0 0 0-4.072 9.443H7.93a.73.73 0 1 1 0 1.46H2.553a22.118 22.118 0 0 0-.115 2.255.73.73 0 0 1-.732.73.73.73 0 0 1-.732-.73c0-8.93 5.028-16.712 12.409-20.679a.748.748 0 0 1 .077-.041A23.447 23.447 0 0 1 24.554.793c12.96.022 23.5 10.544 23.5 23.473a.724.724 0 0 1-.726.73h.001a.73.73 0 0 1-.732-.73c0-.761-.039-1.514-.115-2.255zM26.49 25.169l6.854-7.206a.735.735 0 0 1 1.028-.034c.294.27.31.723.034 1.012l-6.619 6.958c1.355 1.018 2.231 2.623 2.231 4.426 0 3.068-2.537 5.564-5.656 5.564-3.119 0-5.656-2.496-5.656-5.564s2.537-5.565 5.656-5.565c.752 0 1.47.146 2.128.409zm-.317 1.425a4.232 4.232 0 0 0-1.811-.404c-2.316 0-4.2 1.854-4.2 4.132 0 2.278 1.884 4.132 4.2 4.132 2.315 0 4.2-1.854 4.2-4.132 0-1.527-.847-2.863-2.102-3.578a.732.732 0 0 1-.287-.15z"/>
</svg>
