<svg xmlns="http://www.w3.org/2000/svg" width="50" height="48" viewBox="0 0 50 48">
    <path fill="#50C17C" fill-rule="nonzero" d="M8.847 31.065c-.094-3.635 1.785-7.113 5.016-8.95a9.707 9.707 0 0 1 11.87 1.796 10.132 10.132 0 0 1 2.372 4.202 10.381 10.381 0 0 1 .365 2.692 11.422 11.422 0 0 1-.107 1.5v.014a10.133 10.133 0 0 1-1.681 4.21 9.813 9.813 0 0 1-5.679 3.94 9.66 9.66 0 0 1-2.336.289l-.003.01c-4.467.005-8.373-3.054-9.5-7.442a10.11 10.11 0 0 1-.317-2.261zm14.878-7.34a8.46 8.46 0 0 0-5.061-1.661c-4.705.077-8.478 3.972-8.478 8.75a8.766 8.766 0 0 0 4.673 7.781 8.606 8.606 0 0 0 3.621.86 8.683 8.683 0 0 0 7.102-3.715 8.856 8.856 0 0 0 1.49-3.706c.061-.44.093-.883.098-1.326a9.153 9.153 0 0 0-.32-2.378 8.881 8.881 0 0 0-3.125-4.605zm7.204 23.717a8.78 8.78 0 0 1-2.509.358H8.909a8.32 8.32 0 0 1-5.77-2.252C-.918 41.695-.94 34.892 3.076 25.89c2.568-5.782 6.061-10.79 6.972-12.056L4.62 3.137a.609.609 0 0 1 .085-.677.588.588 0 0 1 .655-.16c9.358 3.66 12.36 1.945 15.265.287 2.681-1.53 5.22-2.975 11.781-.283a.589.589 0 0 1 .335.348.608.608 0 0 1-.03.48l-5.428 10.699a71.698 71.698 0 0 1 3.779 5.847 77.436 77.436 0 0 1 1.907 3.48h13.627c1.468.003 2.657 1.21 2.66 2.7v.483a2.712 2.712 0 0 1-.976 2.098c.607.495.996 1.254.997 2.106v.483a2.722 2.722 0 0 1-.99 2.109 2.71 2.71 0 0 1 .982 2.095v.493c0 .846-.383 1.6-.983 2.096.603.495.988 1.251.99 2.1v.482a2.724 2.724 0 0 1-.985 2.103c.603.495.99 1.252.99 2.1v.494c0 .718-.283 1.406-.784 1.913-.5.506-1.18.79-1.886.787H32.25a2.585 2.585 0 0 1-1.32-.358zm-.186-1.195a.588.588 0 0 1 .09-.04 6.846 6.846 0 0 0 2.56-1.538 8.162 8.162 0 0 0 1.723-2.33.602.602 0 0 1 .037-.093c.62-1.363.943-2.846.948-4.349a.614.614 0 0 1-.004-.084 19.652 19.652 0 0 0-.531-4.542 33.557 33.557 0 0 0-1.383-4.505.608.608 0 0 1-.05-.099 52.57 52.57 0 0 0-2.062-4.634.604.604 0 0 1-.053-.152 74.293 74.293 0 0 0-5.71-9.39H11.044c-1.73 2.41-15.53 22.168-7.105 30.178a7.098 7.098 0 0 0 4.97 1.926H28.42a7.557 7.557 0 0 0 2.322-.348zm6.53-7.813a11.747 11.747 0 0 1-.284 2.066c-.106.476-.24.946-.404 1.406h-.004H46.61c.812 0 1.47-.668 1.473-1.495v-.48a1.489 1.489 0 0 0-1.473-1.497h-9.337zm.005-1.214h9.332c.812 0 1.47-.668 1.473-1.495v-.493c-.003-.825-.661-1.495-1.473-1.495h-9.72c.226 1.147.357 2.313.388 3.483zm-.661-4.689h9.993c.812 0 1.47-.668 1.473-1.495v-.482a1.488 1.488 0 0 0-1.473-1.495H35.558a35.544 35.544 0 0 1 1.059 3.472zm-3.045-8.159a52.426 52.426 0 0 1 1.526 3.473H46.61c.812 0 1.47-.668 1.473-1.495v-.482a1.488 1.488 0 0 0-1.473-1.496H33.572zm-.724 22.223H46.61c.812 0 1.47-.668 1.473-1.495v-.493c-.003-.825-.661-1.495-1.473-1.495H36.048a9.36 9.36 0 0 1-1.835 2.436l.005-.005zm-6.624-33.308l5.141-10.11c-5.585-2.145-7.706-.936-10.149.46C18.37 5.26 15.16 7.094 6.381 3.96l4.723 9.326h15.12zm-6.965 22.397v1.569h-1.187v-1.569h-1.29c-1.37 0-2.487-1.24-2.487-2.76v-.085h1.185v.084c0 .86.584 1.558 1.302 1.558h1.29v-3.103h-1.296c-1.368 0-2.48-1.235-2.48-2.754 0-1.52 1.112-2.756 2.48-2.756h1.296v-1.273h1.187v1.273h1.29c1.37 0 2.486 1.242 2.486 2.763H21.85c0-.86-.584-1.558-1.302-1.558h-1.29v3.102h1.297c1.368 0 2.48 1.236 2.48 2.755s-1.112 2.754-2.48 2.754h-1.296zm0-1.203h1.296c.711 0 1.295-.697 1.295-1.551 0-.855-.581-1.552-1.295-1.552h-1.296v3.103zm-1.187-7.408h-1.296c-.712 0-1.296.696-1.296 1.551s.582 1.551 1.296 1.551h1.296v-3.102z"/>
</svg>
