<svg xmlns="http://www.w3.org/2000/svg" width="42" height="45" viewBox="0 0 42 45">
    <path fill="#F58544" fill-rule="nonzero" d="M4.117 13.687c.22-.225.636-.225.861 0a.601.601 0 0 1 0 .86.632.632 0 0 1-.433.177.62.62 0 0 1-.612-.606c0-.164.067-.315.184-.431zm3.515-.176a.606.606 0 1 1 0 1.213.606.606 0 1 1 0-1.213zm3.65.37a.41.41 0 0 1 .037.114.59.59 0 0 1-.036.353.602.602 0 0 1-.13.194.634.634 0 0 1-.435.183.629.629 0 0 1-.433-.183.566.566 0 0 1-.13-.194.593.593 0 0 1-.05-.23c0-.163.07-.322.18-.43a.643.643 0 0 1 .869 0c.024.03.05.058.074.09.024.037.043.065.055.103zM40.6 10.72c.34 0 .613.27.613.606v26.978c0 3.233-2.656 5.865-5.922 5.865H1.593a.61.61 0 0 1-.613-.606V11.325c0-.336.273-.606.613-.606h20.833v-3.79c0-3.539 2.905-6.417 6.48-6.417 1.735 0 3.362.668 4.582 1.883a6.324 6.324 0 0 1 1.898 4.534v3.79h5.213zm-8.889 4H21.465v7.37c0 4.062 3.338 7.366 7.441 7.366s7.441-3.304 7.441-7.366v-7.37H31.71zm-.612-4v-3.79a2.184 2.184 0 0 0-2.192-2.172 2.184 2.184 0 0 0-2.192 2.172v3.79h4.384zm-7.447-3.79v3.79h1.838v-3.79c0-1.867 1.531-3.385 3.417-3.385 1.885 0 3.417 1.518 3.417 3.385v6.578h1.837V6.93a5.114 5.114 0 0 0-1.54-3.676 5.221 5.221 0 0 0-3.714-1.528c-2.898 0-5.255 2.335-5.255 5.204zM2.205 11.932v4.365h18.034v-2.184a.61.61 0 0 1 .613-.606h10.246v-1.575H2.205zm37.782 26.371l-.001-20.793h-2.414v4.579c0 4.73-3.886 8.58-8.667 8.58-4.78 0-8.666-3.85-8.666-8.58V17.51H2.205v25.445H35.29c2.589 0 4.697-2.087 4.697-4.652zm0-22.006v-4.365h-4.601v1.575h1.574a.61.61 0 0 1 .613.606v2.184h2.414zm-11.694 7.808c-1.366-.282-2.395-1.48-2.395-2.916 0-1.642 1.35-2.978 3.008-2.978s3.008 1.336 3.008 2.978c0 1.435-1.03 2.634-2.396 2.916v1.253a.608.608 0 0 1-.612.606.608.608 0 0 1-.613-.606v-1.253zm.613-4.681c-.984 0-1.783.791-1.783 1.765 0 .973.8 1.767 1.783 1.767.983 0 1.782-.794 1.782-1.767 0-.974-.799-1.765-1.782-1.765zm-14.548 4.785c.34 0 .612.27.612.606a.61.61 0 0 1-.612.607H7.634a.61.61 0 0 1-.613-.607c0-.336.273-.606.613-.606h6.724zm0 5.34c.34 0 .612.27.612.606a.61.61 0 0 1-.612.606H7.634a.61.61 0 0 1-.613-.606c0-.337.273-.607.613-.607h6.724zm0 5.336a.61.61 0 0 1 .612.607.608.608 0 0 1-.612.606H7.634a.608.608 0 0 1-.613-.606.61.61 0 0 1 .613-.607h6.724z"/>
</svg>
