<?xml version="1.0" encoding="UTF-8"?>
<svg width="60px" height="60px" viewBox="0 0 60 60" version="1.1" xmlns="http://www.w3.org/2000/svg" xmlns:xlink="http://www.w3.org/1999/xlink">
    <!-- Generator: Sketch 51 (57462) - http://www.bohemiancoding.com/sketch -->
    <title>Remediate</title>
    <desc>Created with Sketch.</desc>
    <defs></defs>
    <g id="Landing" stroke="none" stroke-width="1" fill="none" fill-rule="evenodd">
        <g id="Landing_Rev_v1" transform="translate(-953.000000, -521.000000)" fill="#566D9B" fill-rule="nonzero">
            <g id="Group-3" transform="translate(97.000000, 447.000000)">
                <g id="Group-2">
                    <g id="Group-4">
                        <g id="Group-10" transform="translate(0.500000, 0.000000)">
                            <g id="Group-9">
                                <g id="Group-45" transform="translate(750.000000, 74.000000)">
                                    <g id="np_bug-fix_396202_000000" transform="translate(105.000000, 0.000000)">
                                        <path d="M46.8956436,37.1287129 L51.3371881,37.1287129 C52.0194059,37.1287129 52.5740198,36.574105 52.5740198,35.8918812 C52.5740198,35.2073465 52.0194119,34.6527327 51.3371881,34.6527327 L46.663604,34.6527327 C47.2808911,33.675802 47.622,32.5479802 47.622,31.364495 L47.622,24.6884554 C48.0327386,24.7255842 48.4434653,24.7534337 48.8611485,24.7534337 C49.4784356,24.7534337 50.0005545,24.3009267 50.0887129,23.6929188 L51.225802,15.7337109 C54.423505,14.480602 57.4194653,14.0211564 57.8881782,14.4945624 C58.3708515,14.9772356 59.1551881,14.9772356 59.6378614,14.4945624 C60.1205347,14.0118891 60.1205347,13.2275525 59.6378614,12.7448792 C57.7652079,10.8722257 53.0129109,12.3712693 50.3948911,13.4039287 L46.6008119,9.6098495 C47.6334653,6.99462178 49.130198,2.23519604 47.2621782,0.366879208 C46.779505,-0.115794059 45.9951683,-0.115794059 45.512495,0.366879208 C45.0298218,0.849552475 45.0298218,1.63388911 45.512495,2.11656238 C45.9835663,2.58763366 45.5217772,5.5788 44.2710297,8.77893861 L36.3118218,9.91371089 C35.7015446,9.9995703 35.2466733,10.5216713 35.2466733,11.1389584 C35.2466733,11.5566535 35.2721994,11.9696911 35.3093287,12.3781069 L28.6332891,12.3781069 C27.4590713,12.3781069 26.3428931,12.716905 25.370596,13.3225426 C25.3613139,13.1531406 25.3241851,12.9837446 25.3311469,12.8143426 C25.4703826,9.76283762 24.1894242,6.84345149 21.4303152,3.90107525 C19.0702954,1.3855901 15.9677608,0.0629168317 12.8140776,0.00256039604 C10.0619192,0.0373687129 7.43968158,0.998085149 5.23031525,2.7825802 C4.91472119,3.03784158 4.74531921,3.42766931 4.77316871,3.83145149 C4.80101525,4.23522772 5.02146772,4.5995703 5.37186178,4.80606535 L12.9366143,9.34271881 C12.7092024,11.6191545 11.3656242,13.6148376 9.30958455,14.6776693 L2.53611921,10.6144218 C2.15555287,10.3893267 1.6380796,10.4078911 1.25752515,10.6167422 C0.881598416,10.8232729 0.637921188,11.206162 0.614752871,11.6308016 C0.41054495,15.081455 1.6010103,18.3626828 3.96328752,20.8666432 C6.29544594,23.3380491 9.57667366,24.7535739 12.9692281,24.7535739 C13.2221667,24.7535739 13.4867073,24.7210859 13.7442974,24.7025216 L11.2822182,27.1669176 C10.5164162,27.9327196 9.92235683,28.8121651 9.41883208,29.7357493 C9.36313901,29.7287875 9.31672515,29.7032614 9.25639248,29.7032614 L1.8306499,29.7032614 C1.14843208,29.7032614 0.593818218,30.2578693 0.593818218,30.9400931 C0.593818218,31.6246277 1.14842614,32.1792416 1.8306499,32.1792416 L8.43718455,32.1792416 C8.19352515,33.1051426 8.0194895,34.0565881 8.0194895,35.0427861 L8.0194895,40.8418158 C8.0194895,46.9820139 13.0179648,51.9804297 19.1581034,51.9804297 L24.9571331,51.9804297 C25.9433905,51.9804297 26.8924598,51.8087109 27.8206776,51.5627347 L27.8206776,58.1692693 C27.8206776,58.8514871 28.3752855,59.406101 29.0575093,59.406101 C29.7397271,59.406101 30.294341,58.8514931 30.294341,58.1692693 L30.294341,50.7435267 C30.294341,50.6855127 30.2688149,50.6367802 30.2618531,50.5834099 C31.1877541,50.0775327 32.0695758,49.4834495 32.8330016,48.7200238 L36.4831996,45.0698257 L48.9216154,57.5082416 C50.1491798,58.7334891 51.7805263,59.4064396 53.5139917,59.4064396 C57.0876154,59.4064396 59.9999323,56.496499 59.997556,52.9181228 C59.997556,51.1846574 59.3222887,49.5603208 58.0970412,48.3303802 L46.8956436,37.1287129 Z M45.1459604,31.3668119 C45.1459604,32.3600198 44.7607485,33.2905545 44.0599604,33.9936832 L43.9114455,34.142198 L35.7591683,25.9899208 L40.1565743,21.5948317 C41.5976436,22.7968515 43.291604,23.6972673 45.1434059,24.2240198 C45.1457263,24.2216994 45.1457263,31.366396 45.1457263,31.366396 L45.1459604,31.3668119 Z M44.7120178,11.2151287 L48.7869089,15.2900198 L47.793701,22.2286337 C42.498196,21.7250733 38.2768693,17.501703 37.7713248,12.2086337 L44.7120178,11.2151287 Z M28.6332059,14.8537426 L35.7738,14.8537426 C36.3005644,16.7078614 37.2009089,18.404198 38.405305,19.8428911 L34.0102158,24.240297 L27.3965525,17.6242574 C26.8558634,17.0835683 26.4474238,16.4802178 26.1109485,15.8559802 C26.7954832,15.2224752 27.7005327,14.853505 28.6333842,14.853505 L28.6332059,14.8537426 Z M10.4959782,40.8414653 L10.4959782,35.0424356 C10.4959782,32.7288713 11.3963347,30.5521782 13.0323149,28.916495 L16.6825129,25.2616634 L24.8347901,33.4139406 L12.243701,46.0050297 C11.1623347,44.5593267 10.4963347,42.7817822 10.4963347,40.8418218 L10.4959782,40.8414653 Z M31.0860772,46.9674059 C29.4477802,48.6033861 27.2757208,49.5037426 24.9577604,49.5037426 L19.1587307,49.5037426 C17.2164535,49.5037426 15.4412257,48.8377426 13.9955228,47.7540594 L26.5866119,35.1629703 L34.7388891,43.3152475 L31.0860772,46.9674059 Z M53.5165723,56.9297822 L53.5119309,56.9297822 C52.4398319,56.9297822 51.432723,56.5120871 50.6762477,55.7532475 L17.0400101,22.1193861 C16.8056358,21.8826891 16.487719,21.7573782 16.162822,21.7573782 C16.0444735,21.7573782 15.9238081,21.7713018 15.8054596,21.8084305 C14.747321,22.1286642 13.8469051,22.277179 12.9697764,22.277179 C10.2153012,22.277179 7.65805366,21.172585 5.76918238,19.1653176 C4.36987545,17.6801691 3.48342,15.8539117 3.18407347,13.8860899 L8.62577644,17.148783 C8.98546158,17.3692325 9.43565762,17.3831572 9.81389525,17.1951933 L10.33602,16.9352923 C13.4896438,15.3596685 15.4481982,12.1874507 15.4481982,8.66242099 C15.4481982,8.22615564 15.2207863,7.82236158 14.8471883,7.59958931 L8.31253485,3.67784673 C9.71647545,2.90741109 11.2549705,2.49436158 12.8491883,2.47582693 L12.9466497,2.47582693 C15.3367883,2.47582693 17.7664319,3.61059921 19.629818,5.59695564 C21.9433824,8.06366851 22.9714022,10.3238863 22.8646497,12.7120051 C22.7648655,15.0812923 23.7789665,17.5085596 25.6493032,19.3791339 L33.1261349,26.8559655 C33.1307756,26.8606069 33.1307756,26.8652477 33.1330966,26.8675681 C33.135417,26.8698891 33.1423782,26.8722095 33.1446992,26.8745299 L43.0256893,36.75552 C43.0280103,36.7578404 43.0303307,36.7624812 43.0326511,36.7648022 C43.0349715,36.7671226 43.0396129,36.769443 43.0419333,36.771764 L56.3476758,50.0775065 C57.1041511,50.8339818 57.5242105,51.8434669 57.5242105,52.9155065 C57.5265315,55.1316451 55.7304481,56.9300412 53.5166263,56.9300412 L53.5165723,56.9297822 Z" id="Remediate"></path>
                                    </g>
                                </g>
                            </g>
                        </g>
                    </g>
                </g>
            </g>
        </g>
    </g>
</svg>