<?xml version="1.0" encoding="UTF-8"?>
<svg width="66px" height="60px" viewBox="0 0 66 60" version="1.1" xmlns="http://www.w3.org/2000/svg" xmlns:xlink="http://www.w3.org/1999/xlink">
    <!-- Generator: Sketch 51 (57462) - http://www.bohemiancoding.com/sketch -->
    <title>Report</title>
    <desc>Created with Sketch.</desc>
    <defs></defs>
    <g id="Landing" stroke="none" stroke-width="1" fill="none" fill-rule="evenodd">
        <g id="Landing_Rev_v1" transform="translate(-608.000000, -521.000000)" fill="#566D9B" fill-rule="nonzero">
            <g id="Group-3" transform="translate(97.000000, 447.000000)">
                <g id="Group-2">
                    <g id="Group-4">
                        <g id="Group-10" transform="translate(0.500000, 0.000000)">
                            <g id="Group-9">
                                <g id="Group-44" transform="translate(418.000000, 74.000000)">
                                    <g id="Report" transform="translate(92.500000, 0.000000)">
                                        <path d="M65.39625,49.39125 L65.39625,2.02125 C65.39625,1.212675 64.74,0.556425 63.931425,0.556425 L15.805425,0.556425 C14.99685,0.556425 14.3406,1.212675 14.3406,2.02125 L14.3406,29.59575 L2.06835,29.59575 C1.259775,29.59575 0.603525,30.252 0.603525,31.060575 L0.603525,51.108075 C0.603525,55.701825 4.341825,59.439825 8.935275,59.439825 L55.347525,59.439825 C60.88755,59.4427545 65.396025,54.933975 65.396025,49.391325 L65.39625,49.39125 Z M14.34075,51.111 C14.34075,54.090525 11.917875,56.513325 8.938425,56.513325 C5.9589,56.513325 3.5361,54.09045 3.5361,51.111 L3.5331705,32.52525 L14.34075,32.52525 L14.337741,51.111 L14.34075,51.111 Z M55.34775,56.513325 L15.27525,56.513325 C16.5174,55.057275 17.2704,53.170575 17.2704,51.111 L17.2704,3.486 L62.4699,3.486 L62.4699,49.39125 C62.4669698,53.319975 59.273625,56.513325 55.347825,56.513325 L55.34775,56.513325 Z" id="Shape"></path>
                                        <path d="M34.84275,10.254 L24.03525,10.254 C23.226675,10.254 22.570425,10.91025 22.570425,11.718825 L22.570425,21.668325 C22.570425,22.4769 23.226675,23.13315 24.03525,23.13315 L34.84275,23.13315 C35.651325,23.13315 36.307575,22.4769 36.307575,21.668325 L36.307575,11.718825 C36.307575,10.91025 35.651325,10.254 34.84275,10.254 Z M33.377925,20.2035 L25.499925,20.2035 L25.499925,13.18395 L33.377925,13.18395 L33.377925,20.2035 Z" id="Shape"></path>
                                        <path d="M55.09575,15.5535 L44.28825,15.5535 C43.479675,15.5535 42.823425,16.20975 42.823425,17.018325 C42.823425,17.8269 43.479675,18.48315 44.28825,18.48315 L55.09575,18.48315 C55.904325,18.48315 56.560575,17.8269 56.560575,17.018325 C56.560575,16.20975 55.904325,15.5535 55.09575,15.5535 Z" id="Shape"></path>
                                        <path d="M34.84275,32.22075 L24.03525,32.22075 C23.226675,32.22075 22.570425,32.877 22.570425,33.685575 L22.570425,43.635075 C22.570425,44.44365 23.226675,45.0999 24.03525,45.0999 L34.84275,45.0999 C35.651325,45.0999 36.307575,44.44365 36.307575,43.635075 L36.307575,33.685575 C36.307575,32.877 35.651325,32.22075 34.84275,32.22075 Z M33.377925,42.17025 L25.499925,42.17025 L25.499925,35.1507 L33.377925,35.1507 L33.377925,42.17025 Z" id="Shape"></path>
                                        <path d="M55.09575,37.52325 L44.28825,37.52325 C43.479675,37.52325 42.823425,38.1795 42.823425,38.988075 C42.823425,39.79665 43.479675,40.4529 44.28825,40.4529 L55.09575,40.4529 C55.904325,40.4529 56.560575,39.79665 56.560575,38.988075 C56.560575,38.1795 55.904325,37.52325 55.09575,37.52325 Z" id="Shape"></path>
                                    </g>
                                </g>
                            </g>
                        </g>
                    </g>
                </g>
            </g>
        </g>
    </g>
</svg>