<?xml version="1.0" encoding="UTF-8"?>
<svg width="33px" height="24px" viewBox="0 0 33 24" version="1.1" xmlns="http://www.w3.org/2000/svg" xmlns:xlink="http://www.w3.org/1999/xlink">
    <!-- Generator: Sketch 50.2 (55047) - http://www.bohemiancoding.com/sketch -->
    <title>Scanned</title>
    <desc>Created with Sketch.</desc>
    <defs></defs>
    <g id="V2---Infographic" stroke="none" stroke-width="1" fill="none" fill-rule="evenodd">
        <g id="Vuln_1.2" transform="translate(-315.000000, -232.000000)" fill="#60727F" fill-rule="nonzero">
            <g id="VulnSummary" transform="translate(30.000000, 76.000000)">
                <g id="Group-77" transform="translate(44.000000, 125.000000)">
                    <g id="Group-17">
                        <g id="Group-16" transform="translate(33.000000, 15.000000)">
                            <g id="Group-54" transform="translate(0.000000, 4.000000)">
                                <g id="Group-89">
                                    <g id="np_scanning_98115_000000" transform="translate(208.000000, 12.000000)">
                                        <path d="M32.0663333,6.39966667 C23.966,-1.70066667 10.8996667,-1.89966667 2.56633333,5.83326667 L1.89966667,5.1666 C1.49993333,4.76686667 0.8658,4.76686667 0.466066667,5.1666 C0.0663333333,5.56633333 0.0663333333,6.20046667 0.466066667,6.6002 L14.9320667,21.0662 C14.86566,21.2992733 14.7992533,21.5323333 14.7992533,21.7667333 C14.7992533,22.8995333 15.7328533,23.8331333 16.8656533,23.8331333 C17.9984533,23.8331333 18.9320533,22.8995333 18.9320533,21.7667333 C18.9320533,20.6339333 17.9984533,19.7003333 16.8656533,19.7003333 C16.6989867,19.7003333 16.5661733,19.7341867 16.4320533,19.76674 L12.7313867,16.0660733 C15.4644533,13.9332733 19.4320533,14.1324733 21.9643867,16.6324733 C22.36412,17.0322067 22.9982533,17.0322067 23.3979867,16.6324733 C23.79772,16.23274 23.79772,15.5986067 23.3979867,15.1988733 C20.09852,11.8994067 14.8639867,11.6988733 11.3316533,14.5986067 L8.43192,11.6988733 C13.4982533,7.16487333 21.3315867,7.33154 26.19892,12.1988733 C26.5986533,12.5986067 27.2327867,12.5986067 27.63252,12.1988733 C28.0322533,11.79914 28.0322533,11.1650067 27.63252,10.7652733 C21.9998533,5.13260667 12.89952,4.93194 7.03218667,10.2652733 L4.03218667,7.26527333 C11.59852,0.331606667 23.36552,0.498273333 30.6988533,7.83167333 C30.8993733,8.03219333 31.1649867,8.13115333 31.3993867,8.13115333 C31.6663133,8.13115333 31.8993867,8.03089333 32.09992,7.83167333 C32.46582,7.43324 32.46582,6.79910667 32.0660667,6.39937333 L32.0663333,6.39966667 Z" id="Scanned"></path>
                                    </g>
                                </g>
                            </g>
                        </g>
                    </g>
                </g>
            </g>
        </g>
    </g>
</svg>