<?xml version="1.0" encoding="UTF-8"?>
<svg width="27px" height="32px" viewBox="0 0 27 32" version="1.1" xmlns="http://www.w3.org/2000/svg" xmlns:xlink="http://www.w3.org/1999/xlink">
    <!-- Generator: Sketch 47.1 (45422) - http://www.bohemiancoding.com/sketch -->
    <title>Security</title>
    <desc>Created with Sketch.</desc>
    <defs></defs>
    <g id="Prototype" stroke="none" stroke-width="1" fill="none" fill-rule="evenodd">
        <g id="6.2-Issue-Details" transform="translate(-757.000000, -256.000000)" fill="#289CF7">
            <g id="Group-16" transform="translate(213.000000, 156.000000)">
                <g id="Group-33" transform="translate(91.000000, 75.000000)">
                    <g id="Group-29" transform="translate(435.000000, 0.000000)">
                        <g id="Group-32">
                            <g id="Security" transform="translate(18.000000, 25.000000)">
                                <path d="M26.57888,6.16 C26.6151296,5.9287488 26.4801312,5.704992 26.25888,5.628736 C22.08256,3.796224 17.91648,1.944896 13.76,0.073856 C13.57,-0.0224 13.344992,-0.0224 13.155008,0.073856 C8.971328,1.933856 4.789888,3.788736 0.61132768,5.638976 C0.40132768,5.6939776 0.26508768,5.8964768 0.29132768,6.112736 C0.32007776,8.960224 0.28757792,11.811616 0.32007776,14.658976 C0.33882784,18.582816 1.6175808,22.397856 3.9674368,25.538976 C6.2399488,28.597728 9.1450368,30.7901766 12.8285568,31.8976968 C13.2248128,32.0226952 13.6510528,32.0226952 14.0473088,31.8976968 C17.4447488,30.8814406 20.4297088,28.811457 22.5724288,25.987616 C25.1786688,22.714976 26.5900288,18.650016 26.5724288,14.467616 L26.5724288,10.775136 C26.5599296,9.23888 26.5599296,7.69888 26.5786816,6.160096 L26.57888,6.16 Z M24.320128,11.67008 L24.320128,14.728832 L24.320128,14.7300832 C24.3363776,18.1963232 23.168864,21.5649632 21.011328,24.2788832 C19.23632,26.6238752 16.760128,28.3425632 13.942528,29.1876822 C13.613792,29.2914326 13.260032,29.2914326 12.931264,29.1876822 C9.96752,28.2876832 7.385024,26.4326752 5.587584,23.9102432 C3.637568,21.3064992 2.57632,18.1438432 2.560096,14.8900832 C2.5350944,12.5288352 2.560096,10.1662432 2.560096,7.8049632 C2.5388448,7.6287136 2.6488448,7.4637152 2.8188448,7.4149472 C6.2726048,5.8849632 9.7314848,4.3449312 13.1938848,2.7960672 C13.3513856,2.7173184 13.5376288,2.7173184 13.6963808,2.7960672 C17.1527008,4.3448032 20.6064608,5.8798112 24.0576608,7.4011872 C24.24016,7.4661856 24.3514112,7.6511872 24.32016,7.8436832 L24.32016,11.6699232 L24.320128,11.67008 Z" id="Fill-1"></path>
                                <path d="M22.4,8.7424 L20.775008,8.0224 L5.661408,20.8224 C5.991392,21.466144 6.375168,22.081152 6.8064,22.6624 C7.0888992,23.0424 7.390144,23.407392 7.708896,23.75616 L22.630176,11.12352 L22.630176,9.113536 C22.6551776,8.9497856 22.5576768,8.792288 22.400176,8.742272 L22.4,8.7424 Z" id="Fill-2"></path>
                                <path d="M13.00736,27.1264 C13.2861088,27.2139008 13.584864,27.2139008 13.862368,27.1264 C16.243616,26.416384 18.337248,24.9664 19.839968,22.98528 C21.662464,20.696544 22.648704,17.85408 22.636224,14.92768 L22.636224,13.762688 L9.196224,25.151488 L9.196224,25.152736 C10.331232,26.044 11.62496,26.713984 13.007424,27.126496 L13.00736,27.1264 Z" id="Fill-3"></path>
                                <path d="M13.6576,4.8576 C13.5251008,4.7913504 13.3676,4.7913504 13.235104,4.8576 C10.312608,6.158848 7.393824,7.4576 4.480224,8.75264 C4.3439744,8.7976416 4.2552256,8.9288896 4.2627232,9.07264 L4.2627232,15.05376 L4.2627232,15.0525088 C4.2664736,15.7062688 4.320224,16.3587488 4.4227232,17.0050208 C4.5227232,17.6400288 4.6689728,18.2662688 4.8614752,18.8800288 L18.7328352,7.1161888 L13.6576,4.8576 Z" id="Fill-4"></path>
                            </g>
                        </g>
                    </g>
                </g>
            </g>
        </g>
    </g>
</svg>