<?xml version="1.0" encoding="UTF-8"?>
<svg width="48px" height="48px" viewBox="0 0 48 48" version="1.1" xmlns="http://www.w3.org/2000/svg" xmlns:xlink="http://www.w3.org/1999/xlink">
    <!-- Generator: Sketch 47 (45396) - http://www.bohemiancoding.com/sketch -->
    <title>Tags</title>
    <desc>Created with Sketch.</desc>
    <defs>
        <path d="M45.9881825,24.2932774 L23.0699963,1.37509117 C22.3050789,0.458363725 21.0847313,1.13686838e-13 19.8614502,1.13686838e-13 L4.58363725,1.13686838e-13 C1.98526496,1.13686838e-13 0,1.98526496 0,4.58363725 L0,19.8614502 C0,21.0847313 0.458363725,22.3050789 1.37509117,23.0699963 L24.2932774,45.9881825 C25.2100049,46.90491 26.433286,47.3632737 27.5018235,47.3632737 C28.570361,47.3632737 29.7936421,46.90491 30.7103696,45.9881825 L45.9881825,30.7103696 C47.8216374,29.0287247 47.8216374,25.9749222 45.9881825,24.2932774 Z M7.68698375,9.77337394 C6.47905242,9.77337394 5.49131965,8.78564117 5.49131965,7.57770984 C5.49131965,6.36977851 6.47905242,5.38204574 7.68698375,5.38204574 C8.89491508,5.38204574 9.88264785,6.36977851 9.88264785,7.57770984 C9.88264785,8.78564117 8.89491508,9.77337394 7.68698375,9.77337394 Z" id="path-1"></path>
    </defs>
    <g id="Compliance-Dashboard" stroke="none" stroke-width="1" fill="none" fill-rule="evenodd">
        <g id="Compliance_v15" transform="translate(-1149.000000, -542.000000)">
            <g id="Tags" transform="translate(1149.000000, 542.000000)">
                <mask id="mask-2" fill="white">
                    <use xlink:href="#path-1"></use>
                </mask>
                <use id="Mask" fill="#26BA9D" xlink:href="#path-1"></use>
                <polygon id="Path-13" fill="#FFFFFF" opacity="0.1" mask="url(#mask-2)" transform="translate(16.305345, 22.395312) rotate(-360.000000) translate(-16.305345, -22.395312) " points="49.1106429 -3.22196155 -16.547438 48.0125858 49.1581271 47.784531"></polygon>
            </g>
        </g>
    </g>
</svg>