<svg xmlns="http://www.w3.org/2000/svg" width="113" height="20" viewBox="0 0 113 20">
    <g fill="#FFF" fill-rule="nonzero">
        <path d="M0 9.61h4v4H0z"/>
        <path d="M8.846 1.481h.448c2.896 0 4.245 1.478 4.81 5.419L15 6.862 14.88.61H.145L0 6.862l.863.038c.15-1.478.329-2.274.718-3.07.687-1.478 2.122-2.349 3.886-2.349h.628v13.604c0 1.44-.09 1.895-.448 2.236-.3.265-.897.379-1.585.379h-.688v.91h8.192v-.91h-.692c-.683 0-1.285-.114-1.58-.379-.359-.341-.448-.796-.448-2.236V1.481"/>
        <path d="M11 9.61h4v4h-4zM22 9.61h4v4h-4zM33 9.61h4v4h-4zM47.682 19.61l4.71-16.371v12.846c0 1.402-.08 1.895-.399 2.236-.24.265-.795.379-1.412.379h-.24v.91H57v-.91h-.347c-.612 0-1.171-.114-1.41-.38-.32-.34-.4-.833-.4-2.235V5.134c0-1.402.08-1.933.4-2.274.265-.227.798-.379 1.41-.379H57V1.61h-5.167l-3.888 13.226L44.14 1.609H39v.872h.48c1.411 0 1.677.303 1.677 2.122v10.421c0 1.667-.08 2.35-.32 2.842-.266.493-.829.834-1.41.834H39v.91h5.486v-.91h-.346c-.692 0-1.252-.265-1.575-.796-.316-.53-.396-1.023-.396-2.88V3.239l4.684 16.37h.83M62.063 6.61C59.001 6.61 57 9.15 57 13.146c0 3.847 2 6.462 4.986 6.462C65 19.61 67 16.994 67 13.11c0-3.847-2-6.5-4.937-6.5m-.098.86c.885 0 1.651.597 2.07 1.606.396.934.569 2.204.569 4.034 0 3.773-.865 5.64-2.618 5.64-1.75 0-2.594-1.867-2.594-5.677 0-1.793.176-3.063.572-3.997.392-.971 1.186-1.607 2-1.607M71.874 1.61L68 1.794v.814h.187c1.146 0 1.395.37 1.395 2.112v12.037c0 1.555-.054 1.963-.272 2.63h.9c.678-1.075.846-1.26 1.119-1.26.132 0 .264.037.46.222 1.34 1.037 1.913 1.26 3.14 1.26 2.943 0 5.071-2.704 5.071-6.556 0-3.63-1.968-6.074-4.91-6.074-1.528 0-2.643.703-3.216 1.963V1.609m2.83 6.297c1.75 0 2.65 1.777 2.65 5.259 0 3.666-.928 5.555-2.701 5.555-1.964 0-2.997-1.926-2.997-5.444 0-1.778.245-3 .818-3.926.515-.889 1.392-1.444 2.23-1.444M84.153 7.096l-4.02.225v.827h.304c1.153 0 1.402.376 1.402 2.104v6.351c0 1.73-.248 2.142-1.402 2.142H80v.864h6v-.864h-.433c-1.162 0-1.413-.376-1.413-2.142V7.096m-1.32-5.487c-.854 0-1.543.64-1.543 1.504 0 .789.69 1.465 1.516 1.465.854 0 1.516-.639 1.516-1.465 0-.827-.662-1.504-1.489-1.504M91.155 1.61l-4.018.187v.825h.3c1.157 0 1.404.375 1.404 2.137v11.85c0 1.763-.247 2.138-1.404 2.138H87v.862h6v-.862h-.44c-1.161 0-1.405-.375-1.405-2.138v-15M103 13.035c-.133-3.96-2.096-6.426-5.064-6.426C95.069 6.61 93 9.3 93 13.035c0 3.997 2.041 6.574 5.205 6.574 2.045 0 3.463-1.046 4.635-3.362l-.818-.41c-.954 1.942-1.908 2.726-3.381 2.726-2.154 0-3.077-1.643-3.105-5.528H103m-7.437-.934c.024-2.802.974-4.558 2.505-4.558 1.527 0 2.427 1.719 2.4 4.558h-4.905M106 9.61h4v4h-4zM112 6.61c.169 0 .333.042.492.129.16.086.285.21.374.37a1.011 1.011 0 0 1 .002.999.93.93 0 0 1-.37.37 1.013 1.013 0 0 1-.995 0 1.008 1.008 0 0 1-.368-1.369.923.923 0 0 1 .374-.37c.16-.087.324-.13.492-.13zm0 .166a.849.849 0 0 0-.409.108.775.775 0 0 0-.312.308.836.836 0 0 0 .722 1.25.84.84 0 0 0 .722-.419.841.841 0 0 0-.002-.83.77.77 0 0 0-.311-.31.85.85 0 0 0-.41-.107zm-.438 1.386V7.086h.37c.127 0 .219.01.275.03.057.02.102.054.136.104a.286.286 0 0 1-.034.363.334.334 0 0 1-.224.098.292.292 0 0 1 .091.057c.044.042.097.113.16.213l.13.21h-.212l-.096-.169c-.075-.133-.135-.216-.18-.25a.221.221 0 0 0-.14-.037h-.102v.457h-.174zm.174-.605h.212c.1 0 .17-.015.206-.045a.147.147 0 0 0 .056-.12.145.145 0 0 0-.027-.086.158.158 0 0 0-.074-.057.548.548 0 0 0-.175-.018h-.198v.326z"/>
    </g>
</svg>
