<?xml version="1.0" encoding="UTF-8"?>
<svg width="24px" height="24px" viewBox="0 0 24 24" version="1.1" xmlns="http://www.w3.org/2000/svg" xmlns:xlink="http://www.w3.org/1999/xlink">
    <!-- Generator: Sketch 46.2 (44496) - http://www.bohemiancoding.com/sketch -->
    <title>ic/build/grey600</title>
    <desc>Created with Sketch.</desc>
    <defs></defs>
    <g id="Symbols" stroke="none" stroke-width="1" fill="none" fill-rule="evenodd">
        <g id="ic/build/grey600">
            <g id="ic_build_24px">
                <polygon id="Shape" points="0 0 24 0 24 24 0 24"></polygon>
                <path d="M22.7,19 L13.6,9.9 C14.5,7.6 14,4.9 12.1,3 C10.1,1 7.1,0.6 4.7,1.7 L9,6 L6,9 L1.6,4.7 C0.4,7.1 0.9,10.1 2.9,12.1 C4.8,14 7.5,14.5 9.8,13.6 L18.9,22.7 C19.3,23.1 19.9,23.1 20.3,22.7 L22.6,20.4 C23.1,20 23.1,19.3 22.7,19 Z" id="Shape" fill="#FFFFFF" fill-rule="nonzero"></path>
            </g>
        </g>
    </g>
</svg>