<?xml version="1.0" encoding="UTF-8"?>
<svg width="16px" height="16px" viewBox="0 0 16 16" version="1.1" xmlns="http://www.w3.org/2000/svg" xmlns:xlink="http://www.w3.org/1999/xlink">
    <!-- Generator: Sketch 52.6 (67491) - http://www.bohemiancoding.com/sketch -->
    <title>Group 66 Copy 4</title>
    <desc>Created with Sketch.</desc>
    <g id="Policy-Violations" stroke="none" stroke-width="1" fill="none" fill-rule="evenodd">
        <g id="05.3-Asset-List---Action" transform="translate(-489.000000, -224.000000)">
            <g id="Group-66-Copy-4" transform="translate(489.000000, 224.000000)">
                <polygon id="Rectangle" fill="#E20074" points="16 0 16 16 0 16"></polygon>
                <g id="np_link_1880307_000000" transform="translate(8.000000, 8.000000)" fill="#FFFFFF">
                    <path d="M5.47669307,0.464108911 C4.8580396,-0.154544554 3.85485149,-0.154544554 3.23643564,0.464108911 L2.35253465,1.34777228 C2.42261584,1.34011426 2.4931604,1.33686594 2.56416832,1.33686594 C2.78786733,1.33686594 3.00530495,1.3723705 3.21139604,1.44082634 L3.7121703,0.940052079 C3.88412079,0.767869901 4.11292871,0.673188713 4.35636832,0.673188713 C4.59956436,0.673188713 4.82836634,0.767869901 5.00056634,0.940052079 C5.17251683,1.11200257 5.26719802,1.34034713 5.26719802,1.58401248 C5.26719802,1.82720851 5.17251683,2.0560105 5.00056634,2.22797287 L4.02060594,3.20793327 C3.84842376,3.38011545 3.61961584,3.47479663 3.37640792,3.47479663 C3.13274851,3.47479663 2.9044099,3.38011545 2.7322099,3.20793327 C2.64843564,3.12462832 2.58323168,3.02739267 2.53821386,2.92157881 C2.42659604,2.92784436 2.32217228,2.97425525 2.24234257,3.05385208 L1.98128317,3.31514317 C2.05275446,3.44741644 2.14441782,3.57225802 2.25603564,3.68433921 C2.87468911,4.30299267 3.87787723,4.30299267 4.49653069,3.68433921 L5.47672871,2.70390356 C6.09514455,2.08548772 6.09514455,1.08253723 5.47672871,0.464121386 L5.47669307,0.464108911 Z" id="Path"></path>
                    <path d="M3.38685149,4.60348515 C3.16268911,4.60348515 2.9431604,4.56728436 2.73243564,4.49581188 L2.2281802,5.00006733 C2.0562297,5.1722495 1.82765347,5.26693069 1.5842198,5.26693069 C1.34102376,5.26693069 1.11245347,5.1722495 0.940259406,5.00006733 C0.768077228,4.82811683 0.67339604,4.59954059 0.67339604,4.35610693 C0.67339604,4.11291089 0.768077228,3.88410891 0.940259406,3.71190891 L1.9202198,2.73194851 C2.09240198,2.55999802 2.32074653,2.46554851 2.5641802,2.46554851 C2.8078396,2.46554851 3.03617822,2.5602297 3.20837822,2.73194851 C3.29215248,2.81572277 3.35758812,2.91295248 3.40283762,3.01876634 C3.51491881,3.01296499 3.61957426,2.9660899 3.69917228,2.88649307 L3.95976832,2.62543366 C3.88829703,2.49269703 3.79640198,2.36808713 3.68455248,2.256 C3.06589901,1.63734653 2.06271089,1.63734653 1.44429505,2.256 L0.464334653,3.23643564 C-0.154556436,3.85508911 -0.154556436,4.85780198 0.464334653,5.47669307 C1.08298812,6.09534653 2.08570099,6.09534653 2.70435446,5.47669307 L3.5868297,4.59421782 C3.52092475,4.60025109 3.45455644,4.60373228 3.38749307,4.60373228 L3.38685149,4.60348515 Z" id="Path"></path>
                </g>
            </g>
        </g>
    </g>
</svg>