<?xml version="1.0" encoding="UTF-8"?>
<svg width="44px" height="48px" viewBox="0 0 44 48" version="1.1" xmlns="http://www.w3.org/2000/svg" xmlns:xlink="http://www.w3.org/1999/xlink">
    <!-- Generator: Sketch 47 (45396) - http://www.bohemiancoding.com/sketch -->
    <title>Vulnerabilities</title>
    <desc>Created with Sketch.</desc>
    <defs>
        <path d="M43.910137,30.2024348 L43.910137,21.8315347 L36.4440339,21.8315347 L36.4440339,15.8279491 L33.4901364,15.8279491 C33.1004925,14.3018315 32.3756263,12.8784942 31.3177334,11.6156456 L34.1040086,8.98295589 C36.5550391,10.089528 39.5089367,9.08785278 40.6801753,6.71842152 C41.8513025,4.40249706 40.7911917,1.61142475 38.2835328,0.504747314 C35.775874,-0.601930125 32.8786047,0.399850426 31.7073661,2.76928168 C31.0934939,4.03213027 31.0934939,5.50685773 31.7073661,6.71831622 L28.9210909,9.35100591 C24.7416781,6.45504725 19.0013939,6.45504725 14.8219811,9.35100591 L12.0357058,6.66481996 C13.206833,4.34889549 12.1467222,1.55782319 9.69568047,0.451145752 C7.2446499,-0.655426379 4.29075237,0.346248864 3.11951372,2.66218386 C1.94838653,4.97810833 3.00849738,7.76918063 5.4595391,8.87585807 C6.79605959,9.45589227 8.35681951,9.45589227 9.69556902,8.87585807 L12.4818442,11.5085478 C11.4783394,12.7713964 10.6990739,14.1947337 10.3094412,15.7208513 L7.30115556,15.7208513 L7.30115556,21.7223307 L0,21.726443 L0,30.15105 L3.34353025,30.15105 L3.34353025,24.9391668 L7.35532075,24.9391668 L7.35532075,32.4691859 L0.946887767,32.4671324 L0.946887767,40.8917394 L4.29041802,40.8917394 L4.29041802,35.62636 L7.35532075,35.62636 C7.63394827,38.049277 8.63745315,40.3117052 10.2526012,42.2080843 L7.13108132,42.2080843 L7.13108132,48 L10.4746116,48 L10.4746116,45.3673103 L14.4864021,45.3673103 C16.2691724,46.2106135 18.2761822,46.6836552 20.28074,46.6836552 L23.4566479,46.6836552 C25.4636577,46.6836552 27.4684384,46.2620141 29.2509859,45.3673103 L33.4303987,45.3673103 L33.4303987,48 L36.7739289,48 L36.7739289,42.2080843 L33.4303987,42.2080843 C35.1021638,40.3117052 36.1056687,38.049277 36.3842962,35.62636 L39.6168212,35.62636 L39.6168212,40.8917394 L42.9603515,40.8917394 L42.9603515,32.4671324 L36.4432538,32.4671324 L36.4432538,24.9908202 L40.6226666,24.9908202 L40.6226666,30.2027033 L43.910137,30.2024348 Z" id="path-1"></path>
    </defs>
    <g id="Compliance-Dashboard" stroke="none" stroke-width="1" fill="none" fill-rule="evenodd">
        <g id="Compliance_v15" transform="translate(-1011.000000, -542.000000)">
            <g id="Vulnerabilities" transform="translate(1011.000000, 542.000000)">
                <mask id="mask-2" fill="white">
                    <use xlink:href="#path-1"></use>
                </mask>
                <use id="Mask" fill="#645EC5" xlink:href="#path-1"></use>
                <polygon id="Path-13" fill="#FFFFFF" opacity="0.1" mask="url(#mask-2)" points="62.8412025 0.293339825 -37.3614899 51.9071433 62.8412025 51.9071433"></polygon>
            </g>
        </g>
    </g>
</svg>