<?xml version="1.0" encoding="UTF-8" standalone="no"?>
<svg width="25px" height="20px" viewBox="0 0 25 20" version="1.1" xmlns="http://www.w3.org/2000/svg" xmlns:xlink="http://www.w3.org/1999/xlink">
    <!-- Generator: Sketch 47 (45396) - http://www.bohemiancoding.com/sketch -->
    <title>Shape</title>
    <desc>Created with Sketch.</desc>
    <defs></defs>
    <g id="Prototype" stroke="none" stroke-width="1" fill="none" fill-rule="evenodd">
        <g id="8-Asset-Dashboard-1" transform="translate(-505.000000, -955.000000)" fill-rule="nonzero" fill="#FFB00D">
            <g id="Group-53" transform="translate(211.000000, 915.000000)">
                <g id="Group-27" transform="translate(254.000000, 6.000000)">
                    <path d="M62.5,34 L42.5,34 C41.125,34 40.0125,35.125 40.0125,36.5 L40,51.5 C40,52.875 41.125,54 42.5,54 L62.5,54 C63.875,54 65,52.875 65,51.5 L65,36.5 C65,35.125 63.875,34 62.5,34 Z M56.25,51.5 L42.5,51.5 L42.5,46.5 L56.25,46.5 L56.25,51.5 Z M56.25,45.25 L42.5,45.25 L42.5,40.25 L56.25,40.25 L56.25,45.25 Z M62.5,51.5 L57.5,51.5 L57.5,40.25 L62.5,40.25 L62.5,51.5 Z" id="Shape"></path>
                </g>
            </g>
        </g>
    </g>
</svg>